<mxfile host="app.diagrams.net" modified="2024-03-18T11:53:30.766Z" agent="Mozilla/5.0 (Windows NT 10.0; Win64; x64) AppleWebKit/537.36 (KHTML, like Gecko) Chrome/122.0.0.0 Safari/537.36 Edg/122.0.0.0" etag="Ms-6PpsV1YNYqNyzlx3P" version="24.0.7" type="github">
  <diagram name="第 1 页" id="lLN6T1itt0oRAdgbiE3_">
    <mxGraphModel dx="1002" dy="1834" grid="1" gridSize="10" guides="1" tooltips="1" connect="1" arrows="1" fold="1" page="1" pageScale="1" pageWidth="827" pageHeight="1169" math="0" shadow="0">
      <root>
        <mxCell id="0" />
        <mxCell id="1" parent="0" />
        <mxCell id="qu-cpctD1RH7N4tP-oTS-14" style="edgeStyle=elbowEdgeStyle;rounded=1;orthogonalLoop=1;jettySize=auto;html=1;exitX=1;exitY=0.5;exitDx=0;exitDy=0;spacingRight=0;" edge="1" parent="1" source="qu-cpctD1RH7N4tP-oTS-1">
          <mxGeometry relative="1" as="geometry">
            <mxPoint x="230" y="144" as="targetPoint" />
          </mxGeometry>
        </mxCell>
        <mxCell id="qu-cpctD1RH7N4tP-oTS-16" style="edgeStyle=elbowEdgeStyle;rounded=1;orthogonalLoop=1;jettySize=auto;html=1;exitX=1;exitY=0.5;exitDx=0;exitDy=0;spacingRight=0;" edge="1" parent="1" source="qu-cpctD1RH7N4tP-oTS-1">
          <mxGeometry relative="1" as="geometry">
            <mxPoint x="230" y="100" as="targetPoint" />
          </mxGeometry>
        </mxCell>
        <mxCell id="qu-cpctD1RH7N4tP-oTS-19" style="edgeStyle=elbowEdgeStyle;rounded=1;orthogonalLoop=1;jettySize=auto;html=1;spacingRight=0;" edge="1" parent="1" source="qu-cpctD1RH7N4tP-oTS-1">
          <mxGeometry relative="1" as="geometry">
            <mxPoint x="230" y="190" as="targetPoint" />
          </mxGeometry>
        </mxCell>
        <mxCell id="qu-cpctD1RH7N4tP-oTS-21" style="edgeStyle=elbowEdgeStyle;rounded=1;orthogonalLoop=1;jettySize=auto;html=1;exitX=1;exitY=0.5;exitDx=0;exitDy=0;spacingRight=0;" edge="1" parent="1" source="qu-cpctD1RH7N4tP-oTS-1">
          <mxGeometry relative="1" as="geometry">
            <mxPoint x="230" y="240" as="targetPoint" />
          </mxGeometry>
        </mxCell>
        <mxCell id="qu-cpctD1RH7N4tP-oTS-1" value="&lt;span style=&quot;font-size: 17px;&quot;&gt;&lt;b&gt;主流模型生成多轮对话&lt;/b&gt;&lt;/span&gt;" style="rounded=1;whiteSpace=wrap;html=1;spacingRight=0;" vertex="1" parent="1">
          <mxGeometry x="30" y="113.99" width="150" height="60" as="geometry" />
        </mxCell>
        <mxCell id="qu-cpctD1RH7N4tP-oTS-2" value="" style="shape=image;verticalLabelPosition=bottom;labelBackgroundColor=default;verticalAlign=top;aspect=fixed;imageAspect=0;image=data:image/jpeg,/9j/4AAQSkZJRgABAQEAeAB4AAD/2wBDAAMCAgMCAgMDAwMEAwMEBQgFBQQEBQoHBwYIDAoMDAsKCwsNDhIQDQ4RDgsLEBYQERMUFRUVDA8XGBYUGBIUFRT/2wBDAQMEBAUEBQkFBQkUDQsNFBQUFBQUFBQUFBQUFBQUFBQUFBQUFBQUFBQUFBQUFBQUFBQUFBQUFBQUFBQUFBQUFBT/wAARCANcA2EDASIAAhEBAxEB/8QAHwAAAQUBAQEBAQEAAAAAAAAAAAECAwQFBgcICQoL/8QAtRAAAgEDAwIEAwUFBAQAAAF9AQIDAAQRBRIhMUEGE1FhByJxFDKBkaEII0KxwRVS0fAkM2JyggkKFhcYGRolJicoKSo0NTY3ODk6Q0RFRkdISUpTVFVWV1hZWmNkZWZnaGlqc3R1dnd4eXqDhIWGh4iJipKTlJWWl5iZmqKjpKWmp6ipqrKztLW2t7i5usLDxMXGx8jJytLT1NXW19jZ2uHi4+Tl5ufo6erx8vP09fb3+Pn6/8QAHwEAAwEBAQEBAQEBAQAAAAAAAAECAwQFBgcICQoL/8QAtREAAgECBAQDBAcFBAQAAQJ3AAECAxEEBSExBhJBUQdhcRMiMoEIFEKRobHBCSMzUvAVYnLRChYkNOEl8RcYGRomJygpKjU2Nzg5OkNERUZHSElKU1RVVldYWVpjZGVmZ2hpanN0dXZ3eHl6goOEhYaHiImKkpOUlZaXmJmaoqOkpaanqKmqsrO0tba3uLm6wsPExcbHyMnK0tPU1dbX2Nna4uPk5ebn6Onq8vP09fb3+Pn6/9oADAMBAAIRAxEAPwD9UKKKK5wCiiigAooooAKKKKACiiigAooooAKKKKACiiigAooooAKKKKACiiigAooooAKKKKACiiigAooooAKKKKACiiigAooooAKKKKACiilWgAWlpGpAwB5OKYDmptVdU1ix0W1NxqF7b2NuOs1zKsaD8WIFeS+MP2xPgv4FeSPVfiNoQnjHMNrci5fp0xHuqXJLdlxjKWyPZKK+K/F3/BWH4PaDuTR7XXPEcoJH7i1ECexDORmvFPGH/BYjVp2dPDHw8tLePd8smrXzO23t8sYHP41lKtTj1OiOFqy6H6f0m4HkHNfi74q/4KifHLxCXSz1HSdBiddu3T9PVmHuHckg15F4k/ay+Mfiwt/afxL8Ryqw2tHDetbof+Ax7RWMsVBbHQsBU6s/fe81Oz06PzLu6htU/vTSBB+ZNcdrHx3+G+gFhqPj7w1ZFPvLNqsCkfhur+e/U/EGqa3cPNqOp3moSscs93cvKT9SxNZuxQThVHOeAKy+t+RvHL19qR+92q/ts/AvR2Kz/E/w+zKcFYLkzH/xwGuX1D/go5+z9Y5/4ryO4Pb7Pp90/wDKOvw7yeeeKac9O1T9al2No5fT6s/aG+/4Kl/Ae1yE1bWLvBx+50mXB/76xWY3/BWL4Irt2p4mbJwf+JWOB6/fr8cscUYqPrUyvqNI/Ypv+CsnwTLY8vxMBkDcdLH4n/WVcj/4KrfAt92661+LH97SmP8AJq/Gdvakp/WZh9SpH7YWf/BTr4A3S7n8T39t0+WbSLnv9FNb+n/8FEP2f7/bj4hW0BPa4srmP+cfFfhhSqx9SKf1mZP1Gn5n78aX+2T8EtYZBbfFDw2WYcLJfLEfyYiu10f4xeBvEG3+zfGOg35bkLb6lDIfyDV/OmCdxyd31pBGq8gDPrgVX1uSIeXw6SP6VbfULa8jDwTxzIejRuGH6Gp9wr+bzR/F2u+H2VtL1vUtOZTkG0vZYsf98sK9K8M/tgfGrwjtGn/EnXjGowI7u4+0r+UgarWLXVGby6X2Wfv0GHqKPyr8a/Cn/BVH406C0a6oND8RRKfm+0WZhkI9N0ZA/SvZ/Cv/AAWIXci+Jfhy6jo0mlXwYD3w4rWOJgzmlgasdtT9LaK+P/Bv/BUz4I+J2iTULzVfDMztt/4mVi2xfq6bhivoLwT8ffhx8RkDeGvG+h6wTj93b3qb+f8AZJB/StlUi+pyyo1I7xO+opA6sAQwI+tLWhiFFFFABRSrStTAbRRRSAKKKKACiiigAooooAKKKKACiiigAooooAKKKKACiiigAooooAKKKKACiiigAooooAKKKKACiiigAooooAKKKKACiiigAooooAKKKKACiiigAooooAKKKKACiiigAooooAKKKKACiiigAooooAKKKKACiiigAooooAKKKKACiiigAooooAKKKKACiiigAooJA68UjMEUsxCqOST0FAC0V4X8Wv23Pg58GTLBrXjC1vtTjGTpmjf6ZcZ9CEyFPsxFfGHxY/4K+6vfNPa/DrwbBp8PSPUvED+bL/vCFCFB9ixrKVWMN2dNPD1KmyP1BeVI42d3VUUZZmOAB6k15B8Tf2vfhF8IVkTxD440xLxf+XGyk+1XGcZx5ce4j8cV+LvxQ/ao+K/ximkPibxxqs9q5ybG0m+y23/fuPA7968n24bI/H3rklirfCj0aeX9Zs/Uj4mf8FgvD9n51v4D8E32qyA4S81yVbaL6+Wm5iPqRXyz8QP+Ckfx18eNKkHiSDwraSZAg0K1WNlB9JW3PkeoIr5ep1ckq9SXU744WlT2Rs+JvHHiTxtcvP4h8Q6rrcrNuLaheyTc+uGYisRQsfCIqD/ZWlzQ1ZOUnuzoskrJCUlFFSOwUUUoUt0BNAxKKQyKvVgPxqa1tZ72RY7aGS4duiwoXJ/ACizFciorrtJ+EHjvXiP7N8F+Ir7PTyNJuGH6JXXab+yL8atW2/Zvhf4mbd0Mlg0Y/wDH8Yq/Zy7C54rdnkdFe92/7Bvx+uOnw11JM/8APSWFf5vV+P8A4J7ftAOAf+FfTjJAGb23H4n56r2c+xn7WHc+c6K+j3/4J3ftAquT4AkJ6Hbf2x/9nqvL/wAE+f2gIcZ+Hd03U/JeW5/9qU/Zz7B7an/Mj54oFe7XH7DPx4tg5b4Za0QBkeX5T/yesHUP2UfjHpOftPwy8ToAcErp7N/Kl7OfYpVIPZnlOKK6rVvhT420F9mo+D9esmzj99pky/8Astc3c2dxZPsubea3b0miZP5io5Zdi00+pEtOqNJEZsB1J9jUlSaoKKKKBNhTdvz7h8rA5DLwwPsadRRdkHo/gb9o/wCKXw2kQ+HPH2vafEpyLZrxpofp5cm5f0r6Z+HP/BWj4n+GdkHinRdH8XwA4Myq1ncY+q5Qn/gNfD9GK1VWa2ZhOjTnuj9i/hr/AMFVvhB4yaO319dU8FXjHB/tC38+3B/66RZ4+qivqnwT8SvCnxG09L7wv4i0zXrVxuEmn3SS4+oByPxr+chqu6LrepeG7+O/0jUbvSb6M5W5sZ2hkB/3lINdccVL7RwTwEX8Lsf0obh60NX4p/Cf/gpl8Zvhw0MOqapbeN9MjGDb63GFmxx0nTDZ/wB7NfaXwh/4KsfC7xx5dr4ttr3wLqDAAyXS/aLQnufMQZUZ/vKK64YiE9DzqmEqw2Vz7ZWhqwPB/jzw58QNLi1Lw1rmn65YSKGWewuElXn12nj8a3q3v2OSzW4UUUUCCiiigAooooAKKKKACiiigAooooAKKKKACiiigAooooAKKKKACiiigAooooAKKKKACiiigAooooAKKKKACiiigAooooAKKKKACiiigAooooAKKKKACiiigAooooAKKKKACiiigAooooAKKKKACiiigAooooAKKKKACiiigAooooAKKK8/+LHx88A/A/SmvvGniWy0ZdpaO3d91xNgZwkS5Zunpik2lqyoxcnZI9ArnfHHxE8M/DXRpNW8U67YaBp0YJNxfzrEDjsuTlj7DJr82fjp/wAFbtY1ZbnTPhZoA0a3O5BrWtKJLgjkAxwg7UPfLFvpXwb44+Ifib4l63JrHirXr/X9SkOTcX0xkI9lHRR7KBXHPFRj8Op6VLAzlrPQ/Tr40f8ABWvwloAnsfhvoU/iq9U7V1PUg1rZA8jKr/rHH4L9a+DvjL+2J8WPjlLPH4h8V3UGkyZH9j6WTa2gHoVXl/q5JrxiiuCVac92etSw1OnqlqMC7egx3padSNWJ1MbRS7STgDJqWys59RvI7W1glurmQ7UhgjMjsfQKOTTSbdkS3bchp2QMV9A/DH9gv42/FLyZrLwXcaLp8gBF9rzizTB77GzIR9Fr6q+HP/BHni3n8c+PmJwDLZaDaBR9PNlyfx21vHD1JbI554ilDdn5pNheScCtXw/4V1vxddC20LR9Q1q4JAEenWkk5z6fKDjr3r9t/h3/AME9fgZ8OWjlh8GRa5exkH7Xrkr3bEjvtY7PyWvoHRvD2l+HbNLXStOtdNtlGFhs4ViQD0AUAV2RwX8zOGeYR+wj8PvA/wDwT3+PPjpUki8DSaLbt/y21u6jtcD12El/yWvb/Cv/AAR/8eahsbxF420XRx1aOxt5Lp/zbYK/WLaPSkrpjhKaOOWPqvbQ+A/Cv/BH/wAA2OxvEPjTxDrLj7y2aw2kZ9sbXP61634Z/wCCa3wC8Nqu/wAHy6zIv8eq6hPNn6qGC/pX1CtOreNGnHZHPLE1pbyPLvDv7MHwk8J4/sv4b+GbYjo39mRO3/fTKTXeab4X0fR0CWGlWVig6Lb2yRgf98gVq0VpypbIyc5S3Y3bg8UuO9LRVECUYpaKQDdtLilopgJ+tJ+FOopAM8sMMMAR7isvUvCei6wrLf6RY3wYYP2i2R8j8RWvRRypjUmtmeU+Iv2V/hD4q3HVPhz4euGbq4sURvzUA15X4l/4Jm/AXxD5jQ+GLrRHbJzpeoSxAfgSR+lfVVFQ6cHujRVakdpH54+Mv+CPPhO7Eknhbx1q+lyH7kOpQR3aD23Da1eCeN/+CT/xh8O+ZJod7oPiqFRkLDctbSn/AIDINuf+BV+xNFYSwtOXQ6o46tHrc/nz8cfsw/Fn4cs/9vfD7X7OJc5uI7Jp4cDv5ke5cfjXmMyvbytFMrRSqcFJBtYfUGv6WGGR049K8/8AH3wC+HfxShdPFXgzR9ZZus09ool+okADA/jXLLBfys6oZh/PE/nmpu41+v3xG/4JN/CfxPHNN4YvtX8H3jZKrFN9qtwef4JPmx9Gr5W+I3/BJ/4t+Flln8NXuj+MbdWO2KKU2lxt91k+XP0auSWGqR6HbDF0p9bHxTjNI3Sux8efBvx58L7iSHxX4R1fQTG20yXdqwj/AAcDafwPNcaG3jjn6VzuLW51RkpK6YUUUUFG34O8c+I/h5qqan4X17UPD2oKc/aNOuGhY/XBwfxFfZXwW/4Kv/ELwWYLLx3ptr4205AFN3Hi2vQvrkDY5+oBr4aorWNSUdjnnRhU+JH7wfBH9uT4S/HTybbSfEkek61IP+QRrOLafPHC5O1/+Ak179uBA5r+aNflIYfKw5DDgj8a+ivgZ+3h8W/gZ5FpZ66fEehR4H9k68WnjVfSN870/A49q7IYtbTR5tXAvemz90lpa+Q/gH/wUu+GHxea303X5m8BeIZCEFvqzg2srHjEdwPlH0fb+NfW9tPHcwpLFIssUihldCCrA9CCOorujJS+E8udOVN2kiVqbTqKszG0U+kalYBtFFFIAooooAKKKKACiiigAooooAKKKKACiiigAopVoamAlFFFIAooooAKKKKACiiigAooooAKKKKACiiigAooooAKKKKACiiigAooooAKKKKACiiigAooooAKKKKACiiigAooooAKKKKACiiigAopRWR4s8ZaH4F0K51nxBq1no2lW6lpbu9mWONQAT1J5PB4HJp9Lsa12NY8DJ4FcJ8Wvjl4H+Bug/2v408RWmi27A+VFI26e4I/hjiGWc/QcZ5r4M/aU/4KwfNc6H8H7JXHKN4m1GLI+sEJ6+zP6/dr88PGHjjxB8RNen1zxPrV9r2rznMl3fzNI/0GeFX2XAFcVTExjpHVnqUMDKprPRH23+0J/wAFWvFfixrnSvhhp/8AwimlElP7XvAJL+QcjKJykQI/3m9xXwvr/iTVvFmsXGra3qN1q2p3B3S3l7K0srn3ZjmqHHSkNedOrKpue3ChCkrRQlFFLWRskOorqvh18KfGPxa1ZdN8HeG9R8RXWcP9igLRx/78h+VB7sRX3D8Gf+CRfiHV/Jvfib4lh0KDIY6VoeJ7g+zTMNin/dDfWtoUZ1NkYVMRTp/Ez89oY2nmjijVpJJDtVEBLMfQAck19D/CH9gX4zfGLybiz8Mv4d0iXBGp+ISbRNp6FYyDI/4Lj3Ffrt8If2U/hb8DYIf+EV8JWMF/GMHVLtBcXjn1Mr5YH6YFetY/GvRhg1b32eRUzBvSmj4G+E//AASP8DeH/JuvHviLUPFt4oBNpZD7DaA+hwS7j6sM+lfXvw7+BPw/+E9qsHhHwhpOhBRjzLW2XzT9ZDlj+JrvcUV2xpwhsjzp1qlT4mN20q06itjAKKKKACiiigAooooAKKKKACiiigAooooAKKKKACiiigAooooAKKKKACiiigAooooAKKKKAK2oabaatavbXtrDeW0gw8M8YdG+qkYNfO/xX/4J9/BX4sNJcT+Fl8Pak5LG90FvsrEn1QDYf++a+kaKiUIy+JFxqSg7xZ+UHxe/4JG+L9BWa88AeJbXxLbqMrYamPs1z9FcZRvxxXxl8SPgv45+EN6bXxj4W1PQJM4WS6gIhf8A3ZBlW/A1/RZWfrnh/TPE2ny2Gr6fbanYzDbJbXkKyxuPdWBBrjng4P4dD0KePqR0nqfzX0V+x/xu/wCCW3wv+Ii3F94R87wHrD5IFlmSydv9qFj8v/ACPpX5+fG/9gf4t/BF7i6udCbxJoMWW/tbQwZ0C+rx43p+II964KmHnT1PTpYqnU0T1PnWn00qVYjBBBwQRyPanVx2OvfUPwz9RXufwE/bM+J/7Pc0UGha22o6ArAvoWrFp7Ur3Cc7oyfVCK8MoqoylB3iKUYyVpK5+1n7PH/BRf4afGyO103VrtfBXiiTCf2fqkoEMz9P3U/CnPo20896+q45FkUMjBlYZDKcg1/NRX0l+zz+3v8AE34AtbWCXx8VeGIyFOjavIziNR2hl5aPHYcr/smvQp4rpM8itgetM/cjNLXz9+zj+2z8OP2j7eK10u//ALE8TbMy6DqbKk+eMmJukq89V59QK+gM16MZKSujyJRlB2krC0jUZoamSNoooqQCiiigAooooAKKKKACiiigApVoWlamAjUlFFIAooooAKKKKACiiigAooooAKKKKACiiigAooooAKKKKACiiigAooooAKKKKACiiigAooooAKKKKACiiigAoopVoAFpWoakWmAlFOam0AFIcdyB+Ncb8VvjH4Q+CfhWbxB4x1q30iwQERrI2ZZ2A+5Eg+Z29gK/Jr9qT/go542+Nr32g+FHl8GeDHJTZbOVvrxPWWUH5Af7iY9yaxqVI01dnVRw86z02Pt79qD/AIKNeBvgaLrRPDbQ+M/GMYK/ZbWTNpbN/wBNpR3H9xcn1xX5UfG79orx7+0Jrraj4y12e8hVi1vpsJMdnbA9kiHGf9o5b3rzY5yc5P1oryqleVTTofQUcLTo7K7EpaSl69Oa5zsQlHbPau7+EfwN8c/HTXBpfgnw9da1Mp/fToNlvbjjmSU/KvUd8+1fpN+zv/wSl8KeDvsmr/E68Hi7V1xL/ZNvmPT4mxyrfxTfjgcdDXRToSqbHNWxNOj8TPzk+Dn7PHxC+PWqLaeC/Dd1qkO7bJfsPKtIemd8zYUdRwMn2r9FPgN/wSa8M+Ghb6n8T9WbxRqK4Y6Tp5aGxU5zhm4eTjg/dFfeWg+H9N8L6ZBpukWFtpmn26hIrW0iWONFAwAFUYFaLV6tPCwhq9WeJWx9SppDRGN4T8G6F4G0aDSfD2kWei6bCu2O1sYViQfgByfetnFFLXaebq9WFFFFABRRRQAUUUUAFFFFABRRRQAUUUmaAFopNw9ar32pWmmQNNeXUNpCoyZJ5Aij6kmlewyxRXi/jj9sv4K/D2V4dZ+I2hpcIu77Pa3H2mQ/QR7ua8S8Tf8ABWb4K6PFN/Zi63r0ygeWsFiYVf8A4E5GPyrN1YLdmsaNSWyPtakzX5sa5/wWa0iPI0f4bXsp5Aa81BEHbH3VPvXn+sf8FlPG8szf2d4C0O2iydv2i5lkYDtnGBUe3h3NlhKr6H6z0Zr8fbv/AILD/FWQDyPDHhaAj/pnO+f/ACJVW3/4LAfF2PIm0DwvMSuBiCZcH1+/7/pR7eA/qdU/Yylr8frf/gsR8UVY+b4T8NSZwRgTLj1/i711uk/8FmNbjjf+0/h3ZySZG02t8yj34INHt4B9Tqn6qUlfnXov/BZTwbOoGq+BtZs2x963mjlBOOTjIwM9q9R8Mf8ABVL4Ga9b7rzUtS0aYKpMd3YP1J5AK5HA/wDrZqlVg+pnLD1Y9D7DzS14x4T/AGxvgx41VP7M+IehmRyAIri5WF8np8r4r1jSde03XrVbnTb+2v7dukttKsin8QatTT6mDjKO6L9FJuHrRVki0UUUAFFFFABRRRQAUUUUAFNYZ6jIp1FAHzp8fP2EfhX8fFmu7zR/+Ee8QyA41nRlWGRie8iY2yfiM+9fnL8d/wDgmr8UvhK1zqGg2w8deH4wX+0aWhF1Guf44CcnA6lSwr9paQ1zVMPCp5M66WKqUtL3R/NRcQyWlxJBPG8M8Z2vHIpVlPoQeQajJr96fj1+xp8Mf2hraSTxBoiWOubSItc0wCC6U/7RAxIPZwfwr8x/2iP+Cb/xK+Cv2nU9DiPjrwvEC/2zToiLqFBz+8gyT07oSOO1eXVw0oK569LFwqaPRnybuo3UbWUlWGGU4IwRg+lJXHY7Uya2up7K5huLeaS3uIWDxyxMVZGHQgjkGvvb9l3/AIKia94JFn4e+KqzeJdEUBI9di+a+gHH+tGf3oHrw31r4Doq4VJU3oyKlGFZWkj+jb4e/Ezwv8VPDdvr3hTW7PW9KmAKz2sgbaf7rr1Rh/dYA11FfzufCH43eM/gX4mTXfBmuTaRdDAlhHzwXKgjKSxnhwffkdiK/V79lj/go94M+ODWmgeK/J8GeM5AEWOaTFlePj/ljI33WP8Acfn0LV61PERno9zxK+DnS1jqj7FpGpF606urc84ZRT6RqVgG0UUUgCiiigAooooAVaVqRaVqfQBtFFFIAooooAKKKKACiiigAooooAKKKKACiiigAooooAKKKKACiiigAooooAKKKKACiiigAooooAKKKKACiiigApVpKVaAHUmaRqq6lqlnoun3F9qF1DZWVuhkmuLiQJHGgGSzMTgADuaq4Fpq+Vf2sv2+vCH7OcU+h6WIfFXjvBC6XDL+5szjhrlx93t8g+Y+3Wvmb9sD/gptc60174R+EFy9nY5aK68Uj5ZZh0xbD+Bev7w8njAHU/nZNPJczSSyu0ssjF3kc5ZmPUk9Sa4KuJUdI7nr4fBOXvVNjtfi98aPGHx08WS+IfGWry6pfNlYYz8sNsmc+XEg4Rfpye5Jrh6KK8ttyd2e/GKirIKKK+oP2Xf2BfHn7Q8lvq94j+E/BZILareRHzblfSCM43f7xwvpmqhTlUdomdSpGCvJnzd4d8N6t4u1q20jQ9NutX1S6bZDZ2URlkc5xwB/PpX6J/s0/wDBKSa5Fpr3xhuvIjO2RPDOnS/MeOk8w6c/wp+LV9x/Af8AZm8A/s66GLHwhoywXUiKt1qdwfMu7kju8h7f7K4HtXqhHAFevSwsY6z1Z4NbHSl7tPRGH4N8E6D8PtBttE8N6RaaJpNuoWK0s4giL78dT6k5JrdAoHSkXNd6SWiPLbbeo6iiimAUUUUAFFFFABRRRQAUUUUAFFFJuGcZ5oAWk3D1rxT42ftjfCr4D2s3/CQ+KLWfVUjMiaRpzie6k9BtU4XJ/vEV+d3x0/4Kz+OvGU1xY/DzTovBWktuVb24C3F86kAZ/uRnr0z9awnWjA6aeHqVdlofq94u8e+G/AWmyah4j1zT9Es4xlpr64WIfqefwr5C+MP/AAVd+FXgNpbTwnDd+O9QQshezHkWoOOGErj5gT6CvyI8afEDxN8RNUbU/FGv6j4hv2P+v1G4aYr7Lk4A68CueXOa5ZYmT2R6UMDBfE7n2X8Sv+Cqvxo8befFoc2m+C7KTgLptuJZgMf89JM8+4Ar5f8AGHxV8ZfEO4M3ifxTq+vPnOL+8klUfRScD8BXNWdncalcJb2cEl1cOcLFChdz9AOa9N8I/su/Fvxs0f8AY/w88QXKyfdkexeNPrlgOK53KUjujCFLZWPLlwmQoVR7Cl/nX1PoP/BNH466tDHNceFvsCuM+XLdQB157gyCuutv+CY/xFsYfNvfDmo3TAcrBd23P0AfNQ0+qK9pD+ZHxU1MZh0zzX2NqH7HOp+D42bUfA2qRIrbTJdRu67uuMrxnFYTfDfRtPYo/h+1jccbTFk/jms3Ll3OuNHmV0z5SyCTg5or6vtvh7pmoTCK10CC5lPSOG1DN+QFereCf2E/GXxAhjlt/A9rpdlIVxc6si2w2n+IKfnP4CnGfM7RRFSCpK85JH597jSZr9atK/4JEeGb61V9d8TG0uiBvi0i2Hlj1AZzk/XAro9P/wCCQvwht0j+16x4ju2B+dlukj3DHQYTiutUZdjzXi6Sdrn45r69qf7d6/YfUv8AgkD8JLgAWWueJrM46tcxyfzQVw/iD/gjPoksbto/xFvoH/hS8sFkH5hx/KpdGaew1i6L6n5X+WvXHPr3rpPCfxI8WeBbpLjw94l1XRpoySjWd26AZGDxnHT2r7O8Yf8ABIP4oaKryaF4h0PX4x92Nme3kP13DaPzr58+IX7Ffxp+Gcc02r+A9Sms4s77vT4/tMQ685jzxxU8s0be0oz6pno/w5/4KffG/wAB+TFfarZ+LrOPgw6xAC7Dj/lomGzx719bfCr/AILBeBtc8i18d+G9Q8M3LcPdWI+1WwOOuBhwM+xr8mru0nsJnhuYZLeZDho5kKMp9CDyKi9qqNWUNDOeFpyWx/Rp8Mfjx8P/AIxadHeeD/Fem6yrruMEMwE6f70Zwy/iK77NfzKaZqV5od/Ffabd3FhexNujuLWVo5FPqGUgivrf4H/8FP8A4tfCkW9j4guI/Huix/L5eqfLdIOB8sw5OAP4s11QxC2Z51TBNK8Hc/bSlr5n/Z//AOCgXwo+Pi29nBq3/CMeIpODo+ssImLeiSfcf8DnnpX0urBgCDXVGSlsedKMou0kLRSUtUSFFFFABRRRQAUUUUAFJS0UAfMn7SX7Afw3/aBt7nUI7MeFPFj5ZdZ0uML5rH/ntF92QHueG96/K/8AaI/Y1+JH7N15LPr+mf2l4dL4h8QaaC9q3oH7xN7Nj2Jr966rahp9rq1lNZ3ttFeWk6mOWCdA8cikYKsp4IPoa5KuHjU20Z2UcVOlpuj+as/L14pK/Vf9qj/glpoviuK68Q/CPyfD+s8ySeH5nxZXB5J8pj/qmJ7fc5/hr8w/G3gnXvh14jutB8S6Rd6Jq9q22W0vIyrj0I7MD6jIrx6lGVP4j3qNenVWj1MVad3B7g5pit3p9YHUn0Ptr9kn/gpJ4i+ED2fhr4gNdeKfB67Y4rwtvvdPXgDBPMqAfwk5HY9q/V3wB8RPDvxQ8NWuv+F9XtdZ0m5GUuLV9wB6FWHVWBzkHmv5yK9W/Z7/AGlPGn7N3i5dZ8K3qm1mKi+0m5JNreIOzrnhvRxyM13UcS4aS2PNxODjNc0NGf0CUteH/szftbeCv2mtB87Rbkaf4gt4w19oN04FxB/tL/z0jz0cfiAeK9v3D1r1VJSV4ngShKD5ZLUWiiiqICkalopANWnUUUAFNalam0gCiiikAUUUUAFFFFABRRRQAUUUUAFFFFABRRRQAUUUUAFFFFABRSrStTAbRRRSAKKKKACiiigAooooAKKKKACiilWgAWlahuleUftEftJeEf2avBMmveJrrzLmXKafpNuw+030oH3UHZRxuc8KD6kAjairsqMXJ2idT8UPip4Y+Dfg298T+LNUh0vSbUcvIcvK+DiONRy7nHCj+QJr8av2tv24vFn7S2pT6ZbPNoHgSOTNvosb4a4x0kuCPvN3C/dGe55rzz9ob9pTxl+0n4wfW/FF5stYywsNIt2ItbGMn7qL3Y4GXPzNjsMAeV/jk15NbEOfux2PoMNg401zy3EXNLRRXEeomFbPg/wbrnxA8RWmh+HdLutY1W6bbHa2kZdz7nHQDuTwK9W/Zl/ZH8bftOa+ItEtm03w7BIFvfEFyn7iH1VBx5j/AOyvTPOK/Yv9nb9lnwN+zX4bXT/DWnrLqUi/6XrN0oa7uT3y+OFz0UcD36120cO6mr2OLEYuFFWWrPmX9k3/AIJj6P4D+xeKPimtv4h8QKFlh0QfPZWrdR5mR+9cH/gIx3r72ggS3hSOJVjjQBVVRgADoAO1SYFGK9mnTjTVonzdSrOs7zYtFFFamQUUUUAFFFFABRRRQAUUlFABRRkV8/fHT9uf4S/APzbTV9fXV9dUcaNouLicH/bIO2P/AIEwPtUyko7lRjKbtFXPoHNcz45+JnhP4a6W2o+KvEem+H7NRnzL+5SLd/ugnLH2Ga/J/wCN3/BWD4jeODPY+BrG28CaY2VFwMXV8w6Z3sNif8BXI9a+L/FHi/XPG2qy6n4h1e+1vUJSWe41CdpnyTk4LE4/CuSWJS+E9KngZS1m7H6x/GD/AIK4fDvwms1p4F0m88aXw+VbqYGztAfXLAuw+ij6ivhb4y/8FC/jR8ZDNbS+JG8L6RJ/zDvDwNsuM9DLnzG6d2r5soVCzAKCxJwAPX0rklUnLdnoU8LTp9B00sk8jO7NJJIcszHLMfUnvSQxPcSJFGrSSucKijLE+gFfV37OH/BOX4lfHQ22p6rD/wAIX4Vkw32/UYz9omXP/LKHr+LYFfqB8AP2IfhZ+z7awS6RoMWqa8qjzNb1QCe5Zu5XIxGM84UCqhRlMVTE06Om7Pym+Cn/AATz+MXxp+z3SaIPCmiSYJ1LXsw5U90iA3t+IH1r7w+EH/BJf4ZeDYYbjxlfX3jXUdv7yJ2NtaZ9kQ7iP95jX2h4l8W6J4L0x7/W9TtdKs4xzLcyBB9B6n2FfM/xG/b+8P6PJJa+EdJl16ZeBeXJMEGfULjcw/KtuWlS+NnHGpicS7Uloe7+Avgd8P8A4X2aW/hbwhpGixqB81vaoHOOhLEZJ9yau+Kvil4P8Cru1zxHpul8HEc1woc464XOT+Ar84fH37U3xJ+IXmR3evzabZPx9j0r/R0x6ZX5j+LGvJHZpJWkdtzsSWZuWJPck81g8XFaU0dcMrnPWtI/SHXv25vhfpLbba61LV+M7rKzO3r6uVrkLv8A4KH+GY2xbeFtWn4zmSWJPw6mvhBaWsHi6rO2OWUEtdT7p/4eGeHGbEnhHVAuevnRN/WoJvjX8PPjvuW88KW+mxQbXuNS1ryo0XnGAytliOOAc89K+HaTzmZPLLEpnO3PGfpWUsROStI3jgaVN3hdP1PtfUP2mvhN8J2aDwfoI8SalGMLepAtvDux1DFc9fRfxrz/AMQft6+PtSY/2daabo8eMBY4jKfzY/0r5mp24etR7aeydvQpYOlfmmuZ+Z7VcftifFW4bd/wkYj9o7aMD+VNj/bA+KsbBv8AhJS2OzW0ZB/8drxfcPWkZsdKn2k/5ma/V6P8iPoPTf24fibYuDLe2N6uclZrNR+GVwa7zw7/AMFCtZidU1vwxZ3Sd3s52iP5NuFfH6tnrTtw9apVqsdpESweHnvBH6OeD/24vh34jZYtQlvPD05wP9Nh3R/99oT+uK9u8P8AjDQvF1mlzo2r2epwMobdazq/B6ZwePxr8ddw9av6P4i1Lw5epeaXfT6ddL0mtZDG4/EGuqGNmviVzz6mVU5a03Y/VL4ifs//AA5+LEMkXizwfpesM4IM0kASX8JFw3618j/Ff/gkX4C8SRzXHgnXL7wxeNkrBdf6Tbk84HZlH51hfDv9uXxv4REVvrfk+KbFcDNz8lwB/wBdAOT7sDX1B8O/2y/h7458uC7vz4cv2wPI1LCoTwMLIPl798V2xq0a2+h5k8PisN7y1R+UXxn/AOCd/wAXvg/HcXh0b/hIdJj3H7ZpOZgFHdlA3L+Ir5lu7SexmaG5heCZeqSKQa/pptrqG+t457eaOeCQbkkjYMrD1BHWvCvj5+xT8Lf2grWZ9b0OPTtZk5Gr6Yohn3erYGH/ABGfenLDr7LCnjne1RH4DIxjkV1JV1OVZTgg+oPrX1f+zT/wUa+JfwHlt9N1a6k8b+FFwp0/U5SZ4V/6YzHJH0bIrb/aG/4Ji/EX4Rtdan4Xifxr4djBcPZpm6iUf34xyeO4yK+Op7OazuHgnieGeM4eORSGU+4rk96mzv8A3dePc/oB/Z5/bA+G/wC0lYr/AMIxq4t9ZVN02iahiK7j9SFz86jnlc++K9tr+ZzR9Yv/AA/qVtqOmXc+n6hbOJIbq2kMckbDoVYHIr9H/wBkj/gqdPp4svCvxkZrm34ig8VQrukX0+0oByP9tfxHeu2niE9JHm1sE4rmp6n6iUtZ+g67p3ibSLPVdJvrfUtNvIxNb3drIJIpUIyGVhwRV+uvc8v1FooopgFFFFABRRRQAUUUUAIa8q+Pn7M/gP8AaO8O/wBm+L9IWa5jUi01S3Pl3dq3YpIB0z/Ccg+lerUjUmlLRjUnF3R+G37Un7Cfjr9m28uNRWF/Evgrd+61y0jOYV7LcIM7D/tfdPqOlfNtf0q3VrDfW8tvcwpPbyqUkilUMjqRggg8EEdq/Pb9rr/gmHpviOK/8W/COCPStX+aa48NcLbXJ6kwH/lk/wDs/dPbbXk1sK170D2sPjVL3ah+WlFXNa0W/wDDeqXWmarZzadqFpIYp7W5QpJE46qwPQ1TrzGeundGz4R8Y614C8RWGveHtSuNJ1exkElvd2rlHQ/1B7g8EcGv1q/Yx/4KHaP8a47Twl48lttC8c48uC4/1drqZ/2SeElP9wnB/h9K/Hrcc06OZ4pFdGZHU5VlJBB7EH1relWlSemxz16Ea0bPc/paBHFFfl9+xV/wUml0X7B4H+Ld81xYfLDY+KJzl4egWO5P8S9MSdR/FnqP09trmG8t4ri3lSeCVQ8csbBlZSMggjqCO9ezTqRqK6PnKtGVF2kS0UUVqYBRRRQAjUi06kakAjUlFFSAUUUUAFFFFABRRRQAUUUUAFFFFABRRRQAUUUUAFKtC06mgCmtStTaACiiikAUUUUAFFFFABRRRQAUUUUAKtDdKSvnb9sH9sbw/wDst+FQiiHWPG2oRk6Zou/AHbzp8HKxA/ixGB3ITkoq7LjGU3yx3ND9rH9rjwt+y34P+03zJqviq+Rv7K0GOTEk7DjzJD/BEp6t36DJr8UPi38XvFPxu8a3vijxdqT6lqdwcKORFbxgnbFEv8CDPA/E5PNUfiJ8RPEPxX8Yaj4p8VanLq+uX775rmXjA6BEXoiKMAKOABXNmvHrVnUduh9Lh8LGhG73EpaSprOzuNQuobW1t5bq5ncRxQwqWd2JwAoHUn0rmOoi3V9u/sX/APBO/VvjFJZeMPiBFPovgsN5kFgQUutSweD/ALEX+11PbHWvaP2Kf+CbMPh1bLxx8XNPiu9Uws1j4amAeO27h7gfxP8A7HQd8ngforHGscaoihVUYCqMAe1erQwv2pnk4nG8t4UvvMrwp4R0fwP4fstD0DTrfStJsohFb2lsm1EUeg9fUnknk1rgUtJXqLTQ8N3buwpaKKYBRRRQAUUUUAFFFFABRSZHrXkHx8/ar+HX7OekvceLNbjGpMm630WzImvbj0xGPuqf7zYX3qZSUVdlRi5O0Uev5H1r5x/aF/bz+F37Pqz2V1qX/CSeJEBA0bR3WR0YdBK+dsfPqSfavzh/aS/4KSfEf43GfS/D8r+BPC0gZDZ6dMTdTqf+es4weR/CmB65r5GkkaRizEsxJJJOSSe5NedUxXSB6lLAt61D6h/aD/4KJfFP45faNPtdQ/4Q3w3LlTpmjOySSL6Sz/fbjqBtX2r5cdtzM5OWY5Zs8k+p96TaO9RM3pXG5Snqz14QjTVooUnk0lIqtIflBP0Ffbn7Ev8AwTz1D44SWvi3xzDNpvgbG+GFWMdxesD0XjhOvzfhVRi5OyCc4wjzS2PnD4Gfs4+Of2hfES6V4S0mS4VWHn38wKW1uvq7/wBBya/XD9mH/gnj8PvgJZ2upaxaweL/ABjtBk1G+iDQwt3EMZGF9NxyfpX0b4B+Hvh34X+GbPQPDGlW+kaVaoFSGBcZ/wBpj1Zj6nmvJvj3+1r4e+Ecc+m6V5WveKF+U2iv+6t+2ZWHcf3Rz64rt5IUVzVDx5VquKl7OktD2XxF4m0fwbpb3+sahbaXYx8Ga5kCKOCcDPU8Hgc18i/F/wDb4CNPp3w/s1cDK/2vfJkZ9Y4+/wBW/Kvlz4lfFnxP8WNYbUPEOpSXeCTDbD5YYFPZEHA+vU9zXHHJOcVyVcXKWkNEerh8shD3qur/AAN/xX4113x3qj6hr+q3Wq3TdJLmQtt9Ao6AfSsUikTt9Kc1cDblqz2YxUVZIbSYHpS0UigooprttXOMmgBpYtJt7DrQQfSiFNi8nJPJNSUARbT6UYPpUtNfpQAyijafSl6dQaAEpKNw3be/pS0AFNanUlADaX8AfrS7aMUDPRPhj8f/ABp8JpFGi6rI1iDltPuSZYG/4CTx9RX2V8Iv25PCvjZ7fTvE0X/CM6rIQokdt1q7ez/w/wDAvzr88MelJtz1ropV50tmcFfB0ay95an7R29xDewRzQyJPE4DI8ZDKwPQgivnD9pj9g34d/tGWtxeyWi+G/FZBaPWtOjALt/01TgOCep4b3r5C+Dv7SfjD4N3UMdjdf2lou797pd4xaPHcoeqN7jj1Br76+DH7SnhL4zQrDY3H9na0q5k0u6YCT3KHo4+nPqBXqQr06+ktGfPVsJWwj54arufin+0T+yT8Qv2a9YaHxHpTXGjSOVtdbsgXtZgPU/wHH8LYNeMBjjnpX9LHibwxpHjLRLvRtc0631XS7tDHPaXcYeNx7g/z7V+UH7aH/BNPU/hvcX/AIx+FtnJqvhPDT3WjKxe5sO7FB1kj6+rDvnGayqUHDWJ00MWqj5Z6M8Q/ZP/AG2PGX7L+tRWsUkmu+CZpd13oNxKdqg9XgY58t/b7p7jvX7MfAz9oTwT+0N4Th13whqyXS4xcWUpC3Nq/dJE7H36Hsa/nbZWXhlKkHBBHetTQPE2reFr6G90fU7zSryFxJHcWU7ROrDoQVI5FTCvKJVfCxrO60Z/S1mivyL/AGdf+CrnjDwSbXSvida/8Jhoa4j/ALWgAj1CIerdFl/HBPqa/Tj4Q/HLwT8dPDaa14L1221e1wPNhRts9uT/AAyxn5kP1/DNehTqxqbHj1cPOl8SO9oopM1scwtFFFABRRRQAUUUUAFJS0UAfOX7V37E/g39pvSpLySNdD8awRbbTXbdBubAO2Ocfxp/48Ox7H8bvjV8C/GH7P3jCTw54w0xrG55a3uU+a3u4wcCSJ/4h7dRnBANf0PVwfxm+CfhL48eC7nw14v0tNQspfmimXCz2snaSJ+qsP16EEcVw1sOqmq3O/D4qVHR6o/nepK98/au/Y/8V/su+J2S7STV/CN1IRp2vRphHHaOUD7kgHboeo9vBK8WcXB8rPoITjOPNFjs4r7N/Yl/b81b4F3Vj4Q8aXE2rfD+RhHDIcvPpOT95O7Rdynbkr3B+MqUHFOE3B3QVKcaseWR/SR4f8Qad4p0Wy1fSL2HUdMvYlnt7q3cPHIhHBBFaNfij+xV+3Bq/wCzbrkeia41xq3w9vJc3FmCXksWPWaAE/iydG7YNfsv4R8XaR468O2Gu6BqFvqukX0Qmt7u2bckinuD/MHkHg17dKqqi8z5qvh5UHrsbFFJS1ucoUUUUAFNalam1LAKKKKQBRRRQAUUUUAFFFFABRRRQAUUUUAFFFFACrS5ptFMBWoWkopAK1JRRQAUUUUAFFFFABRRSrQAlFK1eG/tZ/tS6D+y/wDD19VvAmo+Ir7dFpOjh8NcS/327rEvBZvoByRSk1FXZUYuT5UZP7YX7YGg/steEUO2PVfGWpIw0vSN2BxwZpscrEp/FjwO5H4m/EHx9r/xR8Yal4o8T6lLqut6hJ5k9xKfyVQOFVRgBRwABUvxF+IniH4seMdS8U+KNRk1PWtQk8yad+AP7qIvRUUcBRwBXNHpXjVqzqOy2Pp8Lh1Qjd7jaKWtrwX4J1v4ieJrDw94c0+bVNYvpBHBbQLkknufQDqSeAKwSvojrfdlfw34b1Txhrtlo2i2M+p6reSLDb2luu55HJwAB/Wv1/8A2J/2BNK+A1ra+LPGENvq/j6RA0YwHh00EfdjyOZOxf8AL1rqv2Mf2KdD/Zq8Ox6lqiQ6v48vYwbrUCu5bUHnyoMjgDu3Vj7V9Qd69nD4ZQXNLc+exWKdT3IbB/D60LTqK9A8wKKKKACiiigAooooAKSlpKACsPxp420D4d+HbvXvE2r2miaParumvLyUIi+3PUnsByTwAa+fP2qv29PA/wCzbbz6TbyJ4p8csv7vRbOQbLcno1zIM+WP9nlz6AHNfkZ8c/2jPHX7RPiM6r4y1iS6hjYm00yEmOzswe0UWcA4wCxyxxyTXJWxCp6Lc7qGEnV1loj7D/af/wCCq+q69Jd+H/g9A+kabkxv4mvIx9qm6j9xEeIx6M2W6cLX576zrWo+ItUudR1W9uNS1C5cyT3d3K0ssrHuzMSSar0m2vInVlUep7lOjCirQRCfl5pFPzGnSGoJpNq+lTFXNRJp8cCmQJJdTJHGu92OAo5JPpTIbeS7mWONSzscBR3r9Tv+Cen7Aa6Hb6d8SviJZxTXkiifSdHmTcIQRkSyqw+93A/E11QpuTsjGpUjTXNIwf2Ev+CdP9pR6X8QPifYn7IwW407Qp1Kl+hSSUf3T1Cnrxmv03kkstB00szQWNhax5JYrHHFGo/AAAD9Ki1zXdP8LaPc6jqV1DY2FrHvkmmcKiqPevzp/aO/ai1f4ualdaVpE82neEFOxbUEBrvBzvk4z/wHOOB3rrlKnhV5nm06dXMKl3pE9E/aQ/bMm1SW68M+Arh7azRmiutYXhpuxWL0X/b6ntjrXyDI7zyM8jtI7HczsSSxPcnvTVXb0p4U14tSrKq7yPqaOGhh48sBu3FFPrPm1iPzDFbI15MOCsZG1T/tN2qDdl3OKM+tVIYbq4XdNMsH/TOEc/maljsYo+cyOf8AacmmSTVHcLcmFvs7p5mMgSDg+3FTKu0YHSqGr6sdFtzcyW8k1uvLtD8zKPXHpQBU0fxEb2/m029g+x6lCN5iLZWRP7ynuKl+2HUtVktIc/ZrXBuJB/E/URg/qfwFUrp7PxNFZavpFzBJdWz/ALubnOCMMjD9ceookvtN+H+giW/uPLXl3ZuZJZDycDuSaAOgPyqSeABknoK4zWvi54c0aR4vtZvJ1JBS1G7BH+10rlbmPxX8VmBUHQ/DrHK+YSHlHrgct/Kt7Q/g14e0lR58T6nMDnfOSF/75HH51Vl1AqQ/HXR5JFD2dzGp7kqf0rsdB8YaR4kjDWV4jP8AxRP8rA+mKgk8C+H5FKnRLMD/AGYsVzmtfCHT5HW50WWTSr1DuVlJK5/mKQHou2mN6Vx3hnxVfafeRaL4nXyL1vlgvv8Allcfj2au0ZfmweD3FJjK80CXClZE3is+azvLXL2U4cD/AJd5+Qfo3UVrkU3bUgYEPiu2inW11GOTTbs8BZh+7f8A3X6VtqCwBHIIyMVBqmlWmsWrW93Ak8bf3h09xXEXdvrvw9Vrixd9X0RTue1kOZIR6qfT/OKoDvsH0o2n0rO8NeKdP8V2pmspcsoHmQtwyZ9R6e9a+PSgRBt20tSMuetJ5YoCxG1Psb660u8iurSeW2uYmDxzRMVZCD1BFLsHrUZUZNMVj7S/Z5/bcP8Ao2g/EOTsI4tcA/ACYev+0Px9a+zrO8t9StIrm1mjubaVQ8csTBldTyCCOCK/F/Ga90/Z5/ai1v4N30OnXzTav4UkbElm7Ze2yfvxE9Pdeh9jzXo0cU4+7U2PCxeWqfv0dH2O0/bp/wCCdOnfECx1Lx58M7D7H4tjBnvNDtgFh1EDlmiXgJNjnA4fHTPJ/Ji8s7jTrya1uoJLa5hcxyQzIUdGBwVZTyCD2Nf0l+D/ABlo/jzQLXWdDvo7/T7hcpLGfzBHUEdweRXx5+3v+wTbfHDT7nxv4HtILLx3axs91bRoFXV0UcA9AJgBgMfvdD0Brpq0lL3oHBh8S6b9lV6H44KxX6dxXTfD/wCI3if4V+I7XxB4Q1u70LVLdtyzWshXPqrDoynuCCDXP32n3WlXs9lfW8lpeW8jRTW8yFXjdThlYHkEHtUKttrh1i7o9d2ejP1o/Za/4KqaH4za08PfFmKDw1rDAJFr0AxZXDf9NB/yyY+v3ee1ff2nalaavZQXllcw3lpOgkint5BJG6noVYHBHuK/meBHbkHjmvon9l39tfx3+zNqEVtZ3T674SZ83Gg3khKY7tCx/wBW304PcGuyniekzyq2CT1pn7w0V49+zz+1N4C/aS0AXvhbUlTUokBu9GuyEu7Y98r/ABLn+Jcj+Vew16KkpK6PHlFxdpIKKKKZIUUUUAFFFFABRRRQBi+MPBuiePvDl9oPiHTbfV9IvozFcWlyu5HU/wAiOoI5BGRzX44/trfsJax+znqk/iPw4txrHw7uJPlumG6bTWJ4jnx1XsJO/Q89f2oqnq2k2WvaZdadqNrDfWF1G0U9tcIHjkQjBVlPBBFc1ajGqtdzpo15UXdbH8165Kg/w+tLX27+3R/wT/u/gvJd+OPANtNfeBGJkvLBcyTaST39Whz36r345r4i/WvCqU3TfKz6SnUjUjzRYV9RfsT/ALamq/szeJBpOrPNqXw+1CXdeWK5Z7NzgG4hGev95f4gPUA18u0VMZuDui5wVSPLLY/pF8K+KNJ8aeHtP13Q7+DU9Jv4Vntru3bckiEZBB/p1HQ1q1+K37Df7bV/+zf4iTw/4hlmv/h5qE2Z4Rl30+Q4HnxD+7/fXuORyOf2b0XWrDxJpNnqml3kN/p93Es8FzbuGSRGGQwI6givcpVVVXmfMV6EqErPYv0UmaWtzmEam0rUlSAUUUUgCiiigAooooAKKKKACiiigAooooAKKKKACiiigAooooAKKKKACiiigAoopVoASinNXHfFn4q+Hvgr4B1bxf4ovVstJ06Le3d5XPCxxr/E7HAAFDstWNJydkc/+0P+0H4Y/Zu+Hd14o8Rzb35isNNiYeffT4ysSD9S3RRyewP4Y/Gv4zeJPj18QNQ8XeKLnzr+6OIreMnybSEfdhiB6Kvr1JyTya2v2kP2iPEf7SnxHu/E+uStDaKWh03SlbMdjb7sqo7Fj1Zu59sAeU4rx69ZzdlsfTYXCqjHmluLRRWl4b8N6n4w16x0XRrKbUdUvpVgtrW3Xc8jnoB/j0HWuVK5236sm8HeD9Z+IHibT/D/AIe0+bVNYv5VhgtYFyzMTjJ9AOpJ4Ar9p/2L/wBjPSP2ZfC4vb/ytT8dahEv27UAoK24x/qYSeijuf4qq/sR/sY6T+zX4Uj1bVYYb/x/qMQN7eY3LaKefIiJ6AfxMPvEelfUuK9rD4f2fvS3PnsXi3VfJDYO/Sloor0DzAooooAKKKKACiiigApKWuC+NHxu8I/AXwZceJfF+px2FmmVhgXDT3cmMiKFOrufyHUkDmk5KKuxpOTsjrtc1zT/AA3pN3quq31vp2m2kZluLq6kEcUSDqzMTgAV+X37XH/BUO+8SfbfCnwfkk0zSjmKfxQwKXM/Yi2U8xqf+ejfMewXqfnb9q79tDxj+05rUtrcySaL4Lgl3Wfh+3l+Q46POwx5sn1+Vc8DvXzxXk1sU5aQ2Pcw+DUbSqbklxczXk8s88sk00rtJJJIxZnYnJZieSSe5qKlprV5+56oM2OlIZOM11Hw3+F/in4u+Krbw54Q0W51vV5zxDbrxGvd5GPCIO7MQK+5NQ/Zg8B/sI/C3/hPPid9j8cfEK8xDo2gNj7FDPjJbaw/ebM5ZmGOMAc5rSNNyVzGVRQkl1Z+e+s6XfaL5C3ts9rJOglSOZCrFD0bB7Ht9KyXJZsnr2ra8YeK9R8ceJtR17VpmuNQv5mmldvc8KPQAYAHYAV9Y/8ABPX9i6X4/wDi9fFniqyZfAWkTBtkgwNRmBB8oeqD+Ij2Het4RbdkTUmopylsep/8E3/2Fl8UJZ/FHx9p7f2WjrLoul3CDbdEf8t3B6p6AjnrX6ieINe07wrotzqmp3KWWn2qb5ZmBwqj6U5m0/w3pJZjBp2m2cPtHFDGo/IAAV+cn7UH7RF18YPEUun6VcSw+FLOQrBGrsv2oj/lq65wR12gjIB568ds6kcLDzPMpUp5hV7RQftQftGXHxm1hNO03da+GtPlcQqGObs5wJXH0HA7ZrwlVpwpVrwZzdSXMz6+lSjRgoQ2QirUeoahbaXYyXV3MsEEYy0jdBUGsaxaaDp8t7eyiKCPv3J9AO5riNH0+98f3setaxF5ekxtmysG+6w/vMO/9fpUlmvb3l/4zy8XmafojcKfuT3I+v8ACp/WuhtLSKzjWKGNYkUYCqMCpY02gAcADGBTqLiI5fOGTEEPHRqw77xh/YcgXVbKa2iPS5j+eP8AGuhXOaS5t47yBoZo1liYYZGGQaokZa3kN9bxz28qTQyDcrocginyDcOmfSvN77Tb34Y6gL6y8y48PSyfvrYHJgz3HtXfNq1ouknUTMv2QQ+d5meNuM5qhHAX9vpnw51++1VpStpNEDFp8Z/1k5J4A9AD+Gan8PeEbvxHfJr3ipRLc5zbacwJSBexYd29qd4W8PT+JtZbxTrMO3dxYWb9I07OR6nr+P0rvUXacUwE24UYH5UqA56U+lFTcBKKdto20XGUdV0i11qye0vIhNC3Y9VPqD2NU9NnudFlTT76Rrm1PFtet972jf3x0PfFbW2o7i2juYWjkXcjdQaQ0SNxx3ptV7ZWtsQOxcdEduuPQ1Z20CYlIyhhg07bRtoEeceLfAdxpsza34akktb2PLSW0XAf1Kj+netLwJ8SrbxMBZXi/Y9UTgo3CyY9M9/auzkX5RXn/jz4cjWlbUtLH2bVY/nwp2iXH/s3vVAeh4zSEV5v8PPiW1/KNJ1r9zqCnZHM/G8jja3o3869KYfhQBGw3U1lx0qQrTWoGR0U5qbQB6b8D/jtrvwT8Qx3NjK0+kzOPtunOxKTLxkgfwuAOGH05r9LPhr8UNB+LHhmHWtBuxPbt8ssL4EsDd1dex/nX5Dc16B8G/jDrfwb8UxarpMu+FyFu7NyfLuI+6n0PXB7GuuhiHSdnseVjMFHER5o6SPoH/goL+wjF8a9JuPHvgayjh8d2MW66solCjVolHTt++AHyn+IfKexr8eJoZLaV4pkaKWNijo4IKsDggjsc1/R78MPihofxY8Lwa1odyssbDbNAxHmwP3Vx2P86/O7/gpx+xQtr9p+LvgbTFSA5fxFYWy4CsT/AMfSj0OfnA9m9a7qsFJc8Dx8PXlGXsavQ/NOM9qnVu1UxkYqeNt1cEl1PVOi8G+Ntd+H/iGz13w5qt1o+rWb+ZDd2shR1Pp7g9x0Nfqv+yD/AMFMNF+JbWPhX4nSW/h/xS22G31cYjsr5jwA3aKQ/wDfJzxjpX5GU9aulWlTehjWoQrLXc/phVhIoZSGVhkEcgilr8ef2O/+Ci2v/BhrLwr47kuPEngnKxw3Bbfd6avA+Un/AFkY/uE5GPlPY/rX4O8Z6J8QPDtjr/hzU7bWNHvY/Mgu7V9yOP6EdCDyDwa9inVjUWh8/WoyovXY3KKSlrY5wooooAKKKKACiiigCK6t4ru3kgmjWaGRSjxyKGVlIwQQeoIr8nv2+v2BG+GMl98Rfh3ZM/hKRjLqejwjJ01ieZIx3hJ6j+DP93p+s1R3EEd1C8UsayxSKUeN1BVlIwQQeoIrCrSjVjZm9GtKjLmR/NRRX3F/wUA/YXl+Dl9d/EHwNavN4Gupd19YRhmbSZWJ+Yf9MGJwD/CSAeCK+HeK+fqU3Tlys+mpVI1Y80Qr7W/YB/bfl+CGrW/gXxjdtL4DvZdttcSNuOlSseo/6ZMTyP4TyO4PxTSdORRCbg7odSnGrHlkf0rWt5DfW0NxbzRzwTIJI5Y2DK6kZDAjqCD1qVq/L3/gmv8AtpHR7qx+EvjjUSbCdhF4f1G4b/UOTxauT/Cx+4exO3oRj9Qq92FRVI8yPl61J0ZcrG0U+karsYjaKKKQBRRRQAUUUUAFFFFABRRRQAUUUUAOam0q0uaYDaKVqSkAUUq0NTASiiikAUUUq0AJRT6RjTsBU1TVLTQ9NutQ1C5is7G1jaae4mYKkaKCWZiegABNfiJ+3J+1xeftOfEL7Ppcktv4B0aRl0q1bg3MnRrqQf3j0UfwqfUmvfP+Cm37Yp8Q6lefB7wheE6XZuB4hvoH4uJhz9kUjqi/x+rDb2NfndtrzcRW+xE97BYay9pLcRadSYpfftXnHsWsS2lrNqF1FbW0TT3EziOOKMbmdicBQO5Jr9kP2Cf2Kbb4C+H4fFniq1jn8e6jEGCOuRpkTDPlLkffP8R/D6+bf8E4v2JP+EVs7H4qeOdPH9sXUYl0XTLqPm1jYDFw6npIw+73UHPU1+hqivXwuH5ffkeDjcU5P2UHp1F74xS0UV6Z44UUUUAFFFFABRRRQAlFBr5i/bM/ba0H9mHQX02wEGteP7yLdZ6WWzHbqek1xjkL6KOW7YHNTKSirsuMZTfLFHVftUftaeEf2XfCYu9VlXUvEl2jf2ZoMEgE1ww43sf4IgerkewyeK/Fj45fHzxj+0J40m8R+LtSa5m+ZbWziJW2soif9XChPyjpknJYjJJNc38QPiD4g+KXi6/8TeKNUm1jW75t011OecD7qqOiqo4CjgCuerw61d1X5H0OHw8aKu9wooqS3tZ724it7aGSeeVgkcUalmdj0AA6muU7CKvoX9lj9ibxv+09qcV5bw/2F4Ljk23XiC8Q7WA6rbof9a/0+UHqex+m/wBkP/gmDLqS2Pi34wwNDbkia28KqcM46g3TDoD/AM8xz6ntX6aabplnounwWNhbQ2VlboI4beBAkcajgBVHAA9BXfRw7fvSPNr41Q92G55X8M/g/wDDf9kP4Z3v9jWsWlaZZwNc6lq12Q1zdbASXlkwCx9FGAM4AGa/Fn9rb9o7U/2lPi5qXiCdpotGt3a30mykbIt7cHjgcbm+8fc+1fWP/BUj9rb+2ta/4VR4YvW+xaa5fW5YyCs0/GyH6J94+pIHavzv0PR73xHq1rpthbyXl9dSrDFDECXd2IAAA6kk1dWafurZBhqbi+ee7PV/2V/2eNW/aS+Kun+G7NWh05SJtRvMZWCEHk9PvHoPev3u8B+CNH+G3hHS/DWg2i2Wk6bAsEEKdlA6n1J6k141+xV+zHa/s1/Ce0sJ0WTxLqKLc6ncbcMHIB8rPoucfhVf9r74+D4b+Gv+Ec0W4x4j1OP5pEPNrAeC/wDvN0H4ntWseWhD2kzGrKWMqqjT2PHv2zf2hG8TahL4H8P3QbR7WTGoXEf/AC8TD/lmD3Re/qw9q+UNtSOzSsXYkk8nJpu2vDqVHVk5SPrsPh44amoREUVFfXUOn2ktzcyLDBGpd3boAKnry/xBeXHxL8TNoVjI6aFYvuvbiM/6xv7oP8vxNRE2kN0+1ufilrkerXsbxeHrN9ttatwJmB5J9fc/hXpvlhUVVG1VGAoGABUVlYxafaxW1vGIoIl2pGvRRVipvdisMx7UU8CnBR3OKoTIpJIrdN80ixJnG5yAKkXa65Q7h6jmvmb42fEQ+K9b/syzlLaVYsVGOksnQt9Owrj/AA54413wpMr6bqM0SKc+S7boz7bTxXZGg3G7ZwSxUYy5T7EuYY7iCSGVFkjkBVlYZBBrmofC6ra2+jMxk02OQzMrd1BBWP6Z/lXJ+Afjpp3iNks9XVdN1AnAfP7mQ+xPQ+xr1JSuCwIxjrWEouDszeE4zV0xmAvQYAqK6vILFQ1zPHboeN0rhR+teU/Ej47W+iSS6foAjvL1SVe7bDRRn0UfxEevSvCdY8Qalr12bq/vZ7uc9GkfOPYDoPwreFByV2YzxEIuy1PtNVDLkHI9adtryz4FfEBvEWlnR7+Xff2a5jZjzJF0/McD6Yr1jFc0k4OzOqDUldEe2jbT6Km5pYZto20+ii4WIJoBNGVPB7H0qO3m3ExOcTKOR6j1q3VHUreRkFxbAfaYuVH94d1/Gi4WLNFRWV5HqFsk8OQjcFT1Vh1U+4NT0XIsN201lqWkpiPPviN8OU11f7U05PL1OIZZV484Af8AoQ9aT4b+OJNSVdK1Nit9H8scknBkx/Cf9oV6F7dq8/8AiF4HN0Tq+mKY76L55Fj4L46MPcVVwO/ZcZ701q5jwL4uPiSz8m6O2/hHz543j+9j+ddM2aYhKay8cU6ikMiwfSnpmnUUwO/+CPxh1b4L+M4dWsC01lIQl7YlsJcRk8g+hHUHsfav098K+KtB+K3g2HUtPkh1PR9RhKSRSAEEMMPHIp78kFTX5B17b+y58ep/g74wW2v7iQ+GNRcLeRY3CNuiyge2ecdQPYV24ev7N8stmePjsH7Ze0h8S/E+af29P2Q7/wDZu+Ik2q6dbo3gTXrmSTS5IST9lb7xtnz0IB+XsQPY18uxtsNf0RfHH4Q+HP2kvhHqPhXU3Wew1KFZrO9hIbyZQMxTIR1wSPqCR3r8APiV8P8AWPhX441nwrr1sbXVdLuXtpV/hbacBlPdWGCD6Gt6tPld1szjwtZ1I2lujGVsiniqUMh3BT0PFXF7EdK4XGx3Eqmvfv2T/wBr7xR+y94oMlozat4VvHU6jokshCOM/wCsiP8ABIB36Hoc14BRSjNwd4kTjGcWpbH9Enwd+M/hX47eCrPxR4S1JL6wmGJYicTW0mBmORf4WH69RkGu5r+fb9nn9ozxf+zd40i13wvd5gcgX2mTMfs97HnlXUd+uGHINftp+zt+0f4T/aU8Dxa/4auRHcxbUv8AS5mHn2Up/hYd1ODtYcMPfIHuUa6qLXc+fxGGdF3Wx6tRRRXUcQUUUUAFFFFABRRRQBV1LTbXV7C5sr23ju7O5jaGa3mQPHIjDDKyngggkEGvxm/by/Yruv2ePEh8TeGLaa6+H2pSnYQGc6ZMST5Ln+4eNjE89Dz1/aOsbxl4R0jx94X1Pw9r1jHqWj6jA1vc2swysiMOR7HuD1BANc1aiqsfM6qFeVGV+h/N704NFfQf7Y37Jurfsv8Aj4wIs174O1N2bR9SYZJUDJgkPaRc/wDAhyO+PnyvAlFxdmfSwmqkeZDo5HhkV42ZHU5DKcEH1B7Gv14/4J3/ALbA+MmiQ/D/AMaXufHGmw4tLyY4OqQKOp9ZVA+b+8Pm/vV+QtaXhvxJqfg/X9P1vRr2XTtV0+Zbi2uoTho5FOQRWlKo6croyr0VWjZn9JNI1fPP7GP7V+mftPfDtbiV4bXxfparFq+nocfN0WZB/cfn6HI9CfoU17kZKSuj5icHTlyyEooooICiiigAooooAKKKKACiiigAooooAVqSiigAooooAKKKKAFWnU1adVIBGpFp1JmgAJxXx9/wUO/a+HwC8Cjwt4ZvFTx7r0LCF4z82n2x+Vrg+jHlU9wT/DXvn7QPxu0P9nz4W6v4z1074rVfLtrRWAe7uGz5cK+7EdewBPavwQ+KHxJ1z4v+Pta8YeJLk3Or6pOZZOfkiXosSDsijCgegrkxFbkXKtz0cHh/ay5nsjmJJHmkeSR2eRyWZmJJYnqST1NLTKeK8bzPpEwr7h/4J0/sY/8AC3tfh+IfjCzz4N0ubNjaTDjUbhSOSD1iQ9fU4HTNeIfsh/syap+058UoNHRZrXw3Y7bjWNRQY8qLPEanp5j4IA7cntX7peFfCuleCvDmnaDollHp+k6dAttbW0K4VEUYA+vqepPNd+Foc753seZjsT7Nckd2aaIERVVQqgYCjoKeBRSLmvbPnR1FFFABRRRQAUUUUAFJmj8K+W/24P2ztO/Zl8KDS9IaDUPiBqkRNjZP8yWsZyPtEo9Afur/ABEegNZzmoK8i4QlUkoxKP7cH7cWmfs26K/h7w81vqvxEvosxWzHdHp0ZHE8w9TztTv1Py9fxl8UeJtW8aeIL7XNe1C41XV76Vprm8un3SSuepJ/IY6AAAdKXxH4k1Txfr1/rWt382p6tfTNPdXly+6SWRjkkn+nSsxq8OtWdR+R9HQoRorTcSiiuy+EXwg8U/HDxxZeFfCWnPf6lcHLt0jgjyN0sjdFQZ6n6DJIFYJNuyOltRV2ZfgXwLrvxK8UWPh3w1pk+r6xevshtbcZJ9ST2A7k8Cv2E/Y3/YD8Pfs92dp4k8Spb+IPH7pu+0Mm6DT8/wAEIP8AF6yHn0x39D/ZT/ZF8LfsveFfs9hGup+J7yNf7S1yVf3kp67Ix/BGDnAHJ4Jzxj3jAr06OHUfelueHicW5+5DYQcCvBP21P2kIP2afgvf65EVfxBqBNjpELDINwyk7yM/dUAk/gO9e+cYyelfhn/wUO/aWb9oL43XNpplw0nhPw2XsNPXbgSuDiab/gTDA/2VFdFWfLHTcww1L2s9dkfMWoahd65qVzfXs0l3e3UjTTTSElpHY5JPuSa/Rn/gk9+zS+qa5dfFfXLBWsbMNa6OZl+9Ocb5QD/dBIB9T7V8K/BP4X6l8ZPidoHhDSo2a61K5WMsFyI4wcu59AFya/oV+HPgPSvhj4J0bwxoduttpmmW6wRIo6gDlj6knJJ9TXNSg6krvZHqYur7OFluxPiR470/4Y+C9R8Q6i37i0j+WNfvSOeFQe5OK/K/xt4v1Px94lv9c1e4a4vryQyNk5Ceir6KBwB7V9A/tufFz/hLPF0Xg/Tp86ZozFrkxtxJdEYI/wCADI+pavmXbt6VwY2t7SXItkerlWF9jT9pJay/IhMf1pNtTVm+JNbtvDOjz6jdZKRDIUHlmPRfxrzos9t7nMfELXruNbbQNHOdY1Ibdy/8sYv4nPpxnn61t+F/DNr4V0mKxtF4UZkkI5kc9WNZHw/8P3KrPr+qgtq+ot5nP/LGL+FB6f8A6q7Xbx0qnK2hLRFt9qTZ7Gpse1FK5NiHZ7GvOfjd48HhDw39itZManqAMa4PMcfRm+vYfjXot9eQ6bZzXVy4it4UMkkjdFUDJNfG3jvxdN408SXWpy7ljkO2GNj9yMcKPy/ma6sPT55XeyOTEVPZxst2YIPWim5Cn5ugPINbVjo9trmyOwulhuzwba5O0Mf9l+nXscH616r0PG5eZmLtrsrf4reIbfwq+hfay0LfKJznzVTugPpV3SfgP8Qtcv4rTT/CGqXsspAQwQblOehz0x717d4L/wCCafxs8VahAlzokGj6cXAlvLubbtXuVQgFjjtxmpfLLcdnB72Pli3s576QpBDJMygsQik4UdSfQD1pjQmPhiCf9k5r7o8c/wDBPv4spdy+GPC2iwaT4Xh2lrhpPMl1AgZMlzIo55ziNfkXtk815dff8E+/ihalxHPoNw6nBQXhRvpgrSdSK3ZpGjKb9zU+e/DGvXHhfXbPU7ViJLdwxXPDr0Kn2IJr7M0XVoPEGk2uoWzbobiMSKR7/wD1818y/E39n/xz8H44Z/E+j/ZrKZvLjvIJRLEX67dw6HHrXf8A7N3io3Nne6BM+Wt/9It8nqrH5gPof51yYiKnHmj0OzDc1OXJNWPZ/L+tBj+tTbRRtrzT1CDZ7GmlT6VYpGWjmL6FfZ9aNtSsD6UKD6U0ybX1OZumPh3WFmOV06+fbLnpHKejfQ9638YJpuqabFq2nz2k4zHKu0/0NY3hHUZLq1ksLsn7fZMYnJ/jUcK35VadxWNukK07FJTIG4PpSMpPqKkWhjVCPOfFmhyeGtWj1vTRsQv86AHCsev4Guz0vVItWsYrmH7rDkHse4q5eWsV9ayQTKHjkGCpritKSbwrq0to6s9scuMclk9R7jvQFjtaGpsTCSNJFIZHGVZehHqKc1MkbRRRQIKKKKAPtD9iH4+MzL8P9duSQ2W0qaZumPvQ89urL+I9K5X/AIKnfswxeO/AK/E/QLLOvaEAupCFRm4szxvIHLMh2/8AAc+lfOPhH7T/AMJVo32OZ7a6+2Q+XNH96Nt4+YV+s+j3Nj488IvDdxJdW13C9rdwSDKuCpV1I9CCfzr1cNVVSLoy3Wx85jqP1aoq8NnufzZ4aNgQSrqcg9wa+g9D+EsP7QXw7vvEngKxWPxn4dgDeIvCtt1uoQMDULRe4OMSRD7rYK8MFHP/ALWnwJuf2efjfr/hZopBpnm/atMuHHE1rJ8yYPcryh91Nc58BvjJrHwE+Kug+NdGcmfT5x59vuwtzbtxLE3sy5+hAPasuXpI6G2480DkmUrwRg9wRikr9T/2mP2J/DP7UXgWz+MHwZFtaa3q1qt/JpykR2+phhk8dIrgHIPZiCGwfmr8udX0m90HVLvTtStJrDULSVobi1uUKSRSKcFWU8gg9qxqUpQeuxNKrGqtNyuteg/BP42eKfgN46tPE/hW++zXUPyz28nMF3FnJilX+JTj6g4IINefLT1NZJuLujZq65Wfv1+zR+0v4X/aW8Cw61oky2+qQoianpEjfvbOUjkY/iQnO1+hHvkD2Cv54vgv8ZvE3wJ8e2HirwveNbXtudksJ5iuYiRuikXupx+BwR0r9wP2af2kvDX7S3gGLXtFkW2v4cR6jpcjZltJfQ+qnGVbuPcEV7mHxCqqz3Pn8ThnRfNHY9dooorsOAKKKKACiiigAooooA4j4yfCHw98cfh/qfhHxLbefp96nyyKB5lvKB8k0ZPRlPI/EHgmvwi+P3wL8Q/s8/ErUvCPiCEloW8yzvVXEd7bknZMnscYI7EEHpX9CdfP/wC2V+y3p37TnwzksUWO18V6aGn0fUGGNsmOYnP/ADzfAB9CAe1cWJo+0jdbo78LiPZStLY/CWitHxF4d1Lwjr2oaLrFlNp2q6fO1tdWlwu14pFOCpFZua8I+k3V0eg/An416/8As/8AxK0vxh4em/f2r7bm0ZiI7yA/fifHYjoexANfvT8IvipoXxp+H2jeMPDtws+m6lCJNu4b4ZBw8TjsytkH6ehr+dUKu0nd82QAv9a+vP8AgnX+1YfgT8Sh4Y1688vwT4kmWKZ5W+SyusYSb2U8K3sQe1d2GrezfK9mebjMP7SPOt0fs+1NojkEiqykMrDIZehHrT69Y+eGUU5qbUgFFFFABRRRQAUUUUAFFFFABRRRQAUUUUAFKtJRQA7NFNpVqrgK1RSypDGzyMqIoyzMcAAdSTUp96+D/wDgp5+1W/w18IJ8MvDV8YfEmv25fUp4Gw9pYnI2gjo0uCv+6GPcVlUkoLmZrTpupJRR8cf8FBP2ppP2hvis+l6NdM3gjw3K9vp6pkJdzfdluj65Pyp/sjP8Rr5Z579aAoUAAYA4orxJzc3dn1MIKnFRiFdH8O/h/rvxS8aaV4W8OWT32r6lMIYY1HAz1dj2VRyT2ArnVUswCqzEkAKoyTz0r9i/+Cc37JH/AApfwQvjXxLZhfGevQKyRSDLWFqeVjHozcFvwFaUaLqyt0MsRWVGN+p71+zP+z7of7N/wv0/wtpIWa7x5+o6htw93ckDc59h0UdgB716uaaop9fQRSirI+YlJybctxB1paKKokKKKKACiiigAoorzX9oH48eHf2dvhvqHi3xDMGWIeXZ2KsBLe3BHyRJ9TyT/CAT2pSaSuyoxcnZHH/teftW6F+y78P2vZ/L1DxVqCtHpGkb8GV+hlfH3Ykzknv90cnj8OvHfjnXPiV4u1PxN4k1CXVNa1KYzXFxKepPRVHRVAwAo4AAFbXxo+MfiT47/EHUvF3ie68+/u3xHCpPlWsQ+5DGD0VR+J6nJNcNivAr1nVemx9NhsN7CN3uNoorsPhL8J/Enxs8eab4S8K2LX2qXrgE9I4I8/NLI38KKOp/DqQKwinJ2R0Sajqy38Ffgr4p+Pfjuy8K+FLI3N7MQ01w4Pk2kWcNLKw6KP1OAK/b79mH9mHwt+zL4Gj0fRYVudWuFD6lrEiATXcn/sqD+Fe3ueaX9l79mPw5+zH8P4tC0hFu9UuMS6nqzIBJdy4/MIOdq9AD6kmvZWr16NH2au9z57E4l1XyrYQ9KSijIXrxXSeefMv/AAUI+PzfAX9nnVZtOuxbeJdeP9laZtb51Lj95Kv+4m457ErX4VO7Mxd2LMxyWbqTX2H/AMFRPjcfij+0RP4csrgTaH4PjOnoFJw102DcN7kEKmf9k183/B34d3XxY+JnhvwjabxNq97Ha+Yke8oCRufHoBk+2M1wVJc0j6TC0/Z0rvqfpT/wST/Z9Gg+E9V+KWq2ai91b/QtLaRQWS3U/vHX03Nx9E96+2vjV8RIvhf8OtU1tmH2tU8m0Rj9+ZuFH4ck+wNbfgHwZYfDvwZo3hvTARY6ZbJbRZABKqMZOABk/SvLfi3rkPibUjpzRRz2NoxUq6hld+5wfTp+dPEVfqlDXdnLh6bx2K/ur8j8676ea+vJ7q4dpJ5pGkkdjksxOST+JqDbXunxi+D9vY2cmvaLF5EUZ3XVqg+UD++o7c4yPf8ALxIx/KK+bjPn1PueWxBtrg761HjrxcsDDdpOlNl/7ssvYH2z+g966XxhrDaLpYWAeZfXTiC3jAySx7j6ZqXw3oa6DpMVsCHl+9LIB99zyT/SrJe5obdvFFSbaNtBNiOipNtI22NWd22IoLMx6ADqaq5R4r+0l4ufT9DtdCt32y3zeZMF6+Up4B+rfyrm/gD+zbe/GuGfUJNVj0rSYJfJkZYjJKxGCcDgd+ufwrltQW9+NPxcis7AtJJqV4trbDrtiBwD7AD5vzr9Gvhn8MtK+E/haHQ9K3NCjF3lYDc7E5JJH1rvnU+r0lFfEzho0frFW8tkee+D/wBj/wCGvhRY3utKl165XrNqUhZT052DAr6p+EP7M2kfZYb19EstC0/AMUNtaok0i44OcfKP1rf+DfwpXWJItd1iHdZqwa1t3HEpH8bD+76ete/hfbH0rOnTnP3qjOfGYuFFulQS9TK0Hwvpfhm38nTbOO1XuUUAn6nvWt/OjFLXakkrI+flJyd5DvvYzXD/ABA+Gtt4oja6tQlvqSrw2Plk9m9/eu4oODUygpqzLpVJ0ZKcHqfDP7Q3wnl8efDHxJ4VuIWj1LyftFqGHInj+ZMfXkfjX5YeCvEEvg3xbp+osShgm2XEZ6lT8rgj2z+lf0HeMfBNn4ot9zKI7yPmObH6H1FfiX+2V8IpPhF8ctdsmtmtrPUmOoWq4wuJCfMUewcHp2Irmpx9neD2Z7ssTHEpVI6SW57dFIlxGssbB0cBlZehB5FPK1578B/FA8QeCYLeR91zp5+yybjk4H3CfqvH4V6UU46VwyXI2j1oNTSkittpGWrBjPpTWX61HMXZkG2m4qfbTdtDYW0Iq5jxJayaXqEGs2yZK/urhAPvKe+P0/Kur20y4tVuYXiddyOpU/jVRYJaFSGVbiFJY+UcbgaVqp6TC1g8ti+cKd0Zb0/zir7KfSrM2rELUnNSbaQjFWZjKp6hZtcLDNDtF3bSCWFiP4h/CfY9OavUKvzA1SFYg1LS4vDtxpN3bbh4Y8QRmbT5XBP2a4B/fWjnsVbJX2IpTzXrXw58A2vxL+FHi/wrOdhkukvLKQ/8u9wUOHU9huXn2JrxHRrq8huL3R9WiNvrelytbXcLcEMpxu/H/PWojJSbQSVkaVLtpdtLitDMTbRtpaSgDpPhu0cfj7w80v8AqlvYy358friv0R+FviI6LrP2Kd8W938nzdFk7fn0/KvzRs7p7G6huIjtlhdZEb0YHIP5ivufwj4hi8T+HdN1i3b5biJZDzyrdx+BBrmnOVGrGrHoTUpRr0pU5dTB/wCCnf7On/C3Pg4PF2lWzzeIvCYacJCoLz2rY81OmTtxuA9m9a/GFhj6dq/pJ8K6tD4u8Lp9pRJi6GC4jYZDcYOR6Efzr8H/ANsP4GSfs9/HrxD4YjidNHlkN/pbv/FbSklVz32nK/hX0FS1RKrHZnzOGk4Xoz3R9hf8Ej/2jngvdT+D+s3O+GYSalobO33GABngH1H7wD2f1r6P/bU/YT0T9pHSZ/EOgLBovxGtYsQ3mNsOoKo4huMd+MLJ1XocjgfjL8NfiBqXwp+IHh/xdpDsmo6PeR3UW3o208qfZhlT9a/op+G/j3Tfih4D0HxXpEgk07V7OO8hOeQGGSp9wcg+4rop2qQ5JHNilKjUVWGh/O74q8J6x4F8RahoGv6dPpWsafKYLqzuE2vG4/mD1BHBBBGQaylr9t/23P2LdK/aY8LNq+jxQad8QtOiP2K+ICLeIOfs8x9D/Cx+6fYkV+LPiTw5qfhDXr/RNasZ9M1WxmaC5s7lNskUinBUivMrUnTZ6WHrqvG63KIbFenfs+/tA+I/2dfiFZeJ9BmLorbL2wcnyruEkbkcD2HB6g4Iry2lrCMnF3R1Siqi5ZH9D/wT+NHh348fD/TvFfhq5WW1uVxNAzAyW0oA3ROB0I/UEHvXe1+Dn7IX7VWs/sw/EJL6MyXvhe/ZY9W0xT/rE7SJ2Ei9Qe/IPBr9x/BPjTR/iF4U0zxHoF9FqOj6lAtxbXMRyGU+voQcgjqCCD0r3qFdVFbqfNYjDuhLyN2ikzS11HGFFFFABRRRQAUlLRQB8C/8FLv2QD8QdBm+KXhKxaTxLpUA/ta0t0y17aqP9YABzJGPzUY/hFfk37jpX9LjqrqVYblIwQRkGvxp/wCCjf7Jh+BnxA/4THw3ZlPBHiOdnMUanZYXhyzxY6BG5Zf+BDsK8nFUPtxPZweI09nN+h8c4o+vSgUV5Z65+wH/AATN/amPxY8AnwB4iu9/irw3Cq20sr5a8shhUb3ZOFPttPrX27X86Pwm+KOufBn4haL4w8Oz+TqemTiUISdkydHif1VlJU/Wv30+Cnxc0T45fDfRfGOgSbrLUIQzwsQXt5QBvib/AGlbIP5969jDVeeNnueBjKHs5c8dmd01NpTSV1nnBRRRSAKKKKACiiigAooooAKKKKACiiigAooooAVaWm0UwOF+Ofxe0b4F/C3XvGmtyKLXTYC0cGcPczN8sUK+7OQPYZPQV+AfxJ+IWsfFfx1rXi7xBP8AaNY1e4a5nYElEz92NB2VFwoHoK+uf+CoX7Sp+J3xOT4eaJdF/DnhWRheNG3y3OoEYf6iIHYP9ovXxDXk4mrzS5VsfRYOh7OPO92FKAW4AzSV6B8Cfg7rXx4+JukeD9DjPn3kmZ7jBK28A5kkb2A/M4FccU27I721FXZ9M/8ABNn9k8/F3x0PH3iWy3+EdAmBtopV+W+vF5AweqJwT74HrX7BqoXAHTGK5X4W/DfRfhH4C0bwl4ftlttL0yBYowo5c/xOx7sxySfeurxX0VGmqcUj5fEVvbTb6C0UUVucwUUUUAFFFFABRSZoZtoz2oAx/GHi7SPAfhnUvEGvX8Wm6PpsDXN1dTHCxoo5PuegAHJJAHJr8L/2u/2oNY/ad+JUurzM9n4d08vb6NpvQQwk8yP6yPgEntgDtz7V/wAFIP2w2+L3iqX4d+FL1v8AhDNFuNt7PESBqV2hwee8UZ4HZmyecLXxDXi4qvzPljsfQ4LDezXtJ7sSiip7GwutVvraysreW7vbmVYYLeFC7yOxAVVA6kk156Tbsj02zS8G+Dda+IXinTPDnh6wk1PWdSmEFtbRDJZj3PoB1JPAGa/cX9j39lHRf2X/AACtovlaj4s1BVk1bVgv+sYDiKPPIiXt6nk9cDi/2Ef2L7L9nPwmniDxBbxXPxC1WEG5l4YafEQCLeM+v99h1PA4HP1jXs0KPs1d7nz2LxPtHyQ2HUtNWnV1nmCV5t+0d8WLb4I/BTxZ40uMFtMsna3j3BTJO3yRKPcuy16S1fml/wAFjPi8YNH8H/DS0nAe7lbWdQRTz5aZjgB9ixlOP9gVnUlyxOihT9pUUT8xdS1K71zULrUb6Zp728me4nkc5LSOxZiT7kmv0B/4JC/BUa78Qtf+I96ubfQ4TYWXHBnlX5z/AMBTj/gdfnxHlmCgFmJwB6mv3v8A2HPgyfgh+zj4X0eeERarfQ/2nqHr50wDYPH8K7V/4DXHSXPM9rFS9nS9dD2Hxnro8P6DcXAYCdhshGernp+XX8K+fcGSQliWJOST1PvXffFbXDfaxHYI2YrUZb0Lnt+A/ma4bGDmvn8zxHtq3Ktons5Th/Y0Od7yK9zaR31tJbTrvimVo3U9CCCCK+KtW086Vq17ZNx9lmkhJP8AssRX2zdXkGl2st5cuI4LdDLIzdlAzXwV8UfFBjtNYv4srcajPIIF7/vGJz+X865MOexJnP6PIfFXiifVmG7T7AtBaDHDv0Z/8+1dZt9BR8MPA17qn9l+H9PjD3TL82TwD1ZifQV9B2n7Lsf2X/SdddbnHSK3G3P4nNbSqRhuyUup8+bT6UbT6V2Hj/4d6j8PNUjtr3E1vMC0F1GMJIBjI56EZ5Fctt5q1JSV0OxEq9zXFfHbVm8L/CS+vVZo7nU7ldMtAP4vl3TMPZU2jPrIK7+G3eeRIo0aSVyFVF6kk4A/OvDf24NeVfiTo/gK0dWtvCdkkE+zkPezYluG+oJRP+AVvQjzVVcxrS5Yabm7+wb8Oo9R8Uat4tuot0WmR/Z7XIyPNkzlh7qoP/fVfoZ8L/AZ8beIB56/8Su0Ie4JyN/pH+Pf2rwb9l/4dzeEPhT4e0yKHfqWpAXciBeWeXGwfguz9a++/A/hWLwf4fttPjAMmPMnkH8chxk/Tt9BWtnWqOT2OXEV/quHUI/EzcghS3jWONAiKMBVGAB6VJRRXorY+VvqFFFLtoASinbaNooAYa+JP+Cp/wAFx4y+DNn43soA+peF5w07qPmNnKQrj/gLbG9hmvt3A9ayfF3hfT/G3hfVfD+qRCfTtUtZLO4jIzlHQqf55/CpaLpz5JKR+BHwW8XDwr40iikbbaagBbyZPAbOUP58fjX2Fq+jvps0BIJhuoEuYWx1Rhn8wcg/Svir4n/D/UfhP8RPEfhLUgUvtGvXtS/QsFOUkHsy7WH1r7u+BN8nx0/Z102aJkbxDoMslnIO5x8wU+gYHI9xXnYlWtPofW4Sab5TlmWmOvFWZInikaORGSRThlYYII6jFMZa4t9UegVWXHam7assnFMMf1pisQ7aVVqTZ9aXZ9aBGXqdsW2TIMyRn8x6U8YljVxnB5rTitZbiTy4onlZv4UUsT+AqpHb+S7xHgA/dbgiqTJaKjLtFM27qsTR7Qe2KmsdIu7/AFK0sYoHNzdukcKEEbi5AU/TnrWt0RYoFMUgXmvqOy/ZH0hdPRb/AFu+a+2/M8KoIw2OgBBJAPvXhvxQ+GuofDDXVsrpxc20wL210q4WRQehHZhxke9TGpGTsiOV7nuH7Nulww+AXvRGPOuLuQM3qFwAP1NeH/tseB5/BXiTRPidpcO63mK6frEaDG7r5Tn6jK59QK9v/Zk1KO68C3VmHzNa3jlk9FdVIP6Gu4+JHgex+JXgXWvDd+oa31C2aHd3jbGUce4bB/CuNT9nWuzVxUo2Ph2zu4dQtYrm2cSwSqHRl6EGrMNvJcTRwxqWkkYIq+pJwBXmvwr1K80DVtV8D6sjRajpU0iorf7LFXX8Dz9Gr1GxvPsN/a3IXeYJkl2+u1gcfpXpyVtjjjqe4Qfsm3TaSkkviGKPUmXcYfs5MSnH3S2c+2cfhXNeBfhLY6lq/iLQNdEtvrNgV8topPl2njco/iGSp+hr6c8P+KtP8VaFBq1jcI9vKm4jcMxnHzK3oQa+Yvij8Rmsfi/eaz4enid7eFbUyY3RykLhgcHkZ7j0ry6dSrUk4M7qkYQtM8w1ixbSdUu7F2DPbTPCzepU4zXtP7NvxGGn3Evhi+kVYbhvNsndsBZP4k/4F1Hv9a8Pu7ia/up7m5fzLiZ2kkb1ZiST+ZpIZmt5EkjYpIhBVlOCCOhFelKHPDlZw81ndH6cfCrWjp+uNZSEiG6GBns46fmM182f8Fbvgu3i74Q6R8QbG28y+8L3Hl3br977HMQpP0WTZ9AzGqfwr/aQs2t7W38RTmz1GBlK3u3McmDwW9Dxz2P419c+M7XR/jp8GNT06C5gvdJ8QafLbechDL8ylc/8Bb9RXThKrhSlTqdDw8fS5MRCvDZ7n87DZ79a/WL/AIJB/HL/AISLwDr/AMM9SuM3mhS/b9OEh5a1lY71HssnP/bSvyy8W+Hbvwf4o1bQdQBS+0y7ls5lbruRypP44zXq/wCxj8Yj8D/2jfCHiGaYw6XNcjT9R/u/Z5vkYkdwpIb8K76cuVmVen7Sm4n9A1fH37ev7E9v+0F4ek8V+FraOD4habEdoUBRqcSjiFz03gfcY/7p4xj6/jcSKrAhlYZDDoacRuFd0oqasz52nUlSlzRP5q76xudLvriyvYJLW8t3aKaCVSrxuDgqQehBGKgr9Tf+ClP7GI8T2N38V/BOnZ1e2TzNesbZMm6jA/4+VUfxqB82Oo56gk/lluHODkV4lSm4Ssz6ijVVaCkgr7F/4J9ftmyfAXxYnhDxTeOfAWrzAb5DkabcNgecPRDwHH/AuoOfjrNJxnNEJOnLmRdSnGrHkkf0tW08V1BHPDIs0Mih0kQhlZSMggjqCKlr84v+CZP7YrazbWvwg8Y3ytfW6n/hH7+4fBmjAybUk9WUZKeoBXsK/RzNfQU6iqR5kfLVaTozcGLRRRWpiFFFFABRRRQAVx/xa+F+ifGb4ea34P8AENuLjS9UgMT8fNE3VJFPZlYBgfUV2FJSaurMadndH87Xxr+Eet/Av4m634L1+PbeafKRHMFIS5hPMcyf7LLg+xyO1cPX7Lf8FI/2Wf8AhdXwx/4S7QLPzfGXhmJpVSMfPeWf3pIfdl5dffcP4q/Gmvn69L2UvI+mw1ZVoXe4q19rf8Eyf2mP+FU/FA+A9cvPL8MeKplSBpW+S1v8ARt7LIPkPvtJr4pWpIZWhkV0do3U7ldDhlYcgg+oNZU5unJSRtVpqrBxP6Vs5UEUV80/sD/tJJ+0L8FbQahOreLNACafqqM3zykKPLnx6OB+atX0ua91SUldHys4uEnFiUUUUyAooooAKKKKACiiigAooooAKKKKACilWlamA2vn/wDbc/aJj/Z0+COpanZzKvifVM6fo0R5PnMOZceka5bPqFHevf2bapPavxB/4KBftDj49/Ha9TTbky+FvDm/TNM2n5JWDfvpx/vuMA/3UWuetU5InZhaPtaivsj5mmmlup5Z55XnnlcySSyHLOxOSxPqTzTKdtFBWvFZ9ON/P8BzX7L/APBNv9mIfBr4Vr4r1u18vxZ4mjWdhIvz2tqeY4h6E8MfqK+Cf+Cff7NjfH740W95qlsZPCfhxkvb/cPlmkzmKH8SMn2HvX7cxxrFGqIAqKNoVRgAV6mDpfbZ42OrW/dx+Y/1paSlr1TxQooooAKKKKACiikoADXwZ/wUu/bAPw38PyfDDwjf+X4n1aH/AIm1xCTvsbR1+4rA/LJIPyXnuK+jv2rv2jNM/Zo+Et/4luvLudYmJtdI09m5ubog7cjOdi/eY9gPUivwf8WeLNW8c+JNT1/XLyTUNX1Kdrm5uZSSzuxyfoB0A7AAdq8/FVuRcsdz1MFh/aS55bIyOnHH4dKSiivFPowzjrxX6qf8E2f2LF8HabZ/FjxtYD+3r2LzNE0+4T/jyhYcXDA/8tHHT+6vPU8fPv8AwTl/ZB/4Xb4xHjnxTZF/A+hz/uoJlympXa4ITHeNOC3qcL64/YnaFUKowBwAK9TDUWvfZ4uOxLX7qPzCnAUUtehY8IKKKKYCMQBk1+A37cnxOf4tftS+ONYD7rGzuf7KshnjyYBsyPYsHb/gVfuN8aPGEXw/+E/i7xLNIsMek6Vc3hZjjlImIH1JwPxr+cW4vJ9SvJ7q5kaSeeRpZGY5JZjkn8ya5K8uh7GXw+KZ6v8Aso/Dpvir+0N4G8O+V51tPqMc10vbyYz5j59sLj8a/oLvLpNNsZJmGIoYmc49AK/Jj/gj38P/AO2PjB4r8VzQq0Oi6aLWKQg8Sztzg/7qH8xX3h+2F8YLz4Z+DbGx0iSJNW1WbaGkQOEiXlzg8dSo59TURl7KlKZpXi8RiIUUUL26fUr2a6k5kmcyEDnknNY2veIdN8M2xn1O9hsowM/vmwT9B1NfLGpfHjxtqyFG1c2sbDBFrCkRx9QM/rXGXt9dapcG4vbma7mP/LSZyx/WvkXTc25SZ9tFKKUVsj034q/GmXxor6VpKvbaLnLyNw9x06jsvtXgd6v9veN7a3PNtpsfmuOxkP3R/L8q6hmEasxIVVBJJ9AKxvCVoWt7nUGXEl/M0pyOdoOFH5V0xiorQJH0L+y5DC3ijWXbCyLZgJ3ODIM/0r6V579a+J/AfjK98B+IoNWswJWUeXLCxwssZ6qfT2PYgV9EWv7SHhCayE0xvra4xk25t95B9AwODXDXpylK6KjoV/2lY4G8A2rycyrfoIvqVbcPyFecfBP4S6f8QodSvdUluIrS2dYo47dwpZiMkkkHgDH51kfFn4rTfEa+gigt2s9JtGbyInOXdj1d/Q9gBnHPrXd/sw+JoIX1XRJTsnmZbmHJ4YAbWH16GtIxdOmVudn/AMKl8FfDuCbxPJDcldHie/Z7i4LKoiUvkjHPT86/KDwba33xy+PsEl4zTXWuaq93cu2W2qzmRz9Aufyr9IP2+fH7eB/2c9Yt45PJu9cuItKjweSjZeXH/AEI/wCBV8e/sB+EDqvi/wAR+JHgaQ2Fslrb5XP72ZuQPcIp/wC+q9HC3jRlVe5yVrOrGB+mnwD8Ipe6rNrRTbZ2I8i3Ttvx/Rf5ivfVWsLwP4bXwr4XsLAAeZHGDKR3kPLH881vLXo0ocsT5jFVvbVXJbdBdtG2lorU4xNtLRRQAUjUtFADKKc1NoA/Mb/grN8ETpviDw/8UdOtsW2oKulaq0Y4WdQTBI3+8gK/8AFeF/sC/E7/AIQ34sz+GbyQpp3iSLyVDHhLpMtGR9RuX3yK/W749fCWy+OHwj8S+DL4Ko1K1ZbedhnyLhfmhkH+64U+4yO9fgZqVjrHgHxZNb3Kyabrui3pikHR4LiJ+f1FYVKaqQcX1PbwNXRLqj9ZfiH8IYfFEh1HTmS21FuXT7qS/X0NeUXXwn8U2rYbSJpRnGYSG/ka9i+B/wAULT4v/DPRvEdu482ePy7qPHKTqAJF/Pn6EV3gJyea+a550/dfQ+lunqj5Z/4Vd4pf7uiXX4gD+taFj8EfFl4FJsY7UH/n4mVSPwGa+l9x7GnbiepzS9vIZ4NY/s56nIw+26xaW691hjeQ/mcCs74jfCGHwPocGoQ6jPegyiKRXiCAZBIIwT6V9FV5l+0BqC2/g21gJHmXF4uxcc4VWLH9R+dEasnJITMr9m3TbTdrN98rXqeXGueqIcnI+pA59qP2lfBVq+hxeJLO3WLUIJljuWjGPNjbIBPqQQOfQ/SvLvA/jy/8A6v9vswsyOnlTW8mdsi5zjjoQec10PxJ+NN3460ldMgsBptmZFklLS+a8hU5AzgALnnFbWlzXJujzBR9qtQy9+Du7V9G31rpmteGfBnj+3EcT6H9na64x+5Rwkin3U5I9ia+bWY2twW6JJw3pn1rT/4SDU4NCl0eO9lXSpZhO9qD8jOB1P6fkK0aciGz7+Z0mjV42DxuAyMpyGU8gj1FeA/tbtb/APCK6KmVF0b0sgyN2zyzuP0ztry/wX8fPFfgnS106GW31CxjGIY76MuYh6KwIOPYnArk/G3jXVvH2rnUdXuTPKBsjjAwkS/3VHb+ZpQpvmuRc1fg34+HgHxZHJcMw0u7AguwD90E/K//AAEn8ia+v4pFmiSSN1eNlDK6HIYEcEe1fBBUK1e4fAf4vLp7ReG9bnP2YnbZ3TniMn/lmx9Ceh7Zp16bfvIqMlex8/8A7cnhF/hl8atF8d2ERjtNWAlnCjCmaP5ZVPb5kKtVu21KLULOG4hO6OVFdWHcEZFfQv7aXw/Xx/8AAjWJY4hLe6KRqluMZOE4kH02En/gNfGvwJ8QHWPBxsJW3XOmyGLnqYzyh/mPwruoy9pRv2OWp+7npsz0ZLiWJXWOSRFf7yqxAb6gdaixt4p54ptaJLoZtt7jKQdTSkimEj1piHeZX2j+wr46/tLwjrvhSWT97p9x9sgTOf3UnDY+jrn/AIGK+KiR616j+zD43Pgf4zaJI8nl2mou2n3GTxiThCfo4T9aTMaseeDR4l/wU0+GK+Af2jJNZto1j0/xRZrqC7Rx56ny5R9chW/4FXyarfLlfvdiOx9a/WT/AIKpfDf/AISv4F2PimGHfeeG79ZJHA+YW8uI3H03eWfwr8mIzjp9a7KUuaCZ5x/QF+xP8Wv+Fzfs2eDNelnWbUYrQWF7jqJ4f3bZ9Cdob/gVe6V+YX/BHD4nv9o8c/D65k+ULFrFmjMOOfLlAHv8hr9Pa9SnLmifO4mHJVaEZVkRlZQysMFSMgivx+/4KM/sZn4NeI5fiB4RsdngnVpv9KtYV40y5Y5x7ROTx6H5eOK/YKsnxb4V0rxx4a1LQNcsYtS0jUYGt7m1mXKSIwwQf557EA0qsFUjbqLD1nRldbH83FFe4ftefsy6r+zD8Up9Fm8y68OX+650XUWBPnQZ+4x/56J0Yd+D0NeH140ouLsz6eMlOKlHYu6Rqt5oeqWeo6fcy2V9aypPBcQsVeN1IZWBHQggGv3M/Yp/ais/2l/hXBdXU0Mfi7SlW21e1X5SXx8syr/dcc+zbhX4UV6p+zX8ftZ/Zy+Kem+LNLZpbZT5Go2WcLd2zEb0PvxkHsQK2oVnTl5HNiaCrQ80f0FUVgeA/G2kfEbwfpPibQbuO+0jU7dbi3mjIIIPUHHQg5BHYgit+vfTTV0fMtNOzCiiimIKKKKACiiigBrKGUg9DxX4r/8ABRb9mb/hRfxgl13R7TyvCHiiR7u08tcJbXPWaD0Az86j0YjtX7VV5P8AtPfAnT/2ifg7rfhC7CRXkqefp12wyba6TmN/pn5T/ssa5sRTVSD7nVh6zozv0P5+qVa0fEOg3/hXXtR0bVbdrTU9PuHtbm3kGGSRGKsPzFZ9fPH06fY91/Yz/aGl/Zz+Nul67cSuPDt8BYaxEve3Zh+8x3KNhh7AjvX7v2d3DqFrDc28qz28yLJHJGcq6kZBB7gg1/NZnFfsJ/wS/wD2hR8TPhG/gjVLrfr/AITVYY95+aayb/VNz12HKH22V6OEqa8jPJx1DT2iPtVqbStSV6TPECiiikAUUUUAFFFFABRRRQAUq0lFADqGpFpJJFjjLMQqqMkk4AFUB8s/8FEP2iG+BfwMurHS7jyvE/iffptjtPzwxlf38w9NqnAP951r8Sj1zX0F+3H8fG/aA+Pms6paT+b4c0onS9IAPBhjY75R/wBdH3N9NvpXz7Xh16nPL0Pp8JR9lDXdj6s6bp9zq+oW1jZW8l1eXMiwwwRDLSOxAVQPUkgVWFfdn/BLP9nVPHnxDuviRrFr5mj+GnCWCyL8st8w4b38tTn/AHmX0rOnB1JKKOmtUVGDkz9A/wBkP9n21/Zz+DGkeHdiHWZ1+2atcKBmS5cAsM+ijCj2WvbKSlr6SMVFJI+SlJzk5MKKKKogKKKKACiiigAqtqOoW2lWNxe3k8dtaW8bSzTSttSNFBLMT2AAJqwa/Pf/AIKnftQN4W8NxfCfw7etFq2rRifWpYWwYbQ/dhz2Mh5P+yv+1WVSoqcXJm1Km6s1BHxX+2x+0pdftJfGS91C2nkHhPSi1lotrkhfKDfNOR/fkIyf9kIO1fP1FFfOSk5vmZ9TCKppRWwV6n+zX8A9b/aO+Ken+E9IV4rc/v8AUdQVcrZWqkb5D787VHdmArzKzs7jUbyC1tIJLq6nkWGKGFdzyOxAVVHckkAD3r9yv2Hf2Xbb9mj4TwwXkEbeMdZVLvWbkYJV8ZW3B/uxgkcdWLHvW9Cj7R6nPia3sYebPavh34B0T4XeDdJ8LeHbJbDR9MgWC3hXrgdWY92JySe5JNdHQ1Ite2tFY+Ycm3djqKSlpgFJRQaAPkP/AIKm+NpPCX7JOtWkEvlT65fW2mD1ZC+9wP8AgMZr8S48Kp/rX6Zf8FnfHYb/AIV74NikPmDz9VmQHjacRoT+IevzJDfIc+lefWd5H0ODjy0l5n7Lf8Ek/BC+Hf2cb7XHiKXGvavLNvPVo41WNPw4b8684/bA8d/8Jp8aNRt4ZfMs9GUWEeDxuXmQ/wDfWR+FfUv7Odjb/BX9jfwo8ymEad4dW/l3AZMjRmVvxJb9a/PK8vrjVLy4vbtt1zcSNNKx5y7HLH8ya5cXPlpRgjry2n7TEVKz6aCLUlRKR61IK8hH05m+IWf+zvITiS5cQr+J5P5ZrUhVbeFI0AVEUKB7CsqRjdeII0HMdrFuPpuY/wCArVU0ATjpTgKYv3RT6hgOPQVpeHdWn0HWrS/t3aOSFwcqcHHQ/pWcO1Y3iTxzoPguMSa1qcVm33lh+9K/fhByf5UKPNpYlyUdWZ//AAUY+Jv/AAmEPgfQ43VJLSCbULuPdwXkKohA+iP+dfQf/BNf4O/2f8NNC1O7VVOpXMmryofvMg+WH8MKDz61+b/xw+IkPxS+IF3rFqs6WPlRW1slxgMI0UDkA8ZOT+Nd/pv7bXxh0PR7HStC8Tr4c0+ztktIYNLsYIgI0AABYoWJ98160KPJTjE8qdTnlNre2h+85x6802vxI+Gv7fHxi0nXoP7a+JV/9hJwXutPhvI+330+ViP905r9Tv2cfjlN8XvDsNxcX2g6s4QZvNBuG2k998MgDxn8WFb86WjPFlhZxi5rVI9pooopnKFFFFABRRRQAUUUUAFfll/wVU/Z3/4RvxbY/FXRrTbpWtFbLWfLXiK8AxHMfQOo259U96/U2vPf2gvB9v4++C/i3w/caFJ4kXULF4E02FlSR5DjYysxAUo2185420maU5unNNH5M/sF/Gn/AIQfx5ceDdUufK0nXmH2YyHCRXijC/8AfwfL9dtfo3uJz6jr7V+L/jzwN4t+EPji78OeINPk0bxFpUqM6SMu5MgPG6spIIIwwIJr7K+HmveNPjx4AsdUtfGklzeRL9n1Sznk8ny5x6CMAbCuCCeTzXi4+h/y9TPscHUVX3D7C1Txdomgoz6lrFhYKv3jdXKR4/M1zE/7QnwytZCknj3w+ren29D/ACNfBv7Q3wvtvh5oMeqa9PFqWr30nlWtlbyStuOOXcn+ED8zXzHNDtkLG2WLnldhwPzrLD4KnWhzuQ8RXlRlypXP2Lb9or4aGMtD430W6foIbe7RpG+i5rx/4m+Oj4+1yK5ttw0u1TZbgdGLcsxxkZ4/IV+aWE/uqPoBWjpfibV9DZTp+q3lmFOQsE7Kv5A4rsjl8Y/CzkWMd/eR92Uxq+WfDf7R/ijRmRNS8nWrbofOGyX671H8wa9y8DfF/wAPePI0jtrj7HqGPmsrpgr5/wBk9G/Dn2qJYecEbwrwnsddNCJoypqCEkoY2++nBq2fvEd6rzrtkWQfQ1h1Nb6XI2WomqdjmoXHWtLErYruDzx3pmcds1NJ0qGqRJ7b8MvjRazaXL4e8Xy77JoWgju5AW/dkbTG/fGDjP518P8AhqNPhn8cNW0BLlZrC4lltY5ozlZFyWhYfUcV7gV5rwf9oTTZNL17R9ftRskI2Mw/56IQy/pW2HpqMml1Ma824p9j3dmz06dqa1Znh3WE1vRbO9jOUmiVxx6gf1zWiWp6rRiWqGNTGp7UxqYxjU63leGZJI2KSoQ6ODgqw5B/MU1qF60CP0Q8XWcHx6/Zr1K3GwjxBoLjB/hmMZyPbDgivwmkt3tJ5IZF2SRsUZfQg4Ir9o/2L/GB1j4c32gytul0m6YLu5/cy5YD/voPX5aftZeB/wDhXP7RfjrRki8mD+0GuoFAwPLl/eLj2+aqw8mnKJ5048tzrf2BfiQfhr+1f4EunlEVnqVw2k3O7OCs6lF/8f2fSv3sGa/mY0fVp9B1ew1S2O25sbiK7iYHBDRuHB/MV/SX4F8SQ+MPBmha5bsrw6lYwXaMp4w8at/WvZou6PCx0dVI3aKKK6DyTx/9qf8AZ20j9pb4Taj4Yvljg1SMG50nUGXLWl0AdrZ67T91h3BPoK/Bnxf4R1bwD4o1Tw5rtm9hrGl3DWt1bydUdTjr3B6g9wQe9f0j1+fX/BUX9lEeLvDbfFrwxY7tc0mIJrUMK5a6tAMCbHdo+/8As/7tceIp8y5kepgq/JL2ctmflRRTP1py15Vj3j79/wCCW/7UTeDPFx+FPiC6I0TXJTJo8srcW14fvReyyAcf7Q/2jX6wZr+azT76fTb2C8tZnt7q3kWWGaNtrRupyrA+oIBr92f2Lf2jLf8AaO+C2natPKv/AAkumgWGswA8idQMSj/ZkXDD3LDtXr4StzL2bPCx1Gz9oj3yiiivSPKCiiigAooooAKSlooA/Kj/AIKt/s6r4X8WWHxW0a2CafrbrZaskY/1d2FPlynjgOq4P+0v+1X591/RJ8aPhdpfxn+GPiDwdq8Sva6patCrsu4xSYzHIPQqwBz7V/Pt428Gap8O/GGs+Gdbha31XSruS0uFYHBZGI3DPY4yPYivExdLklzLqfQ4Gtzw5HujEr1X9mD43Xf7Pfxo8P8Ai+Eu1jFL9n1K3Q/660kIEi47kD5h7qK8qphY1xRbi7o9CUVJOL6n9KOk6paa7pdnqNhOl1ZXcKTwTxnKyRsoZWB9CCDVqvh3/glb8fP+FgfCW78B6ndebrXhVgLcMfmksXPye52NuX2BSvuNq96MlOKkj5OrTdKbixKKKKoyCiiigAooooAKKKKACiiigAr5Z/4KLfHw/BP9n+/s9OufI8SeJidLsSjYeONh+/lH+6hI+rivqY8V+IX/AAUS+Og+Nn7Q2pwWFz53h/wwDpFlsOUkdWJnlGDg7nyAe6otYVp8kDswtL2lRdkfMPBxjgY4FFItLXin05p+HNAvvFWvaboul27XWpahcR2ttCgyXkdgqj8zX9AP7O/wb0/4C/CLw94MsArNZQbrudRgz3DfNLIfqxOPYD0r84/+CUfwDHi74haj8StTg36b4dH2bT96ja946nLDP9xCfoXFfrIvWvYwdPljzvqeFj63PLkXQdRRRXonkhRRRQAUUUUAFFFJQBwfx0+L2kfAv4W69401lgbbTYC0cOcNcTHiOJfdmIH51/P98QfHmq/E7xvrXivXJvtGratctczvzgEnhV9FUYUDsAK+2f8Agq3+0InjDx9p/wAMdIut+m+HT9p1Pyz8sl46/Kh9fLQ/99OfSvgavExVTmlyrZH0GCpckOZ7sKKK9G/Z9+DGrfH74saH4L0rdEb6Tdd3QGRa2q4Msx+i8D1YqO9cSTbsj0JSUVdn2H/wS1/ZZ/4SrxAfi74kss6VpUrQ6DDMOJ7ocPcYI5WPJVf9rJ/hr9U1G2sLwP4N0n4e+EdI8NaFaLZaTpdslrbQqMbUUYGfUnqT3JJrdPSvdpwVONj5evVdabkxc0NTaVa0uc4LStSNQtHkALSt0opHOFzTA/D/AP4KheN38XftY65Zht1vodrb6dHxgg7A7j3+Zz+dfM3gPw3L4x8b+HtBgVml1TUbeyAUZP7yRU/rXZ/tMeKW8cftC/ETWjcLdR3OuXQjmUEBo1kKpjP+yorpP2JfDX/CSftU/Du3KhorfUPtsm44AWFGkPPb7teZJ63Z9VTjy00l2P1q/bI8TQeD/gZD4cs28k30sNhGiEAiGMBmH0woH418B7ifvV9G/tueLjq3jjQtHVjssrNrqRSP45mOP/HVFfN245ry60ueVz1MBR9lSXmTR9amVgOtQx/0qj4k1D+y9Bv7kZ3pEwTHUsflH6msLHqiaBILiO6vD1uJmI/3V+Uf1rYVqzdHs/7P0u0tzyY4lUn1OOf1q8DRYCdZDUvmpGhaVhGiruZicADGcnNVt21c+1eCfE7xxrXxFvpvDXhG2nubCNtl1dQD5ZW4yN3QIDjvzVwpe0djGpU9mh/xV/aMkjmm0rwnKoCkpJqmMk9iIh/7N+XrXg011dapdPPPJLdXEnzM7kszH1JPJ717h4R/ZnLKk3iK+2k8m1s+fwLkfyrr/iN4f0H4c/C3VzpGnQ2U9yqWiSqMyEuw3fMcnO0NXoxnTp2hDVnmyhVqJzlseA/D34c678TvEkei6Barc37RtLiSQRoqDGWLHjHIr7X+Ev8AwSb8XeMtIs9W8R+M9L0C1uBvFvZW73cwXPqSig/TNcn/AME9PBP2+88R680W+WZ4dLt5CM/eJd8f+OCv2H0fT49J0u1s4htjhjVAPoKrn5ptdEcWIbo0otbyPijw5/wSP+FWmoh1jxB4m1ycfeMdxFbRt/wFUJ/8er2v4WfsUfCn4O6lDqXhrSdQtdRiwVuJdTmcn6jdtI9sV7u1JVtJqzPN9tV/mGQxCGNUUkgd2OSafRRQZhRRRQLoFFFKtMQlFK1JQNBRRRQDPiD/AIKY/svN8TvAqfEXw9ZGXxP4ciYXsUK5e8sBlm4HVozlh/slh6V+cf7Pnxmm+D/jJLti0ui3wWC+g3YGM/JL/wABJ/IkV+/TKHUqwDKRgqRkEelfjv8A8FDP2Qz8C/GTeM/DVk3/AAgmvXBLQxL8mnXTZLRH0Rzlk9OV7Cs6kI1I8skepgsQ4vlvr0PSdU1k+JJI7ueWK5DKGiZQCu09Cvsay7qztbjKy21vKpHIaJT/AErwf9nf4rLJDF4U1WXa68afO5+8P+eR56jt+Ir3psHvXiypexfIj6eM/aK5yusfDXwtre77XoNi5P8AEkIQ/mMVwevfs1eGL5WOnyXWmSE5G2TzE/Jv8a9gkqNqqNScFoxSpwkrNHy54k/Zr8QaWrSabcwatH/dXMb/AJHIP515lrPhjWvDNx/p9hdWEiHIZ0K8+oPT9a+7s1BdW8N5G0c8STRsMMsihgR9DXRDFzj8SucrwkPsux83fC/9oK50uSLS/Esj3dpwkd9jMkXs/wDeHv1r6Lt7yG/tY7m2lS4t5F3JLGcqwPcGvPfFHwH8KeIN0kdm2mTkcSWh2jPqV5FZPg3w34l+FV19jLHXPDcr9Y8+bbnP3gvp6461U3Sqe9HRhGNSn7r1R6uGDZwc44OO1Nas+/uGs1F9E26IY8xfVfUe/er3mLIqsp3Kw3Bh0I9awNiKT+tQtU0n9agamiWNrg/jbo/9qfD+9kAy9mVuR9AcH9Ca7yqOuacur6Lf2TjK3EDx/mpxWsXZpmUldNHm3wD1w6j4ZksZHzJZyMoGeiE5H6k16i3Svmb4I6+dB8afZJ22JdAxMCeA46V9M/witqseWRjRfNEY1Np7A+lN2n0rJGpFK21c+4FJUOqTC3W3Lcb50Tn3NTUwPoD9jDxD/ZvxSudMd8R6nYuoGcZeMhx+m6vB/wDgqx4RGi/HLw/riJhdX0YI8mPvSQyFT+O1krrfgzr48L/FTwtqTPsiiv40kOcfI58tv0c12P8AwVu8OrceBfAevoi7rXUprJ274ki3r+GYz+dKl7tVeZyVlrc/M9iGXGevFfvR/wAE9vFX/CXfsh/Dy4aQyTWlm1hIScnMMjJz+CrX4JH2r9jf+CPvir+1v2cda0Z33SaRrswC/wB1JURx+pavapaOx4WMjenc+7aKKK6jwgqK6tYb62lt7iJJoJVKPHIoZXUjBBB6gjtUtFAH4X/t1fsyyfs2/GS4h06Bh4O1zfe6PJg7Yhn95bk+qMeP9krXzlur98f2vv2ebP8AaR+C+q+GykSa5APtmj3cg5hulB2jPZXGUb2b2FfgtqWm3ej6hc2F/bSWl9aytBPbzDDxyKcMpHqCK8itT5ZX6H0uEre1hZ7or+Zivoz9hn9pB/2d/jTY3l9cNH4W1fbYaumflWNm+SbHrGxz/u7h3r5ypVOO2RWMZcjUkdNSHPFxZ/S3BcR3UMcsUiyxSKGR0YMrKRkEEdRzUtfGv/BMn9oU/Fb4Mr4R1a787xF4TVbbdI3zzWZ4hf324MZ/3V9a+ya+hpzVSKkj5WpTdOTixaKKK0MwooooAKKKKAEr8tv+CtXwFOk+ItE+Kul2x+yalt0zVyi8JMozDIf95dy59UX1r9Sq4L47fCmw+N3wm8S+C9Q2rHqlo0UUzD/UzDmOQf7rhT+BrCtT9pBo6MPU9lUUj+d0vnpSVoeI9AvvCfiHU9D1OFrfUtNuZLS6iYYKyIxVh+YrPr5+1tD6pNPVHsn7JPxuf9n/AOO3hvxVI7f2V5n2LU416Nay4VyR328OPdBX762txFeW8M8EiywyoHSRDlWUjIIPcEV/NRjI55FftT/wTU+ODfFn9nyz0m/nMuueFX/sucucs8IGbdyf9z5P+2dd2En9g8jH0rpVEfWjU2n0jV6TPEG0UUUgCiiigAooooAKKKKAPFP2yPjYPgJ+z34o8TQyKuqvF9g01SetzL8qkf7o3P8A8Ar8ENzMzM7mR2OWdjkse5Nfff8AwVx+Lz+IPiZ4d+HlpOWsdBtf7QvY1I2m6mBCA+6xZP8A20r4DC4rycTPmlZdD6LBU+SnfuFWLCxn1K+t7S2jaa4uJFiijQElnY4UfiSKr19a/wDBNP4L/wDC1P2hrPVryAS6P4Wi/tObcMq02cQIf+BZbH+zXPTjzyUTtqy9nByP1Q/Zb+DMHwH+B/hnwkkareQ24nv5FGDJdSfNIT64Py/RRXrGKBS19JFcqsfJSk5NthRRRVEhRRRQAUUUUAFeV/tOfG2z/Z9+C3iHxjcBZLu3i8mwtz/y3un+WJPz5Pspr1M1+Sf/AAVg+O6+MfiZpfw50u53ab4ZUz6gEb5XvZFBCnH/ADzQj8ZD6VhWqezhc6sNS9tUUeh8M65rd94k1q+1bU7hrrUL6eS5uJ25MkjsWZvxJqpTadXzz1Z9Pa2iAkKCScCv2O/4Jmfs1D4RfCb/AITTWbTy/FXiyNJx5i4a2sesMfPIL58xvqg/hr87v2JPgC/7Qnx60fR7q383w7puNT1hv4fIRhiM/wDXRtq/Qt6V+7cMaQwpFGixxooVVUYAAHAA9K9DC0/ts8jHVrL2aH0UUV6B4oGvPte8a3Nj8TtI0dJQLKWLbNFtByzE7TnrxgfnXc3l5FY20k8rqkcal3ZjwqgZJNfL+ueKJNX8WXGsRuY3acSQk/whSNn6AfnXn4uu6KVt7nr4DC/WHK+yX4n1SaSsvwzrsPiPRbW/gIKyoCQD91u4Nald0ZKSujypRcW4sVazfFF8um+G9Uu3O1ILWWQkPswAhOd3b61pLXl/7UesxeH/ANnf4jX0pwkWhXY5BIyYmA4H1qnpFjgrySP56tWvDqGq39yxZjPcySlnbcx3MTknueetfS3/AATl0yTUP2kLaZOBDYTJnBIzJhBnj3NfLsXEKZGDgcV9S/sC6tH4X+IGqa1KdqW9uxU79uWEUrAZ78449q8mo+VM+xpx5tD2r45eIj4m+Lnia9Dl4luTbxMcH5IwEH4cGuJWi4uXvLiW4kbdJK5kZvUk5NIGxXlvc9mFlFIlDba5nxnci8vdC0hTlru8WWRQf+WUfzN+oAro91cHo91/wkHxV1a4BDQaTaraJ6CRjlj+lXGN9QctbHoTSfMcdPem7/emUVBSItTsotXsZLS4MgglG1xG5UsvcZHODS6dptppdulvZW8drbxjCxQqFUfgKmp6daLg0nqSivEP2mtbC2ei6OjfM7tdyD2HyL+u78q9v7V8xfERpviF8al0m2BkLXMOmRfmFb/x4t+Vb0V73N2Oau7R5e5+hH/BPb4e/wBm+CfCEbx7XujJq83HXcfkB/4CqV+gmeOK8I/Zl8KxaNFdSRRhYLK3jsIcDjaoA/kor3dRXRR95OXc8LMJfveRdEJRStSV0nmBRRRSGFFFFABSrSUq00IWkaloqgG0UrUlSMK5/wAfeA9E+J3g/VfC3iOxTUdG1SE29xA47HowPZgQCD2IBroKVaQbao/Av9qD9nXX/wBl34o3GgX5lm0uVjcaNrCqVW6gzwc9pF4DDseehBr0r4J/FxfG1gNK1SVRrtuvDHj7Sg43f7w7/XPrX6uftE/s/wDhn9pD4c3fhbxJDsc5ksNRjUGaxnxhZEP6MvRhwfWvw9+MXwZ8Yfs0fEyXw/4giks7+0fzrHUoAfJu4wflmibHIPcdQcg1lVpqpHzPZw2KbavufXDdKhb734V578Jfi9bePrMWd6yW2uxL88Q4WYD+NP6jtXojCvHlFxdmfRRkpRuiFqYzU9qgbqfrUrcBGbNM3UNTMmtBNjWUMGUjIIIIrA0mZtJ1KTR5mLR4Mtm7d0zyn1X+VbzNWT4g0w6pZZhYQ3sJ823m/uuOmfY9PxqkT0NN/u1A1Z3h/wARLr1m/mJ5N9AxjuIDwUYcdPQ1otVozI6d/CR6im06qJZ8j+Ord/CvxE1ARjaYL0zKeh2sdw/nX0t4R10a5ocE+cyBQH/Lg/lXiP7Rmki18YWt8oIW7tRu9CyHb/LFdH8HfEgh020Mr4iZRBJk9CCcGvQqLmppnn024VHA9nU5paNuKK40dhzHje8+ytoUZzmbUowPoASa3tpLE4rzz4oakR408F2AfB+0NOwz7hR/I16Ov3q0askQpasdDujbchKuoyp9CK+jf29Nvj79i+31wDzHhfT9QV1PTcNjc/VyK+dFr3Xxjdf8Jl+wL4vsXZlbTbGaP5TnPkzLKgP4GueXuyi/MUouSuflj9ORX6ff8EXPECbfilojbvM32F6v93G2ZD+OQK/MHOR71+gP/BG3VBB8b/Gunlv+Prw+s23sTHcKP5P+te5T+I8DEr91I/Xmiiius+dCiiigAr8mv+Cq/wCzefBvjiz+KeiWhXSPED/Z9WEa/LDeqvyyHA481B/30h9a/WWuE+OXwn0v44fCvxB4L1df9G1S3KJNty0Ew+aOUe6uFP5jvWNWHPFo6cPV9jNS6H87gJ9KWtjxl4U1LwH4s1jw5rMBtdV0u7ks7mJhja6MVOPY4yPY1jV4x9Re6uj2n9kX47XH7Pnxv0HxL5jjSXk+x6pEv8drIQHOO5Xhx7oK/fCxu4dQs4Lq2lWe3mjWSKWM5V1IyGB7ggg1/NQvXpn61+zv/BMj47D4q/AeHw5qF152v+EmFhIHOXe1PNu/uAuU/wCAV6ODqWfIzyMdTulUR9hUUUV6x4oUUUUAFFFFABSN06ZpaKAPyB/4KsfAkeA/jFY+PdNt/L0rxXGRdbFwqXsYAb8XTa3uVavh3Br96/20PgiPjx+z74k0CCLzdZtYzqWlnHP2mIFlUf743J/wOvwXZSrEMpVhwVYYI9q8LFQ5J3XU+kwVT2lOz3QlfVX/AATf+Ng+Ef7RenafeXHkaJ4pUaRdbjhVlJzA5/4H8ufSQ18q1La3U1lcxXFvI0NxE6yRyIcMjKQVYHsQQK5acuWSZ1VIKpFxZ/Suv3Rmhq8x/Zr+K0Xxr+B/hHxfG6vPfWKC6VT9y4T5JlPph1b9K9Nr6C91dHycouLcWFFFFIkKKKKACiiigArN8Sa/Z+FfD+p61qMwgsNOtpLu4lY8LGilmP5A1pV8ef8ABUf4tf8ACvf2b5tAtpvL1PxbdLpqqOv2dfnnP02hU/7aVE5csWzSnB1JqK6n5I/Fb4hXvxZ+JXiXxnqBJutcv5bzaxJ8uNmPlxjJ6KgVR9K5WiivCk+Z3PrlHlSQV+0X/BMf4Pj4bfs62mt3MHl6r4qlOpSMRhhABthX6bQW/wCB1+SnwT+G9z8Xvix4V8H2qFn1a/jt3YDISLOZHPsEDH8K/oY0PSbXw/o9lpdjEILKygS2giUcJGihVUfQAV6OCp6ubPKzCpaKpovUtFFeueEFFFFABRRRQAUUUlAHC/HH4pWPwX+E/ibxnflTFpNm80cbH/Wy9I4/+BOVH41/PZ4m8Sah4x8R6nr2r3D3eqancyXd1M5yXkdizH8z+lfpN/wV7+Mxh07wt8MbKf5rhv7Y1NFPOxSUgQ/Vt7f8BFfmPXjYupzT5ex7+Bp8kObuKtL05PTqaRa9r/Y9+CL/AB8+P3hvw5LC0ujwyjUNUYdFtYiGZSe287U/4FXFGPNJJHfOSinJn6d/8E2P2f8A/hTnwHg1zUbUweJPFhTUbnzBh4rfB+zxdOMKSx95D6V9bVHbwpbwxxRIsccahERRgKAMAAelSV7kY8qSR8rUm5ycmKtcL4s+LWleFdQlsZYbme7TA2rHtXkZ+8ev4ZruRVW+0y11KMx3VvHcIeCsqBh+tKopuNoOzHTlCMvfV0fO/jT4oal4ujNsFFjYZ5gjYkvzxubuPbpWbeeA76z8LxazI8YimAdI887T0J/wr1Dx38G7O4tZLzQ4ha3SjcbZf9XJ7Adj+leQ3Go3slnHZzXExghOFhkY4X2xXzWIhUhL99rfY+xwdSnUppYd2XUd4Z8caz4SuHbT5tsWeYZPmjb6jt9RXrPhH46DW7iC1vNFuhPJIIhJZDzUyTjJ7gfnUPw2+EtqbWLU9bg+0SyKHhtZM7EU9Cw7n2PSvVrSxt7GNY7eGOCNRgLGoUD8q9PCUa0Iq8rI8jHYjDTk0oXfcsKa+bf+CjGsSaN+x38QZIpZoXmt4bfdCCSQ8yKQcdAQTmvpEV8if8FVNSbT/wBkHWY1k8s3ep2NucPtLAy7iMfxZCnj0z6V6kvhZ41DWpH1PxKkYfw9O1fRP7OLNpPhm+u1+/cTOv8AwHYF/qa+c+eO9fSfwRgMPgO1bu8sjf8Aj2P6V4tb4T7WgryPQlY0+o1qQVxHeVtUvo9L026vZjiO2iaVj7AE1wfwNjkuPDuo6rP/AK/Ur2SZj9OP55pPjzr39leCTZxttn1CQQ9f4B8zH9B+ddF8MdOGmeBdFiK7HaASMPdju/qK2taFzO/v2OqWlakpVrA2QoqVegpkf3qlWpNCtq2oJpOl3d9LgR20LzNnphVJ/pXin7IGgyeNv2grHULlDKtiJ9VmYjjd/CD/AMCcV2fx71z+x/hxeRq21751tV9SCdzfop/Orf7FfiLwj8H/AAr4n8feM7/7DaXU8enWtui77i6WPEkqxR5y3JUZ6DHJrrpxfspNdTiqSXtop7I/XT4QaGdF8DWQkGJbjM7+vPT9MV2mMjI5r8pfid/wV68WXnmWHw68I6Z4f09V8uG91jN1c4HRgilUU+x3V43p/wC3l8TPEmoPL4u+Jfi6yRu3hqG1hAGfQ4H+etdsYKEUkfPTpzrVJTlpc/b6kzX5dfB/9otNfuIoNH/aj1/R9VlbEdn4/wBHjNuWPUecrsgH+9ivqbS/jN8Xfhmtvc+P/Dem+L/CkgUr4o8KSbxtOMSMg7HrnAH+1UyqKO60JeHl0aPp+kasbwn4y0rxxo0Op6PcrdWkig56Mh9GHY/5FbLdKaaeqOZpxdpKzEooopkhRRRT6D6CrS0i0NTEDUlFFIpBQtFIaBjm+bivMPj9+zx4T/aQ8DzeG/FNmzbcvZajAo+0WM3aSNj+qnhhwe1Y/wATPij4o1S6fQfhnpj6lqIJSfVGizBCfRS3ykj1ORXy78aPEniL4azK3xM/aMl8LX7J5g0HQ1N1d4944toX6nArJ1EnZK51U6LdnzW/M+Hf2gv2YfH/AOyv4uSPV7eZ9N83Om+I7NWFtcYPy/N/BJ6o3Ppkc13nwl+NEPjK3j03V3WDW4xzIcBbgY6j/a9R/kYnxK/aw1bUFvNH0fxR4i8V+H5vldfFSRsk2OhMO5wPbJzXz5Hqk1tqKX1uRazJJ5ieV8oQ+3pUSj7Vaqx69Oo6VryufdjMGXIORVZ+/wBa+dPD37S2q2eyPVNPgvoxwZIm8t/1yK9X8K/Fzw54wMcVveC1vH/5drr5GJ9AehrglRnT3R6Ua0J6JnYtTGqVlqNlqEakTLjmomFTsueKicdqoT2OJ8YafdaTfJ4j0pd88C4u7cdJ4h/UYrf0PXbTxFpsV7ZSb4n4I7qfQ+hrRZevGRXlXiiyvvhfqza9pUZuNFuW/wBNsx/Ac/eHp161UfedjN6I9SwKWsrw74isvE2mpeWEolibgg/eQ/3WHrWrT1W5O+qPH/2ktL8/w7pt+F+eCcxFsfwuv+Irz/4X3JbTrqDq0cgcD0BFe0/GixN98OdWwMmFVm/75Yf0NfP3w1vvs+tPCThZ4/1Bz/jXoUfep6nm1vdrLzPpLwf4hXUbVbSZsXUSjB/vr6/Wukrx6OVoplkicxupyrKeRW7q/wATk0rwvez3SlbuOPbFIBw7np9D3rOVN30OiNS255/4o1k6/wDHO1WJg0VmwiXByPlGT+p/SvfuOor5a+Fay6l44W4mO+TaXd255Zh3r6l/iP1p1VZpEUfeTkOWvS/AOr/2h8DfjT4ekYFV0h7qNc9N0LK36qK8zUitP4c6mY774j2DNmK98Mzrt7HaDXDW2Xqjsp63R8JL90fSvtz/AIJD3Yt/2ptQjLqnn+HLpACcFiJoGwPU8V8SL91fpX13/wAErpjH+2BoigA7tMvhycY/dj869uPxHztdXhJH7gUUUV3HzIUUUUgCiiigD8p/+CtXwDHh3xlpHxR0u22WWt7bDVdi8LdIv7qQ+m9Bt+sfvX58LxX9Cf7SXwftfjt8FPFPg25RWmvrRms5GH+quk+eFx9HC59iR3r+fK8s7jTb+5tLuMw3VvI8M0bdUdWIZT7ggivLxEeWV+59Dg6nPTt1RHX0T+wf8cj8C/2htBvbq58nQdZYaRqe44URysNkh/3JNh+m6vnanDIwQSp7Eda5oycWmjrlFVIuL6n9Li4PP5U6vBP2IPjM3xw/Zz8L61dTedq9lGdL1HPUzw4Xcfdl2P8A8Cr3uvoovmSaPlZRcJOLCiiirJCiiigAooooARsHrX4P/t0fCb/hTv7S/i3S4YTFpmozf2vYcYXypyWKjjor71/Cv3gPavz4/wCCu3wfOufD/wAN/ESzgzc6FcfYL6RRz9mmPyE+yyAD/tpXFi4c0L9jvwVTkq27n5U0UcdulFeCfRn6af8ABIT4veZa+LvhrezfNCRrWnqzfwtiOdR+Pltj3NfpPX4Dfsi/Fo/Bb9oXwf4llmMOnLdCzvzng20v7tyfpuDf8Br9+I2Eih1O5SMgjv717GGnzQt2Pn8dT5anMuotFKtDV2HmiUUUUgCiiigAr8bP+Cp3xYHjz9o1fDVtJvsPCVktodpyPtMuJJfxA8tfwr9gfE2vWvhbw7qms3riOz062ku5mJxhEUsf0Ffzr/EPxld/EXx54j8VXzbrrWdRnvnyTkb3LAc9guB+FcWKlaNj1cvhebn2OepaSnL39Bya8o+iPv8A/wCCRnwmGvfETxN49uoc2+h2wsLVmHH2iblyPpGuP+B1+rmK+bf+Ce3wr/4Vb+y/4VjngMOpa0jazdhhzumOUB+kYT9a+k6+iw8OSmkfJ4qp7Sq2FFFFdByBRRRQAUUUUAFR3FwlrC80rrHHGpZmY4AAGST+FPr51/b++LbfB/8AZf8AFl/azCHVNUiGj2RzhvMn+RiPcJvP4ColLli2y4R55KK6n48/tPfFyT44fHnxh4v8xns7u8aGxVv4bWL93CB9VG76sa8vpqrtAHpT6+clJyd2fVxXKkhV61+s3/BJX4Of8Iz8LNa+IN7BsvvEdx9ns2Yci0hJGR7NIXP/AAEV+Wfgjwlf+PvF2jeGtLiabUdWvIrKBVGSGdgufoASfwr+h34beB7H4a+AfD/hbTUWOx0eyis4gowCEUDP1JBP4124WF25HnY6pyw5O50tFFFeieEFFFFACivBtW8Lxz/GEWBQC3nuFuGXtjbvI/Eg/nXvFUW0OyfVl1I26G+WPyhNj5guc4rnrUVWST6M7MNiHh3J91YuqoUAAYAHFLRRXQclxVr4i/4K83nkfst2EO1W87xJZrk9VxHMcj8sfjX26tfBv/BYucR/s5+HIyGy/iWAgj7vEM3Wpl8LN8P/ABYn4/hgenSvqH4TQmHwHpQxw0Zb82Jr5aXoO1fWXw8g+z+DNGQHgWsZ/MZ/rXjVtj7XD/EzpFp60xajvLyPT7Wa5mwIYUMjk9MAZP8AKuRas7W7angXxs1JvEXj+z0eDcyW2y32/wDTRyCf5gV9DWdqtlBHAg+SJAi8dgMCvmD4brJ4w+LdreSjduuZL193tlgPz219TJnPIrat7tomNL3ryHr9KVh8vpSgVBf3Qs7UyAbpCdka/wB5zwBXKdSHxndIwHQcH61OvGKjtYWhhVGbewHzN6nuafcTpawvLI2yONSzMegAHWgb2Pnr9qDxCLjV9L0WJ8rbRm4lwf434Gf+Aj9a8Y+1SywxxPIzRxghFJ4XJycenPNaXjjxA3irxZqeqEkpPM2zPZBwo/IVjxqWYKASx4AHevZhHlgkeBUm6k20Ppyda9S8D/s1eOPG1tHdJpy6ZZvys1+/llh6hevSvR4/2LLi0sZrvU/FtnZRQxmSSTyCUQDqSxI4pcy2Gqc2tj5oLEdK90/Zx/bH8ffs46nGukag2peHHbN1oF+zPbSr32942x/Ev4g14x4itrCx1a4t9MvG1GyjcrHdNH5fmgfxBckgH3rO60zGW1mfux+zL8SPA/xz0j/hOfhzePo1wxVNb8NzNkW8rckMnRSTkrInytjpnIr6G57jFfz2/s9/H7xJ+zj8RrHxZ4dmLBCIr7T3Y+TfW5PzROP1B6qQCK/eP4S/FLQ/jR8O9F8Y+Hbjz9M1SESqrY3wuOHicdnVgQR7Z6VPKo/CcNZSvdnX0UUUGIUUUUAFFFFAwooooAKbJbQ3cbw3AJhYYcZxkeh9qdXxf/wUK/aQ1fwl4em+GngMXNz4r1S0M2qXGnqzyafZHg/dGVaTOM9Qp45Io5lHcunTlWmoRPNf23P+Cjn/AAi9ze/Dr4M3ENo9szQaj4mtQuI2HDRWuOMg9ZecEEL/AHq/MrUtQudVvZry8uJLu6mYvLPO5eSRj1ZmPJJ969N+Lv7N3jb4G6JpN942tLPRLjVfmtdLe+jkvTHtz5jRITsUdMsRzxjrXO+Bfgx4y+I5R9F0WZ7RjzezqY4AP989fwzQ5Ld6HqxoKkrQ1OL3baCc19C6p+ybp/gfw++r+NfGcWnW6rkx2cG4lv7qlj8x9gK8C1o6bHqM0ekNdSWCnEcl4FEjD1IXgfSiNpaol6blTPNKOoPOQcimqc0oBPAGTVkX7Hp3gH45at4XeK01Jm1PTAcfOcyxj/ZPf6Gvo3w/4k0/xVpsd9ptwtxbv3U8qfRh2PtXxLXQeCvHGo+A9WW8s3MkLYWe1Y/JKvp7H0Nc1Sip6rRnXRxLg7Seh9lGoX7/AFrN8LeKLHxbo8GoWEokhkHIP3kbupHqDWoy5JzXnNOLsz2FJNXRFUVxbpdQvDKgkicFWVhkEGpu5ooFvqeBeL/Dmr/CLWDrfh93fSJGzLE2Ssf+yw/u+h/D69/4D+K+keMYUieVbDUgMNazHG4/7BPUe3Wu5urWK8t3hnjWWJwVZHGQwPY188/E74Iz6LI+p+H0klss73tl5eH3X1H611xcai5ZbnHPnp+9HVHunijTRq3hvVbLGTNbSIB77Tj9cV8d+Gbj7Fr1jIThRKAc+hOD/Ou18JfG3X/CrJBcyf2raR8eTdH51HoH6j8c1wUl4smqy3SR+WjTGRY85wC2QM110abgmmcVacajTR7pIyW0TyyMERBuZmOAB615T4u8UHxFqCxwnFjETsHdj03Gotc8VXviD5JX8u33ZEMeQPx9az9H02XVtRS1gALyHBOOFHcmtV3ZlOblpE9F+Dekst0l0yn/AEiZUT/dU8n8/wCVfQXmcn0rzrwDpKWt2giTbDax7QMdzwPx613dxeQ2tu808iwwxjc8jthVHqTXBKXM7nowjyRSH316lpblzzn5VHqT0FM8LXv9n+JtT5OZ/D95GfrtNZFlOdcnF6VZLNeLZWGC4/vkHpnsPShrn7L4qgycCTTbpD78HisKkeZG8HZnydg7R9K+pP8AgmZcC2/bG8HFiVLw3kY44JMDcH0r5fbv9a+nP+CbCs37YngkqVAC3RJZ9vHkN+f0r1o7ngV/hkfu10opB0FLXefLhRRRQAUUUUAG3cCK/E7/AIKXfBg/Cv8AaUv9Us7fytH8VwjVYdi4UTZ2zr9d43f8DFftjXx1/wAFRvg6vxE/Z1l8R20Jk1XwjcjUFZfvfZn+ScfgCrf8ArCtHmh6Hbhans6i7M/Ganim/jn6U6vGPpUff3/BJD4vf8I78SvEHw/vJtlrr1t9ttFY8faYR8wHP8UZP/fAr9Xwc1/Op8HPiFdfCn4p+FvF1oxEuj6hFcsB/FGGxIv4oWH41/Q9o2q22uaTY6jZyCW0vII7iFx/EjqGU/kRXsYOfNDlfQ+fx1Plqc3cvUUUV6B5oUUUUAFFFFABXEfGz4c2vxc+E/irwddqrRaxp8tqrN0SQrmN/qrhW/Cu3pGpSXMrDUuV3R/NXqmm3Oj6pe6fdxmK6s5nt5oz1WRGKsD+INVq+n/+CjfwpHwv/ag1+W2hEOmeIkTWbZVGAGfKzADp/rFY8f3hXzBXzNSPLJo+upS9pFS7ijoe3Ffvj+xr8Uh8Xv2cPBOvPJ5l6tktjeHP/LeD905Pudob/gVfgbX6c/8ABHn4kvcaX468BXEu77LJHq9ohboj/u5QB/vBD+NdOFladjjx8OalddD9I2pKU0leufOBRRRSAKKKKAPmX/go18Qm+H/7KHivyZBHea0YtHh55/fNiTH/AGzD1+H38IAGB2r9K/8AgsZ8QOfh54IhlI3G41i5jVueB5URI+pk/KvzUrycVK87H02Bhy0k+4V2nwX8AzfFT4teEvCMCsx1jUobWQr/AAxlsyN+CBjXF19vf8EmvhyPFHx/1PxRNFvtvDemMUcjjz5z5a/iEElYUY880mddep7Om5H676dYw6XYW1nbRiK3t41ijjXoqqAAB9ABVmm96dX0h8duFFFFMAooooAKKKKAENflZ/wWC+KX9peNvB3w+tZ8xaZbPq15Gp6SynZEGHsqsf8AgQr9UpGEalm4Uckk4A96/n1/ao+JTfF39obx54n8wvbXGpPb2nfFvD+6jx+C5/GuLFS5YWPQwMOapzdjyoU5RSUqg/T614h9CfaX/BKv4WDxt+0Fc+J7iASaf4VsWmVmHH2qUlI/xCiQ/hX7FDoK+NP+CV/wzHgv9nIeIJoTHe+Kb2S+3MOTAh8qL9FY/wDAq+y69fDx5YHzmLnz1X5BRRRXScIUUUUAFFFFABSrSUq0AOr4E/4LHOP+Gf8Awqhk2lvEcREePvYhl5z2xn9a++6+Bf8AgsZGW+AfhVw2AviOMEcckwy4/lSqfCdOH/ixPyCWvr3wlF5XhnSVxjbaQjnr9wV8gt8qnAxj1r7E8P8AyaJp6DkLbxj/AMdFeJW2R9phtzSWuC+N2unRvAV1Gj7Zr51tU55weX/QfrXerXz7+0Tr/wBr8QWOlRnKWcRkkHbe5z/ID86zormkjevPlgyb9mnTGk1zVr8qdsNusIOOhZs/yWvotWHrXk37POk/YfBct4ykPeXDMCR1VflH65r1Rams7zY6CtBFheazY86lrDSYza2fyJno0pHzN/wEHH1Jq3cNJ5OyLiVxtB9PepLG1jtYUij5VRjPr6n8awOjqWIxzXlX7Q3jQeHvDA0qCXF7qQ2nb1WIcsfx6fjXqF7eQaZZz3dzIIreBDJJI3RVAyTXxh8QPGE/jrxVd6pKWETHZBGT9yMcKPr3P1rpoQ53d7I5MTU9nCyOft4TNKqIGYscAKOTk+lfaf7Pf7Ntp4Rs7bxB4ltludelRXitZBlLQdRkHrJ/6D0615t+x38J08TeIp/FepQCXTtLOy2VxkSXB5z/AMBHP1Ir7RZNzHGa6qsnsc1CnpzMiWPoACT0FfG/7Vnxol8SatL4N0aYjSLF9t88Z/4+ZweVyP4UPHuwPpX0l8bPHJ+HPwz1vWYm23qx/Z7X/rs/yr+XLf8AAa+O/wBl3w/p/ir9oT4e6droS40+8120iuBN92RWkGQ2fU8c+tTTXVjxFRxWh6F8Lf8AgnJ8bfix4Qh8SadoVrpmnXKCW1GsXQtpbhCMhlQgkA8YLYBrxP4qfCHxf8E/FU3h3xpolxoeqRjcqTDKSr/fjcfK6+4OK/pIjjVI1VF2qAAABjA9K/P/AP4LIabo8nwT8I6hPHGuuQ64ILOXA3+U0LmVfXb8qH6gV6M6Sir3PnKWKlUqWa0PyGr9G/8AglT8TNU8E6+3grVpCfDXi1ZbrR7jcTEt9AB50P8AsuY8Er3wpFfnL949Pyr6I/Yt+IE2i/FLS/Cs85is9avYZLCZj/x46pEc2twvsTmJx/Ekp9BXMejKPNFpn7qA0tNiLNChdPLcqCy5ztPcZp1QecFFFFAwooooAKKKKAEbp2P16V5Zrmm+EPgV4Q8W+Mr+xW6nkZ9T1S9kjElzfzZ/dx5xk/NsSNBwvAAr1JmrmPGfw+j+JbWGmX0rR6TbTpe3EaDmZ1z5ag9trDd+Ao5eZ2W41JQd5bH5yR/Bm/8AjB8RL/4l/Fhvt+r6hIJbXQ2fdBYwj/VxN67V4x0znOTXafFj4l6J8HvB76je7dqr5Vlp8ICtK+OEUemBz6Cv0Hsfh94Y8PWzNDpNlFHGpZpZowxAAySWb6V+HX7YHx2/4aH+OGsazYqsHhbTWbTtGt4lCIYUY5mIHVpGy2fTaO1RUw8qa5pyPTpY1YifLTjZIxfD/hH4m/tq/FT+zNFtv7QvgvmFJHMdnp1vnG5m7DoO7MRxmvbvG3/BIX4teF/Dr6jpGr6H4nuo13Nptm8kMrcchDIApPtkZr6T/wCCO+m6TF8LfHt3GIjrUmuLHckY3iFYVMQ9cZMn1OfSv0FOOK9CjSi4Jnk4jFTjUcex/Mfquk3vh/VLvTdStZbHULSRoZ7adSrxupwVYHoRVdXMciOpwynIIr62/wCCp0Wiwftea0ukeUJm0+1fURDji5KnOcfxbdhP1r5G3VzyVnY9ClLmgpHaaD4Nbx5ot5LoybtdsE82fTV63MI6yxD+8P4l98j0rjnBQkMNrAkENweO1bHg3xZf+CvE2n63psnl3dnKJF54YdCp9iCQfrX1L8XvgJpXxk8B23xN8ARLFfXUH2m60uPG2Vh/rAvpIpBGO+PWsr2djqcFUh7u583/AAw+Ilz8P9dDs7SaXckLcw9cf7YHqP5V9ZafqFtq1nDdWs6TwSqHSRDkMCM5r4ZkUhipBUg4IPUexrpvBnxK1zwLN/oNyXtSctazDdG3+H1FRVo+0V1uaYfEOl7s9j7FkRtp2Mqt23dPxrPOswW8ywXf+hStwvm/cf8A3W/ya4Lwh8eND8SLHBfN/Y98cArPzEx9n/xrv7mO11ex8udI7q0cezKfcGvOlFwdpHrRqRnrFl08ge/IqJlycH1rhtS8M6/oeZvDeqmSMc/Yb471+isf/rfWsOb4reIPD7BNb8MunbzoSQp/mP1oUebYHUUdGbPjj4O6J4wL3Cp/Z2oNz9ogUAMf9peh/nXh/if4L+JPDcjuLb+0LVRnz7X5uPdeor2CD49aLJ/rrW4tz6blb+tJc/H7w7bj5YrmRsfdKqP611QlVjpY4qkKM9dmfNcivbuUdSrrwVbgit/wr4stNBWfdYmWdzzMrgED0AxXZ+Mvi5pPiJXWPw1aSk9J7lcuPyx/OuK0PRb7xhqgt9Mso1LtglRtjXJ7k9K6917yOJLkl7rud3a/Gr+y9KMWn6aonbLyTXMmQM9OB1/Ouk8J6DrfjaaLWPE8r/Y8iS2sMbUPcMV7D0zzWr4K+Dem+G2ju9QK6pqC/MCy/uoz/sqep9zXfeXj1NcsnHZHbFS+0yv5e3gDAHpXO61+78U6YP71lddfYf8A166crXIeMJBb+J/D5JwGgu1/8crGWqNbnzLIdrEe9fTH/BN1Vb9sLwMXGdpuMckYPktzxXzPMczOf9o19Of8E142k/bC8EYViFF0W2nHHkvyfbOK9KPQ8at8Mj92x+lFIpyoNLXoHywUm4HpzXJfFPxBJ4d8GXlxbytDcuViidOoYnt+GasfDfW5PEHg/TruZzJOY9krt1Z14JP4isfax9p7PqdHsZey9t0vY6aiiitjnCs3xJoFn4q8PanouoRCaw1C2ktLiNhkNG6lWH5E1pUUDWjufzifEXwTd/Dfx94i8K3wYXWjX81i+7qfLcgN+Iwfxrn6+zv+Cq3wvHg39oqDxJbQ7LLxTpyXDMowv2mE+XIPqV8tj9TXxjXh1Y8smj62lLngpCgbjiv3E/4J2fFNfih+y54Z82Yy6joO/Rbrc2WzDjyz+MTR/jmvw7r9Dv8AgkD8Sjp3jbxn4GnnAh1K1j1S2jY8+bEdj4+qMp/4DW+Ely1LdzlxtPmpc3Y/U+ikpa90+bCiiigAooooAKQ9qWigD8//APgr18Nf7Z+FvhTxtbxAz6LqDWVw2OfJnHBPsHjX/vqvyi47dK/oD/aw+Hw+KH7Ofj/w6FzNcaXLLB7SxDzU/wDHkFfz+cgkEbSDgj09q8TGQtPm7n0OAnzU+XsJX0d/wT6+JA+HH7VXg2aaYxWWrvJo0+WwpE64TP0kEZr5xq1pup3Gi6ja6haMUurSVLiJlOCHRgykH1yBXHTfLJM7qkeaDj3P6URjaMUVznw38XQePvh/4c8SWzK8OrafBeqV6fvIwxH4EkV0de/e+p8jJWdgooooEFFFUdc1aHQdGvtSuTttrOCS4lb0VFLH9BQNbn4k/wDBRzx+3jz9rXxWivvtdDjg0eDByB5abpP/ACI7/lXzRWv408TXHjTxhrniC6dpLnVr+e+kZuuZJC39ayK8GpLmk2fY04csEuwtfr1/wSV+H48O/AHVfE0sWy58RarIyuR96CECNP8Ax7za/IhVPOxSznhVHUn0r+gz9mXwGPhj8A/AnhrZsksdJg84Y58113yf+PO1dmDjeXN2POzGdoKPc9Oooor2T54KKKKYBRRRQAUUUUAeYftO+P1+F/7P3j3xMW2yWOkzeT/11dfLj/8AH3Wv57V3bRuOW7n3r9iP+Cs3jpvDv7N1noMb7ZvEWsQWxVTgtHFmZvwyifnX48V42MleSR72AjaDl3HVd0XSLjxBrFjpdou+8vriO2gX1kdgqj8zVKvof9gLwD/wsL9qzwRBIge20yd9Wn3DI2wKXXP/AAPZXBFc0kj0akuWLkz9rvhp4Ltvh38P/DvhmzRUt9JsIbNdvT5ECk/iQT+NdNR2FFe/a2h8jKXM7sKKKKYgooooAKKKKAClWkpVoAdXwt/wV+t5Jv2adIdC3lx+I7UyADsY5QM/ia+6DXxn/wAFZNPF3+yPezmJpDaazYzBlGQnzshJ9vnx9SKVT4Tpw/8AFifiqfu/4V9j6Iu3R7H/AK4J/wCgivjhv6+mK+ydFP8AxKLH/rhH/wCgivErbH2mG6lmSRbeN5HIVEBZifQCvjzxNqz+KvFV/eoCzXlyTGo54Jwo/LFfRvxo8Sf2B4Fu0jbbc3x+yxYPOD98/lx+NeJ/BXw2fEXji0JTNvZf6RKWGV+X7o/PFVR92DmwxD5pKmj6W8I6KPD3hzTtOzn7PAqHpy2OT+ea2wp60yFe56UtxeRwzRW6HzLmQZEY6gd2PoK4ZO+p3RVkiZV496nRdq02NDxnrXPfEDxpa+BPDc+oTkPP9y2hzzJJjgfQdTSScnZFyfKrs8v/AGkPHwhhi8LWcv7x8S3xU9B/BGfr94/8Br57UHPFbbWWseLrjVtVW3uL9rdGvL6dFLCJC4Xex7Dc6j8RWdaxlbmInB+cdenWvWilCNjwaknVnzPY/SL4JeEovBvwr8O6eibJWtVuJjjBaRxuJP54/Cvevhj8DNc+JLJeL/xLNEzzfTKcydiI1/i578D61ofs8/Cmy+IC6TPejdpFnY28s0HTzSUGxP8Ad4JPsMd6+x7e3itYI4oY1hhjUIkaDCqoGAAOwrTD0faLnkZY7GvD/uqW5+U//BVLwloHwx8K/DrwlpEckt9qN5c6heXlw+6R0iREUegUmVjgD+EV8DaXNLp1xbXdrK1vcwOssUsZw0bqQVYHsQQD+Ffd3/BYqWRvjd4AhyTCugSMF7BjcNk/XAWvhKGN5JAqIzMeAqjJrLEe7KyLwidWkpS1bPtjwn/wVy+J3g3w/FZa94e0bxVcx/Kmoyl7eVuOPMCHaT7gDvXy5+0l+1L45/ai8VQav4uuoYrWzVksdJsVKWtorHnaCSWY4GWYknA6DiuR1/wrqkPh9tRuLSS3tlkUbpBgkngcGuPPK5q4VZThqyZ4aFGd0rMdH1/CtLRdYufDusWGrWbFLuwnjuoWU4IdGDKfzArNgzvrUttHv7jmKxuZR1+SJj/Spk0nqUouWyP6Jfhx4wt/iF4B8O+JrUj7Pq+nwXygHOPMjDEfgSRXR183/wDBPPxKPEn7IngNs7nsYptPfJycxTOoz/wHbX0fQeXJWbTFooooI6BRRRQCCiiigY2tLSVCxs3cnFZ2a1dN/wCPfp3roofGc9b4DwL/AIKAfFB/hX+yp41vraZoNS1OAaPZuvUSXB2Eg9iI/MOfavw0tIVhgRFHAGK/Uf8A4LD63P8A8IH8NvDcLErqOszXTRg43GGLAzz6ymvzKuNHu7NS0sDADqw5H51z42fvcp6+W07U+fudt8Ffjp4x/Z/8XDxD4N1L7FdSIIbm2lXzLe6jBztkTv7EYI7Hrn3/AMVf8FfvizqmkzWGlaF4d0W7IKnUI4pZnXtlUdtoP1zXx7NJ5dvI3cKelch1+buazw9Sdmr6HTiKVOTu46mj4k8Sar4w8QX+t63fTalq1/K091d3DbnlkPViazqXtRXQYbaCrX2J+wN42lZfEvhKWQtFGq6nboTwvISXHtkofxNfHQr65/4JctBdftYWGlXUUc9pqmi39rLFIMh1CLLjH1jpWctEUqvsvffQ88/bD+G0HgX4nC/sYRDp+uRG7RFGFSYHEqj8cN/wKvB1/cyo+0PtYEqwyD7Gv04/4KwfA+y8FfD3wn4n02ZhZDWDZG2l5aMyQu3yt/d/ddDzX5lvgru6VdnHRmbnCs+eGzPQl8A6T4gsIrzTney85d2zO5Ae4x1HNQ2uk+MfBrF9Kv5Wj9LeTIPsUP8AhXUfBvQbzWvDc7IVWOK4KKZCe4BwOPevQR4Hvf8AntCPxP8AhXJKpZ2ep6NOleKkjzO1+M3i/TVVL6whuMdfMgZG/Eir/wDw0BfNHtn0OE9uJmx/KvQl8G3Krg3EZ59z/SrUfg3oZJ0xjoqD+tYuUd7G6jNdTx7U/iN/wkbBV8J2U8hGBuiDn89v9a8/1rU1kmki/s20sZFYgrFDgg+nJNfV1r4VtI2HmF5MHnsMV8leJMN4i1PaCB9qlAX/AIGcVvRalc5sReKTZreFfDtpqTLLdzRvyCIVcAn617n4N06GzjtFgiWJfPB2oB2BP9K+Z5LaSGbawaOZRny5AVYe9dt4D+KV94Su7eO7DXunK2TGx+dOMZU/Q9K0qQcloyKNSMdGfT6jjBpapaTrVlr2nwX+nzC4tpxuVh+oI7EelWyxrg9T0N9Q2CvPfidJ9n17w03OP9JBx/uCvQdx9K81+MExt9Q8OygZw04/NMVS3Jloj55fO4/WvrD/AIJe2Yuv2vPDZYEiGzu5MY/6Z4H6mvlLvX2T/wAEobYSftaWrlcmHRbyQfLnHCLn269fevQjukePWfuSZ+1gHaiqGqa9p2hxq9/fW9kpHHnShM/TPWuC8UfHLR9Pgmh0pv7RuwPlYAiLOf73f8K6qlanSV5s+epYepWdoRuc/wDH/wAQLJcWOjxsCU/0iXB6HoAfw5/KtD4A+II5dKu9HdwJ4JDNGp/iRsZx9Dn8xXmOjabe/EDxFO9xOxdh5k0zDoPQD8f0qTWLG++HfiSGSyuWWQDzYJv7wzgqw7+4r5v6zJV/b20PqpYWP1dYW/vbn1Lmlry/wr8ctKv4Fj1gHTboDBfBaJj6gjkfjXoml6xZ63aLc2NzFd27HAkhYMM19HTrU6qvBny1bD1KLtNFyiiitzmPi7/gqt8L/wDhMv2dofEsEe698K6gl2Tjrby/upR+Zjb/AIBX47V/RP8AGbwPF8SvhP4u8LSruXVtLuLRfZmjIU/g2DX87NxBLZzPBMpSWJ2jdT1DKcH9RXm4qOvMfQYCfNTcew2vaP2NviM3ws/aY8Ba40oitG1BbG6LdPJnBhbP03g/hXi9Pjmlt5UmgYpNGwkRlOCGHIP54rhg+WSZ6E480Wj+lpfbpS1xPwT8bp8SPhH4O8Txtv8A7V0q2unbOfnaNS3/AI9mu2r6eLurnyDXK7MKKKKYgooooAKKKKAGTRLPC8bgMjAqVPcEYxX87/x48Dt8NfjV438MOu0abq1xFGP+mZcsh/75Za/oiNfjN/wVS8Bnwn+1C2rxQCK18RaVBehlHDSoTFJ+PyqfxrgxkbwuengJ8tRx7nx3Tk+9TacvWvEPoD9sf+CaPjo+NP2UPDlvJJvuNCnn0iTJycRtuT/xx1H4V9UV+Z//AAR08eHzPiL4MlckZt9Xt1J4HWKTH4iOv0yBr3aMuaCZ8tiYclWSG0U7NFbWOURq8M/be8Yt4G/ZV+I+pRy+TPJpjWUTd905EWB74c17lXw//wAFcPFh0f8AZ00fRUfa2ta9AjgHkxxI8p/8eVKyqO0WzfDx56sUfkGi7VH0xS0deaK8E+xPRf2efBI+JHxy8B+GmQyRahq9vHKAM/uw4dz9NqtX9C0YCqAAAAMADpX4x/8ABLXwj/wkn7U1nqEkXmQ6JpdzelmHCuwESH/yIfyr9nV617OCjaDZ81mEnKol2HUUUV6J5gUUUUAFFFFABSNS0hoA/KT/AILDeODqHxO8CeE43zHpmmzahKo7PNJsXP8AwGI/nX5919Ef8FBPGTeNf2tvHs+8vDp08WlRc5AEMahgP+BFvzr53r56vLmqM+pw8eWnFDq/RH/gjz4E+1+NPH/jGWMbbKyg0uBmH8UrmRyPwjUfjX53DnAHWv2U/wCCVng8eHf2X4NTaIrPrmqXV4zkdUVhEn/os/nVYZXnfsZ4yXLRfmfY/pRRS16580JRRRQAUUUjHCknpQAuaK81+G/iq51Xxh4ksp52ljWUywqx4UBipA/8dr0qsaVVVY8yN61J0ZcsgpVpKK2MB2a+X/8AgpVpv9pfsa+P8FgbeO2uAFBOdlzEcfSvp6vMP2n/AAq3jb9nn4i6Iil5LvQrxUUDJLCJmUdPUClLVG1F2qJn87jYEe48jHavsLw7N52g6c/XdbRnj/dFfHaN5kAzzla+mofFcXhf4U6fqchUyiwiSFSfvSFcAe/rXj1Y3sj7PDy5b3PKvjx4oGt+LBYwyZg09PLIHQyHlj+HA/CvRf2f/DB0jwvLqMyAT6gwZOORGvT8zk/lXiXhfQbrxp4oht2cl55DLcTsfur1Zif89a941bx4LOGHRfCcImlRBCs+P3cSjj5fU+/SpqaQUEOj71R1JHW+IvF0eitHY2SC81mf5Y7YHiPtufHQVpeHdHbTIZJbl/P1C4IeeY9zjhR7DoBXM+B/C8ehxteTy/bNSuOZLlyST7DNT+Nfilo/gezb7RMs9/t+SziwWJ9+eB9a41Ft2R6HMo6yOj8SeJrDwnpM2o6jOsMEYwPVm7KB3NfJHjzx9d/ELxE95dN5Fsg2W9vklY0/xPUmq/jjx1qvjzVGutQkIjX/AFVrGT5cS+w9ffvWJbr5eflyCMEGvQpU1TV3ueXXruo+VbH7S/sf/sb+Gvhz8A7zTtet7fVtV8aacBq9wuCBbyplYY27ABt2R1bB7CvzP/ak/ZZ8S/svePHsr6OS/wDDVxKW0rWwnyXMYOdj/wB2UDqvfGRxX6gf8E5fi8vxT/Zo0a0uJzLq3hljo91vbLFUGYWP1jKj6qa+hPG3gnQfiN4bu9A8TaTa61o90u2W0u03q3uO4YdiMEdqZ5kKrp1Hzao4X9i3UNP1v4A+EtUs4I4bqSyW0vGXq7wkoGb3IAP/AAIV7wegryH4CfB23+CUesaNpOoy3Phy6lW5s7O55ktGCBGQN/EpCoeecg9c5r1+vVoP92jyMXZ1pNO6Z+a3/BXDwONQ8VfCXXJVZbOV7rSp5lH3STHIgJ9SBJj6GvmvQPBemaFCotrVA2PvsMsfxr9N/wBu74Pz/GD9njW7fT0D6zojrrdiMDLyQAlkB7bkLj64r84/Dt3HrWi2d8hO2eIOM9enP618/malGafRn1uSyVSjy9UYvjXwv/wk3hPU9OQYlmhPlbuB5gIK/qBXyFNC9vI8UqNHLGxV0YYKkcEGv0K8GeBr7xnqq2tmjCNPmnnYfJEvqff0HetX4p/sbeB/H80VzAbvQtTRAkl5aAOLj/bkRuC/uCPxrhw+MjR92psz18RhJVvejuj4X+B+qWei/FPQLzUNMbVrSObL2yoGONp+bB4O3g8+lfa938b7b7LNDpui7FaJkEk7gAAqR0Ue/rWb4V/Ym0LwfK1zba1e3t6VKCa4RFCg9dqjp+tZ3jb4X6h4Et5biU/adPIYeeoxs6/erHE14Vqq5DfC4eVGk1M+rP8AgljN5n7Ml1EOVt/EV9Ev0xG39a+wq+Uv+CZOgTaL+ynpFzNGY/7W1O+1BMjGUMvlqfxEX5V9XV9Ctj4ev/Fl6hRRRTOcKKKKBhRRRQA1hWrpbZtz7Nistqv6Sw2unfO6t6LtM56/wH56/wDBWG3Z/G3wQlIPktc6hGSfu5xAcfWvmH/hG9Pvov3luqtj7ycGvtf/AIKu+F2u/hJ4J8WRoXbw94jh80j+GGdSjH2G5Y/0r48sm3Lkc554rysyuqiaPrMlalh7M4HxZ8Ibe8028mtOZlhdlXG0nCn04P5V8zFSvBGD6V+gfhHwnqPizUYrexiyqn97Mw/dxj3Pf6DmvHfjv+xf4l8P63cap4QiPiLS52Mr20ACz27E5IC5+ZfTHTpXPhMRGLcJs7cbhnJKcEfL3avav2Ufgro3xw8e3+m69dTQadY2ZuTHayKkszlgoUE54GSTgdq4E/Cfxkt19mm8N6jaSA4P2q3aJR+JGMV658O/BcvgK2MvntHq7MJDcQMVKEdApHp+tehVrRjH3XqedQw06k9Vobnxw/Yf1PwHZ3Or+Fb9tb0qIb2tZlxcxr+HDAfga3v+CVWizah+2Jo06qwXTtKv7iXjoDGIufxkFdG37QfjPT9MNvcy2eoqEK+ddW5Zzx3IIB4Fewf8EhfAM+reK/ib8TrqBYopWTSLUom1C7N504X0x+5H/AqeEqSqSsycyoxo0XLubn/BZrxZFB8Pfhz4Y8webfarPqLRd9sMWwH856/Ka3tzdXEUAOGkdUBPqTj+tfcf7cVx4j/a7/bCuPC/guxm1PT/AA0iaEl1FGTbwyBi9zK7jIADkr7+WMV8Z6VYpa+Mray3idItQWASKMB8SYzj3xXZVleTsebhqThTjfqfVeg6TbaDpsNlaRJFHGoB8tcbmAALH3OK088VDGhUnPXNSnpXjvVn0cdFZDacKbSrQMbcS+TDI+cEKcV8dXqm48VXA6iS9YfnJX2BqJC2c3shNfJOhxjUPGGnp08/UYxz/tTD/GumhszixCvY/dL4l/sxeA/jp8O7TSPFehW8t2lnGkGqwRhLu3cRgBkkAz17HIPcV+Nv7Tf7OHiH9mn4gS+HtaBvLCYGbTdVVCI7yHPX2dejD19jX752a7LWJcY2qB+VeJftkfs/Wn7Q3wV1bRRCh16zVr3SLhhylwqnC59HGVI9x6V0xeiPFjL3rM/Fj4P+PW8I64LO7mI0i8bEgbpE/Z/6H2+lfSxr4uurWS1mlgnjaGaJzHJGwwyMDgg+4Ir6d+Efig+JvBts0sm+7tf9Hmz1OPun8Risa0ftHr0J/ZZ2deX/AB0UxW+hz5wFnkQke6Zr0/cRXnPx4h8zwXDP/wA8LtGP0II/wrnhudM9j57Uc19x/wDBIiz+0ftNatNg5h8N3LD8Z4B/Wvh1cjr1r9Bv+CN2nvJ8Y/HWobFZIdBSDftyQXuFOAe33Px/CvRp/Ejw8S7UpH6r614W0rxHGE1KwhvAv3TImSv0PUV5l4u+A9t9nmutAdoZ1G77JK25Xx2UnkH65r2WmstdFbD06y95aniUcVVoO8GfKvhXX5vB+rO7WzMD+6lhIIbOf55pdUn1P4heKPLt7dnnY+XFAv8AAoPUn+Zru/jd4Wj0+9t9Zt0CJct5c+BwX6q34gY/Cuh+B3huPT/D76pIgN1eMcMRyEBwB+Jyfyr56OGlKt7BvRH088XBUFior3noUfD3wBsIIY5Nau5LyfqYrc+XGPbPU/p9K9H8P+HdP8MWP2TTbZbaDcXKLk5Y9SSeSa06XivoaWHp0V7iPl6uIq1vjdxKKM0VucwjDK1/P3+1d4NHgH9pH4jaKsLQQRa1PNApGP3UreamPwev6Ba/HT/grB4L/wCEe/aUs9bSMrDr+jxTFscGSJjE3PrgJ+YrkxK9y56mAlao49z4u6dKVWK9qTp0oyfSvJPfP2s/4Jg+OD4v/ZP0KzkffPoN3c6U4bqFV/MT/wAclX8q+s6/Nb/gjd4u3ad8SvC7OSIri01ONew3o0b/APotK/SmvoaEuammfLYmHJVkgoooroOUKKKKACiiigBK/PH/AILC+CftvgDwL4ujjO/TtSk06ZgP+WcyBlJ+jRH/AL6r9D6+bP8Agoh4NHjL9krxuojMs+mxxanCBnIaKRWJH/Ad1YVo81No6MPLlqxZ+Gp+mKFoPPI6Gha+cPqz6r/4Jl+MD4T/AGs9Btml8uHXLK601wecsU81B/31EP1r9r1xX873wN8XN4C+M3gbxErhBpus2s7s3QJ5qh8+20tX9D8Lh1DA5BGQfWvVwkvdaPBzCNpqXcf+dFLmiu88oGr8t/8Agsh4q87xV8NvDiuf9HtLvUZI+3zukan/AMcev1Iavxe/4KoeJP7e/asubMSb49H0m1tAuc4Zt0p/9GD9K5cRLlgehgY3rJnyEpzS0i06vFPpb6H6T/8ABHLwuGuviT4jZOUWz06N8evmSOP/AECv00WviP8A4JJ+HRpv7Nup6mY9sup6/cPux1WOOOMfqrV9uLX0OHXLSR8riZc1SQ6iiiuk5AooooAKKKKACoL26jsrWa4lbbFEjSMfQAEn+VT1w3x017/hF/gz431YHa1no13MpBAIIibGM+9TJ2i2VFczSP5/PiV4hk8WfETxTrUrmSXUNUurpnY5LbpWOfyxXN01GZ0Vm5YjJz606vm5O7ufXx0Vh6nbyf4Rmv3/AP2S/CY8E/s1/DjSCu2SLRbeWRcEfPIvmtx67nNfgboemtrWsWGnoMveTx2yj1LuF/rX9EOk+JtK0PS7PTo/MCWcKW4whxhFC/0rqwsoxbcmebjlKUVGKOsornf+E60z1l/74NL/AMJ1pn96Uf8AbM13e2p9zx/Y1P5ToaK57/hOtL/vSf8AfBpP+E60z1l9PuGj21PuHsanY6Ks3xHq0Wh6JeXszBUhjZvmPU44H51z+rfFXQtJjzLLIZO0aoS1eRfET4k3HjJhbQobfTUO4Ix+Zzjqf8K48RjKVODs7s7sNgKtWabVkQfDTxINJ8dW11cN5cV0zQyEnAG85BP44r6VVgRwa+R59JubeziuDGwU4OR244r1f4f/ABkhWzj0/XX2SxqFS66hx/tehrzsDilTfs6mlz1cywcqlqtJXPYqK5+PxzpEsIljuDJH/fjXcPzFA8baU3/LdgPdDXve1p9z5z2NT+U6Coby3jvLWWCVBJFIpR0YZDKRgisceNdJ7XDH/gBpR400pjjzm9/3bH+lL2kH1D2U1rY/nh+Nvw/f4W/F7xn4RkVkGj6tc2sW4ctCHJib8UKn8ao+IPElz4k0/RdJiUrb6fbJGsf9+THzMf0A+lfQ3/BQ61svGP7S3inxH4aRJtMkkjsZpVOBNdQRqkzJ/eAOFPupr5302xvtPj3RWjeaSAZJSABk44rhnZvQ+ooqTgmzf8K6BdW1u0McmwSj99JnaMehPp7e1dKPEnhvwepVrn7RMB8y2/zu5/DgD61yU3h3VtSh8u71YxIf+WUCnH9M023+GtijBpri4nPcDCj/ABrPkW7Z2XcdEiXxX8bNY1hDaaUjadbsNuU5lYemR0/CuRsPCOr6zKZpw0SudzTXOcn3x1Nel6b4esdKX/RraOM/3iu5vzNaAhDHk1rG0fhRnZy+JnIx+E7PSdFvdqmWYwtulbGenYdq89Rq93/sObULG7MSkxLBIWdh8owp7+teCL9c073Mpx5T7R/4Jb/GQ+Avj43hS8uCuk+Lbc2yqxwqXcYLxNj1IDp+Ir9hK/nC8LeJrzwX4l0nX9OkMd/pd1FeQMpwQ8bBh+eMfjX9EHgTxdZ+PvBeheJNPcPZ6tZQ3sW05wsiBsfUZx+FLoefWjrc3gxjYMpwQcitqxvVul64kA+Zf61iUsbtG4ZSQR3rWlUdN+Rw1KSqLzOhmjWaNkcBlYYKkZBHoa/OD4i/sr6p4D+L2raRpdt9m8G6jM2padfOP3NsjtmW3z/eRslV7qw9Ca/RS01OOTCyHY/6VneNPBum+PNBl0vUlZ4mIkjkjbbJFIPuuh7EfqODkE1riqMcXStHdbDwOKlga15bPc+RNNs9L8I6HHo+jJiJeZZTjfM/QuxFVSxbqc10vjj4Y6/4BaSS6t2v9NTkX9qhcbfV1HKn9PevMp/iT4XtZHjn1yzhlQkMkkm0gjqCCOK+Cq0atObjNan6ZRrUq0VOnK6Omx3qvqPh+HxpbyeFm/eXGtQyWsUKn52yuGceyA7iewFcxp/xEtvFGqrpHhGyuvFusPgLb6dE3lLno0kxGyNf9onFfSvwL+Cdz4Dkn8SeJriHUfGN9F5TNASbfT4M5+zwZ5xnBZzyx9gBXVhcLOpLmeiRxY/HQw9NqLvJnoPgDwZp/wAO/BeieGNJjEWmaRZx2cCgdVRQNx9zyT7k10FNHWnV9UfB3vqxGYKMkgCl9D61wXjy1j1DxRottfzSwaXskd5I5CnzcbckV0HgmWebw7CZ3aUxu8aSt1kjDEI34qAawjUcpuNtjeVLlpqd9zdooorY57hRRRQAVLazfZ5g2MjofpUVAqouzuhSXMrHM/tAfCe2+OXwa8VeCpnWL+17Jo4J2GRFMMNE/wCDqp4r4L8E/szSeG7SCDxfqElzqNkPIuLa2Uxxl14OWPJBx7da/SiyuwoEbnjsa8A/aW/Z0v8AxlqEXjbwVMbbxZaKFns2lZYNSiH/ACzcA4DY6Nj61lmFF4imp03qjuynFLC1XTqu0WeUWy2ej2qWWnW8drbxjAWNQAP8+tJnd3ya4XT/AInabb6o2i+Ikk8K+IIjsk03Vh5Lbv8AYY8MPcGu0hkWSNZI2DxsMhlOQfxr42UZReqPvo2lqmSyRpMu2VFkGMfMM1lXnhHRb7Jn0q0l9zEP6Vps2eO9XdB0e+8TaoNO0q2a+u+6R9EHq7dFHufwzSipzdo7hOUacXKbsjzfxR8FdG8TaTd6Zo/h+OTXNQja2sFgyrGZhhSOcAA8sTwFDHtX2L8G/gvafAH4EaN8P9Cu/s97b2hWfUkjBaS6k5muMHvuJKg9AFHatT4Z/C20+HVm1/fvHfa5KuDNGvyxL/zzjzzjPVure2AB000z3Em9zz6dhX1mEoywtN8795/gfC4/FrG1FGHwR/E8oj8G+GP2a/gp4kl8PWQs7LSdOu9UnmkbfNczLEztLK55d2I5J/DFfhH4PeXVfHOkSHMk0+oRytx1Jfcf61+137fnik+FP2R/iFOjbZLu0j05PrPKkZH/AHyxr8Yvg/bG4+JGiKBuEcjSH/gKMa6V8LYUbyaufVG0U6l2ijbXnH0WyEopdtG2gkyvEU3k6RfOCAy28jDPspNfH1ufNuYv9uReB3yR0r6t+IV39k8Naw+cbLKQj8Rj+tfLPh6H7VrWnQ9mmQZ/Guuj8LZyVtZxR+wH/BPv9oi/8b6LdfD/AMS3r3uraRAJtOvJyTJPaj5TGxP3mjJXnqVI9Mn7GbkA4r81v2F/A9/a/FjSfEkqtbWxMltAp4M4ZDub/dA/M/Sv0rPNTh5ucdTgzCjGjW93rqfhD+3R4AX4b/tQeONNghMFld3Q1O3TGBtnUOce24tWH+zrqBTVNWsuzxLKOfQ4P8xXun/BWizS1/acsJlAU3Hh+2ZvciSVc/kB+VfN/wABJWj8eFR0e2kB/MH+ldU1eDFh5e9Fn0eetcz8SNJ/tnwTq1uFLOIGlUDrlfm/pXTc8560jIskckbgMrqVIPvXnp2dz2nG6Z8bxtuUH1FfpV/wRftXk8QfFC5CS+UlvZRl9vybi0pwT68ce2a/OfxRo7+HfEWoae4wIZTs91PKn8q/Sf8A4I3ataaP4e+KEtwzq015YqNq5Hyxyn/2avSg1FpvY+excX7NxW5+ntI1YH/Ca6Z/z0k/79mj/hNdM/56Sf8Afs12e2h3Pn/Y1OweNvC6+MPDtxppl8hpCrJLtztYHPSrvh3R00HRLLT0fettEsW/GN2B1xVBvG2l/wDPST/v2aX/AITbS8f6yT/v2ay5qXNz31NOSty8ltDf/GkxWD/wm2lf89ZP+/ZpP+E20vtJIf8AgBrT21PuZ+xqfym/RXP/APCcaX/z0k/79mj/AITfS8n95Jj/AK5ml7Sn/MP2NT+U6Cvzg/4LGeETJoHw48TovFvdXWmyN/10RZE/9FPX3/8A8Jxpn96T/vg18k/8FPZLLxh+y7dywBnm0nVbS+GUxhdzRNz9Jayq1ISg0mdWHp1I1Yto/Hqiig8V5B9Cfan/AASU8SHSf2mNU0svhNW0CdNuerRSpIPxwW/Wv2JH9K/Cj/gnz4gPh39rr4fzb9i3VzNZP7iWCRQP++ttfuqhzivcwsuaHofP4+NqqfcfRRRXceaFFFFABRRRQAVzPxO8Ox+Lvhz4n0SRPMTUNNuLbae+6NgP1NdNTZOV5qZapoadmmfzTzW72cklu4w0LGM8d1OD/KmLXcfHTw9/wiPxo8d6Lt2LZa3dxqv91fNYgfkRXDrXzElZtH2MXzRTFZmVSVJVscEV/RJ8E/E48Z/CHwVrfmeY2oaNaXDNjqzQqW/XNfzuoRuHfmv3I/4J5eJT4m/ZH8BSM4d7O3lsG5yR5UrKAffGP0ruwktWjy8wj7iZ9H0UUV6Z4IrHivwR/bc10+Iv2rviXd5BC6q1su3oViURg/ktfvXKwjjZ24CjJNfzo/FjW28SfFDxdqhYObzVrqfcDwd0zGuHFvRHrZf8TZylOXqKbTs7Y2PopP6V5Z7jP3K/4J26F/YP7IvgQFQrXkM162O/mTOwP5Yr6SrzD9mPQV8N/s8/DnTgu0w6FaAjGOTErH9TXp9fTU1aCR8jUd5thRRRWhmFFFJQAtFJS0AFeBft5a43h/8AZH+JNwj+XLLpptkbHeR1T/2avfa+Tf8AgqFqQ0/9kTxAu5la6v7K3XacZzMpx+SmsqmkGbUVepFH4okbSQOgopeGJIP5Uba+cPrEej/s46IPEfx6+H+nMm9Jtbtd6nP3VkDN+gNfttIxdi3djmvx6/YZ09NS/am8Cq/KQzzXB/4BbyMP1Ar9hM5AqWZS3G01qe1NqCRFoYFlYAlcgjcvUe4paKQHF6h4CmLPJbXnnv8A3bjIY/8AAq5S7tZrOZ4Z42ilX+FvSvX6wPGWjrqGmvcKv7+3G4EDkqOo/rXFVopK8T0aGJafLLYyNU1S3bw4gV1ZnVQBnnIHSue0jRb3XJdtrF8g4eWQ/Ivtn1+lVrSye/u4bePmSVgo/GvWrHT4tLs47aBQscYxwOvqfxrOnH27u9kb1aqoRst2c/ovguTRb2K5bUHLIxLRwrhW46H1FdI2D781IRlaYVr0YxUVZHkVKjm9Riovc4rxf9qD4wXvw38L2Hh7wvi6+Ini24XStAs05dZHIVpyOyoDnJ749DXf/FL4maJ8H/Amq+LfEM/k6dp8e4qv35pCcJEg7sx4H/1q+av2FfD+r/Hb4peLP2mfHkXk2GnpNa+H7N+YrdFU7ymf7ifLnuzMa7aFPnld7GE5ci5jxv8Aa28O6b8ONc8IfDTTZhdp4R0VILy5J3NPeTMZZ5GPqxIPPPPtXzb4pZbXSw6/KxmjHH+8K9W+LV3q3jT4geIvE13E8j6ley3OV+bapY7R7YGK8a+IlwbewtYcFWaYMfwB/wAa2bT1R6dOLhBJnUCJB8y9+akWuo0nwK15DDNPcqkciBtsa5PIz3rpNP8AC+n6aAUg8xx/y0k5P+FYupFHRys4Sw8P3+okeVAwX+/J8orqdL8BxQ4e8fz2/uJwv/166dFC9BipPMNYyqt7FxijM1i1jtvD9+kSCNRbSAKowPumvjNcDoa+0taYto98Mf8ALCT/ANBNfFSk1rQ2Zy4lJJWJa/af/gmb42fxd+yrolrLJ5k2i3dxppz1Cq29B/3y4/KvxXWv1l/4JFSyL8DfFisf3Y8QHb+NvFx/n1raT5UebU+A+8KTNczf+IJ9Rvm03TG+ZDi4uV6RD+6D/eqzdapFoVrDbxhrq6kO2KLPzSH1+nvWHtFcx9lJWvubn4VNHdSQjCNtHpWcbxLO3V7qVRJgbgp4z6CpBfQ+WsjOEVum7jrWsZ2ehjKnfdGlJqEkibWCkd+OtcjrHwx8IeI7wXeq+FdF1G6H/La60+J346cla6RWDdOafz6VbfOve1Jj+7+HQpaRoOmeH7QW2lada6Zbj/ljZwrEn5KBWh2pKWjRbC1erCiiigCvcWcN1/rYlkwCBuGeD1qaNFjjCIAqgYCjpTqKPMNbBRRRQSFFFFABRSrS0xDcGpFmkj6OcelNoqlpsJpPc5H4jfCnwh8WtN+xeLPD1lrMOCFaeIeYmf7rj5h+Brwz/h3/AODNLuvM8O+KfF3hqLduFtZ6oXhH0Vwa+oDQW4rnqU4yd2jpp4irS0hKx414b/Zj0HQo411PW9d8SBP4dQuwqn6iJUJ+hJr1PSbKz8PQx2+mWsFjAgwI4Iwq/pVi4mCsI1OXas2+1LyJltofmuXGdv8AdX+8aySp0/hVjWU6mI0qO5qSTNcPuZsnp9KZgVnzahFptmJp344+pJ7YqO31BhG91cAQKVyI27D1PvVOqupKpvofGv8AwVr8SjTP2fdA0cNiTVdeiyoPVIo3c/qVr81PgFaNdfEBZQOILSVifrhf619f/wDBXbxq2peMvh54cVgI7XT59RdO+6WQIuf+Ax/rXzH+zZp5+3a1ekfKsaQK31O4j9BWrf7u53YaNppHuf4UU6kavPPdkNopaPTINMg84+L18IfBeutn75itxj3YE15f+zh4fj8T/GXw1ZzwrPCLgSvGwyCF56fhXWfHDUB/wiMKDj7TqDt9QoP/ANarP7EOkte/GhbrbuWzsppenfG0fqa6PhoSZz74iCP07+BWm/bPiFZMiARWkMkp2jhfl2ge33q+nz1rxz9nXQDb6XqGsSLg3T+TE3qidSPbccf8Br1HxJ4gs/Cfh/U9a1CVYbDTraS7uJGOAsaKWY/kKWFi4wVzzMyqe0xDt00Pxt/4KleKIPEX7VmoWsDh/wCyNMtbF8HOH2tIR+HmCvDvgHEzeMXl7LEU/En/AOtWB8WPHl18UPiV4m8W3ZzPrGoTXhH91WYlV/BcD8K7z4D6aYXS5K8zylgQP4VUj+ea7amkGLDJuaR7ifvHNJTm+bnFIteae7sjxL9oLw2Y5rPXIV+8PInx6j7p/Kvs7/gk3Y7Phv49vNykzatBHtzyNsOf/Zv0rwXxpoCeJ/DN9p7AF5Y/3fs45FUP+Cfvx+X4K/GCbw/rM5tfD3iYpYXEkxwtvdKxEUpz2yxQ+zD0rpTcoNHmV171z9c9tNp2R0zn8aQ1yM49hlL2paKBibaQinUjUwG0UtFMBK8b/a/0z+1f2afiJFt3GPTGnHHTY6vn/wAdr2WuF+OtidR+Cvjy1Ay02h3iAY6nyWI/lTGj8QM+lFIv3QepxS0GqPQf2d9Z/wCEc+Pfw81Mnatrr9lISTxjzlB/Q1/Q2tfzbeF7o2HibSroMVMF3FKCvX5XB4/Kv6RbaTzYY3HRlB/OvXwT0aPGzFaxZNRRRXpnjhRSUUALRRRQAUjc8UtJQB+E37f3h8+Hf2uviHHt2rdXMV6v/bSFCf1zXz3X2V/wVe0JtL/akjvtjKmp6JbS57MUZ4yf/HQK+Na+brK1Rn1eHlenFi1+wn/BJXXP7S/Zmv7Bmy+na/dRhc8hXSKQfqzV+PVfqT/wRw1jzfBHxH0w4/c6nbXIH+/CVP8A6LH61rhX+8MMd71E/RKinZor2LHzZk+Lrwaf4V1i6yAIbOaTJ7bUY/0r+b67mNzdTzNy0kjOfqST/Wv6IPjbff2b8G/HV2OsOhX0gx6iB6/nZj+aNCepAzXm4zoe3l20mFT28ZmlSMDJkIT8zj+tRba6D4f6edW8deG7ILuFzqdrCR6hpkH9a89bo9aWibP6I/BdgNK8IaJZKMLb2MEIA/2Y1H9K2ajt4xFCiKMKqhR+FVtaju5tIvY7CRYr54HWCR+iyFTtJ9gcV9OtInyD95j4dUsri9ls4ruCS7iAaS3WRTIgPQlc5FWc1+GPjLS/iz+zv8UpNZ8RHWfD/ilLhpU1jzWZbkliSyyZKyK3cH6Yr3/4K/8ABQv4u+LPjX4U0bVbzTL3R9V1OGzmsxYpFtR22syuORjryT0rhhjIt8slZnqzy6fLzU5Jo/Q/4sfHjwL8ErOG48ZeIbbSDOCYLdgzzTY6lUUFiPfGK8BuP+CoXwft9QkgEHiCWBM4uY7FcNjuFLg4/Cuu/aO/Zv8Ahf8AtKXWm6jrPiOPTdasE8mK+sb2I7oiSSjIxIIycg8Gvyh8aeFNK8N/FrU/D9lcm80W01X7Gly0gO+MSBSxYcdM8j0rDE4irTmlG1jTB4SjWi+a90fur4N8Wab468L6X4g0iVptN1G3S5gd1KttYZGQehrariPBupeCvBfhnTdC0rW9Lg06wgWCCM30bEKBgZOea66x1K01SHzrO6hu4f8AnpBIHX8wa9OErpXep48o8rdloWa+J/8AgrXfNbfsw2VurY+0+ILRSvqAsjfzAr7Xr4O/4LAXCx/APwrEWw8niOPC56gW82T+GRWdfSmzXD/xon5IrTs0wHNLXz59UfT3/BOWx+1/tNafJtU/Z9MvZvmz2ix/7NX6v4PpX5df8ExYt/7Q2oyEZEXh+6b6ZkiH9a/Ubcc+1SzGT1G7aCtLRSsSNop1FKwxtDRiRGRuVYFSPY8GnUu2hoE7anBeCdP8vxHcgjP2QOOR1OcA/wA673JbtiqVhottpt5d3MIbzbpt0m5sjqTx6dav1lShyRsa1qiqSuMplzNHZ28lxcSJb28al3llO1FUDJJJ6ACp1Ga/PX/goN+1gb+Sf4Q+BLprqeY+Vrl3aHJJP/LohHXOfn/AetdMI8zsc6Wpxfxa8b67+3/+0Vo/w/8ABkko8FafclIZlB2SYOJbx+OmAdgPb6mv0B+P1vo37Ov7K0Xg/wAOxrZW7wxaPaqnDHI/eOfUkKxJ9TWN/wAE+v2TYf2d/hnFq+s2yDxnrkKzXbMvzWsRAKwex6bvfA7V5N+3R8SF8VfEyDw3aS77LQYtsu08Ncvgv/3yu0fUmvTn+5ot9zCm/rGIVOPwx1PmtT1968I/aFaOPWNMijQJ+4Zm2jBJz1Ne7rXz1+0JPnxhbRg/ctFzn3ZjXl0fise/V0R7r4dkMuh6e3XNvGf/AB0VpZrB8Fzef4T0iQkHNrH93p90Vuioe5qtkLSrTactIZW1QbtNulxkmJxx/umviuRdrsPQ4r7Zu1327r/eUj9K+LL6Mw3lxGeqyMp/A11UOpx4rZES1+qn/BLmG8j/AGeNbi05XW7vtflzMynbEiwxLuz35z+NflYoNfr9/wAEoby0m/ZtvokK+fa61cLPzyNyoy/mK1rR5o2OC/KuZn1OxtfBejrGi+ZMxwq/xTSGq9r/AMSeGbVNTZWvZh8zHkIO0aVY+zefdTa1qLGKKNcW0ZH3V9ceppmnaPPrd0mp6gPLtY/mgtT0A7MfWvN97msjXmjy3k/X/IZaxy3zNquqDyIFG6GE9FX1PvU9i0msT/bpiUtF/wBTEeM46NTjGfEd0wYFdNhbH/XVh2+mavTbr24+zwriJMA4GPwqoxd7rb8wcun9Iu6fI9wxbBCfStaobW3+zxhe/ep69GKajqeXUkpS0CiiiqMwooowaYBRRg0UAFFFFIkKVaFpc4poQUjUtFUAi0NQ1JSGGarXtx5MZxye3rVhs7TXN+INUazixGhlnc7UQev+Fc1afKjejT55WKWqawdOxHAPP1CfoM8L7n2FFvbjRLSW6un3yuN80zdc+n/1qm0HQDpyPqF9JuuZPnZmPT/63tVBYJfFt950gZNKhbKDp5xHcjuK4dep6SlDWK2W7E0uGbXrsahcqY7WPi3hb/0I0x7hvFWsmxt2Y6bat+/lU5Dvn7o9hzT/ABNqkrXCaFpJ/wBPnXMjRniCM9z6E9qu309n8O/CM9xsLJawtIVBG6RlUk8/h19KUYtu33g5WSstXsj8av8Agoh43Txr+1R4qSF91rowi0mLnp5S/OP++2aoP2edMNr4Lnuz1urpiM+igL/jXh/j/wAQXHi3x1r+tXL+ZPqF9Pcsw5yWcnr3619O/DnS/wCx/A2i22MOLdZH4x8zfMf5/pXfU92CR0YeNpnRvTKc1NrkPTHR/epLmQRW8kh6Ipb8gTSx/erL8XXX2Xw1qUoOCsDj35BFBJ4D8Z9QL2Xhy2z1t2uCO/zNwf0r3T/gnX4PuvEHiTxHJaRl7iZIbKNsZxubcxPoABk/Svmv4tXom8Vi3U7lsrWG39shAT+rGv1S/wCCWPwysvDf7PcXiuS3I1bXr2d/Nk7QowjQL6A7Sfeu2UL0lE86df2dRzPsLw/o0HhvRLPToMCG2iEYPTOByfxPNfBf/BUz9p6Dw94WT4R+H7zdrGqhZ9baJv8Aj3teqQkjo0hAYj+6v+1Xqv7ZX7d3h79njR7rQPDs9trvxEmUpFZqweHTsjHmXGD1GciPqe+BzX43+IvEmpeMNe1DXNavZdR1bUJmubq8uG3SSyMckk/5xgelbRWh5NnJ3kZ1rZyXt5FBGpaSVwgA55NfS/w10xLFQkajZbxCNfrxn+v515L8P/DvlRnU7hcOwxCp7L3b8a978J2ZsdJQsAHm/eH1x2H5VlWl7tj18NDl1ZstTKexpNtcSO4Tbmvnf41eExoHigXsC7Ib/MyFeNsmecenPNfRiLzWD8QPAy+OPDN1axIWvrdGubfaMsSoyyj6rn8q0hLldzKpDnVj7E/YO/aQHxu+Ga6NrFz5ni/w8iwXZc/NcQ9I5vyAU+496+oGB6Y5r8MvgX8YtS/Z9+LWl+KbMO8Fu5jvrRGK/abdvvofU9CM9wK/bTwX4w0r4geE9K8RaJdJeaZqVulxBKpByrDOD6EdCOxBFOpGz5lseU97GvRSmg/dFZCEooopgFFFFABWJ41s/wC0PB+uWhziexniOP8AajYf1rbqlq3zafdKRkGFx/46aQ0fgmy7SQeuabU9+oS+uFHRZGH6moKo2Ww+GQwyBx1Xnj2r+kXwrcfavDelyjpJaQvz15QGv5tm5Rx/sn+Vf0bfC24F18OPC0w6SaTaP+cKV6mB3kzyMx2idTSFgOpoPNfmb/wUi/aI+IHgP406f4c8M+LNS8OaZbaXHcmPSp2haSR2bJcjlhgDA6DFehVqqjHmZ5uHovET5Ez9J9W1ay0LTbjUNRuYrOxtkMs1xMwVI1AySSegrjPhr8ePh/8AF+5vrfwd4q0/X57FQ1xHaOS0ak4DEEDjPevxi1D4ofHTx94ZnsbzxB4617Q9Qi2SxO1zLDOmQcHAwRxWJ4N0r4ofDPUJdX8O2Hizw7cmFg93p9tcwHy+CQzBQNvTr6V57xzumo6HqLLVZqU1c/fbIo3Dpnmvwy0f48fG/wAQTmLTPHnjTUJQnmGO01CeRlX1wD0zXZ/Cv9oP456b8TtH06Pxj4hudVuLyC0/s7Wrgyxyb5FGxklzt3evB561ax0b/CyJZZNJvmR+zVLTI8lVJGDjmnV6W54p+V//AAWM0Iw+P/h1rO3AuNNubQtzz5cquB/5ENfnlX6h/wDBZDS93hP4aan/AM87+8tif9+JWH/oBr8va8DFL94z6bBu9FCV+in/AARv1MR+MviZp28YlsLK4C45yskqk/8Ajwr87K+6v+CQuofZ/j74rs+guPDjt+KXMX/xRqcP/ERWL1oyP1wopMCivaPmDyz9qq+Gm/s1/E25I3bPD17xnGcwsP61/Pwv+rUewr98P21pPL/ZR+KJ3bc6JMuceuB/WvwPH3Qc5NeZi90e5l69yQ+u9+ANr9u+N3w+t8Z8zxBYL/5MIa4KvS/2Zl3/ALQ3w1Xt/wAJHYf+j1rih8SPVn8DP6Dl6UppFqK8hkuLWaKKVoJHQqsqgEoSMBgDxwefwr6c+NPj3/gol+0l4Y+Hfw9u/A62thr/AIv1mLbHaXMSTJp0RGPtDgjh/wC4OpPPQc/DXwS/ZK+I3xH+EviL4jeFkmjlsSbfS7WEAT6lnK3BjJxjarEAj7xyB0q5+0x+xv8AFP4UX2r+Jdajk8U6HJdO0uvQSmWVgx3eZOvLIPUngHvXoX7EX7X3j7T/AIueEPAur6kup+ENQZdLi0/7PFGLMBD5bxFFBABUZBzkEnrzXhVP3lX97ofUU4yo4e+Hd+54f/wyT8blyB8MvEx7Y+zjB/8AHsV5e2kahDrR0h7OT+1o7o2TWf8Ay087ds8sAfxbuMetfqh4i/4KkfDPQde1HTk0jW9QSzuHtvtUEaeXLsYqWXJ6cHHqMV+Zc3ja0/4XHJ4t8iV7A+IP7WEGQHMf2nzduegOOKxqU6UNYSudOHrV5p+0jbsd/D+yH8cpVGPhv4hxjPKxj/2evtT/AIJy/An4r/CzxD4l1LxjZXfh/wAPXVssEemX0wZ5pw2RIqBm2hVyM8Z3D0q2v/BWb4cKoB8K+Is98CAj/wBDr3D9nL9sTwN+0rcX1joH2vTtXs0819P1BFWRo8gb1KkhgCQD9a7aNOippqWp5mJr4mVNxnCyPdT0FfAH/BYof8Wd8Cn/AKjzf+k8lff5r4A/4LEqP+FN+Bmxk/2+wz6Zt5OK7sR/DZ5eF/jRPydWnU1adXgH1B9g/wDBL9d3x613/sXJ+n/XaGv0942jHIr8wf8Agl+2Pj3rg7Hw7Px6/voK/T7+EUS2Oee4lFFFQZrcKKKVaC7gBTqKKAuFKq7qFXdXy/8Atoftm6d+zvojeH9CMGqfEC/j/c2+7cmnxsOJ5R3P91O/U8dbjFydkIxf26P2xovgro8ngvwhcrN481KPa8yEEaZE3BY/9NDztHbGT2rzf/gmN+yA/jDXV+K3jC0kn06ynMmmJdg5u7kHJmOfvKp7nq3rivFf2Kf2V/EP7WnxSm8ReJ5J7nw3b3QutZ1K7LF7tidxhVsjLNjkj7o/Cv2ot7fRPhn4VtbCxtotO0uxhWC1tIRgBQMKqj8K9OlTUVzS2RzYio4/uofEzG+M3xMsvhL8PdW1+6ZWmhhItoCRmWY8IoH1Iz7V+Uepald6xqF1f3073N5dStNNK5yXdjlmP1Jr6F/bM+KVz4q8SWfh5ZP3Vp/pNyin5Q7A+Wn/AAFfmPu3tXzlXDiMR7d6bHrYLC/Voe98TCvmr4+MW8fMM5Atox+hr6Vr5n+PKn/hPpOOPIT+tRR+I6a3wHsvwnuxefD/AEcjP7uMxHPqDXYV5n8Ab43PgeSEkbre6ZcexAYfzNemVnPSTNabvFCrT1qMGnqag1FYA4zyK+NvFtuLPxRq0I5CXUg/8eNfZJb2r5K+KVv9l8fawmMBpRJ/30Af6100Hq0ceJWiZz1tC0scrD7qAE5/Kvv7/gkf8WLfRfiN4n+H9/MqJr1ut7YB24M8AO9FHq0bE/8AbOvib4eaWuuNrViyhmksmMeezZ4qDwF461b4XePNG8U6NL9m1fR7tLqHcONynJVh6EZUj0Jrp3djz5xbhfuf0X3Wl294qLMm9EYMFPTIpt9Yi6t2hyVRuDt449K4z4D/ABn0X4//AAv0bxpocqmC9j23FtnL2two/ewt7q2fqMHoa9AIxRynl80ouzKEViIYRDGvlqBgbRUtnYR2UeEGT6mrNFCgkNzk1YTGBSUrUlWSgoooqRiV4Xrf7Rc3gv49TeEPEVvDYeHpoYvst+wIIdx95znGzOVz2wK91ryf9oD4F2fxi0BGhK22vWYJtLhuFb/pm5/un9K56yqct6e6O7Buh7XkxK916X7eZ6ysgkUMrBlbkFTkGhq+N/hx8efFPwJnj8KfELTLubTrcbILhl3TRqDjCtnEiDtzkfpX0/4P+KHhfx9bLLoes216ccw7tsq/VDyPyqaeIhV237FYrL6uFd7c0ejWx1FFFZHiDxZo/hW1a41bU7XT4lGS08oX8gTz0robUVdnAouTtFXZr187eMvj9q2ofG/QfCHhV45rBLuOC+kCB/OYn94oPYKoPI71zvxU/aU1PxtLL4a+HNpdXDS/u5L+GNjK4PBEY/hH+0fw9a6/9nD9n+bwDnxF4iVX8QToUjgB3C1QnJye7nue1eVUrTxFRU6Gy3Z79LCU8HRlXxfxNe7Hrfuz33+IjrQ1HT3pM5r2T50KVaSikUK3zKRWdb6PEl011KBJN/Dn+EelaK0tRKClqwUnHRGDrWn3GsSLafNFZjmVh1bngCnap9o03TPL060Ms5AjijUfKnoSewFblFQ6Kd2Wqj0VtEc/4Z8MJoUDzSt5+oXB3zzHkljzj6V4z+2t4yT4afs1ePvEE83+n3NidLsU5+V7g+XwPXBY/hX0KVzX5u/8Fhviktvovgb4e282XuJ5NZvI14wqAxwg/VmkP/ARVRpRjZdi1UlOd2z81vDWmvrmv6dp+M/aJ0ibHoTyfyzX2bGqxxqijCqMAe1fNX7PuinVPGzXjqTFYws+4jje3yj9CT+FfSW41z15apH0GGVoXJGptJupN1c51D1bbXOePm3eH3hPAuJo4z9NwJ/QGuhBrgfjNq39m+G4iDht7EeudpA/Vv0pxV3YiTsj5o8SakdU1u+uv+e8rSfmc19B6p+274y034X6H8P/AANPP4S0HTrBLN7uKdmvLjj523D5YssWPyAHnrXzbtaabCqWdzwqjJ+ldFpPgXVdR2kxfZkI+/N8v6da9XlVkmeS5Nt26mNPPLeTySTSvPNIxd3kYszsTkkk8kknrXWeD/Bcl+6Xd6my2BysbdX+o9K6XQ/AdjpRSWYm7nXuw+QfQf4103QewqWVGmt2XvD+li+1KGEL+6XlsdAor0cKFAA4A4AFYfg/Thbab9oYfvJ+f+A9q3ttcVR3lY9KKshFbqO4qQdKzdavDptqt8SfLtzukAH/ACz6N+XX8KvQzLPGssZDxsMqw6EVkUTx/erQ0nUptJ1K0vrcr59tKsqbuQSDnBHcHofrWdH1/CpVpiaOH/bY/Z4T4e6xpvj3w5DnwJ4uiF7ZFRkWcrjdJbN7oc49vcGvQP8Agm/+07H4J1sfDDxDcKuj6tN5mk3Uhx5F033oSf7snGPRvrX2N+z74E0j9oj9l7Xvh14oCz20dxKtnJgF7bcAyOme6uW/A4r8k/jF8J9e+A3xN1bwpraS2mqaXPmKdMqJEzmOVD1wRhga7UuaFzw+Z88oS3R+7/WhulfNP7Dv7Ty/Hz4ejStYnX/hMtDjWO8Vm+a6h+6lwPrjDejfUV9LNXFJOLsyxtFFFIAooooAKr6goaxuc9PKf/0E1YqprDeXpF++cBbeRifopNAH4L6pj+0rvHI85/8A0I1WWn3Tbrucnr5j/wDoVMWqOgcvf6H+Vf0R/AuXz/gz4DkBJ3aBYHJ/64JX87ecZ+h/lX9EXwHj8r4J+AF6/wDFP2HbH/LvHXo4H4mePmHwxO7Pavx9/wCCnCm8/aiuIg20ppVqNx6Dhj/Wv2Dr8c/+Cl8jj9qrVhzj+yrQD2+U9K6Ma7U/mZ5Z/H+R9E/E79pPxf8As2/sq/BTUfClpayx3ulxR3Ut3bmRF2wptXgjBJyffFeF63/wVC+JPiLwzqGiXegaAyX1tJbyXMdvL5iq6lSQPMxkAntXpH7WeG/4J0/B5mG5j/Z3X/ri2a+ZfgZ48+CHg/wqo8ffDHUfGHiIXTubyPUmihMRA2L5e4Djnt3zXDU5lNQUraHoUo03FzcLu7/MT9nX9oTWf2efEl1rWh6ZaapPeWn2SSPUImKKNytkbSCDkfrXY+G/ilqPxw/a08IeJ9VsbWwvb7WLGNoLSMpGoSRQMckn6nmuvs/2lP2abbasP7P0yndkbrxT/NvevJvgrqFneftDeDrrT7drCyk8RRS29uzZMMZnUqme+AQPwrGzg1G9zqVpXk42dj9wl6UUCivpD44+Bv8AgsNaGb4IeDLnH+p8QhP++reX/Cvye6cV+uv/AAV2g3/s6eH5uf3fiW36e8Mwr8is55rwsX/EPpcv/goK+y/+CUNyIP2oriMuFM/h+7QD+8RJC2B+AJ/CvjSvrv8A4JaSFf2r7EBsBtHvVIz1G1Tj9P0rCh/ERriv4Uj9mt3vRS7f9s/lRXuHzB4r+2vk/so/FDaoY/2LNw3TtX4Hr90fSv35/bGtvtn7LfxOi2b86HcHbnHRc/0r8B0/1an2ry8X8SPcy34WPr0v9mVtv7Q3w1P/AFMdif8AyMteZqa9C/Z5l8j46/D2TONviCx6f9d0rjh8SPVqfAz+hhe1Q319b6bZzXd3PHbW0Kl5JpmCoigZLEnoKmHQV85ft0fBrx18bPhLDo3ga/2XcV2JrvTXuPIS+i2n5Cx4ODggE4P5V9JOTjFtI+PpxU5qMnZM+Qv25P25IPitHP8ADvwBcsnhqSTytS1ZvkF8Qw/dp6Q5GST976dfNv8AgnzFpEP7Vnh6C8VL5TBdRWshGAJvJYblB9t2D75r1X4B/sF6/wCA7DxJ4/8Aidptrbw6NpF7PY6LNIk7STiF9skm0lQqjJAyecHHFeJfsGtDD+1Z4DA3hTLNt4zz5D4rw5e0lUjOp1PqYqkqFSnR2SPqDVf+CR+l3WsXk9l8Rru10+adpIbZ9JV3ijLZCF/MG4gcZwM4r897zwmtt8QJvDbTt5cernTTcFMNtE/l79ueuOcV/QhI2xc9B71+B/iK4jb466lIjqyf8JPIVZTkFfthIIPvW2JpQpuPL1OfL69Wtzub2R91L/wSH0JvmPxJ1PB5wNMi/wDiq9s/Zf8A2D/Dn7NHi688S2/iLUPEWqzWptImuYUhjhRmDMQq5yTgck+vrX01F80an2qSvRhh6cbSS1PGqYqtUTjKWgdq+Dv+CwNmZPgH4TuOf3XiSNcf71vN/hX3lXxj/wAFYtOF5+ywlwetnr9nMOPUSJ/7PTr/AMNkYZ2rRPxs70tJjHuaWvAPqT6z/wCCZt0If2iLuLvPoN2o+qmNv6V+pK/dFfkn/wAE99R/s/8Aai8Oplh9ptL2D5e5MDED8xX62K3yqPak9jnnuLRRRUGQq06mrTqCkFJShSxwBk18a/tnft12nwkS68HeBJodR8ZkGO7vuHh0zI6ejTc9Oi9+eKqMXJ2Qzqf2vP20tK+BOlXPh/w3PDqnj+ZNqQqQ8en5HEkv+0OoTuevv8Lfsy/sx+Lv2x/itc3V7eXD6d532rW/EFwN7Ju52gngyMOg7AZ6Cs39mP8AZh8bftc/EWVIJriLSlnE2teJLoFxFk5IBP8ArJG7Ln3OAM1+0/hPwr4B/ZO+EcGm2KxaL4e02PLSSEGa6mIwWY9ZJHI/pwBx6NGklq9jOrW9iuWKvJm54L8G+FvgT8PLDQdDtI9N0bTYhHFGoG+Vu7Mf4nY8k15b4++ICyW17rOpsYrCziaQRZ4VQOmfU8CqF1461Xx9s1G/iaxgky9rY55hjPTf6uRgn0zgV89/tPePwlrbeFbSTDuRcXm09uqKfr1+mK8vFYl15ezh8KPSwWB9gva1dZv8DwvxHrlz4m8Qahq122bi8ned+c43HgD2AwPwqhTN27nvT+1Sj0GLgtwOtfLfxk16113xzdNZnfDbqIDJuBDspOSPbnH4V6z8ZviIPDOmnS7CYLql0pDup5gT19ie1fOE0LwzMsqNG46rIMN+NdlGNveZxVql1yntn7OeofudasjxgxzDPXnK/wBBXtP8Ir5w+BOoC08beSW+W5tnj256kYYfyNfR30rKsrSN6DvGwq1ItRr1qRaxOgWvmT49WX2X4gSyAYE9vG/t3H9K+nFFeDftKaeV1LRr0L8rRvExx3BBH863ov3jmxCvA5n4KNt8VXC8HdaNgHvhgax/iZov9i+K7pVXbFOfOTtw3/181Y+E919n8bWYJx5ivH+an/Cu3+OGhmbS7TUkUkwP5TnH8J5B/P8AnW3Ny1fU51FSw7fY3/2NP2utX/ZZ8cmZ0m1PwdqbqmraWjcgA4E8QPHmL/48Mg9iP298D+OND+JHhTTfEnhzUYdV0fUIxLb3UJyrD0PcMDkEHkEEGv5vK+if2R/2yPE/7LfiLy4vM1nwZeyBtQ0J5MDOMGWEn7knT2bGD2I6TyqlPm1W5+69FcH8Gfjh4P8Aj54Nh8S+DtVj1CybCzwsQs9rJjmOaPOUb9D1BIrvKRxhRRRQIRqSnUjUhiUUUVIzO1fQdO1+1a21Kwt7+3brHcxK4/IiuY0X4L+CvDurpqem+HbSzvk+7NEpBH613FFZ+zhe9jWNWpFcsZNITn6Vy/ib4X+FfGV4t1rWiWuo3CgASTKSePxrqaKuUVLdExk4u8XZmRofhPRvDFv9n0jS7XTYe620QTP1x1rWVcADtS0VSSWiQSk5aydxT0oWkpVqiBaKKKCQooooAKWjBrhPjB8bvBvwI8Jv4h8Z61DpNjkpBGfmmupACfLiQcu3HbgdSQOaA9DsNU1Sz0XT577ULuGwsrdDJNc3MixxxIOrMzEAAepr8Dv2wvjaP2gPj54k8VW7A6UrrY6aFJINtECqOM4+8cv0/irsf2wP25PFP7UGpHTLdZPD3gO3k322io/z3BHSS5YcO3cKPlX3PNfOGl6fLq2pW1lCCZbiQRqPcnFPY7KVN3ufQ/7P/h86X4Oa/kXbLfylwe+xeB/WvTg3zYqnoulR6PpNpZRDEdvEsQH0HX+dOtblbq4u9uMQyCH8QoJ/U15c3zSbPpIR5IqJaahaSipLH5rw39o7Wds2nacp+Zl3t9M17gW2gV8sfGLWV1rx9flX3R22IE5yOOv65reiryOavJKNjM+H9iLjxFG5OBCpf8eg/U/pXq6/ezg/jXnvgWP7Lpd3fFeGnjjDY7Dr+pFeiDn3ru6nPFe6FTWls15dRQLktIwQY96hrZ8IRiTXrfIzt3MPypS0TZpFdDvkhW3jWNBhEG1fpS05qbg+lebe+p1baEdxax31tNbygmOVGRgO4IxXk3wy8btourXXhHV5dk1rM8NtI5+8AeF/LkfWvYIxnPtXzd+0Bo7aP48jv4QYxeQrMrDj5h8p/UfrW9NKTcGYVpciUz6UQDAI9KdnFeV/B34pDxJax6TqUgXUolxHIx/1yj+or1TIwDng1m4uLsyozUldH1J+x74rl8PabqM8JDPb3YLQ7sbkZBkfofxxXR/8FCv2ZrX9pD4QJ448K2om8X6DA0yJEP3l3bDJkgPqy/MV98jvXh37OviYaV4xk02VtsOpRbV9PMXJH5jNfZXgDxwfCt00Vy5GmzcyZPER/vfT1rGliPY1HTn8L/MxxWFdWCr0viX4o/D34O/FrXPgd8RNK8VaM5W7sJMSwPkLPEeHicejD16HB7V+3fww+JGj/FrwHo/ivQp1m0/UIVfZuy0T/wAUbejKcjFfm3/wUg/ZYi+FXjo+PPC9v/xR3iOYyvHCo2Wd02WZeP4H+8v1I7Vwn7EP7Vk/7P8A43Gk63cSS+B9XkCXceSfskp4WdB7dGHcfSvQlFVI3iedfqfsPSUltdQX9rDd2sqXFrMiyRzRnKupGQQfQinEVxFCUUUUAFYXjq6Fj4J8Q3LHasGm3UhOcdIXNbvtXC/HrURpXwR+IF2TgxaDekH38lhSA/DtmMjlmOSTkn1py03pxTlrQ3QvHQ8Zr+jL4S2v2H4V+DrcjBi0azjI9MQIK/nV0+3N5qFpbqMtNNHGBjP3mA/rX9JGh2X9m6LYWhOTBbxxZxj7qgdPwr08Fu2ePmD0ii9X45/8FKpkP7VGtLtJZNOtNzHp/q8/1r9jK/HD/gpFL5v7VmuDYVK2FovI6/uz+ea0x38P5kZZ/Gfoer/tc3Cp/wAE8/gvGSAXaxAGeeLdzx+VfPvwV1r9nm3+FOoWnxF0fxFe+OTLM0NxYFvIjjwPKAxIoPJOcg1v/tWfGXTvE3wW+C3gLTLq3ujouiR32oiB94iuHTYsTYPDKoYkHpuFev8A7Pv/AATX0n4ofBbQPF+t+I9T0nVdYtmuvscVuhSNCx8rryQUCt/wLiuGd6lT93roeknClS/eu2rPjH4aXnhWz+IWjTeNLa8vPCiXGb2CwO2d48HG3kc5weo6Gvoa1+LP7OvgP4seF/EfhTwp4vudP064FzML67QKHH3CsZJLYPPLDoK8a+Cfwv074k/HXQPAmqXtxp9rf6jLYvcQRhpFKq+3APTJUda7n9qD4JfDr4B+Prbwbp2t694h1S2Ec+rMkcMSW8bjcsaZzmQrg4PABHOeKzinGPNY6ZcjnyXd2j9j/APjrR/iV4R0rxNoF2t5pGpwLPbyjglT1BHYg5BHYg10FeB/sVeOPh14o+Cel6X8OJLuPTNDH2W5s9SGLuCZiXYy44JYlmyvHp6V74e1fQQlzRTPkakeSbifE3/BW5d37MumHHK+I7PHOP8AlnNX4+qSa/X/AP4K3Z/4Zr0ldxCnxFagr2PyS1+QOQehyK8bGfxD6HA/wUFfXH/BLUf8ZY6a3OBpN8T7fIOtfI1fXf8AwS1H/GWWnH+7pN6f/HBXPR/iI6MV/Bkfs7uHr+tFRc+jfkP8aK9o+WPOf2mrM3/7PHxIgUZLaBe4/CFj/Sv58Ih+4T/dFf0YfFixGp/C7xfZsu9bjSLyIr67oHH9a/nPXKoF9OK87F7o9nLn7sha7T4L3Is/i54JmJwI9bsnJ+k6VxVbfgy8/s/xdodznb5N/by59Nsqn+lcUfiR609YM/pCFLUNpJ51rC4OdyBvzFTV9Oj4wwvHXhaLxx4M1zw9NM9vFqllNZtNHjcgkQruGfTNfD37Lf8AwT28XfBX46aZ4w1/W9JvNL0lZ/ISy8wyTs0bRqSGXCgbsnntX39RWM6MaklJ9Dpp4ipShKEdmfHv7fH7OPxO+N0eh3ngDW5VtLSGSC+0H7c1ss5LZWQc7WOOCGPTHvXzD+z7/wAE3fiLqHxF0e+8dWFvoXhjT7lLi5VrlXnufLYMI0VM4DEfeJ6Zr9X6Ws54aE587N6eNqU6fs4jVXaAB0HFOoorrPPCvmb/AIKP6FJrv7HvjoRJvktFt7ztwEuIyx/75zX0zXlv7U3h0+Kv2cfiTpaoZXn0G8KIvVmWJnUfmorKqrwaNaT5ZxZ/Phn5jjp2paZG25Q3qM0+vnD6u+h7P+xrqY0r9pz4fSlgqyaiICW6fOrJ/wCzV+yinOCRg4r8NPg3rh8M/FXwhqoYJ9j1e1lLHsBKoJ/Kv3LkdRI2whk/hI6EdqDKe46ikDZpagzSFWlZgq7mIC4zz2qC6u4dPtZrq5mjtrWFDJLPM4SONQMlmYkAAdya/Mn9s79vi68fG+8E/Dq8e18LfNBe6zHlJdRHRkj7rD+Rf2HBuMXJ6FpWO+/bO/b+TS/t/gb4X36zXeGg1HxHbtlYezR2zD7zdQZBwOgz1r5t/ZF/Y78V/tVeMnmjaax8L2s4bVtbmycZOSkefvyH9Mgk1Z/Yz/Yz8QftSeLFnlSbSfBNhKBqWsMuNxGD5MOR80hGM9lByewP6leMvi98Pv2RfA1r4F8EafbS3tlCUg0y3bKwseTJcOOSxJyR94+1d8Yxpr3tiJzlf2dJXl+R2cl98OP2NfhLYaPp1tHp+nWqFLTT4cNc3kuMsxzyzE8s54GR04FfMGmeMNd/aO+ID+IfEZ2eH9JfNrpqN+5jc8qoH8R6FmPJ4HAwK8H8beOtb+I/iSfWtev3vL6Y43SfcjXPCqo+6o9B/Ou4g+NUPg/w7baJ4WsuY0/eahdJ99z95gn16Z7Y4rhxNeVVcsdj08Fg4Yd889Zdz2/4mfE6x+Hekea+2fUph/otnk5Y/wB5vRR618dapql3rmqXN/fStPdXDmSSRu7GrOqald61ey3l/cyXd1KdzzSHLH/63tVVY++K5IU1BHdKTk9BFX5R9K5rx/47svAuitcTES3coK21vnmRvU/7I7n8Ks+NPGlh4J0l728fdIflht1I3Sv2A9vU1598A/gP4v8A2w/iZLK8rWmg2siNqWpdEtoSeIos9XIBwPqT79dOF/eexz1KiijV/Zj+ANz8btX1/wAeeL5JbTwNoEUmoaneOpBumQFhBGTxngZ9B9a+fdc1Q+Ite1DUdnl/appJhGP4QSSB+Ffqb+3JqWj/ALOX7H9j4D8KwR6bBq00ekQJGPneFRvnkY92baAWOfv1+W3hHTzq2tRW3d0f/wBBNdkPeXMebz8zLfw/1E6b4y0ecnCidVb6Nx/WvrlV+UfSvipZJLK64+WWF/xBB/8ArV9h+F9WTXPD2nX6EETwK57845H55rCutmdmGeriaUbDznXuVDD+X+FS1mapdCxutOmdtqPN5DMewYcfqBWnXIdvUVa8w/aG00XXgmG7A+a1ulYn/ZYFf54r09awfH+kjW/BesWZXczQF1/3l+Yfyq4O0kyKi5oNHydoeoHSdXtbxOsMqv8Ahnn9K+kvE+lr4h8K3kCruEsG+P3IGRXy/jDEdPrX0h8JfEC694TgRmBns/3MgPJOPun6Y4/CuitHVSRz4SV7wfU+b2QxsyHqpwaWul+JWgnw74wvrcLiGU+fEf8AZbt+ea5rtXSndXPOnHlk0dp8JfjH4v8Agh4sh8Q+Ddan0fUUwHCfNFOmclJUPyup9D+GDX6s/sx/8FM/BHxcSy0TxyYfA3ixwE82Z8addv0/dyk/uyf7r/gxr8ceDRxgjqDTMZQU9z+lyORJoUljZXicBldTlSD0IPcU6vwi/Z9/bg+KH7PbQ2Wlav8A214cU/NoesFpYAO/ltndEf8AdOPav0n+BP8AwUt+FPxbigstdu28CeIXwptdVP8Ao0jf9M5gMYP+1ig5JU5RPrakaobK+t9RtIrq1niuraVd8c0Lh0dfUMOCKnz19utBmNopWpKBhRRRSsMKKKKEAUUq0tMQi0tFFAgozRuHrXK+PPil4Q+F+myah4s8Sab4ftEGS1/cLGx/3V+830ANAHVVU1bV7HQdNuNQ1K8t9PsLdS8t1dSiOONR1LMeAK+B/jj/AMFcPCfh2K50/wCGehTeK7/BVdU1NWtrJT2YJ/rJB7HZ9a/PD40ftLfEX9oDUnuPGfiS5v7Tdvi0uJjFZQHtshHy59zk+9BtGlKW5+jH7SH/AAVa8KeDYrvRfhbap4u1oBo/7YuFZNPt26EqCA0xHbGFPqa/MT4n/Fnxb8ZvFE/iLxlrl1reqS8B52wkS/3I0Hyoo9FAFcketFM3jTUdgr1X9nzwu2p+I59WljzbWS7ULdDIf8BzXlsML3EyRxjc7kKq+pNfXHw48Jr4P8K2lkV23DDzJzjrIev5dPwrCtLljbuduGhzSv2OhvLqOws57mZgkMMbSOx7KBk/pXP+A52vPDNveyDEl4z3LZ/22JH6Yrlfj14sGk+HE0eFsXWona/P3YgRk/iePzrt/D1r9h0PT7YDaIoEXA7YUVxNWjc9bmu7djTahaRadSGynrupR6Pot7fSnEdvC0hOfQV8azXDX15Pcykl5nLt9Sc19GfH7Xf7N8GpYxvtnv5Qh5/gHJz+lfPei2bajq1pbKOJZArD/Zzz+ldtFWjc8+vK7SPRLGwOn+BxGQfMMLTtx3+9/QV0WmXAvLC2nHSSNW/So9Qi8yznjUAL5bLj2wRisX4d6h9q0EQMcyWzlPwPIrcPI6hq0/C83ka5ak9C238xWbUtnMbe7hkH8Lg/rSlsXF2Z6kM8A+lOWmqwkRWHIIzT41zXmnWxsfyTsjcBhuX+teV/tJaH9s8L6fqSLl7OcxyHodrjj/x4frXp+rObW3S7A3LbtucD+4eG/LOfwqv4v0VfFHhDVdPwG+0WzbD1w2NyEfiBWlN2kmY1FzRaPjWzupLWaOaB2jljO5WU4II719JfC34qReLbdLDUHEWroMDPCzj1Hv6ivnzwrFZyeILK21OQ2tjcSCCebGTCrHG/Hfaece1dB8SPh/r3wb8cX/h3WoWtNVsJfkkTO2ROqSxt3VhhgR2Nd1WKloebTqODPrDTr6XTb63vLdzHcW7iSN16qwORX2d4H8Y2njrw7bajAy+Yw2XEI/5ZyY+ZT7entX5mfC34zf2s0Oka7KEvThILtuFl7BW9G9+hr6C8D+PtR8A6wt5ZN5kZws9q3CSr6HHQ+hrx8TQbWm57eGrL5H0TpevaR4h/4SP4HfEFPtGhaoGGkXcx+eNXyyR7j0Ktyjeox6V+Xvx4+C+r/Ar4jal4Z1MefHE5a0vFHyXMJPyuP5EdiCK+y/jB4wg8beJLLVrISQKbOMKrECSNgzZyQeue/tXC/FxX+MuiiDVpc6jAu6C5YZKyYwT9G7j8a6aEpRS5jmr0YttxOx/4J5/tgLZNbfC7xlfBbdjt0S/uHwFJ6WzE9s/dPvj0r9GRnjIxX8+V/p974e1aWCXdbXtrLgspwVdTkFT+AIIr9Vv2E/2tIPjJ4Vi8KeI7v/itNJhCmSVgPt0I4Eq+rAAbh+PetqkPtRPL20Z9cUjUtJXMA2vG/wBsbWP7E/Zj+Ic+7aZdNNr/AN/ZEj/9mr2bFfMH/BRrWhpP7M1/ATg6jqdnaj6BzIf0jprcaPygIA6HNJSKaWqNVsdz8CtDHib41eAtLMXnrda7ZRtH/eXz0LD8ga/omXpX4S/8E/8Awq3iv9rn4fQ7gq2d1JqLZz0hidwOO+QK/dpRXr4ONotnhZhK80gr81v25v2OviV8TP2g/wDhJfCekvrWlavbwQmZZ1H2SRBtYOGIwmOQRmv0qorqrUVWjys46FeWHnzxPgbwv/wSh8OQ+J7LUvEfiq61PTY44Xm0yGAR+ZKFAkHmZJ2FskcZxX3RDpMWm6LFp2mJHYw29uILWONcJCqrtQAegAHHtWjRRTowpq0UFWvUrNOb2Py0/Z//AGMfi54Q/au0TX9b0IR6NpWsS39zq73CeVOnz4ZADkliw4xWz+3N+xX8TfFfxq1Px54E0qPxRp2upAJ7RZljuLWVIxH0cgFCFByDxk5Hev0xpaz+rQ5XE6PrtTnU+2h8jf8ABPP9mfxT8AvBuv6h40WK017xBNFIdOgkEgtoo1IUMRwWJYnjp0zX1x+FLSVvTgqceVHHUqSqyc5bnw3/AMFdLryf2ddChz/rfEVv3xkCKU4/z6V+RHHav1j/AOCwl2Ivgn4Mtv4pvEAcf8Bgkz/MV+TVeNjP4h9Dgf4KH19kf8EpIWm/ainYA7Y9AuyfxeIV8arX3B/wSNsDcftGeIJ8nEHhyZv++p4Vx/OsaH8RG+K/gyP142+/6UU6ivcPlblHXLYXmi39ueBLBJGfxUiv5vNUg+y6newZyY7iROmOjkf0r+k+RQy8jNfzo/FrSv7B+K3jPTsFRaa1eQ8+gmfFedi1ometl7+JHKVNbyGGZJAcFCGB+nNQ0/8AhI9RivNW57W+h/SD4Kvhqng/QbxTlbiwgmB/3o1P9a2q83/Zu1xfEn7P/wAOtRQ7hN4fsiT6kQqp/UGvSK+ojrFM+Plo2FFFFUSFFFFABRRRQAVQ17Tl1jRL+xfGy6gkgORnhlK/1q/TW5Wk9hrc/mu17S5NB17U9LmUJNY3Utq6+jI7IR/47VKvY/2xfB//AAg37UPxJ0tUKQnV5LuLIx8kwEox7fOfyrxyvm5q0mj6yD5opklvM1u3mqdrR/OG9CDkV+6Xw+15fFngPw3rSnIv9NtrnOe7xKT+pNfhXH97mv16/YT8Xjxh+zT4aLPvn0lpdLl5yf3bZTP/AABlqByWh79GD+lQapqtnounXN/qFzFZ2NtG0s9zO4RIkUZZmJ4AAqW5uorO3knmljhhjUu7yMFVVHUk9gPWvym/bd/bKufjPq9x4O8KXbQ+BbGUrJMnynVJFP32/wCmQI+Ve/3j2w4w5mZIh/bN/bYv/jddXHhPwpLLp/gSCUiR8lZNUZTw7jtHkZVO/BPYDzv9lX9me5/aC8YO2oXI0PwPo+J9a1ubCpDGP+Wak8GRugHvXlPhHw6fFXiOzsDN9mhmk/ezBC/lp3IUck+g7mvs2DXmsfCGn+EtGt/7H8K2R8yOwQjfcS957hh/rJD+Sjgep3nNU1yxOiFJ1EfQ/jn9p7S/Bng+2+H/AMHNOXw54bsIvsyagq7ZWXGC0fcEnkufmOc8V82zTSXDtJLI0sjHczucsSepJqJV207Nc0pOW7O+lShSVooSlWkpQcdazNhw5OKwfGnjbTvA+kPeXr/vCCIYARvlb0A9PU1nfET4l6d4B08mQi51GZf3Nqrc/wC83oP51wnwF+BfjH9rz4kZd5YdGt3DajqrL+6to858uMdCxHRR9TW0KfN70tjCdTkLnwN+Cfiv9sf4nFHkew0S2w99qAQmK0hzkRoO7tzgd+p6V+v3wx+Gvh/4Q+B9O8LeGrFbLTLNAgwMySt/FJI38TE8kn+VQfCr4V+Hvg34LsPDHhu0W0sLVOSceZM5+9I7fxMT3qX4pfEbTvhF8Pde8YarIqWmk2r3G1jgyyAfJGPUs2B+PtTlLmdonmzm5u5+ZP8AwVE+LP8AwmPxtsvCFpNvsPCtr5UiqePtMuGk/EKEH518zfC21aXXpLjB2wwtyPVuB/WsHxZ4ovvGnibVte1KVpr/AFK6ku52Y5+Z2LHn0GcD2Ar0j4c6OdL0ESuuJro+YeOi/wAIrvtyxSFTV2cH42086f4kul27VkPmr9G5r2/9n3XhqHhWbT3YGWylOBnnY3Irz34oaO1xaQX8Yy0PyPj+6e/51T+CPiQeH/G8Mcr7ba+HkSE9M/wn8/51lUXNCx0x92pc97+JELyeC9Rliz51souUx1BRg39K1PDeuReItDs9Ribcs8YYkdAe/wCtXrm0S+t5baVQY5kMbA+hGP614x8D/EUmi61qPhC/fDwyP5O487lOGXmuKMeaLfY7pOzXme2rS7Q4KsMqRgj2PFGKVazKPjbxlpLaD4p1OxYY8mdgOMfKTlf0Nb/wm8ZL4T8SRi4P+hXWIpc9FP8AC3510v7Rfh0WfiKy1aMfu7yLY5HZ1/rjFeR16K9+Op5Lk6VS6Pfvjp4XOraHHrEKhpbH5ZCveIn+hOc+9eCP0wK9s+FXxEt9U0v/AIRrWmVmaMxQyykYkQ/wHPf0ry/xt4Xn8I+IbnT5MtGp3QyH+OM9D9fX6VNO691m1a07VImBRRRWxyBS9iCM5pKKBM9P+E37TPxN+CNyj+EPF+oadbBtzWEknnWr+xifK/livs/4V/8ABYLU7VYbb4heC4L5VwH1DQZDE/1ML5H5NX5w0UGbhGW5+5vw8/4KGfA34hRxCPxhHoF3Jx9l1yJrZgf94/J+te96H4w0LxRbrPo2tafq8DciSxukmU/ipNfzb/yq5pWsahoUyzadf3WnyryJLWZom/NSKDL2K6M/pS2nGcHFJuB71/P94X/a4+Mvg9VTS/iV4giiX7sU14ZkH4PmvSNH/wCCmHx+0lQreLLW/A/5/tNikJ/EAUyfZSP26or8Xv8Ah6l8eCP+QhoH/gpX/wCKqnf/APBT/wCPV5GVj1/SbP3t9JjB/wDHs0heykftbTZZVt0LyOsSAZLOcAfjX4QeIP29Pjz4iDCf4janbK3VbFI7cf8Ajig15X4m+LXjfxmznXvF+uavv+8t3qErq3sQWxTGqTfU/enxv+038KfhxGT4j+IOgWDAZ8lb1ZZT9ETc36V8x/E3/grb8M/DUU0Pg/RtW8X3qkqkkgFnbH/a3NliP+AivyF2jdnv606NS7hVyzE4AHJzTLVFH1z8WP8Agp58Z/iFFNaaVqNl4I06TK+XokQ8/HPBmfLZ91218sa74g1TxRqD3+s6learfP8AeuL6d5pD7bmJNezaB+zTe6X8LNc8beK1ezaC0Mtjpf3XJJADy56DnhevTOOleEK3yj6VCkpXsdMqLoJcy3AselJRRTMuYKKK2PCXhm78Xa5BptmuXkOXbsijqxpvRalJOTsj0D4B+A21zWjrV1GDY2RxEGHEkuP6V9A6xqVvoumz3t5IIYIULO7dBxVTRdN0/wAC+HY7ZWW3srWPMkz8e5Yn3NfPHxa+Kb+Nbo2VgzR6NE3APBmYfxH29BXDrWn5Hrrlw9O3UyrzWJviN8SLWeQN5dxdIkcfXbEG6Y+gJ/GvqWMbV2gYAr5o+B+l/wBo+PLeUjKWcTzt+W0fq1fTCdvpTrbpIWHvZyfUetOpq1keMPEcPhXw3e6nLg+SmEU/xOeFFYLex1N2V2eAfHTxINc8aPbRtmDT0EA5yC3Vj+fH4VQ+GOnGa9uL4j5YV8tf94//AFv51x11dS3l1LPMxeaZyzMe7E5r2HwrpQ0bRLa3IxKV8yU4x8x5x+HAr0kuVWPJ+KVzTZcqRjrXAfD+8Fn4lvbE8CYuFB9VOf5GvQ68kuLn+xvHUkwziO6yfoTz+hpl7Hr2CKMU7cG5HIPIooNT0fw9cfatGtmHJCbD9RxXTeF9EfxBr2naYkixNeTpAJG5C7mAzXCeBLoSwz2pP3CJB9DwRX0X8SNc8H32g+FPEHh1YdJ8VIka3On2SbYkCdGbsrBlGO5Dc+p8ypdNpHZDVXPTfEX7Mfhe68Mvp9gZoNUVCi30shYSNgj516YJ9AMV8jeG4rvS5L3RNQjaK/0q4a2lRuvynA/kR+FfbXg/40+GfFGgrfXep22mXsSbrm0uJAhVh94rn7y+mOe3WvjD4ieJLS++Ml/r1mf+Jdq128G4jHfKE+5wfzrnoym24yLqRSs0fI/xU8O/8I3491iy2kRtMZ4sj+BxuGPpnH4V+gviz4PxftmfsS+CPGujx+b8QfDmm/YH2gbrz7NmN4m9SQocfUjvXyF+1Jo6xa1oeqqmz7RbyQP7lGBH6PX2B/wSR+Ikknh/xx4JmmP+iTw6taqT0WRTHJgfVEP417DleCkeJUjyzaPzVnhks7iSGaNo5YmKPG3BVgcEH3FeyfC34yGPydI16Ziv3Le9k5x6K/8AQ/n619B/8FK/2W08EeJV+Jvhm0SHQNWk8rU7aFcLbXR5Enssn5BhjvXwoy9jxRZVETCcoO6PtdSsiqytkMMjmmfdavAvhX8XG0Mw6TrMhewOFhuW6w+zf7Pv2+le+q6TxpIjB0dQwZTkEHoRXLKLi7HqU6iqI83+M/gBfEGmnWbGL/iYWqfvUUcyxj+ZH8s14l4J8Z6t8OfFmm+ItBumstW06YTwTKD+II7qQSCPQmvrfJ7dOlfOnxm8CnwzrQv7VNun3zFhtHEcnUr9D1Fa05fZZhWpacyP15/Zn/aC0j9oX4c2mt2bR2+qQ4g1DT92WgmA5Hup6g+h9jXrlfhv+zX8fdX/AGefiRbeILF2m02bEGpWOTi4gJyQP9odQf8AGv2v8F+LtK8feFdN8Q6NdR3mmahCs8EsZBBUjofQjpjtWVSnyu62OE2lXNfDH/BVLxEtv4N8CaCHPmXWoXF8yZ4KxxhASPrIa+6l6V+XH/BTrxYNa+Omk6LHJui0XSEVlBziSZ2dvx2hKzW4I+QcUtFFM2R9wf8ABI/wu2sftFa5rJXMej6FJgkdHmkRBj8Fev1/Wvzq/wCCOXgsWfgf4heK3jHmX+ow6dFJ/swx72H5zD8q/RRa97DK1NHzeMles0ug6iiiuo4wooooAKKKKACkpaRqAPzi/wCCyWqhPC/w004N8z313cbc84WJVz/49X5f5/Cv0K/4LIa0JPiB8OdKDEmHTrq6K/78iqP/AEA1+eXWvBxWtRn0+DVqKJFNfoF/wR603zvit491Hp5GjQwD33zg/wDtP9a/Pta/TD/gjfpR8v4n6kUGN9hbK/8AwGViP1H5VGHX7xBi3aiz9LKKKK9k+aCvwK/bM0NvDv7UnxMsyuF/tmSdTjHEgD/1r99a/FD/AIKdeHv7D/a212ZUZU1KxtLwMw4J2FDg/wDAa4sUvduelgH+8aPlOnIfmFNoryj30fup/wAE+dcXXf2Q/h5IGLvb2klo+exjmdcfkBX0VXxX/wAEmfEQ1b9mO505n3SaVrl1Dj0Vwko/9DNfalfS0pc0Ez5OuuWrJeYUUUVqYBRRRQAUUUUAFI3SlpDQB+QX/BW/wGfD/wAftC8SxoFt9f0hVdsYzNAxVv8Axxo6+Ha/Xr/grh8Pj4i/Z/0fxRDFvuPDmqozsB0gnUxv+G7yj+FfkIvQV4eJjyzZ9LhJ81FDl61+gn/BLXx95kXjTwVM3zAxatbKzdv9XIAPrsP41+fa123wh+MWtfA3xZN4l0AKdRNjcWSb+i+am0P7lW2sPdRXGt7HTI+uv+Cin7WS+Zd/CbwjdsAvy6/fwtjn/n0Uj/x/8F9a/PeKN5pFRFZ3Y7VVRkknsKdeXc+oXc91dTSXFzO7SyzSkl3ZiSzMT1JJJr1H4F+DU1PUpNZuo91va/LCGHBk45/D+ddekIkRg5uyPQ/hn4Dg8H6Skssavqk6gzSsMlQedg9h+tdwrGm4GaVa42+Z3PYjHlViVWLGnUyP71PqRsK89+J/xYtPBMLWdmUutXdeIuqxf7Tf4VlfFX4yQ+HVl0vR5Fm1PGHnXlYPYerfyqf9k39kPxB+014g/tjU3msPBttPi91GQnzLog5aKInq2OrdBn1rop0lbmnsYTqKKsjO/Zp/Zh8W/tYeN5r24kmtfDkE6tqutS+hOfLizw0hHboo5PpX7BfDP4Y+HvhD4NsfDXhmxSw0y0UKo6ySN3d2/iY9zVzwL4J0T4c+FbDw54c0+LTNHsUCQ28QHHqzH+Jj3Y8mtxmpVKnNotjzpSchygtxjJr81f8AgqF+0dBrGpWvwl0G4WSCwdbvXZE73AB8qDP+wCWb/aYDsa+o/wBsj9qqw/Zw8BlbGaK48b6pG0elWWcmLjBuJB2Vc8f3mwPWvxzs7HXPiJ4ouPJjuNY1m9kkuZ3ALvI3LySMfzJPtWtGH2mZ69BPCOhNr2sxR8+RH88p9h2/GvbVURqFUBVAwAOgrK8L+GYvDulrEuGnfDSydyf8BWxtroZ3Uo8sdSveWsd9aTW8i7kkUqa8O1CyuNB1WSE7klt34Yce4Ne84rhviX4eN1arqUC/vIRtlx3Xsfw/rQE46XR7j8NfFSeMfCdpfZHnoBFOo7OBg/4/jXiXxt0u58HfEhdWtGMf2xVu4nH98YDj8xn8apfBjx6PB/iJbe8k26Ze4jlyeEb+Fv6V7R8ZvB48YeDZJrdfMu7IG5hK8krj5gPqBn8KwS5JNvZlczqQ80afgPxnB428OwahFhZh+7nj7pIBz+B610e6vkb4d+Prr4f6+J1zLZS/LcW/95fUe47V9V6Pq9rrunQ31hOtzayruV1/kfQ1jUp8rv0NadRTRzfxb8M/8JR4Lu4kTdc2/wDpEPHJI6gfUZFfK20AkZ6HFfbIYN6EV8u/F7wY3hHxRK0SbdPvSZoWA4B6sv4Z/Iiroy+yc9eP2jiSxXaVJBHQiuql8WJ4m0SLTdbJNzbf8emo9WUY5ST1U+vUVye7A4o3E9a6LHMpOI6aMxSFSQSPQ5qOlNJTICijNGaBBRRmgmgApGo3UmaACiiimAUUUU0AUUnTrXqfwf8A2efEvxZuo7iKFtN0IN+81KdcKR3CD+M/TiplJRV2XTpyqS5Yo4Lwz4V1bxlq0Wm6NYy395IcCOJc4HqT2Hua+2PgR+yzpnw7aDWvEAj1XxEAGjQ8w2h6/KD95v8AaPTtXpnw3+FOgfC3RV07RrVQ5A8+8kAM07Duzf0HFdkq15tWu5e7HY+hw+DjSfNPVnnn7Qi7vgr4w6kiyJ/JlNfmvxtGK/Tz4xaTPrnwp8WWNrE01zNpswjjUZLMFyAPfivzEZShIZSrA4KkYIPpW2F+Fo4MzvzREoo5qSCRI23PCJsfws2F/Gu48dGt4V8H6p4x1BbTTbZpDwXlIIjjGerN2Fe5afqfhH4JaPJbLdpqWsSDMvkAF3YdieiqK8Pl8Yaq9ibKG7ezsu9vany1b/ex978c1kPlhknPrWEoufxbHXCcaesVqdZ46+J2seOJWSeT7PYg5S0hPyexY/xGuOwacciprG0l1C8gt4lLSyOERQOpJxitElFaGMpSm9T3T9nzw/8AZ9HvdVcDfct5MfrtXk/qRXryghQKz/C+hr4d8O2GmqP+PeIK3u3Vj+ea064JS5nc9qnHlikIteA/tB+MRfahb6BbSbobU+bcbTwZD0X8B/OvWfiD40g8D+G5r98Pct8ltF/fk7fgOpr5Oup59UvZJZXae6mfJbqWYn/GtqMNeZnPiKllyo2/BGjjWdZR2XdBbYkk9z2H5/oK9czu5rE8K6CPD+mpAVHnv88rd93p+Fbg5xXUcqQleR+P4fs/ii4YcB1V/wAxjP6V67jgV5n8UrfZq9pMBw8OM/QmqQ5/Cd54Xvf7Q8P2M4OSYwrfUcH+ValcV8Lb7ztKubUnJhk3Dnsw/wAQa7WpLi7o2PCF19l16EE4WUGM56HPI/UV6QzH1ryFJGhkSROHRgy/Uc16xb3AurWKdR8sihx+Irlqx1udVN6WH7t3DDI96w/FGlNf6TcrCP3qr5sJ9JFO5T+Y/WtvNJyMEdQc1gavU8s+OMi+LfhNpGtxjm3nVm45G9drD8wKuf8ABPDx5/whP7T2gW8sjJZ65FLpcozhSzLujz/wJR+dV9Sj3+E/HPhmTdi2Bu7dT/cJ3jH0Irwnwb4jl8H+LNE163bZPpt7DeIw6go4bj8Aa7KfvRaPNrKzufvz4y8L6V4+8J6n4e1y0jvdK1KBra4hkUN8rDqM9CDgg9iBX4Z/tAfBnU/gL8VNZ8H6j5ksdq/mWV264F1atkxyj6jg/wC0pFfunpOoR6pptrdwndFcRJMh/wBllBH6GvmX9v79nNfjT8LZPEGkWqv4v8NRPcwtj5rm1ALSwZ7kfeUeoIHWsqcuV2OM/IGvUvhL8WG8PSRaRqzs+mM22KbqYPb3X+VeYSdaZXU0pKzLjJxd0fa0MiTKjxsrxsNyspyCPUe1UPFPhm28WaDdabc8CVcpJjlHH3WH414x8Gvin9hnh0HVpc20h2W1wx/1bE8IT6Ht6V79txXFKLhI9iEo1EfGGsaXcaFqVzY3SbLi3kMbjHcdx7Hr+NfYX/BO79qT/hW/i5Ph74iuivhrW5gLKaU4Wzu24AJ7I54PoTnua8k/aC8Gia2g8Q20fzxYhutvdf4WP0PGfcV4aMoyspIZTkFTyD6iurSpE8urBwlY/ojWMs4TvnHtX4g/tKeMB48+P3jvWkk82GTVJoYXyCDHGfLTGOo2oOa++v2a/wBsW38dfst+K9S1q6VfF/grSZRemRvnuVEZW3n6/wATbVP+0Pevy73PIxaRi0jHczHqSeprkcXHRkQFpw7U2trwb4XuvHHi3RPDtkhe71a9hsYlUc7pHCD+dJK7NG7K7P2y/wCCdvgI+Af2TPBiSxeVdaskurzgrtJMzlkz/wBswlfSdZnhrQbfwv4d0zR7NPLs9PtY7WFMYwiKFUfktaS19JBcsUj5OpLmm2OoooqyAooooAKKKKACkNLSN0zQB+Nf/BV/xEmsftRQ6ejbv7J0S2hbnozs8mPyYfnXxpXu/wC3V4mXxT+1p8R7lH3x29+tkhzniKNUI/MGvCK+drPmqNn1lBctOKFWv1s/4JB6L9l+BXirUzHhr7X3TzMfeWOGNQPwJP51+SictX7V/wDBMHQTov7I/h6ZgobUru8vflGMgylQffhBW2F+O5y46VqVj6wooor1D50K/Kb/AILB+GfsnxS8B68qYF9pc9qzY4LRSBgPykr9Wa+B/wDgr94UW++Dng7xEB8+ma4bYnH8M8L9/wDeiWueur02duDly1kfk7SUuCKK8U+lP0y/4I4eKh9j+JHhpmO5ZbXUo17YKtGx/wDHUr9Kq/HL/glL4s/sH9pabSnlEcetaLcQKG/ieNllA/IN+VfsZ7ivfwsuakj5vGx5azHUUUV1nCFFFFABRRRQAUUUUAcB8fvh3H8WPgv4y8JOMtqumTQRcZIl25jI/wCBha/ngmt5rOeW3uU8u5hcxyxnqrgkMPwINf0ut05Ga/Bz9uv4Xt8Jv2ofGumpD5Gn6jc/2xYgLhTFcZchfZZPMX8K83GR0Uj18BUs3A8DpDS0leUj2jKmRvPZEXLFtqjHqa+tPBugp4c8MafYKArRxAyY/icjLH86+evAeirrXjjRomUNGJhLID/dQbj/ACx+NfT+4t1rSpK6SOjDx3kJtpF606kUgNycVznYOX5eeleQfF74vf2UsujaLKDecie5U/6vttX365ParHxm+KD+H7eTRdKkzqMoxNMh/wBQvoP9r+VXP2M/2P8AVf2lPEr6lqhn07wRp0oN7fbMtcydRBFnqTxuPYH1xXVTppLnkclWry6Il/Y9/Y81X9ozxB/bWtJcaf4JtZcz3u35rtw3MMZPXodzDp9a/X/wv4V0nwXoFjouiWEOmaXZRCKC1t12oigfzPc9Sal8M+F9K8G6DY6JolhDpul2UQit7aEYVFHA+p9zye9YnxG+LHg/4SaO+p+LvEFnolqB8ouJP3kh64RBlmP0FROo6jscDd3c6s/KK+dv2qP2yPDH7OWky2EUkOteNp4822jq2RDnpJOR9xR129W9hzXyt+0R/wAFPtS16O80T4W2smjWeWjOv3ij7TIucZij6R5Hdsn6V8c+CfBHi747fECDR9EtrzxH4j1SUszM7O7E/ekkds4A7sauFF7yEXNQvfHH7SvxWM0rXXiPxZrlyFSNQT1PCKOiIo6DoBX6H337NekfsT/st6reTeXffEfxRENNub89beKQZkjh9gBgnvmvov8AY5/Ys8M/sq+FRqeoeTqvji7iH2vUmAPlccxQ56L79TXc/ELw2nxDec6tpC6jY42JExWVVXuQAeM+vXpWtap7GN7a9hYeSrVeVaRW7Px5PHbHpSNXv/7UnwAi+FurRaxoaMfD185Ai6m2kHJT6eleANRTqKoro9SUeUbTJo1mjZHUMrDBU9xT6K1M2eO+MPDD6BfM8eTaSnMbf3f9mvSvg38YVsVh0HW5wIfuW13JyF/2GPp6GtC+sLfU7WS3uY1kjcYOe3uPevIvE/g+70CZ3QNNZ/wzKOn19KTV9Gc75o6o7D42fC4+G9QbWtNg/wCJNdtuOzkQSHnH+6eoP4Vy3w8+JGo+A7790TdWEh/fWrNgH3U9jW94K+MF9oOnnSNYgXW9EkXY8FwcuF9AT29qpeJvCugaksmo+E9ViliY7m0u7Pl3Efrtzw4H50La0hO2koM+jfCvivTPGGni7025Eo/jiJG+M+jCoPHXg2DxtoEthIwjnX95BKf4HHT8D3r5T0PXNQ8M6kl3p11JaXKHh1PX2I7ivdfBfx8sdUCW2vqun3fQXCcwv9epU1zypuLvE2VRS92R4TrWi3WgalPYXkTQ3EJwyt/Me1Ua+o/HngbTPiNpQuIJohfRp+4u4yCCOoVsdq+cPEHhvUfDF81pqMDQyg/Kf4XHqp7itYyujnnDl22MqkalpGqzESiiigl9goqxY6dd6pKIrO2lupD/AAwoWNdrpfwd1aW3N3q01vo1mo3M9w+WA9cCgfK7HA0VvXFnZ3eorpnh6GbU52bb9pcYMnPVV/hHuf0r2z4dfs/2lqI7/wARyQ6hcYyLGNg8aE/3mH3j146fWhvlWpcIOWiPnu1s576QRW0ElxIeAsSFj+QrUv8Awfq+k28c+o2badHICU+1fIzY9FPNfVXi/wAT6H8KtB82K2t4pmXbbWcChGkb8Oijuf8AGvmPUtS134keJEysuo6peOI4baJSeSeFVR2pKXU3nRUF3ZzHfA5ra8KeC9c8cakljoWl3Gp3LEArCmVX3Zuij619kfBv9jvQND0IXPja1j1nWbjaxtd7LFajrtypG5vU9PT1r6E0Hw7pfhmxSx0nTrbTrNBgQ20YRfxx1/GuapiVHSOp30cvckpTdj5r+Df7GNjo5g1XxvImpXq4ZNLhOYI+/wA7fxH2GB9a+nIbKC0t4obeGOCGNdqRxIFVR6ADpVqkrgnUlPc9qnShSjaCIfLGOlLs9ql4xnIroPCvw/1vxlOq6dZubfOGupRtiX/gXf8ADNZqLYp1I01eTsczIi7Tu+Uev8/0zX5ifHTxFb+Lfixr95psEcdo100MKQqAGVTtB47nGT9a/U79r6w0n9nL9nPXtcnuzf8AijUVGl6dn5UjmkGGdU77E3HJPpX5gfs++DofF3jxZL6D7VZWUTXMiyA8t0UH8TmvSw0HTTqSPBxOIWKcacD2DQ/gD4avPBmmQXsDLqf2cNLfW0h3b2G4+qnGcdO1eQ/ED4H674JEl3Gn9p6VnIurdeVH+2v8P16V9GSeB9Q0OQ3Hhm/aDPzHT7o7oW74H92rNj46W1nFnr9k2i3mP+WvzQSeu1/f0NKNRpsudGLVj4ntxH5mJd23/Z6/rWhJpD+R5ttIt5CBlmjBDJ/vL1H16Vt6F4PufiJ401Ow0x4YZWM9xGH4QhWJ2+3XFZuseH9e8D6ggvbS60y4VvkdgVB/3W6EV1nmcr36GM3p3r1b9n/wf/a2vtrU6E2tgcRnsZj0/Ic1xWi6RqPxE8RRWtpaxrPLjzZIU2Io7uwHA9eMZr6s8L+GbXwnoNpploPkhXDPjBkbux9zWNWfKrHRQp88uboaTLxnvWbrmtWfh3TJ7+/mEFtCMsx7+gA7k9AKb4k8T6b4V0yS+1K5WCFeg6s5/uqO5r5f+I3xIvvH2oDeDb6bCT5FqG4/3m9WrGnTcn5HbVqqC03KXj7xxd+Ptde9m3R2sYKW1vnIjT/E9Sa2/h74VKsup3aY4/cRsP8Ax7/CqXgfwa2qSJf3i4tFOURv+Wp9T7V6aFCjAGF9B0ru2Vkeek27sQLiloooNR1cL8VLfdZWM4/hdkP4gH+ldtI21Sa5z4iW5m8MyMBkxyK/05x/WjqTJ6WOR+GN99m8RGA/duI2Uf7w5H8jXrW0V4Not4dP1iyuVOPLmUnHpnn9K98wOo6dqGKlqiOu98F3xudJ8ljl4GK/8BPI/rXBsK3fBN6LfWPJb7s6lR/vDkf1rGaujqi7M7yij3orkNzgPGMC2HjbSrqTi11S3k0+fHrg7fx5r5luIfLuJoQMBWZfm7YNfT/xmty3gsXi5ElldRzgjtg4NfNmvKP7bvimAjTM649Ccj+ddNF6HFW3P29/ZV8QjxR+zn8PNRDbjJo0Eb887owYz+qV6o2drYAJI6EZBr5g/wCCcerNqX7LuhI0hka0vLu35OdoEuQv05/WvqCuaXuydjia1Pxt/bw+BS/Bb44Xp0628rw7ryHUtP2KdsZYnzYs/wCy+T9GFfN+D6V+wn/BQz4Pr8TvgDfapawhtY8MOdTt2Vcu0QG2ZPxX5v8AgFfj8a7KcuaIDBkdOK+k/gx4+PijSf7OvH3anZIBuY8yx9m+o6H6ivm6tfwn4kuPCevWup2xy0LfMnZ1PDKfYinOPMrGlKfJK59ealpkGr6fc2V0m+C4jaNlPuK+P9e0WXw7rV7ps/8ArLaQpn+8Ox/EYr7B0fUrfW9Ltb61bfb3EYkQ98H19+34V4L+0RogsfE1jqKptS9g2s3qyHH8sVhTbUuU9CvFOPMecaRfXWnyXQtbmW2S5hMFwkTkLNGSCUYdxkA4PcVZWq9rFsjBPU1YWlOV2eeh1fWH/BMz4Zn4gftRaRfzRebZeG7eTVpCRwJANkX473B/4DXyf16V+tH/AASN+Fp8P/CXxB44uYdlz4gvfs1uzDn7PBkZHsZGf/vmtMPHmqI58VPkpM+96Wkpa98+aCiiigAooooAKKKKACobqZbe3kmkbbHGpdj6AAk1NXnv7QvipfBHwL8e66ziM2Oi3cqM2OH8pgv6kVMnZNjjq0j8APH+vt4s8feKNbkO5tR1W6u93s8zkfoRWDtpkf8Aqox1OMn8akr5qbu2z6+KtFITcIwW9Bmv6AP2SPC3/CGfs0fDbSSu2SHQ7Z3/AN50EjH82Nfgj4c0eXxF4i0rSYVLS393DaoB6u4X+tf0e6HpkWi6LYafAu2G0t44EUDGFVQoH5Cu7CLdnlZhLSMS7RRRXoniBXzd/wAFEfBv/CZ/sj+OY1TfcabFFqcXHQxSqzH/AL43/nX0jXN/EnwzH40+HviXQJUEiapp1xZlW6HfGyj9TUTXNFo0py5Zpn85jY6ikqW6sZtLup7K4XZPayvbup6hkYqf1BqKvBejPrlseo/sv+Ov+Fb/ALQvgDxCzskFrq0KT4bH7qQ+W+fbDk/hX9BC42jHTFfzURyNDIsiEiRCGVh2YHIP51/Q/wDAvxpH8RPg34K8SRvv/tLSLa4dv9sxjePwYGvVwUtHE8XMI6xkd1RRRXqHjhRRRQAUUUUAFFFFACGvzv8A+CvXwebV/Bfhb4kWcBeXRpzpl+yjn7PMQYmPssgx/wBtK/RGuP8Ai/8ADnT/AIufDLxJ4O1NN1nrFlJas39xiPkf6qwVvwrKrHng4m1Gfs6ikfzncg4pa0/FHhnUPBfiTVfD+rRGDU9LupLO5jYEESIxU/gcZ+hFZlfOtW0Pqr3VzZ8G60fD/ifT77P7tJNsn+6eD+lfTylSMo25TyCO4r5HJxX0P8LfEn/CQ+FYd5zc2f8Ao8n0A+U/iP5VLOqjJfCdjXIfEvxvH4J8PPOjD7fNlLZO+7u30H88V1ryCONnchEUbmZugA6mvlH4keMH8ZeJp7oM32SMmK3UnjYD1/GtaUeZ3ZpWm4LQh8Ix6NrnjSybxdq0+naLNOHv72GBp5tmctsQdWPQZ49a/QuH/gpZ8K/hL4PsfDHw48Daveadp0Pk2/2qSO0jPH3mA3MxJ5Jx1r80qWuuUFLc8tt3ufW3xJ/4KZfFrxos9vojaf4Os5FK/wDEuh8y4AP/AE1fOD9AOtfLXiPxTrPjDVJtS1zVbzWNQlPz3V7O0sjf8CY5rNro/hz8Pde+K3jLTvC/hqwl1LWNQlEUUMQzj1ZvRQOST0qlFR2Qrvct/Cn4TeJfjV41sfC3hTTZdR1W8bCqg+SNe7ux4VQOSTX7l/smfsj+Ff2UfAgjiEN/4lniDarrci8uw5KIT92MHoO/U0v7If7I/hv9lHwALeMRX3ii9jWTV9YdQC7AZMaf3Y1PQd+p7AavxE+Ig8S4stNmV9LHWZCD55HfP93+dVWqww1Pnnv0RzQVTHT9lS0j1ZU+IHjyTxTetBau0emxZVQOsv8AtH29BXK2V1cadMk1rPJBIpyDG2P0qHbTZpkt4mkldY40Us7scBQByTXyM69SrNyb1Pr6VCnRgqcVojjP2t9estW+GWhQ3sKf2jd3blkXgOiIQWx77l/Gvz217TW0nVJbc5KZ3Ix7r2Ne+fF/x8/jzxhNcRSFtOtV+z2i542g8t+J5/KvL/Fmn/2hp/nKuZ7cZHqy+le7h5NRVzhlBRVkcDuOaN2aazBVyTTYzuG7selegjmH0kkaSqUdVdDwVYZBpaKZLZxXiH4bwXjNNpzC2kPJhb7hPt6Vwt94Y1PT2YT2km1eSyDcv5ivb6yfFt59h8N38mSAybBj1PFIwlFbnio6DHIoyR0p4pvrUmVzR0nxJqmhPv0+/ntG6ny3IB+o6V083xa1HVLH7JrNnZatB/01jKt+BB4NcNTGNFrj5mtC/qF1Z3Ehe2tntlz/AKtn3gfQ1Tpor63/AGV/2D9X+MEFp4m8YNcaB4RkIaCFV23d+PVAfuRn++eT2Hek7R3J+I+X9B8M6j4muPJ0+2aY93PCL9W6CvUfDvwPtIVSXWLprqUc+RB8qD6t1P6V+rXh/wDZj+GPhvS4NPsPCNlFBEMDJYsfcnPJ96sax+zL8PNXtjH/AGGlizLjzLdyCvvyTXM61uhrHl6n5vwW+leFdNdo4oNNsoE3O0YC4A7k9Sa8V8Q+ItZ+LniSDRdHgke3kfENvz8wH8bn0788Cuw/aa1jSbr4lX3g/wAFXsuraNZz/Z/OQf8AHzODgquOqqeM9zk13Hwt+H+teAdHKW1tDFfXABuJntHaT/c3E8KD2A9635uVXe5qoqbt0NPwf+zvoOg6RHDqJlv71lHnypI0YY/3QB/CKj8YeC/Cfwx0uTX0ur/TpEOIreC6b/SJMcJtOcjjn0FdcPGd5ocMkmu2qpbRKXkuIvl2gdSVPb/61fLnxU+It18TPExuU8xLCImGxtM5IXPUj+83/wBaueKlKV2zpkoRWiMbWNX1f4jeKhLKGutQvJBFDAnQZOFRR2Ffb/7Pn7P9l8J9Mj1LUEju/FNyn764+8tsCP8AVx/rlu9e7/sE/sQ6f8L/AAfH4w8e6Pa33jHV4g8FnfQrINMtyMhcMCBK3VjjKjC+ufrJvhT4Pkk8z/hG9OVv9mAKPyFOonJWTOSli6dGo3KNz5CjXjkYp6jc21QWb0HJr7Eh+HHha3YFNA08Y6ZgUj9a1rXQdMscfZtOtbfHTyoVX+QrBUO7O6Wcx6QPj/TfBmvawyfYtHvZ1fgOISF/76OBXdaD+zx4h1Da+pT22lx55XPmvj6Dj9a+kh8vA4FFWqMUcNTNK0/hVjzrw18CfDfh+QTTxyapcD+K6IKA+oQcfnmvQooY4IgkarHGo4VRgAU+uI+NHxZ0j4I/DXXPGOszLHa6dCWSMn5ppTxHGo7lmwPzrVRUdEeZOpUrP3ndn5ef8FZPjCfGHxi0zwLaXG/TfDdt5kyqeGupeWz7qoVfzrzj4I/DltP8C2upx3E2n6reHz1mRuBF0RWXuO/rzXjkMmqfHb4xT3moyNNf63fyXV3Lydqsxd/wA4/KvsqC1jtIEhhURxxqEVVHAA6AVVaXLFRPXwtPr2ObbWvEWgDdfaT/AGzbKMmfTiBIo9dh6/hWV4i+KngzUvCurLPfR/ao7eXbY3kLJMJNpwACOufSq3jjwj451AyPovijy4myRbsgiYegDgfzr52+IHgXxT4dkF/r8cjF38v7U8ok3t1xu71hTjzM661SUFoiP4ZeOrX4eapf6pLayXl29s0NvEp2jczAksT0HH610Nrofjb46alHe3rNDpivtWRwVtoAeuxf4j79+5rmPCevaHoAjnvPD0esagpLCS7nxEOePkA5/Gut1b9onxPeQi3sFstKgA2qtrHkr9Cen4CuuT7Hnxa5feenY9p8OeEtE+FeiFRPFbJjM15dMFaUj1P54Ari/GX7QOnWPmW2gRf2jc8gXEoKwqfYdW/SvHodN8V/EC+BWDUdYnb+JgzKPxPAFeleD/2W9X1Bo5tfu4tMhJybeEiSXH1+6PzrDliviZv7SbXLTVkeOeJPEmpeLNQa91W6kupifl3cKg9FHQCsxhmvt/Tvgb4P0/w5c6QNMSZLhNsl1J80xPYhu3PPFfKnxS+F+ofDPXjaXAM9lKd1tdgfLIvp9RkZFbRqKWiM5UZQXMyX4c+IvKdtLnclXOYCx6Huteht9K8DSVoZFeNirqcgivYfCevjXtLWR2UXMeFlUdc464961IhJPc2aKc1NIzVGrIbpwkDt6DNU/Elv9s8PXyY6wlh9RzVjUsR2Ny5PSNj+lTBRcWIU/dkjwfxFT1F0PAyx4I45zXvPh+8+3aFYTk5Z4lz9QMGvCZozFIyHqpI/WvXvhvdfaPCsKk5aGRo/1z/WmzKi/esdM1LDO9rNHNGcOjBhj2pGptQzq6nrFvcLdW0Uq/dkUMPxFPrnPBV79o05oSSWhYqM+h5ro81wzVnY6U7owvHdj/aXg7VoMZzAW/Ig18iSSM0hLct3z+VfZmqDzNNvIz0aF15/3TXxtexmG+uEPVZGX8jW9Hqc1bofqT/wSw1X7Z8C9fsy4P2PXJAF4+UPGjfzzX2hur4d/wCCUhLfCfxeDtwusgDk5/1Efbpj6f4V9xYFc9T42cMmVtU0231nTbqwu4lmtrqJoZY3GVZWBUg/gTX4N/GTwHL8L/il4n8KzDDaXfSwIf70ecxt+Kla/e70r8pP+CoHgceHfjxp+uwxBLfXtNWRiowDLEdj/jjafxrWi9bCR8dUUuD6UbT6V1hY98/Z18VNc2N7oU7/ADW58+3BP8BwGA/Hn8au/tF28EvhvS3kO2db3EY65XYd36gV498M9cbw7410y63FYzKIpB6q3ykfr+ld/wDHrWxe+J7XTI2zHYQ5fByPMfk/oBXNL3ZXR3xnelZnmK9BxilopVrFbnLsXtA0W88Ra5p2lWELT399cR2tvEoyXkdgqj8yK/og+DPw5tfhJ8K/C3g+zCiLR9PitSy9HcL87/8AAmLH8a/Jj/gl98FP+Fl/tAL4mvYd+j+EIRfbmXKtduSsC/hh3/4CK/ZqvXwsLJyPEx1S8lDsLRRRXoHlhRRRQAUUUUAFFFFACV8of8FO/Fy+F/2StftQ+2XWry101BnBOZBI3/jsR/Ovq9q/NP8A4LFeOgsPw88GRS5ZpLjV7iPthQIoyfxZ/wAqwrS5abZ04aPNVij8zKdTcH0p1fOs+qPcv2IfBh8dftWfDjTygkit9SGoyqwyNlurTfzQfnX71KK/Iz/gkX4I/tr47eJPEsibotD0fyo2I4WWeQKMH12xv+dfrpXsYaNoXPnsdK9S3YWiiiuw80ZSEZpaKgD8B/2vvA//AArv9pr4i6KqGOAarJdwrjH7ufEy4/B/0rx5iRX3l/wV0+Hp0T4xeF/F8MLiDXNMNrNJj5fOt2wOfXZIv5V8GZzXhVY8s2j6uhPnpxYquRg1+y//AASv8ff8JZ+zFb6PLN5t14d1Cex2k5IiY+bH/wChsPwr8Zq+/P8AgkN8Rf7H+K3ivwdNKVg1rTlvIIyeDNA2Dj3KOx/4DW+Ely1LdznxsOalfsfrFRSUte8fOBRRRQAUUUUAFFFFABSNS0lAH5F/8FXvgWfBPxY0z4g6bbBNK8UxmK8KLgJfRAZJ/wB+PB9yjV8Ihj3r+gH9rP4GwftCfA3xD4T2qNTeP7VpkzY/dXcYLRnPYHlT7Ma/ATULC50u9uLO9t5LW8t5WhmglGGjdSQykeoII/CvFxVPknfufQ4Orz0+XqiHOa7P4U+Jv+Ed8TxxSvttL3EEmTwDn5T+fH41xS09WKkEda4j0E7O5758bvETeH/BrwRPsuNQfyFweQmMsf5D8a+ZVUZPWuw+IPjK48VrpCTghrW28tj/AHmzy34gCuQWuumuVBVqOTAikp1JgVqYFjS9Lutc1C2sLGF7m7uJFhihjUszuxwqgDuTX7efsIfse6X+y58PW8QeI44D451KDzb+8mI22MWM+SrH7oA5Y9z7CvnX/gmJ+ybb6Ta23xh8ZWsaSyAvoVvcAYijGQbps9CeQuegG7uDXd/tWftUzfEC8uPCfha58vwzC+25uojzfMD0B/55D2+91oVWMLy6nPOFStJUYbdSx+1J+1xceOLi58LeDbp7Xw/GTHdX8ZKvenuqntH+rfSvLPhT8crnwTDHpWqRvf6OD+7ZSPMt/YZ6r7V5XgUba86t/tDvM97D044aKjTPqjUv2lfCNnCGt1vr6Uj7kcAT9WNeRfEb47ar46gksLWM6XpTcNCpy8g/2m/oK8yYChVrmhh4Q1R1OpJjl7CpGQMpGMg1GFpl1dGPyYIl866uG8qGFSNzsfT2HUnsBXRcyep5h4ghWPW57OL/AFStuZl5wOw/z6Uzp2wK9btfgxZx6TILi7ml1KXLtLkBPMOegx0ryeRWjZkb7ynB+tdtOoprQ5ZxcdxlFFFbkBXE/FHUBDp9pZg/NK5kIz2Xp+prtq8g8faoNS8RTKhzHbjyh9R1/XNIxn7qOfHFFJRUnKI3Sm7adk19ZfsMfsp/8Lg8Qr4w8T2pbwbpM3yQOCBqFwuCIx/sLkFvqB34HJRV2FrndfsQ/sSJ4kjsPiJ4/sd2k5E2k6LcL/x9EdJ5R/zzz91f4uCeOD+i1xdW2k2UlzcSxWtpbp80khCIij+X0qG7vrTRdLkurl0trG0i3NtG1URR0A+gAA+leC6X4gvfj98QoLGUSQ+F7E/aJLZSQCgPy7/VnOPoM15dSs3KzOunS5k3skfQfhvWIfEWnrf2ySC0kJ8mSRdplUfxgdQD2z1618mf8FB/2r1+FPhdvAPhq6x4w1iLN1PG2PsFq2RnI6SP0HoMn0r3P9oz46aV+zn8K73xFcJE13tNrpVhwBPcFTtUD+6uNx9h71+d37JvwH1H9q/4ma58RPiDJcX2hR3DS3Uu9ke9um5WJWHRVGCcdAAK6KcUlzy2MbXZ7l+wV+w3Zt4Ri+IPxC0+eTUdUj36PYF2je2hP/Ld++9+No7Lz3GPofxd+zJcQxvc+GNRkvCvP2G+2iQ+yyDgn2IH1rl7n9nfxHoFwLrwH8Tdd0KZRhLTUpTdQY7KT6dOxrhPjx+1H8TP2c/h/faX4o1PRdS8U6rCYtJn08HzFXkSTupAwF4xxyx9qwlL2zs0dNnTV4TPlT9rP4mMt4/gW0bEtrLnVCpB2yA8Q5HcHk++B61rfs1fsm+Nta8FwfGS1tWFpp135+m2+wNNP5TZNwFIIZFYYx3wewrD/Yt/Zjvv2qvivLJrJuj4U02QXmuahuO6ZmJIgD5+/IQcnqFBPXFftpo+i2Og6XZ6Zp1pDZadZxLBb2tugSOKNRhVUDoAAK61TtHkuYVMVyyva55x+z/8Yv8AhbnhCOa/iSz1+2VVvLZT8rdhKn+y2OnY8V6oteKeJPhbf+BPiJpnjDwZa+baz3Ij1XSouP3chAeRAO2cMV7EZHevbmHcVMFJLll0OHEcjanT2fTsJSrSUZ25J4FUcwUV5j4o+P8AoWi6rPpOkWGqeMNYhBD2egW32jY3915MhFP1NczdfF74rTWN1qS/DDT/AAvosERlkv8AxX4gjh8lQMlnSJXwB/vUG3sZ210PYPE/iXTPBvh3UNc1m9j07SdPha4ububOyONRkk45P0HJr8X/ANsb9tTUP2iPGRTT42sfBOleYmlWEv3ppCCv2qUdNxH3V/hB9cmvTvjT8e/iP+3V4+s/hR4KgtRoltMz3c2lSSfZLjbgNcyyMARChztBHOc4JIFfE3xF0O18M+N9Y0LTdTi1u20+6e1S/hQqlwUO0soyeCQcc9MVpT95nRGn7NXe56r+zr8NpdX0TU9aa+utMnkf7Pa3NqwD4XlyCc8E7R+Br12PSPHOjyA2uuWmsxdotQh2MR7sveu0+GfgfSdK+H2g2Gn+INNluYrVDNbvJ5bCVgGf7wHO4mtm88ManaKZPsjzRdfMgIkX65WuSpPmkz3KUOSCRxGm+JNU3rDq2gXFq2cedayLPGfwHIrx/wDam1gzPoGkRsN/zzsvfkhVP869/Y+3PYdK+ffCvheT46ftUadoq7pLP7eEZgMhIIOXP0OD/wB9VVPR3IrtqNu56l4V+E/h7TvD+mw3Wi2dzdx26iSaSIM7NjJz+NdPZ+ENDstph0ixjI6Yt0/wr6rt/wBmjw7HIWm1HUJVznarKv64rq9F+D/hDRQpj0aK4kX/AJaXRMh/Xj9Ky5mL2kIq1j5GsdPln2w2lu7DPEdvHn9AK6S1+HPiW4hEg0O/2HoTCRn8DX2HbWdtZrstreG2XssUar/IVMxz1OTWbbF7bsj4+Hw28T9tCvj/ANssVynxK+C134w8K3ek6xo97bKw3RXDQMfJl/hYHH5+or7rz9KXO4YJ4pqTWwnWurNH4G+J/DOoeD9evtG1S2a2vrOUxSIwx06EexHP41P4Q106Dq8bsSbeQhJR7E9fwr9Av+ClP7Pi6r4ft/ifotqPtunKttqyRDG+DPySn3UnBPoa/OHr0r1ISU43RwP3WfQCsHQMp3KRkEdxSYNcv8O9e/tPSTayNme1wvJ5K9jXWhecVobJ6GH4ul+z+HrthkFl8sfU8Vq2OPsdvkcGNf5Cub+JF0sOjRQ7sPNJxz6D/Gums122cC+kaj9KllRPDteg+z61fRAEbZ3HP1rvfhPMW02+i7LMCPxX/wCtXG+MI/L8TaiOeZSefoK6v4TyHGox9vkb+dHQ56fxnoLUwmntTaR2M2vCN99l1RUYkJL8px+ld/Xk6MYZEdSQysCPwOa9Ps7r7VbxSjo6BvzFctZdTWD6EWtyeXo92e+zaPqSB/WvkbxJt/4SLVSowv2uXA9t5r6n8YXwgs7CDPzXd7FCAOuAd7fov618q643ma1qDDobmQ/+PGqo9TKt0P01/wCCU1uY/gz4rlKYMmukbt2cgQR9u3X8a+2q+Rv+CYuitpn7N73TKy/2hrN1OMkEMFEceR6fcI/Cvrmuep8bOGe46vg7/grB4cFx4G8Ba4ApktdSnsy2eiyRhwPzjP5V949q+SP+CnVktx+zbFO6qXt9dtGQ9xlZFP8AOnT+JEn5NLTqdtpNtdlyh0MhhnjdThlYMPwrd1bVbjXNUutQumLT3DmR/rx/hWNaxhpcnovNXs+9Y1DRNpWCgd+cAUjV9CfsL/AR/j78ftF0+6tTP4e0ll1PViwOwwxsCsZP+2+Fx6bvSohFyaSJnJQi5M/UL/gnj8DX+Cf7O2kG/t/I1/xEf7Xv1ZcMm9R5MZ/3Ywv4s1fT1MjjWNFVRtVRgADgCn19DFcsUj5WcnOTkwoooqyAooooAKKKKACiiigBGr8Q/wDgpJ8Qh4+/av8AEkMUrSWmgQw6RGOMKyDdJj/gbn8q/ajxVr1t4V8N6prV4wS00+1ku5WY4ARFLH9BX85vi7xNceNfFmteIbt2e51W9mvpCxyd0jlz/PH4V52MnaKiergIXk59jIooo3iNWYjPBx9a8Y90/WX/AIJB+CzpfwZ8W+JpI9kms6z5EbEfejt4wAQfTdI/5V97rXiv7Gnw9f4Yfsy/D/QpohFdjTVu7hcYPmzEzNn3BfH4V7UtfQU48sEj5TET56smOopM0VqYDaKKKgD42/4KpfDn/hMf2ajrsabrnwvqMV+WAziF/wB1KP8Ax9T/AMBr8bq/ox+KXgm1+JHw38TeFrxPMt9X0+ezYe7oQD9QcH8K/nY1bS7nQ9UvNNvUMd5ZzPbzIRgq6MVYfmDXl4qPvJnv5fPmpuL6FSvVf2WfiZ/wqH9oLwP4nklMNnbajHFdsD/y7yfu5P8Ax1yfwryql57HB9R1rjjLlkmehJcycT+lqJ1kRWVgykZBBzT68T/Yz+KH/C3P2bfBOuyTedfR2S2F42cnz4P3bE+52hv+BV7ZX08XdXPkpR5W0FFFFMkKKKKACiiigAooooASvx+/4Kn/ALOL/Df4oQ/EbRrTZ4e8VPi98tflt9QVfmJ9BKo3f7wf1r9gq89+P3wc0r49/CfX/BOrgJFqMBEFxgE206/NFKPdWAPuMjvXPWp+0jY6cPV9jO/Q/nbViOvFPrZ8eeCdY+HPjLWfDGv2zWmsaVcva3MTAj5lP3h6qwwwPoRWIteFJWdj6a91dEF5CZI93UrWbW2MHNZt5b+S+R0PStqcujM2Vq9s/ZD+BY+PXxm0rR70OugWZ+26pIveBOfLzjgucL+J9K8Ur9Gf2M47b4DfAHxD4tuUQaxqUyrFGyHc77Mxx57gZBP40Vqns46bs3w9H2svJHtf7VPxuh0bTR8OPCrLZ28cCRX8lrhFiiA+W2THQYAz7cdzXyZwoGMelPvtQudUv7i8u5TPdXEjSyyt1dyck1CelcyTtqdsYxhoiRWyecUrEetQ0oNBoSU8Ui9BTloHca7rDG8kjBI0G5mbgAVc+E+nnW7y+8UXMZ8vJtdPV/4Ix/rHHuxwM+gPrXCeN9c8wf2fbucKf3zDuey/hS+HPijrXhuzgs7YW8lnDGI0gmQ4HJJbI5ySTmnKnKUHyijUUZanufiLVrfQNIur65basanap6s3ZR7180SSGR2ZurHJrX8S+MNT8WXCyX1xujT/AFcEYxGvuB6+5rFNb4el7OOpFWqqj0CiiiuowKGvaouj6RdXbYzGh2g927V4bJI0kjO53MxySe5rvPijrIklg0yNjhP3kv17D/PrXA0HHUd3YWlWkqzpun3OrX9vZWcL3F1cSLDFEgyXcnAA/EipMj0D9n/4K6r8ePiVp3hrTQ0cBPn315tytrbqfnc+/YDuSK/Z7wb4P0rwF4X03w/odqtnpenQLBBEoxwOrH1YnJJ9Sa8o/ZH/AGc7X9n74bxW9yit4o1RVn1a4AGVbGVhU/3Uz+JzXtWqX0Ol6fc3s5/c28bTP9FBJ/lXnVanM7LY2jHoeC/tKfEDa8Xhi2lPlqoub3Yfb5VP5ZxXpPwT8I2/w5+H32/VfLs7m6jOoX9xMdvkRhchWJ6BV/U18/fDTRZ/jB8XBdXitLAZzqV2OceWCPLT8TtH51wv/BSX9qIWkL/CbwxeL577W1+5gbOB1W1BH4M30Uetc2HpurK7PRxDVOEaS+Z4l8dvHniv9u74/wD9jeDLK41DQdMR4tNtVYIqwKR5ly5YgKXOOv8AsivsP4Y/FXS/gX4V0nwXq/w68ReDdNsYxGl35Iu4Xb+OV3j/AImJJJqH9g34H2nwl+EsOrXP2eXxJ4gVbq7mRlZoYesUBI6Y+8R6n2r6UcrIpRgrqeoPIb6111pczUYvRHHFKOkkcjH8avAknh2/12PxPYyWNhA9zOvmBZVVRkjY2Dnt9a/Ib4wfFDWv2ivjBd6zMjvPqVylpp1nuyIYi2yGMfmM+5NfSX/BRD4raNa60vw68MWFnb3Ee2fXLy1jVWeQ4aO3OP7o+Zvcj3rz3/gnn8KG+IX7Wfg611O2ZbXTFOuyxyJgMsa7o+COhYp9RXTh6XV7s5as1BNnaazY/HH/AIJreLrGaxYSeHNQjhlmdojLpt/MUy8T9Nrqdyg5DYGRxX2f+z7/AMFMPhp8WltdM8TP/wAIL4lcKpjvX3WcrHA+Sbtk9nA+pr7J8UeENE8baHdaNr+l2usaVdLsms72JZY3BHcH+dfCH7QX/BI3wl4wuLrV/hjqn/CH6g/z/wBk3KmWxZvRSPmj/wDHhXdLD8uqPKWJhU0mrM+5YZIrmFJYnWSNxlXRgykeoPenV+LV5pX7WH7Dl8Vh/ty30GJwfMgU6jpcoznB+8F+h2mvW/h7/wAFita0/ZbePPAMGoSIAr3WjXBt3PuY5Nwz9CKwcJLobcnWLufqXVHWNIi1ywks55Jo4JOJBC5QsvdcjnB9sGvlXwX/AMFRvgR4qaOO71nUvDkzAZGrae4QE/7UZcYr2/wr+0l8LPHEbNofxA8PahtQyMsd/GHCgZJKsQQAOvHFZW7i5ZJ6I7C3s9B8A+HZ5IkstB0WxhaaaT5YYokUZZ2Y8AAAksa/L/8AaV/aS8Y/t0fFCz+DnwihuE8ItPia4O6P7eFPzXM5/gt06gHk8ZGSAMX9tP8AbSvf2lPFkXw08Aalb6d4Ea5WGfU7uYW0epyA43yO5Gy3U8gEckbj2A+uf2QPDvwF/Zg8Diz0/wCJPhLVPFmoojaxrI1eDMzjpHGC2ViUk4HU9Tz00SRryuHvvVnAfGjwz4Z/4J5/sd3+geG5lk8ceKh/Z02sFdtxdysp86UHPypGhYKucAsDySTXwn+xV8KR8WPjtpf2uDztG0Q/2pehhuB2H92h4/ifH4A12H/BRz9oSH43/Hq7s9Iv1vfC3htDp9jLC4aKaTrPKpBwQW4BHUKK9w/ZM+CXxE+FfwrsPE/h2LR7m98SRLe3WnamrxzCLnyQrjplTux/tVnWl7OF1uduHi9L77s+qtU+GfhXXyXvtAsZZG5aRYQjEnqflxzXKah+zzoXzNot7faJKfuiOUyRqfoecfjXPt+0Rrfg+5Fv47+H2q6MucG+08i6tvrkc4/OvVPBvj7QfHlj9r0HUodQiAywjPzJ/vL1FeI7rU9a7Pl/42fDPV/hL4D13xPc3VrdWNjCW81X2N5jnbGNp7lmHSuJ/wCCXvgJtQ8TeMPG9zHvNrbx6bDIw6yytvkI+ioP++q6b/gpl8Sm0nwX4a8EQSFZdUuDqN2g6+VFlY1P1dif+A19Bfsf/DOP4U/ALw5pzJs1K/i/tS+JXB82UAhTx/CoVa7ot+yu+pzVZcz9D2XHJpGFLSNWZzjaKWjB9KAEpyik2n0p6CgCrrmh2XibQ77SdSgW50++ge3uIWGQ8bKQR+Rr8Pvjl8K7z4LfFTxB4Ru9zCwnP2eYj/WwN80Tj6qR+INfujGpb7oLduBXwV/wVM+Egn0fw18RbSDE1u39laiwHVGJaFz9DuX8RXRRlaViGmz8/vCWsHQ9chmJPkudki+qk/06/hXtqEEAg5BGQfWvnzOOlexeC9dGoeGYpJiA1qDHI3oFGQT+H8q7hxetjnPiJKdQ8Sabp8Yyy7cj3Y/4V6GuF4Xheg+leWeHbhvEnj5bp2wu9pQD2VR8o/lXqe04HHNDN4HjPjVt3ijUD/00A/QV03wnU79RbHGEH865TxVIJPEWosP+e7L+XFdj8KV/0XUHxwXVfbgf/Xo6HPD4zvGptOam0jrYV3PhW687SkU8lGK/hXDVr6f4jh8M6Fqd/Ow2QAFUzyzEYAH1NZVI8yLhKzIvEOrLqXxHs7CI7odJtpLmf08xlwPyBH5186XUgmup3ByGdm/DOa9T8FXVz/wjvjHxPd/NNMrRhvViDnH4sB+FcX8L/Al38TviJ4e8J2WRc6xex2gb+4rN87fgoY/hSpx5bmdR3SZ+x37GnhX/AIQ/9mfwDYvA0FxLp4vZlYYIeZmk/kw/SvaqpaLpsGj6TZWNqvl2trAlvEnYIihV/QCrtcknd3OKT1FPQV8mf8FOJ1i/ZqSMsA0ut2gCnknAc/hxX1pXxB/wVS12O2+FfhHSN48281l7jaDztihIzj6yCqh8QI/MfFGDT8GnxL84zXSWTwx+XH7nrTqNxNJk1huUhfoMntX7ef8ABO39nE/Af4H219qtv5XirxOE1G/Drh4Iyv7mA+m1Tkj+8x9K/Pz/AIJw/syt8c/jBH4h1mz8/wAHeF3S6uPMB2XN11hh9wCN7ewA71+1mAK9LC0/ts8fHVv+XaCij1pFzXpnkDqKKKACiiigAooooAKKKSgD5e/4KSfEcfD79lHxNDHL5V54geLRIMHn96cyEf8AbNJK/EPI7dPav0L/AOCwHxQGqeOPBngG3l3R6VbPqt2qnjzZTsjB9wiMf+B1+ea14WLlzTt2Po8FT5aV+4td98A/h+3xU+NPgvwkFLRapqkEU+3qIQ4aU/gitXA19y/8Emvhr/wk3x01fxZNHut/DumlY3I4E85KD8dgk/OuWnHmmkdVWXJTcj9creGO3hjiiUJGihVUdAAOBUlAFKtfQ9D5K+olFPoosAyiiipARl3Yr8OP+ChnwwPwx/am8UiKIx6frpXWrY7cL+9/1oHsJA/51+5FfAX/AAVw+EH/AAkHwz8O/EKyg33fh+6+x3jKOTazkYJ9lkC/99mubER5oHfg6nJVS7n5Q0UfhiivFPoT9Mf+CP8A8VS0PjL4dXM2NhXWbFHb1xHKB+SHj3r9La/AH9kj4sf8KW/aF8G+J5ZWisEvBaX23vbTfu5Mj2yG/wCA1+/UUiyxq6MHVgCGU5BHrXvYWfNTt2PnsZT5Kl11JKKKK7TgCiiigAooooAKKKKACiiigD88/wDgqd+ymfF3h9fi54asi+s6REItaghXJuLQfdmwOrR9D/sn/Zr8pW7Y5B6V/TDdW0V5by288azQSqUkjkUFWUjBBB6givw9/b4/ZRn/AGa/ii15o8Df8IHrztNpbgcWsmcyWxP+znK+qkehry8VSs+dHs4OvdezkfMK0k0Ymj2n8KbytOVq87Z3PVZY8F6Cdc8W6dYOpMTzAy/7i8t+g/Wvs/xJ4iNx4b0LQrdgLSxVpmCkgNI/XI7FQAv0r5U+F+pWum+MLaS6wBIjQq5ONrNjn+n419Byudw78UT99p9juoS5YNLqSrQzlR7U1G/lUV9dLa2ssr4CqMmkjQmV9y5p61BBu8tQwwcc/WplakxomU1ma9q/9l2LyABpW4jXPU1fZsLkYrz/AMRam2p6ixBzFH8if41cI8zJlKxlNukYs7FmY5LHqTSrHjmlVeak212GIi0tGKKCOoVT1TU49JsJ7uYgLEuQD/Eew/GrLMeleY/EDxEdSuhYQvm2gJ3Y6M//ANaqCUuVHLX99LqN3LcTHdJIxYmq9Lto20jh3F28V9x/8E5f2e017XZfiPrVoGs9NYxaWkq5DzEfNJ/wHPHuQa+X/gn8Jr/4seLrbT7eNvsayIs8mDg5OAg9zX7MfD3wVY/DvwbpXh7TolhtbGFYwFGAzY+Y4+tctapZcqNox5VdnT49815r+0Jrx0P4Y6giMVlvnSzUjqNxyx/BQa9IzivnT9qjWLe81Xw7oV1drZ2CJLfXtwx4hi6M5+iK5968ybdrnTh481RN9DitR+Llr+yr+znfeLwsbeMfFkhTRbWTkhVGFkI/uLkv9Sor5m/Yj+Ar/Hn4jap418Ywf2tollK8lx9sBYX13JkkNnrjJY+5FeW/Hf4saj+0Z8WUlsoJotJgCaXoemKpb7NaqcINo/iP3mI7n2FfffwP+Knw++DHw/0TwjDbappq28Y+0Xl7ZFBPMcb5DjsTn8MV6Fvq9JR6sJJ1qjmjul/Za8H6TcfaPC93rXhCbduxpN+6RbvUoSR+FYvxe+Jev/s2+BdU1/VvEtt4gg8n7LpdpcWwS5lu2xtJZRgqoyxB/OvY9D17TfGGni/0zU4L227m3cMFP+16V+XP7anxxPxi+KTafpbNN4c0Nms7IKeLiXOJJR9WGB7AetYU6anLQqUnGPvGB+zf8IdZ/as/aA03R7qee6F9cte6zqBBYpDktK5OOCxO0Z7sK+/P2JtFsrr9vz9oG8srVLSw0SL+x7S3jHyRRxypEir6YWDH4mvVf+Ccf7Kf/CgPhcPEGsw7PF/iaGOe6VuttD95Ivrzk++PSvP/APgnuqf8NS/tQsUPnf25w7E5INzc5/pXu06fK02fOVq3tee2yPv2lAoHSkXNdx5IMgbORkHqPWvIPib+yL8H/i/vfxR4D0m8umzm9t4vs1xz1JkiKsfxJr2BqwfG3jjQvhx4Yv8AxD4k1O30nSLKMyTXVy4VVAGcD1J7AcmpdupUZST90+IPiV/wSQ+C/wDZ17qen+JNc8HW9tG00sk1zHcW0Sjks3mKGwB/tV+fHgD9nnUfjd8XtT8BfB+S41/RYpts3iS+gFvEluDgzSgFgqE/dXJZsDA9PsDxl8UviT/wUt+Icvgj4dR3XhX4O6fP/wATPWplIFyB3lwfmJx8sAPcFulff/wM+A/hL9nvwPbeGPCOnra2qfPcXTgGe8l7yyvjLMfyA4AArm5eeXken7WVCOrvJ/gfnxqX/BGDVfMH9m/FC18ry1BF3pDbt20bsYkxjOce3rXjn7RH/BNTV/2c/hjq3jjXvH+j3thYtGkNpb2MiT3UrsFSNcnA6knk4Ck9q/a/+GvyO/4K+fHoeJPHWj/DHTbndZaGovdRVGyrXLj5VP8AuoR9CxqpUopXRNCtVqzs3ofHX7Ofwrk+NPxk8N+FApNlcXHm30i/8s7WP5pW9vlBX6sK/bKO2jto0it4hDBGojjjQYCqowoHsBxX5+/8E9f2XL7xN4L1P4kL4j1bwpqNxcPpulTaaUDPEoBmZg6ncpcqv/AGr6C+IXj7xJ+z/j/hI/i14O1OPAZNP8Q2zW19Ivt9n3MfqUrwcQ3OXKuh9DT91XPoCa3jmjKSRrIrDBVhkflXFXnwd8MSasuq2tn/AGRqKtuN3YsYSef4gODXkfgv9vz4YeILxbDVtSj0S7PAnVmmtG+j7VYf8CUV1n7THxpsvAP7PeueKNIvIb19Qt/semXNtIHR5ZQVDKQcHau5vwrj5ZX5WjfmPizVHf8Aa2/bhhs1/wBJ0CyvFhPOQLO1PzH0+cg/991+nyIkahY1CoowoHQDtXw7/wAEw/hW1t4b8Q/EC9ixNqEo0+yd+T5aHMrA+7kD8DX3T5QrqmkvdXQ55bjBRRPNDZwyTTzLBDGpd5JDhVAGSSa8B+I/x9nvpJdP8OM0FqvyG7x+8l/3c/dH61lcqnTlUeh74sitnawODg4PSnrWB4J0N/D/AIV02znYveLEGuHYks0jfM2Sfc4/Ctm5u4NPtZbq6mS3toULySyHCqAM5JouZta2Q68uorG2knnkSGGMbmkkbAArxXxd8dNf1TUpNI+HWgyaxfKcNfTREwx54zyQB9WP4V33hzxZp3xQs9UiTTZX0mN/JW4uQAs57lR1GOPzrf0nRrLQrFLPT7ZLW2TkRxjGT3J9SfU81D1NY8tN+8rs+fpfg38YPGzG48R+O49MLHItraWRwmfQRbFH5msP4jfsyfETUPhv4i0NfGMfirTry0bdpt80ilnX50dNxYBwyrjkenevq1e30pxPviiK5WmjV4iVuWysfz9zQSW00kUqlZI2KMGHIIOCKu6drU2n6ffWkZIW6ABOemP/AK3Feu/tmfDgfDL9ofxRYwx7LK+lGp2wHQLN8xH4NurxHmvZTvqefLRnf/CvTy095esMKFESkj3yf6V6HcTrbwSTMcLGpc/gM1jeFbGPTfD9nFGdxdBIzepPNZ/j7Wv7P0VrdT+9uvkXnoO5/wA+tB0xfLE8vubj7VczTE5Mjs+fqa9S+Gtk1v4ZEjDBmld/w6D+VeVQwtJIkaDLOQqj1J6V7tpdkNM0u1tBz5MYX8cc/rT6GUFd3JydtFLjNJ0pG4jNivMvFniKXxBfx6fZ7ntlkAVV/wCWkh4z9B2q9428aKPM06wfcT8ssyngf7I/rWh8FfCp1jWn1OddtrZD5c9GkPT8hzUyJTu7I1fiPBF4N+G+maDEy+dcMDLt6tj5mP8A31gfhX0J/wAEt/gy+teNtY+I1/bZ07SYm0/Ty4+/dSAb3X/cj4z6yV8j/E7xUPFXiaWWNs2tuPIh98Hk/ia9/wD2Bv2oJPgz48HhbXLrHg7XZgrNK/yWVwcBZR6BuFb8D2qbe6yKkr6I/W/aRx6cUlKjBo1IIYYBBHf3pa4TnE5xwM1+Yf8AwVM8aLq3xa8MeGom3Lo+lGebpxJO+QP++UX86/TuSRIY3eVxFEqlncnAVQMk/lX4Z/tB/EQ/Fn41eL/FOd0F9fuLb/ZgT5Ih/wB8qK1p73KieeBaeopFqUKMVqy2C10HgLwPrHxM8ZaR4X8P2jX2sapcLbW8K/3ieWJ7Ko5J7AGsBQTgAE/Sv2D/AOCbH7Hr/B3wn/wsHxZZeX4x1uAC1t5V+bT7RuQPZ34LegwPWrpU/aSsc1asqML9T6X/AGc/gbpH7PHwl0XwbpW2VrZPNvLvGDdXLYMkh+p4HoABXptJQ1e3FWVkfNyk5NthS01adVCCiiigAooooAKKKKACorq4js7aWeVxHFGpd2boFAyT+VS181f8FCvjF/wp/wDZl8RS2tw0Gs64Bo1g0bYZXmDb3H0jDnPriplLli2XCLnJRR+QP7S3xSb40fHXxn4wErS2d9qDpZFjnFtH+7h/NEB/GvM1pqrhQvYDFPFfNTlzNs+siuVKKD271+zH/BLX4Yf8IP8As3xa7cReXfeKLt7/AHHqYF/dxforN/wKvyD8F+Eb7x54u0Tw3piGS/1i9isIAv8AekYKD+GSfwr+iLwL4Rs/Afg3RPDmnRrHY6VZxWUKquPljQKDj3xn8a7MJDXmPOx87QUO5v0i0nNKteoeCOopM0VQDaKKKgArk/iz4Bsvin8NfEvhHUUD2usWMtoc/wALMpCt9Q2D+FdZSGk9hxbTuj+bXX9BvfC+t6hpGpRmHUNPuZLO4jbqskbFGH5g1n19ef8ABTz4Q/8ACt/2jp9etofK0rxZbjUIyowouFwk6/UkI3/A6+Q68OpHlk0fV05KcFJB2Pav3e/YX+Mf/C6v2b/C+qzzebqunR/2TqGevnQAKCf95Njf8Cr8Ia+7P+CUPxuTwX8WNT8A6hcbLDxRF5lorn5VvIlJAH+/HuHuVWunB1OWfK+pyYynz0+bsfrlRSUte4fPBRRRQAUUUUAFFFFABRRRQAVwXxu+DPh748fDnVfB/iS282yvU/dzqB5ttKOUljJHDKcfy6V3tFJq6sxpuLuj+db45fBPxH8AfiVqng3xLDturRt8FzGD5V3AxOyaMkDKkfkQR2rgK/eX9sb9kzRf2pvh1JYOU0/xXp4abR9WCjMcmOYpP70TdCOxwRyK/DTxt4L1v4d+KtS8N+JNPk0vW9PlMFzayDBRh3B7gjkEcEc14lWi4PyPocNXjVVm9TE3MpBUkEHIIr6A+Gni8eKNDWOZh9vtAI5V7sOzfjXz/wC1aPhvxDc+F9ah1C3ydhxJH2kXuprCx6MZcrPqKMEdRiuV8dat5V94e0mM/vNQv494/wCmaMGPHuQK6HQ9YtPEGlwX1nJ5kMygj1U91PuK8u8R6kb7426NBn93ZyJGqn+8VLH9TQtTpctLnrtKtJRUGhneJL42OlybTiST5F/HvXAgcmtvxRfG41AxZysXA/rWLiuuEbIxlK45adSLStIExnqeAO5qxCU3cFyTSseM1g+KvE0Ph60DYEly3+rjPr6/Sgm6WrM3xz4o/syE2Nu+LuVfmI/gU/1rzEnNOubqW8uZZ5nMksjbmY+tMqmccpOTCtzwX4P1Dx14itNH02PfcTnlj0Rc8sfYVkWtrNeXUVvBE008rBEjUZLEnAAr7i/Z9+Dsfw10X7TfIsmuXiBp3x/q16iMH27+9ZTlyI0o03Uke5fsp/CPTvCN1bWtpBmLTozNJMw5lmPALfqfwr6mweeDXBfA/STY+Dft0q/vr6dpN3fYvyr/ACY/jXoJwOc15cnd3ZrVacrLoROcKPWvyw/b2+NY8RfFHX/Dmkz+ZbWrpaXc0Z4IjA/dg9xuyT7gV9j/ALaH7SEfwH+HrWumTgeLtZVobFQQTAmMNMR7dB7kV+cX7N3wavv2hPita6ZO0zadG5vdWu2OcRA5OSerOTgfU+ldNGC+OWyIjJrRdT60/wCCdH7PR0XRZfiTrVqPteoIbfSo5Uzsh/il56FjwPb619sXWk6fqELQXdjbXMbAhkmhVgfwIrx/S/gHqfhSOOPwr451TSbaFQsNnOqywxj0APb6Vpf2p8WPC9zHHd6XpfjKx3DNxYyfZZwO5KsSP8muadTnk20dSp6WjI8j/bA8R+Hv2bfh/f3nhOBdH8UeJ0fTYYrZyESMgGaYR5wGA4BHQvmvn3/gm9+ziPjx8cIdU1WAXHhXwvtv7veCVmlz+6iPrlhk+ymvO/2xPixP8bfjtfpYM9zp2muNI0yCI7vMKth2XHUvITj221+wv7Dv7O8f7N/wH0jRbiFV8Q6gBqGrSd/PcDEefRFwuPUH1r2MNRSSPHxeIcItX12PoHARMAYxwK+A/wBhoR+H/wBtr9prQ5WxcS332tA3VkFxISf/ACKtffp5FfALXyfCX/grU0TL9msPH3h7YCSQrzCLP4kva4+rV6clqmeLSfuyj5H3/RuFJ25r5u/ay/ba8I/sz6adOTb4h8c3SYstCtmyVY/daYj7i56Dq3Yd6pySV2YRjKbtE9H+Pn7Q3gz9nLwVL4i8YamlshylpYxkG5vJMZCRp1Pueg718AeF/A/xU/4Kc+NIPEnjOa48G/BawuN9rY27ENc4/hiyPnc9DKflXJCgmuu+CP7F/jb9pzxpF8W/2kLi4kSQ+Zp3hNmMaiPO5VkT/llGP7g+ZurEdK/Q23h0/wAN6RHFElvpmmWcIVY1CxQwRqOABwFUAfQAVnrJ3ex03VHSOsjJ+Hnw78OfCnwrY+GvCuk2+jaLZJsitrdcD3Zj1ZjjliST3rpc18U/Gn/gq38JvhjqVzpmgQ33jrUbd2ikfTdsdojDP/LZvvc/3VI968Hi/wCC1Gpechl+FdqYd3zCPWW3Y9v3XWm6kUCw9WfvWP0g+LXxG074S/DXxJ4w1R1Wy0eylu3Vj98qvyoPdm2r+NfzseKvE9/8XvihqOv67fJbXmtag1xdXlyfkhDtksTycKOw5OMCvrn9tH/gpFD+0v8ACqx8FeHPDt94ctbi4W41drydJDIEOUiQr1XdhiSB90DHWviKx0+61a+trGytpbu8uJFiit4ELySMxwqqo6kngVzVJ82x6OFoumryWp9S/Fb9urU7Lwvpvw9+DwufB/gvSbVbCPUM7b++CjBlJH+q3nLEL82WOT2r5p0bQ/EnxK8SR2enWmo+I9dvn+WOJXuJ5W7knkn3Jr7f+Df/AASb8TeJtFTUviB4iTwnLcQ74dLs4Rc3ETHoJiSFX3VST9DxX0H8OfhX40/Yz02VNH8JaL4q0AjFzqOm22zUWTrmSQDeRx0IKj2rz51YUvhR6kIuppc/Nn4ofsq/FH4N6Jbax4s8J3ml6ZOB/pQZJo42PRZGQkIevDY6VwDeLtbk8Nx+H5NTuZNFjuPtUdgzkwpMRjeF6A49K/eLwJ8VPB3xt0a4tLcw3DuhjvNG1KNTJtPUMh4dfccetfDP7YH/AAThk08XPi74TWJltPmlvPDcbZaLuWt89R/sdR29KmniFP4hSg6bs1Znv/7GPxY+HfjD4Q+HvDHg7UcX+i2Mcd7pd0giulkx+8lKjhlZyx3AnrzivoIrjrxX4GeF/Emv/DLxVb6zot5daRrOny5SVAyMjA8qw9D0Kmv1W/Z7/bQ0n4yfDXU5b4R6d430m1L3OnjhbjoBLFntkjK9vpWVany+8tio3k7Gn8ffiM+o6g/hvTpSLK3bN26/8tJP7n0X9T9K4T4U+Hl8TfEDSbORWeBZfPmAP8CfNz7ZAH41z1zI9xM8srGSWRi7uTksT1Ney/s16L/xMNV1Rl5WMW6HHqcn+VcCldntuKo0rI91kf77sQigFizcAAckk9hivn3U/FF38fvH0nhzQLjyvCGlnfe3y9Lgg9cdwTkKPYmq/wC0J8TL/wATa5B8NfCRee+vJRDfyQEhsnpACOnq57AfWvYPhf8ADmy+GHg+30i2Cy3TASXdyox5shHOP9kdB7fWp5ud2XQ5IwWHp+0l8T2Oi0nSbTQ9Mt9PsYlgtLddqRr/ADPqasjg0qcGkatTz223di0hoWlpiPz9/wCCp3gUeX4M8YxRYOZdLuJAv/bSPJ/76Ffn5X6//t6eCx4x/Zn8SlY98+ltFqUfHI2Nhj/3wzflX5ALyOtelRd4Gckeu+EdSRvClvPM4RIFKMzHoFrzvxJrb+INUefG2JfliX0XP86rf2tOui/2bGxWFpfMfH8XHT6VFaRLJMqvIsSn7zt0ArYpy6HT/D3Q/wC0NXFy4zDa/MfQt2Feqn5utee6f440bw9p6WtjBcXG0ZZyAgZu55qhqHxR1CfclrBFaqR94/Ow/p+lBpHlij0bUNStdLgaa6nSCMc5Y9foO9eceKfiHJqCvbabuhtm6ynh3Ht6D9a5K+vrnUrhprqaS4lPVpDmrGh6DeeIr5bWyiMjn7zfwoM9SaDN1HLREvhfw7d+KdYgsLNd0jnLOeiL3Y+wr1fx94itfh94Xh8K6NIv2totskq/eVT95jj+Jv0rNl8R6V8L9Hk03SCt5rcg/f3WAQG9zntzge1eW3V7PfXEtxcSNLNK293bqT61HxO5q5KnGy3IsUfjikoqzmufsB/wT7+Pcvxk+Do0rVrnzvEnhkpZ3DO2XmgI/dSn3wNpPsPWvqGvxe/Yb+MT/B/9oDQZZ5imj6066VfqT8uyRgEY/wC6+01+z19eW+l2tzdXk8dra28bSzTSMAkaKCSxPYACuOpHlegj5y/b1+M6fCT4E39naz+XrviXdpdoqth1jYfvpPYBDt+r1+PqthcdBivaf2vPj/L+0J8Xr7VoHdfD2n5sdIhY9IFPMhH952+Y+2B2rxQVpGNkWh9SBsLUS9a+nv2H/wBjfU/2ofGq3l+JtP8AAWlSg6nfqCDcMMH7NCf75HVv4VPqQDSi5OyFKoqcXKXQ9e/4JqfsZ/8ACzdcg+KHjGxJ8K6XPnSbOZflv7lD/rCD1jjI/Fv905/XJeOKzfD/AId03wnodho2j2cWn6XYwrb21rbqFjijUAKoA7ACtFa9ilSVNWPm61Z1pXHUUUVsYBRRRQAUUUUAFFFFABRRSUABr8hf+CsXxkHjL4z6X4FsLrzNO8K22+5VDlftkwDEH3WMKP8AgZr9T/it8Q9N+FHw48ReL9WkVLHR7KS7fJxvKr8qD3ZsKPciv55PGPirUfHnizWPEerymbVNVupLy5c93diSPoOg9gK8/F1LR5Uengad5c76GOvWloxSrjv09q8bc90+zv8Aglf8JT45/aEl8T3UHmad4TsmuVZhx9qmzHF+IXzG/AGv2MXtxgV8nf8ABM/4Pn4Y/s26fqd5B5Or+KZTq0+5SGERG2BTn/pmA3/AzX1nxXuUIckEfN4up7Sq7dBaa1DUlbHGFFFFIAooooAKKKKAPlD/AIKT/BI/Fz9nW/1KytvtGt+FXOrWwUZZoQMXCD6x5b6oK/FMHPIOR1B9a/pVvbOLULOa2njWWGZGjeNhkMpGCD9QTX8/v7Tvwan+A3xx8VeEHRhZW1ybjT3YfftJfniP4DK/VTXnYqH2j2sDUunBnlla3hPxNf8AgvxPpWv6XM1vqWl3Ud5bSqcFZEYMp/MfrWTS156dndHrNXVmf0UfBn4m2Hxj+F/hvxlpuBbatZpOYwc+VJ0kjPurhl/Cu1r8z/8Agkl8elVtd+FOp3P3s6rpIkbvgCeIfhtcD2ev0vBzX0dGp7SCkfK1qfs5uItFFFbGIUUUUAFFFFABRRRQAUUUUAJXyX+3f+xTYftKeF21/QYorP4haVCfss+Nq38Qyfs0h9c/dY/dPXgmvrWkZd1ROKmrMuE3TlzI/mk1zQ9Q8M6xd6Vq1lPp2pWcrQ3FrcoUkidTgqwPQ1Rb5hX7Q/t2fsIWX7Q+ly+K/CcdvpvxCs4s5I2x6mijiKQ9n/uv+B45H42a9oeo+F9bvdH1ezm07VLKVoLm0uFKyROpwVINeLUpypuzPpKFaNaN1ubHgXx7deCtQDAtPYSsBPb+395fRhTLrxCk3xCGsI++L7csyt0+QsP6VzDLyaT1A71CO3m0PrzIP3Tkdj60yZgkZc/wjNcx8NfEi+JfCtrIWzcW4+zzL3BXofxGK3dak8nS7huh24rO2p1c11dHB3EhmnkkPJZiajpR1pHcKpJOFHJJ7V1mPUr6hqUGj2b3V0+yFfbJJ9B71neG57jWN+q3QMSSDbbQ9kj/ALx9z6+grj9Q1CTx14lgsYCRYxt0U9VHLMfrXT+KvFlt4Wt/stuFkvAoWOEcCMdifT6UyOZFrxP4ntfDtqC/z3Dg+VCDy3ufQdK8g1LUp9WvHublt0rHt0HsPam31/caldPc3Uhlnfqx/lUFUc8p82iCjdRXsP7O/wAIW8ea5/a+owN/Ydi+TkcTyDkL7j1pN8quyIxcnZHpn7MfwYXTbeHxbrUGbyQZsreQf6tf75Hqe1fStrHJcTLFCCZpCEQDqWJAA/M1QhjWFVRFCIowqgcAV3nwf0f+2vHenhl3xWrG6cH/AGB8v/jxWvNlLmdz11H2UdD6J0rS00TS7LT4j+7tYEhGO+FwT+f86qeK/FGneC/Depa5qtwttp+nwtcTyMcYVQSfx4rZZRuOa/Pz/gph8eTCbH4Y6Rc8OFu9X2N9PLiOPpuNRCDnKyPNlLW7Pjv44fFrVvjt8UNV8TXvmMLqXyrKzUk+TCDhIwPXGPqSa+3P2I9U8DfB3wTNpmuXU2h+L9Sm82/fVLZoUGOI41f+6Ae+OSa8H/YB+Aa/Fb4qjxFqlv5vhrw2y3MisMrNc5/dRn6YLH6Cv1G8Q+E9F8VWrW+s6VZ6pC3GLmEP+R6j8DXRXlZckS6Kim5SIrO7hv7dJ7WaO5hf7skTBlP0Irxn9sP4yf8ACmvgjq17azCLXNV/4lundMh3B3yDP9xMn64reb9nmPwzffbfAHiLUPCs+7cbCRjc2Uh9CjHIH4mvzx/by+MGpfEL4qQ+H7ie1mg8Mw/Yn+wk+TJdE/vnXPuAv/AaxoQdSorm1TljG8Xc7P8A4Jf/AAEX4vfH+38QajatPofhVBqEvmDKvcZxCh9TnLf8Br9va+V/+CcPwJ/4Up+zlpEt5CYtc8RBdUvQwwU3j92n4Jg/8CNfVGRjI5r6OlGyufJYqpz1NOgYr82/+CqWvaL4V8T/AAp+JvhzxHpM/jXwlrCxy6THfRtcPCGEyM0andtV42Uk9pa6T/gqt+0l4t+G2jeFvh54Ku7jTdR8ULK93eWZKzmEMI1hjYcqXZuSOcAAEZNZnwW/4JM+BYfCNrd/Ey+1bXvFd7bia6W1uWt4bV2GSqsAWd1zgljgnPFKc+iKp01BKpN6M1PFH/BQTxb+0CIfCX7N3gzUNT1m8hQXviDUofLg0tmA3Dn5dy5PzNxx8oavTP2Z/wBgfQvhNrB8a+PL/wD4T74kXEpuZtSvQXgt5TyWjVuWYH+NufQCvkj9kXVtX/Y1/by8Q/BJ76O68J65cmJp7rAfatu81rNkcBtrbW7HJ6YFew/tVf8ABUzSvCNxceEPhBbx+K/E5fyH1cIZLSB84IiUcytnofu5/vVCaveRtKEvgpKyfU+rf2hP2nvAf7NPhN9W8WarGt2yZs9JhdWu7tucBEznbkHLHgV+Z/iH4pfHz/gph4sk8OeF7OTw18P4pws8UTslpAn9+5lGDK2DnYOOeB3rq/2ff+CePxF/aL8Zf8LH/aA1PUrW1uWWYWN1Luv7xcZVWzkQxgYAHXHAA61+n/gP4f8Ah34ZeGLPw94X0m30bR7RAkVtbrgfUnqxPcnmtLSl6Ec1PD/DrI+cP2d/+Cbfwo+CNjBc6tpMHjnxLsxLqOtQLJCp6nyoGyij3IJx35Nc7/wUWg+Ffwh/Z11S4m8D+GH17Uz/AGfpCf2dDHKszA5lUqAf3ajd6dM9cH6e+Mvxb0L4H/DfW/GfiGby9O0yEyGNSN80nRIkz1ZmIA+tfgR+0t+0p4r/AGnPiBP4j8S3JS2jZ003S42Pk2EBOQijueBlupIqJtR91Iqj7SpL2knoeVJGzMqoC7k4AXkk1+m37APwf+G/wnjtPFPi/U4H+IF6o+yw6hEY4dNUgZRGb5TKc8tngHA9a88/4Jm/slxePPER+J/iuwWbQNIl2aTaXC5W6u15MhU9Uj4I9WI/umv0O+I37PPgr4mQu2oaYtnfnlb6xAikDepA+VvxBrx8RUm1ame7SdOLtVvr2PRYpUmjR0cSIwBDqcgg9wac0YZcHpXydceGfib+zHuutHuW8W+D0JZ4GUnyVz1ZOqf7y5HTNe5/C342+HvipZr9hnFtqKrmTT5ziRfUj+8PcVxRq30krM0qYdxj7SD5o+RyXxa/ZvtfFl5/wkXhW4HhvxfAfNiuoPkjlYc/MB91if4h+INYnwz+Puo6brqeEPiVbDRfEQby475lCQ3PYbucKx7MPlbPbpX0TjivOvjV8PfB3jfwncy+LJbXS4LRC6azNIsTWfH3txIG31U8GnKnbWI6eIUlyVtV36o+XP22P2FbL4oWupeNvAqGz8WBTPeadD8seo4GSVAHEpHOf4sDvX5l+H9d1b4d+IxqFjPJYajZSFGSReODhkYHqDyCK+4NT/4KUz/B/T9Q8KaRb23xCksX+z6fr00jw2+wEgHbjdIo4xnH1IxXxb4t1bxn+0p8RdR1q38PtqOt6i5llttDsCqcDJIRR19zya7qMZSj7+xE24S01Prb4a/Gbw78SI7a3hvre01uSPc2nyOc7vRCfvfTrX003jNvg78EZNQjVE1vUXMVkjY3biMGQj0UZP5V+PDaXeaFqEsF7HcabqNtIVaKVDHJE4PQg8gg19N/Af8AacHiHxt4T0T4t61Jd+FdL/0e3vJU3GMZyiykclCwUFzkgVyVsJKKcqTO2jjFK0aqPvr9mP4Uy+HdLk8X62Gm1/V18yMzZLwwsc7jn+N+p9sDvXuLVHY3VveWsNxaSxz2sqB4pIWDI6kcFSOCMdxUrVzxjyqxzVarrTcmMam05qbVmQUUUjUAYPj7QV8VeB/EGjONy39hPbYHq0ZA/XFfg/d2r2V1NbyDEsMjRuPQqSD/ACr9/R7jIzX4kftJeER4H+PHjjR0GIodUlkiGP4HO9f0b9K7MO90TJaXPNVJFLk+tJRXYZXYUUUUC1LNuLZWDTtIVx9yL7x/E9P1rRm8VXa2f2Ox/wCJdaH7yQHDP7s3U1i0UFczWwpYtSUUUE7hRRRQA+KR4ZEliYpLGwkRgSCGByOfrX2l+1j+3NL8UPht4c8D+F5mign0y2l8Q36ZQzzeWpa2XvsDcse5wOxr4rWnZqWrjRYzTsjjmoVPAr6U/Y3/AGL/ABJ+1J4oWd0m0jwPZSD7frBTG/GD5MOfvOfXoucntSUW3ZClNQXMyD9jz9j3xH+1P4xCRCTTPB1hIv8Aaus7cBR18mLP3pCPwXOT7/uH8N/h34f+FPg3TPC/hjTo9L0bT4hHDBGOT6sx6sxOSWPJJNHw3+G/h34S+D9P8L+FtMi0rRrFNkUMQ5J7ux6sxPJY8munr1KVJU15ng167rPyCiiitzlCiiigAooooAKKKKACiiigApDRVPWtXtNA0m91O/nS2sbOF7ieaQ4VI0UszH2ABpMN9D8+f+CunxuXSPCHhz4XWM5+1avJ/ampqp6W0RIiQ/78nP8A2y96/LNVC9Oa9H/aM+Ml38fPjP4m8a3O5YL64K2MTnJhtE+WFP8AvkZPuxrzmvn69Tnmz6jD0/ZU1FhXpX7OPwln+OHxs8KeDI0ZrfULsNeMv/LO1T55m/74BA92Fea1+nn/AASJ+CAtdH8R/FXUbfM16x0jSWccrChDTuP959q5/wBg1NCnzzsPEVPZ03I/RbTbGDS7C2s7aNYbe3jWGKNBgKigAAewAFWaKK9s+WeruFFFFABRRRQAUUUUAFFFFABX58f8FavgS3iDwXo3xQ0y3L3ugt9g1MxrktZyN8jn/ckP5SH0r9B6xvGfhPTvHfhPV/DurwC50zVLaS0uIz3R1IOPcZyPcVnOKlFo3o1PZzUj+b49TSV23xq+Fep/BL4oeIPBmqIwn0u5aKOVh/roTzFKPZkKn65ria8KSadmfVRaaujrfhP8RtS+EfxG0DxfpLlb7SbpLhVHSRQfnQ+zLlT7Gv6EPh7420z4keCdE8UaPMJ9M1a0ju4GB/hZQdp9wcg+4NfzhZxX6e/8Em/2iBeabqXwk1e4zNbb9R0UyN1jJzPCPoTvA/2n9K9HB1OV8j6nmY6i5R9ouh+kNFIDS17B4IUUUUAFFFFABRRRQAUUUUAFFFFACHmvlf8AbM/YT8N/tNaRJrGmLDoPxBtYj9m1RVwl2AOIrgD7w7Buq+44r6poqJRUtGXCcqbvE/m1+Inw78Q/Cnxbf+GfFGmzaTrNk+2S3mUjI7Mp6Mp7MODXMV/QL+1B+yj4P/ai8HnTddi+w61bKTp2uW6Az2ren+2h7ofwwea/E39ob9m3xn+zX4yk0LxVYt5EjH7FqkCk216g/ijb19VPI/WvLqUXTd+h9BQxMaytszk/h742k8G60JXDSWM/yTxr1x2Ye4r37VL2DUvDrXNtKs0MqB0dOhHrXyviuw8B+PpfD7Pp927PpVxww6mJj0Ye3qKwsejCVtD0auJ+I3iJrG1GnQOBJcL+9I6hM9Pxrrry+hs7GW6Zw0EaeZuB6jt+deH6rqEur6hPeSn55W3Y7Adh+ArZClOxp6J4g/4R2xuJLYBtRuB5YkYZECe3qx/pWLNNJcStJK7SSMclmOST9aQ428U2qOaTbCkoaprCxudTvYbS0ha4upmCRxIMlmJ4ApknR/DXwDffEjxVBpFp+7jPz3FxjiKMdT9fQV98eF/Dll4S0G00nTohDaWybVHdvUn3Ncf8FfhbB8MfCqW8iK+rXOJbucDnd/cHsv616Iua4atTmdketQpKMeZ7jh1r2f8AZzsN02tX5X7ixwKfrlj/ACWvGkX86+h/2f7VY/BFzMFw0t65LeyqormZVb4Dd+KnxEsPhP8AD3XPFepOot9MtmlCsf8AWP0RPcliBX4f+LvE2sfFDxxe6vevJfazq10WC5yzO7fKo/MAV9x/8FRvjCRNoPw2sJ8YA1PUtjdc8RRn8Mtj6V4n+wN8Jx8QvjRBq93D5mleHlF4+4ZDTf8ALMfnz+ArropQhzs823M+U+uPgj8PfiX+zd4AstM0nSLPV7Zl+2XsCEMzTMBuOBhsgfL+Ar0vR/2nNKjuksfFWjX/AIaus4LvGXj+vQMB+Br1Xzj35NVNT02y1qEw39nb3sR6pPGHH6iuBtyd2eguW1mjkPix8aNF8C/BfxJ440/UrXUI7G0b7M0MoO64cYiX2O4jgjsa/HXwb4K1/wCLXiW8j04/aNTYPezSyNgbi2SSfUsa+qf+CjV14c8J6p4f8J+HLFNPu7qNr/U44HbYy7sQqVJwOjN+VeXfs6t4p8FaDd65pXhj+2IdROwT+aAwVCeAM9M12wvRpOXVmShGpVUFsa+keJ/2pPhbbrDo/izxTDaxfdhhvzcRKB0ARiRj2xXd+H/+CkX7T/gMxR6yINbgi+8NW0UAke7xBDS/8NCanpWRrPgnUrTHVkBI/lV6x/aZ8H3wEd7De2e7qtxArfhwc1McZVjujapl1CZ4x+01+2Z4i/aW8aeEfFOp+H7Hw7rnhxNkMlhLI0bkSiVW2vypDD1PWvsLwd/wWmsGtYo/FPw0uluFjHmT6TqKsjvjkhJEG0E5/iOPevLLjW/hJ44xHdHRp5JOgni8pvzIHNY19+zT8MfEgZtPb7LI3ObG8DAfRSTWyx0ftJnJPKuZKMWrHm9xrc/7cn7Vmsa3q/ivQ/hhb6n+8S+1a7EMdvbxqsaRKxK75SuOMjJ3HgcV+p37Jf7IfwQ+CdrDf+FL3TPG/iUKC/iKe6hupQcDJiVCViH+7z7mvzN1j9iOyZXOl+JZ4j2jvIAf1UiuIvf2R/Hmizb9LvLO4C/dkt7loW/z+NdFPGUG9zjrZfiLWWx/Ql8o74ox6V+B2h+Lv2oPhNHFFpHifxdb2tv9yG31E3UA9vLZmXHtivUPCn/BT79o3wKqR+INOsfEscfyltW0doJOO26HYM/hXbHEU3szyZ4CtDoer/8ABZj4oX41LwN4At5Gi08wy6vdKCQJZNxijBHcKA5/4FXwH8B/hje/GD4r+H/CNgpM2o3AjaTHEUY5kkPsqgn8K7f9rj9qXUf2rfHGkeI9S8PweHbjT9PFg1tBM0quQ7OXywBGd3Tnp1r0z/gnj8J/EPjfxN4j17QNWXQrrT4obOO92sWDTNyFx32qSa4q03GLkephqaXLB6WP1r+HfhPSPAfgzSvD2h2y2ml6dCtvBGoA4Hc+5OST3JNdJXy7HffGj4K3CTa1cR+LtAj5lnVd4C9+cB0PuwIr3P4f/FTQfiTYibSrofaVAM1nIQJY/qO49xxXlxnd2ejOmrRkvfi7rudbIu5SPXivn34sfs7m3vm8WeA1bTdahfz5LC2bYsx7tH/df26GvoRfmxjn6V87fteftdaJ+zX4ZaCLydV8Z3yH+z9LDZ2ccTTAHIQHt1YjHqaqUIz0ZFGpOnL3Ti/En7fOi/CX4fyS+LLSS/8AFKgx2dja4RrtgcFnz/qgO5Ix6DtXxLqfiD42/t+eNJEDPDoMMvEMe6HS7BSf4ufnfHrljWv8I/2V/Gn7VWvaj4/8dapNp1jqDvML2SIGW8kPaNOixg8E9OMAV9YfAfxB/wAKnuk+GOt2sOlrasV09o+Ebcc4LfxBuobqc4PNQ6ipJR3Z3+yjLmnBfIxvg7+wD8Pvh/HDd+IrdfGWsLgtJeri2RuM7Iu468tn6V6B8U/gmht7PxD4GtrfQ/EukjfBHYwrFHMg/gKqAM46evQ9a9fVux4IqXcRgg89azlJy3M4ycHdHyN41+EHg39sjwlNdT20fh34kWK+VNdJHtJkHTzQPvI3r95eetfm78VvhT4g+EHiy70HxFYNaXUTHax5SQdmU9CCOhr9W/i54avPhf4ytPiJ4bixBI3larZoMK4YgEnHY+vY4NbXxe+EXhf9pz4awStBHPNJD59jdrgSIepTd25yMHoR9aqjWlSlbdGtalGouaJ8C/sf/tran8FLq08LeJJW1HwXJJhd+Wl08seWj9U7lPqRz1/VTQ9fsPE2k2up6bdw31jdRrLDPbuHR1IyCGHWvxA+M3wS174KeJTY6nC7WsxZrO824EqgkEH0Ydx2r2H9jf8AbDvPgXqyeH9faW+8G3knzoPmeyckDzIx/d/vKOvUc9e2rTVRe0pnDG8fdmfrZmhqzfDviDTvFWi2mraVdxX+n3caywXEDbkkQjhga0mrgLY2ik3UtAg471+QP7dkaP8AtEa5fRqQl9HHIPQ7coSP++a/W7xBqkejaHfXsh4hhZh/vY4/Wvyn/bV00yal4e1hh80qS27t/eO4OP8A0I100PiNOVuDZ8yUUUV3nGFFFFABRRRQAUuPkBpKczZCj0oAbRRRQMKPU9qfFDLcTRQwRNNNIwRI0UszMTgAAdSfSv0w/Yl/4Jh3M9xp/jf4wWix2y7Z7Pwu45fjKtceg6HZ19a0jBy2MalSNNXZ4x+xD/wT/wBa/aC1K28T+LoLrQ/AMLb1fbsm1Eg/cj3DheuXx9Pf9mfCHhDR/AfhvT9B0DT4NL0ixiENva2yBERQPQdz1J7kk1o2VjBp9rDbWsMdvbQqI44YkCoigYCqBwAPQVYrvhTUEeJWrOq/IKKKK0OcKKKKYBRRRQAUUUUAFFFFABRRSUADV8Mf8FVvj8PAXwms/h9pdyq634sY/alRvnisEI8wn08xsID3G/0r7Z1zWrLw7o97qmo3CWlhZwvcXE8hwscaKWZifQAGvwC/aZ+N97+0N8Z/EPjO5Li0uJfs+mwN/wAsLKMkQr7Eglz/ALTtXHiqihC3VnfgqPtKnM9keV4OadRRXhXPoze8CeC9U+IvjTRPC2iwmfVdWuo7S3QDOC5xuPsBkk+gNf0J/Cj4daZ8Jfh14e8IaQu2x0ezjtUbGC5UfM592Ylj9a/OL/gkt8Af7W8R618VdVtv9G04NpmkFh96dh++kH+6pCf8DPpX6jgV62FhaPN3Pn8bV5pci6CtSUUV1nmhRRRQAUUUUAFFFFABRRRQAUUUUAfnr/wVg/Z7XXvCenfFbSrX/T9H22OrmNeZLVmxHI3+45xk9n9q/K5lK8HqOtf0i+LfDOn+NfDOqaBq1ut3pmpW0lpcwv0eN1KsPyNfz9/H34P6l8Cfit4g8GamrF9Pn/0edhxcW7ZMUo+q4/EGvMxMLS5kfQYCqpQ5Hujz3dXUfDP4gar8LfHmieK9FnMGpaXcpcREHAbB5Q+qsMgj0Ncvtpy1xXs7o9GS5lZn9Ffwf+J2lfGT4b6D4y0aQPY6pbLNsByYpOjxt7qwZfwrsq/KT/glX+0knhHxdd/C3W7oJpmuyfaNJaRuIrwABoh/10UD/gSj1r9Ws19FRqKpBSR8rXpOjNxYtFFFbGAUUUUAFFFFABRRRQAUUUUAFFFFABXIfFH4UeFfjJ4Ru/DXi7SIdY0m5HMcw+aNuzo3VGHZhzXX0UmrqzGm07o/Ev8AbC/4J3+Kv2emvPEnhoXHinwCpLvcxpm509fSZR1Uf89Bx64r453Y4yPbBzmv6dpoknjaORFeNwVZWGQQeoIr89P2xP8Aglvpnjxr3xb8JEttC8QNmSfw++I7S7bksYm/5ZOfQ/Kf9muKpRtrE9ehjF8NQ/KRvEN3/Yr6YX3W7MGHqMHOPpWTW34v8G654A8RXmg+JNJu9F1mzbZcWd7EY3Q/j1HoRwaxq5tj0ebm1G0U6igQ2vqT9l/4R/2bCvi7VYMXEq4sYpByqnrJj37V5R8CfhW/xG8ULJdIRo1kwe4bHEh7ID79/avtuKJLeNI4kWONAFVFGAABgAflWFWpy+6juw9Lm95ltT05p6kVBG1PriPT8iePlvwr6Q+Dt1b6T8Klvrh1jt7eS5uJnbsqkkn9K+b4+grY+MvxIHw9/Y78QPDK0d5fXDafFt4P7xhux/wHNJ3laJhW+HU/OL47fES5+Kvxb8UeJ7lmP269cxKx+5Gp2oo9goFfUv7LnxS074BfDqziumNlfaxIbqeS5sWcYONmWU5C7cV8e+DdCfxl4y07T1BIurkeZjsmcsfyzX3N9jg+zpb+UrQIoVY2UFcAY6dK7a9oxUDkw9P2jcz6O8H/ALRugeJox/pFpOT/AMtdPuFlH4pkMP1r0fS/E+m6wita3tu4J5G/DKPdTg18Ear8O9D1S6W5+yGyu0OUubNjFInuCOlJ4h8Q6h8Nfh7rN0NbvdREMDCE6i6yursNqgNgHqe5rjUeZ2OuVPlTbPnL9pDxvP8AFz49+JdUt2aaOe/+w2S5/wCWSHy0A9jjP419f+EPD8XhXwrpejw42WdusWQAMsB8x/Ekn8a+OP2cvDp8T/FbTGmUyQ2G6+lJ5+50/wDHiK+3Rzn1ox0rctNdDXL43jKoSdUwfmHvWffeHdL1NSLzTbS6B6+ZApP54zV7cfSnivLuz1fkcNqPwU8G6gS39ipbse9q7R/1rm7z9m7QmkMmn6pqWnS/wneHA/HANevU1uKpSkuocqPJLb4a+P8Aw0u3RfHPnRA5EN4jFT7d61LfxV8U9DKrqGgabrkK/eks7gRu34E4/SvRqKr2j6oXL2ZhaD8SDqknk6joOp6LP/08Rb0+oZf8K6pXjuVVsJJGe7AEYqsuOMjP1rL8aa4PDvg7WtRZ9i21nI45xztwP51K95pA/di2z4T+LuvL4k+JXiC+jVUiN00caoAAEX5RjHsK/Tj/AIJh+C08O/CuK+kG241ORr4rt5ZclUY/QdPrX5NPK88jyOdzsSzH3PJr9Hf2Fv2lmtPA9vocLWtxqelQCCTTZ/kZ7dcbZI2HJ9DwccV79dONNJbI+Vov2tSXd7H6aLGskQBG5WGCOxFfO/xb+Auo6DqjeMvh6zWGoW5Ms2n2527+5MfbnunQ16n8PfjBoXjzbbwzfY9SAy1jOQG+qnow+nPsK7PVr6HTbGa6nkWKCJGkkdiAFUDJJ9hWMqcKkLmEZVcNUs0fKHiL9ubR/BHwm1PVtdhWLxTagW9vpqZH2yU8AqOwHVgegHHUV8p/s1/A/WP2pPiBqPxa+JMr32kvdkxwzDC30gONgHaNOAccdAO9ebeNLjWP20P2kPEdx4W09xoFo8t2I4htVbZMAy47vJjOB1JFfor8Ddb0bVvh1pdlo1nHpcekwpZvp8fSHA6+4bls+pOea55ScLRe52uKu5wWh3sMENnbxW1vEkFvCoSOOMAKigYAAHQAVwPxm+GKfEjw8v2YJFrliC9nOfl3dzGx9D2PY4NegcUuBXPKPMhRm4S5keYfAz4mTeMNLl0fV90fiDTP3cqycPIoON2MdQflPuM969VBGK8G+Mej3Hw+8VWPxC0WLCiQR6lCoID5wNx9mHB99p9a9p0TWLXxBpNpqVk/mWt1EJY29j2+oqIN/DLc6asYu1SOzJtV0+21fTbixvIxNa3CGKRCM5Uj/J/CvLPg7ZXXgXXta8H3UjPHHIbqzboCpGSQP9obW+ua9aaub1/SNus6XrUK4uLd/JlK/wAUTHqfoSfzqzKM7XTMf4vfB7w78avBWoeHdctF2XX7yO6RQJreYD5ZFPqO47jg1+OPxo+DuufA/wAfX/hzW4cSQNuguVBEdzEfuyJnqCPyPFfuMo28ZzjjNeMftUfs52H7Q3w/exBjtPEVjun029Kgndg5iY/3G/Q4PrXTRqunLyMZJT1PhT9iv9r6b4J6wPDniWaWfwVeyZ3cubCQkDzFH9w/xKPr16/qnp2qW2sWVveWc8d1a3EayxTQuHR0IyGBHUEd6/BLxB4f1Hwnrd7pGr2cthqNnK0M9vMpVkYHBH096+vP2E/2qdQ8F61b+BNbvGudFu3xp3nvxBKesWT0Vu3ow966a1O/vRM46uzP033Chmx0qpY6pBq1qlzbPvibrnqD6H0NWC2Bk9O9cBfK1oeafHXXxY6Bb6YrYmu33soP8C+v1J/Svhj9rvS/7Q+GVvebSz2d4j7sdAw2n+lfTHxN8Q/8JF4uu5VbdBEfKi/3Rx+pzXivx6006p8I/EcQXeyW/mgZx91ga6aekkdij+7aZ8Cq26lpF6A0teieQFFFFIAooooAKTdS02gYu6uu+Fvwn8V/GjxZb+G/B+jT6zqs3PlwjCxr3d2PCqOeT6cc17/+yX/wT38bftHT2utaokvhbwKxy2pzLtnul9LdCPm/3jhfTNfsP8D/ANnnwN+zz4Vi0LwXo0Wnx7R5943z3N039+WQ8sf0HYV0QouW5x1sUqei3PBP2Nv+Cd/hf9ndLbxL4kEPifx7tyt065t7EntAhH3vVzk+mBX2Lx6Ui/doXNd0YqKsjxZzc3eQo60tFFUQFFFFABRRRQAUUUUAFFFFABRRRQAUhpa5T4pfEfR/hJ4A1vxdrs4g0zSrZriTJ5cj7qD3ZsKPc0m0ldjScnZHxV/wVa/aNHhHwPZ/CrRrrbq/iBBc6qY25isQ3CH0Mjj/AL5RvWvyjXNdd8XPifq3xk+I2u+MtbffqGrXDTFckrEnRI1/2VUAD6VyVfO1qrqSb6H1GHpexpqI2tbwj4T1Tx14p0jw5otsbvVtVuo7S0hAzvkdgB+A6n0ANZJr9E/+CTf7O39sa3qnxc1m1za2BfT9EEi8NMR++mH+6vyA/wC03pSo03UkkXWqKlByZ+h3wN+FOm/BH4V+HPBelqvkaXaLFJMBgzTHmSQ+7OSfxrumpo+lLXubKyPlHJyd2FFFFAgooooAKKKKACiiigAooooAKKKKACviD/gp9+zOfid8Nk+IGh2fm+JPDEbG6SFCXubHq446mM/OPYtX2/TJ4UuYXilRZInUq6MMhgeCCPSs5xU4uLNqVR0pqSP5p+O3I7UtfSn7eX7Msn7OfxinOnQMPB+vl73SpMfLEc/vLf6oSMf7LL6GvmqvDlFxbTPq6dRTipRLuj6td6HqlpqNhcSWt9ayrNBPExVo3U5VgfUEA1+8X7IP7RFn+0j8HNN8QGSNfEFqBZ6xapgeXcqOWA/uuPmH1I7V+CK19BfsVftMXP7NXxetdQnd38L6qVs9YtlyR5RPyzAf3oyd303DvXVhq3s5WezOPGUfbQut0fu3RVTS9StdZ0211CxuI7uyuolngnhbckkbAMrKe4IINWq94+aFooooAKKKKACiiigAooooAKKKKACiiigApKWigDx/9oT9lj4fftLeH2sfF2jq1/GhFprFqBHeWreqyAcj/ZbK+1fkH+1J/wAE+viF+zfcXGp29vJ4r8FgkprNhES0C9hcRjlDj+IZX3HSv3cqOaKO4jaOVFkjYbWRhkEehFYzpKR1UsROlp0P5hfT35FaPh/QbzxPrVnpdhEZru6kEca/zJ9gOTX7E/tP/wDBLvwX8WpL3XfArx+CvEsxaV7eNSbG5kOTkoP9WSepXj2r5K+Gv7J/if8AZ71fULnxxpv2fV3Y29pLH+8g8r+JkfGMsfxxXnVIumrs9zDzhiJJJnQ/D3wNZfD3wva6PZhWMY3TTY5lkP3mP9PQAV0ZFOzTWNebJ3dz6WKsrIFqaP8ApUK1NH/SpKZYTtXhH7ani6SP4f8Ahjw4HxFJey3eB3woBz+LCvdlr5A/bK1j7V480nT1bK2djuI/2nYn+QFbUY3mjjxMlGm2zL/ZZ0eCbxVqOozFVe1h2Q7iB8znkjPfA/WvqDbXgfwB+Hlhrvw/lvLyJ457i6cRzxsVdQoAyPzNdtJ4e8ZeFJN2kaous2ini1vDhgPqf8aqt702GHfJTSaPRdteH/tVa4bPwrpelocNeXBlfHdEH+LD8q9D0v4hIzJb65Y3Oi3RON80ZMLn1Djt9a8L/ap1QX3i3SraJ1kitrMNuU5U72Jz+gpUY++rjxE/3eh2v7Hvh/yNH13W3QhppltI3PTao3Nj8WX8q+iFbHNec/s+6KNH+EehDBD3KvdN/wADY4/QCvRq8zEy56smenhYqNJIerZqnr2vWXhvS59Q1Cdbe1gXc7t6ew9atJ1r59/a21q5Sx0PRYmKxXLtK/PXBAH1qKNNVJqLNKsnTg5I0Jf2rLa5vJBpXhTUtTs4j88yNg49cBTj8a7jwD8bfDfxCkFtaSyWWo97G8AWTP8As9m/DmsmWbR/gl8NLSX7KzwxqiOsAG6aVhySffn24ry/xYujfE7wzd+MfDdtNo+vaOwlmCABmUc5yvU45B9sV2ezpz0UbLucvNUg7t38j6hd9vTrSqxauB+Dfjw/EDwTb3s5H2+3b7Pdbe7Do34jn867tWwa8+UXGTizui+aN0WFrzH9pjVjpPwd1cKcPdPFaj/gTZP6Ka9OjxXgH7ZOqmDwnoOnK2PtF08ze4RcD9Wrow0earFHNiZctGTPE/hF8MU+I2l+IVEjRXlrFGbaT+HeSxIPscVzo/t34c+KkkRptI1rT5NyuhwVPqPUH8jXsP7O/g1dY8G6leLe3VhO95tSW3fAwqjgjuMmuo8f/C/V/EWmCK8MOsyQrm2vol8q6hP90jo689M17Mq1qji9j52NBumpR3O7+CX7T9v48FvpmutHpXiKLHl3MXyLO4P3h/db6fhXpn7U37YureG/gpqXgS5lnvdd16DyrXUYyFMNqGAkMjZyzMuVBAz1ya/ObUtNv/DerNb3Uclle275wQVZT2Ndjbatc/Fvxd4S03U52e6luoNPaRmwNjSAbs9jzn8Kj2MYvmjsbSxPtIezqK7WzP0i/YB+DqfDb4I2us3cGzXPExW/lkYfOsH/ACxTpxx83/Aq2/iJY3XwS8fWnjXRoS+h30nl6jZJwoZjkgdhu+8PRhjvXu1jZQ6XY2tlbRrFb2sSQRxoOFVBtAH5VX17RbPxHo93pt/CJ7S6jMciH0Pce46j6V5k5XlcdKXI7PZj9M1K11rT7bULGb7RZXUazQyj+JSMj8fbtVqvIvg9LfeA9cv/AABqzl4kZrnSp2+USIeSo+o+bHqHr1ykh1IcjsUta0m117R7zTb2MS2l1E0UqEdVI/n3/CvJvgLqN14Q1vXPh3q0paawkNxYSN0kiPXHscq34mvZq8w+LGhyaTrGh+N7CPN3pM6x3ar1ltmOD9cZI+h9qzkndSRdGXMnTfU9Uao3QSKVYZB60RyJNGkkZ3I6hlPqCMg06tTmd0FKDikopiPiX/goZ+zOPFmiP8TNBi/4mumwhdVt41y1xbjgSgf3k7+o+lfm9bzvbXCSRSNHLGQyup5BB6iv33ubeK7t5IJ4kmhkUo8ci7lZSMEEdxivyE/bO/Z7b4FfFCd7CJx4Y1ktdaewTCRZOXhz6qen+zj0r0MPUuuRkSj1R9Zfsg/tGS+NvDKx3E3mazYhYb6GTA84Y+WQAev8wa+lPGPj61t/B9xcWsu27lXy0jJwwJ6n3FfjZ8IPiRe/C3xtY6zayMIA3l3cK5IkhJ+YY9R1H0r9Ef8AhLI/GGm2moWs6z2M8YkhkjOVdT0NY1aXLK62Oyk1UWu6ICSzEnqeTWV4q09dW8L6vZMMrPaSof8Avg1rbaR41kjZGBKsCpx78Uo6M65ao/Md4zFK6HqpIpK2fGWnnSfF2tWRXa1veSx49gxxWNXongtWbQUUUUCCjp14qxp+n3WrXkVnZW015dzMEit4Iy8kjE4AVQMk196/sxf8EpfFnj8WuufFKaXwdoTYZdJiwdQuF/2uqwgj1y3sKuMXLYznUjTV5M+Kvh58MfFfxY8Rw6F4R0K813VJT/qbWMsEH95z0VR6mv1S/ZN/4JY6B8PWtfEnxUa18V68hEkOjRgtYWxzkF8gec3sRtHoa+y/hP8ABXwX8EPDMOheC9AtdEsUA3mFMyzNjG6SQ/M7e5NduFGB2rthRUdWeTVxUp6R0RFb28VpDHDDGsUUahERBgKo4AA9BUq0u2kHWug4R1FFFABRRRQAUUUUAFFFFABRRRQAUUUUAFFFFACV+Tv/AAVQ/acXxt4wg+E+gXIfR9AmFxrE0bcTXuCFh+kQPP8AtN/s19rftxftQQfs1fCWa4sZY38YazvtNHt25KNj57gj+7GCD7sVHevw0vLufULye6upmuLqeRpZZpG3M7sSWYnuSST+Nebi61l7NHrYGhd+1l8iKlptFeMe6dj8I/hfrXxo+JGheDNBiMmoarcCHfglYY+skrf7KICx+nvX9AXwv+HOkfCXwBofhHQoRBpek2y28Qxgvj7zt6szZYn1Jr45/wCCWv7Mp+H/AIDm+JuvWuzxB4kj2aeki/NbWAIII9DKRu/3Qnqa+7yMV7OHp8keZ7s+dxtb2k+RbIGpKKK6jzgooooAKKKKACiiigAooooAKKKKACiiigAooooA8b/ax/Z8sP2kfg3q3hiYRw6tGPtek3jKCYLpAShP+y3KsPRvYV+C2uaHf+GdYvtJ1S1ey1Kxne2ubeQYaORGKsp+hFf0m1+Y3/BVD9l02d2nxg8O2rfZ5ylvr8MScI/3Y7njseFY+yn1rixNPmXMj1sDW5X7OXU/N2lo+tJXlHun6ef8Euf2sDfWa/B7xPe5uYVaXw/cTP8AejHzPbc9xyy+2R2FfpAtfzZ+H9e1DwvrdjrGlXUllqVjMlxbXELFXjkUgqwI7giv3U/Y6/ac079pr4WW2ql44PE+nhbbWbFcAxy44kUf3HwSPTkdq9nCVuZcktz5/GUOSXPHZnvVFJnNLXonmBRRRQAUUUUAFFFFABRRRQAUUUUAFFFFABRRRQAlZ+taFYeIrGay1K0ivbWUYaGdA6n8DWjRSaT0Y03F3R8wfEj9jWzu/NvfB139hmOW/s+6JaE+yt1X8c18zeLPAniDwLfNaa7pc+nyA4V3XMcnur9CPpX6b1Q1jRbDxBYy2WpWcN7aSDDwzoHU/ga4amEhLWOh7GHzOrS0nqj8ulqaM/yr68+IP7Guj6kZbrwpeto8zZP2KfMluT7H7y/rXzh4y+E3in4fTsmtaVNDCDgXUQ3wt9GH9cV5lTDzp7o+koY2jiFo7M5gGvhL9pvUPtvxg1jDbvJWKIZGMYQcV90s21ARyvrXwF8e2aX4veJSTk/adv5ACnh/iJxn8Ox9L/BGw/s34W6An/PSIzn6uxNdx1ry7Q5PGXhTwzpUFvplrrNlDZxBUik8uZfkBwQeDV2H4yWNpKsWs6dfaLIeP9JhO3P1rKSvJs6YWjBRZ6FtXkMAwbgq3IP4V8ZfGa+Gs/EnWmgULFHP9niRRwAoC/zr6403xZpWrWhurO9guY0Uudrg9BnpXxnbZ1zxsjsS32i93n3y+a2pLlbbMMQ1ZRXU+6vDGmnRfDulWGNv2W0ihxjH3VArUryXQ/HGoaSAjP8AbIAP9XKefwPWu50nx3pOpqqyyNYznjbN93P1ryKlN3bPapuyR0S/erxP9qbwTca74VtNasoWmm0tmMyryfKbq34Efka9ujUOoZWV1I4ZDkUSRpKjRyKHRhgqw4I9KinJ0pqRdSPtIuJ4l4J8e+GvjF4FTQNelijv1jWK4t3lETOVxiRCT7ZrA8a6h4R+DfgXU9B0O7W+1TUUZCvmrI43DBZyOAAOg9/rWl46/ZZsNX1GS90C/GleYdzWsqF48/7OOR9KoeFf2T7e1vo7jxBqq3sKncba0QqG6cMTz+Vd6lRXvc2nY43Gta1vma37K+jXWn+Db+9nVkivbkNCG/iVVxuHtkn8q9uWq1jp0Gl2kVraxLDbwqEjjQYCgdAKtKtefUl7SbkdtOPJBInj+6K+VP2zdQ3eKPD9luJEVm0hXsCzn/4mvqxMKBzXxd+1lffbPitNGGyLa0hixnocE/1rtwK/enm5hJqi13PY/wBnmw+w/CvTTjBuHlmJ9ctj+lemV5F4N8Wat4L8D6DZy+E7y8sktEZbuzkD5BGcsuMg81vaf8bvDc0yxXovNLcnH+lQEY+uK3muabZz0pKEUjxL9pTV4tR+IQtolXNjapE7Aclmy3J9gRXE+BYlHiGC7ljka2sz50zRg5RcgBvYgkYqPx/q41zxxrl/HJ5kU907RsOhUHC4/AV7h+yH4JtfFFr4zkvIhLDNbx2BHoHJZsf98r+VdcvcpnBBe0rH6G/s9/Fybxr4dtdK1z5NfghUx3J+5qMIUbZkPdsEbh+PTp7B7V8Kfs261dWLan4I1Nius+G7nfaSHgtAT8rL9P5Nivr7w54mvrqxEl6iSncV3Lwx6c46V4sk0zsqQv7yJPHPhFvEMNre2LiDWdPfzrWXpkg52k+5/X6mtbQ9WOs6XFcPEYLj7k8LDBjkHDLj6/oanh1C3nxiXax7MMVMkaK7sFUM/LMv8WPWhbmbvZJ9B1QX1nFqFlPazrvgmjaN19QRirGBQVp2MrtO6MnwestvoMNjOd01izWrMepC/dP4ritk1DDCsMkjrwZDlvr0zUpaqQnq7hmhaQmk3UXC2hJmvJv2mvgnbfHb4U6noJCrq0IN1pk5AylwoOB9G6H8PSvVQ1LnnIODVxlZ3Qj8DdU0u50XUbnT72Fra9tZGhmhcYZHU4II9iK+mP2QfiPJM114PvJAyorXNkzPg9RvjAPX+9x712P/AAUe+A//AAi/i61+Iej2hXTNYbytREY+WK6HRjjpvH6ivjzw5rlz4Z1yy1WykaO6tZVljZTjkHOD7Hoa9bSrC4oS9nO5+mTJ6cimstY3gfxdaeOvCthrVk++K5jBYf3HH3lPuDmtsgjtXFZp2Z626uj4H/aG0g6P8YNfXGFuJFuV/wCBjP8AOvOa+jP2lPh1rvjL4uWMXhnRL7Xr28so1aLTbd52DBio3bQcfjXuXwB/4JI+NfG0dtqfxI1JfBumSKHGm2pWa+ZT2Y8rGfbk/SvRjFySsfP1pwpyfMz4HsrK51O8htLK3mvLuZgscFuheRz6BRyT9K+zP2ef+CXHxK+KzWupeMceAvD8gD4u4/MvpF9BDn5Pq5HXpX6j/A39kj4Y/s+WcaeFPDdul+FAk1S8AmupDxyZCM/ljGa9j2gADHA6YrrjQ7nlVMY9oI8P+AH7HPwz/Zyto5PDOhxza35YSbXL/E15J64c/cB9EwK9vWnCium1tEedKUpu8mLRRRVEhRRRQAUUUUAFFFFABRRRQAUUUUAFFFFABRRSUALWT4s8U6V4I8M6nr+t3sWnaRptu9zdXUxwscajJJ/w7nitXdX5Pf8ABTj9roePvEEvwm8K3Yfw7pM4fWruE/LeXSnKwg944z17FwP7tYVqipxudFCi601FHzB+1J+0FqX7Snxc1LxZdmSHTFza6TYOf+PW0UnYMdNzZLsfVvQCvI6dSZr56UnJ3Z9XGmoxSQ2voP8AYl/Zrn/aS+Mtlp91A/8Awimklb7WpugMQPywg/3pGGPYBj2rwvw/oOoeKtd0/RtJtJL/AFPUJ0tra1hXc8sjnCqB9TX7wfsh/s46f+zT8I7Hw9Gsc2u3WLvWL1efPuSBkA/3EHyr7DPeunD0XUld7I4sXWVGFluz2iys4dPtYba3iWC3hQRxxRjCooGAAOwAqZqKbXs7aHzIUUUVIBRRRQAUUUUAFFFFABRRRQAUUUUAFFFFABRRRQAVneI/D2n+LNB1DRtWtY73TL+B7a5t5RlZI2Uqyn8DWjRS9Rre5+CH7W/7OOo/s0/Fm98PyJLNoN0WutGvmBxNbE/cJ/vxk7W/A9xXidfvd+1x+zXpf7TXwou9BnEdvrtpuutH1BlBMFwBwG/2H+6w9MHsK/CbxV4X1XwT4k1PQdbs5NP1bTbh7a6tpRho5FOCPf2PcYNeRXpezd1sz6bC11WhZ7oy1r1f9mj9oTW/2bfinp/irSi09nnyNS0/dhbu2P3k/wB4feU9iB715PRXPGTi7o65QhJcsj+jj4c/ELQvir4M0vxV4bvVv9H1KESwSrwR6qw7MpyCOxFdNX4r/sD/ALZU37OvjAeHfEVxJJ4A1mUC43fMNOnOALhR/dPAcDtz1HP7Q2d5BqFrDdWs0dxbTIskc0TBkdSMhgRwQQc5r6CjWVWN+p8tXoujK3QnoooroOYKKKKACiiigAooooAKKKKACiiigAooooAKKKKACiiigAqK4torqFopo1libhkdQwP1BqWigDx74gfsv+DvGayTWlv/AGBqDdJ7FQEJ9Wj6H8MV+WP7U3/BO74x+HviHrXiHRtFXxdoNzP56XGlMDMF4+9EfmBHtmv2vprdKwdGF7rQ7IYurFcrd0fjjbxXFjssru2ns7mJFQwzoUYYGMYPOanmhS6hMU0SSxsMFZFDD9a/WHxZ8M/C/ji3aLXdDs9SVhjdNEN4+jDkfnXgvjL9g/wzqTyzeG9TudElbJEMw8+LP6MPzNeZPC1E/d1PoqWbUp6VFY/OnxN4D0O30vUNQt7GOzuobeSRZLcmPJ2nqB1FfMfw5tzdeMtNJ52s0h/BSa/Sf4wfsZ/EvQ/CuuR6Zp0fiINbSJEdPkHmOSMD5Gwa+DPDfwt8XeAfGcMXiXw1qugukb/8f1o8Y6Y+8Rg1nGMoppnU6lOtOPs3dHoX06U/caFX5RjketHrXI9z1+bsXtP1y/0t91rdSw/7Ktx+VdJY/E6/h2i5giuQDywG1q42iocU90UpyXU9Ts/iVpNzgTRz2re6hh+lbNr4k0q+wItQtyx6B22n8jXidI1ZOjGRoq0up79GFk+46ye8bAineSw/hNeAxyPHgo7IevysRV+317UrfiK/uUA6ASmp9h5j9sj3NY84FfBvx/uTqHxk8RYO7FwsQA9lVcV9GL4u1tto/tO4P1avlXxBcNqXxEup5pGfzdRJdzyfv8mu/B0+STkeVmFTmgo+Z9w+H7cafounW6kjybeNevPCgVPeWlvqOEuraG5UnpNGrZ/MVzsXxI8LeY0Y1iFHX5dsiMmMexFbGn67p+q7TZ31vdHqBFICfy61GtzSNrWZ8MeIIxFr2pIEEai5kAUDAA3ngV9a/sQKv/CJ+IsAbjfR5Pf/AFfFfMHxK086b48163IIEd7LtyOxYkfzr6G/YX1qMXvibR2bEkixXUak9cZVsfmK6q38JnnUPdr2PYfilp914J8WaH8SNKgaR9PZbfVI41/1lsxxuPHOMkc+oPavqzwreW99oNpdWz77e4QTRNnqrAEVx2heHLbVtO1G1vrcT291C0DxsOGUghh+tM+Ctpc+FdJv/Bt2zSHRZs2cr9ZbWQkofwIZT9K8dybR6M9HZHpDMamhu5YcFJCKgpKRjY1Ydam43AMKux6qr9VxXPqTnirkJyvNF7GTijcjuRJ7VJuqhC3yirKPmmQSM20U3zDTWYMODmmZwM5wPWmkLcmVvXinhqZb29xezCO2gluHP8Malv5V0Wm/DnXNQZS8K2UZ6tM2SPwFawpTm9EYVKlOHxM80+K3w7074tfD/WfCmqIpttQgMayYJMUnVJB7q2DX4taj8NPEVj411HwtBpV3qOr2V21k8NjA0xMgYrgBQeuK/oa0n4S2lrKsl7dy3ZByYlG2M/Ud66PQfBWg+Gbq7udK0izsLm8fzLi4ggVZJm6ZdgMscetezh8NOHxHmVMdBfDqfl1+xf8AsefGy2t76x8SaIvhbw/I4lik1iT9/G/fZCvJBz3I5FfcvhX9kDwtpqxya7dXWvTjkxs3lQfTavJH1Ne9rgDApa7Fh4Xu9WclTH15aJ2Ri+HPCOi+E7VbfR9KtdNhUY220QT9R1rZpaK6UktEee5OTuwooopiCiiigAooooAKKKKACiiigAooooAKKKKACiiigAooooAKa3anV4P+2B+1DpP7MPwwuNWk8q88TXwaDRtMZuZpscyMOvlpkFj9AOWFTKSirsqMXNqKPH/+Ci37Yx+CvhY+A/Cd8sfjnWoSZrmFvn0y1PHmcdJH5C9xy3pX4+sxZiWJZickk5JPrWv4w8Yav4+8Uap4i1++fUdZ1O4a5urqTq7scnHoB0AHAAA7Vj18/Xre1kfU4eiqMbLcKYac1fR37Dn7K91+0x8TlF/FJF4L0Vkn1a5AIEvOUtlP958HPooJ9KxjFydkb1KihFuWx9V/8EuP2TzY26fGLxVZYuZ0aLw7bzL9yM5V7rHqwyq+2T3FfpAPlIqDT9PttJsbays4I7a0t4lhhhiUKsaKMKoA6AAYqevehFU48qPk61V1ZuTFakooqjEKKKKACiiigAooooAKKKKACiiigAooooAKKKKACiiigAooooAVa+Cf+CmP7If/AAsPw/L8UvCdiZPE2lQgatawLlr20QH94AOskY/NeP4RX3rSMokUqwDKRgg96icVUjys1pVHSmpI/mkBPGfTNLX2p/wUW/Y3b4L+K5PHvhWzkPgjWbgtcwxrkaZdOSSvtE55X+6cj0r4r9q8WcHF2Z9TTnGpBSiFfo7/AME0/wBtI6RcWnwk8c6hixlby/D2pXD8Qsf+XVyein+A9j8vcY/OEtT4pnidXRijqQyspIII6EGqp1HSd0KtRVaHKz+lulr4U/4J5/txx/FjSbT4deOL4L42so9lhfztj+1YVHQn/nsoHP8AeAz1zX3VmvfpzU480T5epTlSk4yFooorQyCiiigAooooAKKKKACiiigAooooAKKKKACiiigAooooAKKKKACiiigBCM1U1DS7PVYXgvLSG7hYYMc0YdSPoRVyilZMabWx4n4x/Y5+E3jQyPceFYdPuZOtxpjtbMPfCnb+YrxXxX/wTR0K5aR/Dni2/wBO/uw38K3C/TI2mvtakrGVCnLodlPGV6fwyPzI8T/8E7fido7SPpk+j67EuSBDcGFz+DjGfx715T4m/Zn+KXhJn/tDwNrGxSQZLSD7Sn5x7vzr9jqa1YSwcHtoehTzetH4kmfhbeWFzpshS8tp7R14K3ETRkf99AVAGVvukN9DX7mahoen6vCYr6wtryM9UuIVkH5EVwmtfs4fDDxBu+3eBNCkLdWSySNvzUA1zvBPozsjnUftQPxvwR2oWv1X1b9hL4OaozlPDc1gW/5872ZAPoNxFcVq3/BNr4fXJZtP1vXtPP8ACpmjlUf99Jk1nLB1FtqdUc2w8t7o/OLB47V816SPtXj+0z8xfUV6d/3lfsdff8EzdLbIs/HN9GrcBZ7ON8fiCK8as/8AgjXeaTr1nqVv8SYpTbzrOVl00jdhs44arp0akU00Y18dQq8vLI8y1Tw7pWtOxv8AT7a7b+/LGC351zl18IfC0zForKSzkHKvbTMpB/Ovs68/YP8AFCu/2fxBpsq5+UvFIpI/XBqm37CnjbtrGjnpx+8/H+Gub2NVdDq+uYb+ZH5a/Hrwj/wifi+HZLJPFeW4lEkxyxIJU5Pr0qt8CfH/APwrf4naNq8rEWPmeRdgZ/1L/Kx/DIP4V+iPxj/4Jd+NviVa2JtfEmiWt5ZuwWSUSlXjYDIwBwcgH8681i/4I0/EcyR7/G/h5Rk7iIpuP05zXUqc5QtJHnzxNHn5oyPqrQY4V0+B4JFlidAyuhyGB5BB9MVJJp4TVIdQhX98qmJ/9pCRkfgea3PgX+yl4z+H/gCx8P8AibxHp2qXNiPJhurWGTmIfcVtxySBxn6V6VF8A7jI8zV1A77YD/jXl/VKu1jqePobuR5fu3UV6/b/AAHtFP77VbhvZY1H8xWnbfBLQYsGVrufn+KUAfoBWscDVa2MZZhQWzPDdwX5s4HrUsN1uI8seac9E5Jr6HtPhn4bsyCulxSMO82X/nW7aaPY2KhbezghA7Rxgf0raOXyfxM5pZpC3uxPAtL8N6xqMSvDpl0Q3ILRlR+tdHY/C/XbjBkWC1XH8b7j+Qr2UKF6DFOrqhl9OPxO5xTzCpLZJHm1j8IANpvNRd/VYU2j8zk10Gn/AA30KwwTZ/aH/vznea6miuyOGpQ2RySxVWe8iG3tYbWMJDEkS/3UUCpR+NLRXQklojm33CkpaKBCUtFFMAooooAKKKKACiiigAooooAKKKKACiiigAooooAKKKKACiiigAoornfH3j7Qvhn4R1PxN4k1CLTNG06Iyz3Ep6AdAB3YnAAHJJFJu2rGk3ojI+NHxi8OfAr4e6n4v8T3Yt9Ps1wkakeZcSnOyGMd3Y9B9SeATX4R/tBfHfxF+0V8StQ8X+IZCjSnyrKwVsxWVuCdkSfTqT/ExJrs/wBr79qzWv2ovHxvpvN0/wALaezR6RpBbiJDwZZMcGVu56AcCvBWrw8TX9o+WOx9FhML7OPPLcbSrRVjTdPu9Y1C2sbC2kvb26lWGC3hUs8rscKqgdSSQPxri3O86b4U/C7xB8aPH2leD/DFobzVtQlCj+5Cg+/K57IoySf6kV+8v7P3wN0H9nn4Y6X4P0FNyW6+Zd3jDD3dwwHmTN7kjgdgAO1eSfsKfsg2n7NXgP8AtHV4o7jx7rcSvqVwMMLWPqtrGfQdWP8AE3sBX1FjFexQo+zV3ufPYvEe1lyx2QUUUV1HnBRRRQAUUUUAFFFFABRRRQAUUUUAFFFFABRRRQAUUUUAFFFFABRRRQAUUUUAY/jDwjpHjzwxqXh7XrGHUtH1GBre5tZ13JIjDkfXuD2IBr8Nf2wv2VdX/Zd+JD2BE174T1EtLo+qOM+YgPMTkDAkTOCO4ww64H7xV538evgd4c/aE+HOo+EfEkGYLgb7a7RQZbOcA7Joz6g9uhGQeDXPWpKor9Tsw2IdGXkfzzU6u/8Ajl8DvE37PvxCv/CXie28u4gO63u4wfJvISTsmjPdTjp1BBB5FcBXjvTQ+ojJON0XNJ1a90PUrXUdOuZbK/tZVmguYGKyRSKcqykdCCK/Zj9hD9tWz/aG8Nx+GvEtzDa/ELTof3yHCLqMQ486MZ5YfxqOh5HHT8W62fCfizVvA/iLT9d0O/m0vVbGVZ7e6t2KujA5H1HqO4rajWlSemxy4jDqvG/U/pFor5c/Yp/bR0n9pTw0mk6tJBpvj+whBu7ENhbtBx58IPUdNyj7pPoRX1HXvwkprmR8xOEqcuWQUUUVZAUUUUAFFFFABRRRQAUUUUAFFJmigBaKKKACiiigAooooAKKKKACiiigAooooAKKKKACiiigAooooAKKKKACiiigAooooAKKKKACiiigAooooAKKKKACiiigAooooAKKKKACiiigAooooAKKKSgBaKKSgBaKSloAKKKKACiiigAooooAKKKKACiis3xD4g03wrod9rGrXsOn6ZYwtPc3U7hUijUZLE/Sk3YBnijxRpXgvw/f65rd/BpmlWMLT3N3cNtSNF5JJ/p3JAr8U/22P2yNV/ac8ZGx0x59N8AaXKRp1gcq90w4NzMP7x/hX+EH1JJ1/wBuP9ty/wD2kNefw74defTvh7p8uYYTlH1GQf8ALaUdgP4U7dTz0+TtxzXjYjEOfux2PfweG9n78twopc00k1556/kIzYr9VP8Agmz+xX/whunWXxY8cWB/4SC8j8zQ9OuF/wCPGFh/x8Mp/wCWrqflz91T6njyT/gnP+w//wALC1Cy+KHjzTs+F7WUSaNplynGoSof9e6nrCrDgHhmHoOf1hXC8AYGK9TDUeX35HiYzE2vSg/UXhaCaGpK72zxAooopAFFFFABRRRQAUUUUAFFFFABRRRQAUUUUAFFFFABRRRQAUUUUAFFFFABRRRQAUtJRQB4x+1J+zH4e/aa+H82i6oq2es2waXS9WRMyWkuOnqyNgBl78HqBX4e/Fr4TeJPgr461Hwp4psWstUs27ZKSxn7siN/Ejdj+HWv6Ka8I/az/ZQ8OftQeCGs7tY9P8UWSs2la0Ey0L9fLk7tEx6jt1HPXir0eb3onpYXFOk+WWx+DmD6U6up+Jnw18Q/CPxpqXhbxRp8mm6xYvteNvuuv8LoejI3UMODXLV5T00Z9CpXWhr+EfF2seA/Emn6/oOoTaXq9jKJre6t2wyMP5jsR3Br9nv2Lf22tF/aV0OPR9WeDSfH9nDm6sN21LxR1mgz1H95eq59K/EqtPwz4m1Twbr1jrWi30+marZSia3urZyjxuOhBFdFGs6L8jkxGHjWj5n9JFFfHv7FP7eekfH6xtvC/iuaDSPiDEgUKSFh1MAffi9H7mP6kccD7Br34TU1zRPm6kJU5cshaKKKszCiiigAooooAKbJIsaFnYKoGSzHAFOrzX9pSz1zUPgJ49t/DaSSa1Jo9wtskQJdmKHIXBHzYzjHfFTJ8sWyormkkfN/xL/4KrfDXwJ41vvD+m6Jq3iiKym8mbVLJ40tmYfe8sscuB64AOK93+A/7V/w5/aIsw3hbWlXUlXdLpF9iG7j/wCAE/MPdSR9K/AdleOR45RiVCVcHqGHUGr2jaxfaDqMGoabe3Gn38Db4rm1kMciH1DA5FeOsZNS12PoJZdTcfd3P6TMj1pa/Jn9n/8A4Kp+LPBUdtpPxHsD4w0xcJ/acBWO+QdMt/DJ+OCfWv0K+Dv7VXwx+Oduh8LeKLOa+IBbTLphBdp7GNuT/wAByK9KnXhU2Z49XDVaT1Wh65RSbh60V0HKLRRRQAUUUUAFJXnvx++MmmfAX4U674z1QCZLGLFva7gDczsdscQ+rHn2BPavx08af8FCPjp4y1ya+TxpPoUDH91Y6TFHFDEvYD5SzfViTXLWxEaWj3Oujhp19VsfubuB6HNLX5afsU/8FFPGGofErS/BfxL1KPWdK1mUWttqsyLHNbXDcIGK4DIxwpyMgkH1r9Sea0p1FUV0Z1qMqMuWQ6iiitjAKK8t/aR+P2i/s3fDC98XaxC966utvZafEwV7u4bO1AT0HBJbsB34FfnLZ/8ABWz4mHxIt1deHvD76KZctp0cciuEz90S7ic474/CuepXhTdpM6aWHqVk5RWh+tlFcP8ABf4t6N8cfhvovjLQSwsdRi3GGQjzIJAcPE+P4lYEe/XvXJ/tc/Gq7+APwH8ReLtNhjm1aIR2tisy7oxPK4RWYdwuS2O+MVrzLl5uhioScuTqex0ZB6V+A19+1t8Zb3XH1V/iX4jW8Llx5d8yxrznAjHyge2MV+rH/BP39prUf2j/AIT3b+IjG3irQLhbG9mjXb9pQoGinI6BmG4HGBlTgDOK5qWJjVlyo662ElRjzNn1FSUZr5M/4KJftR6t+zr8NdMtPC86W3irxBM8MF0yBzawoAZJAp43cqozxyT2ronNU48zOWnB1JKK6n1nRX8+9v8AtSfF201htVj+JXib7a7+YzNqMjKT/uElce2MV+wv7Dv7Qt5+0d8DrLXdY8n/AISPT7iTTtTMK7VklQArKF7blZTjpnOOKwo4iNV2SOqvhJ0FzN3PoSikr4p/4KSftaa58BvDui+E/B119g8T6+kk0morgyWdshCkxgggOzHAY9ACRzjG9SoqceZnNTpurJRifa2aM1/P7oP7WHxi8N65Fq1n8R/EclzG4k2XV/JNE+CDtdGJUg45Fftf+y/8Vr742fAnwj4y1S2itNS1K03XMcAxH5isyMVHoSufxrCjiFWbVjevhZ0Em2eqUUUV1nGFFFFABSUtIaAFor47/be/btk/Zr1XTvCvhrS7XV/Fd5b/AGuaS9dvIs4SSqkquCzsQSBkDAzzmvFP2ef+Cp3iHW/H2maD8SNI0saTqU62yappavC9rI7AKXRmYMmTg4wR156VyyxNOM+RvU7I4SrKn7RLQ/S+imqwbBByDyDTq6jjCiiigApKWmSSLGpdiFUDJYnAAoAdmjNeCfGX9t/4RfBNZYdV8TwarqyZH9l6KRdT59G2nan/AAIivz0/aH/4KeePfiil1pXgqI+BfD8gaMyxSB7+ZTxkyDiMEdl5965amIhBb6nZRwlWtsrI/RP48ftnfC39nvfbeIddF7rgHy6LpQFxdf8AAgDiMf75FeW/Bn/gp18OPi144t/DNzpeqeFZ7yXybO81ExtDI5OFVijEoSSByMepFfjhdXUt5cS3E8rzXErl5JpGLO7HqSx5J9zU+g2uoX+uWNtpUU1xqM06R28dspaRnLAAKBznNee8ZUb91HsLLaUYe89T+kwdadWN4Nt7yz8I6Hb6izPqEVjAlyz8sZRGocn3zmtmvZjqrnzjVnYKKKKYgooooAKKKKACiiuY+I/xI8O/Cfwff+JvFOpw6Vo9kheWeZupxwijqzHoFHJpNpK7Gk27I0vFPijSfBfh+/1zXNQt9L0mxiM1zeXLhI40HUk/5z0r8aP22v25NV/aP1qbw/4fefTPh3aS/ubZjtk1F1PE0w9M8rGeBwTz0wf2w/21fEP7UGvNY24m0bwLZyZstIzgzEZxNP8A3nPZei9uea+a/rzXjYjEOfux2PewuF9nac9xVp2aatJ3rz9z17C7jnFfYX7B37EF1+0Fr8Xi3xbbTWvw80+X7jZRtVlU/wCqQ9RGD99h/ujkkil+w3+w/qP7RmtQ+JvEkUth8O7KYb5OUfU3B5iibsvZnHToOTkfsp4f8P6b4U0Wy0jR7KHTdLs4lht7S2QJHEg6KoHQV6FGh9qR5GMxfJ7kNyzpun22k2NvZWdvHaWlvGsUMEKBI40UAKqqOAAAAAOmKsUUV6R4HqFFFFABRRRQAUUUUAFFFFABRRRQAUUUUAFFFFABRRRQAUUUUAFFFFABRRRQAUUUUAFFFFABRRRQAUUUUAeCftYfsleG/wBqDwh9nu1XTPFNipOl63Gnzwnr5cn96Jj1XtnI5r8Tvin8K/EvwZ8bah4W8VadJp2q2bYKsMpKnO2SNujIw5BFf0WcV4d+1R+yn4Y/ae8FtYaki2HiK0RjpetImZLdiPut/ejJ6r+Iwa4q1BS96J6WFxTpPllsfgvu9qN1dr8YPg34p+Bfja98L+LNPayv7c5jkUEw3EeeJI2/iU/mOh5riK8tqzse/GSkrotafqVzpV9BeWc8lrdwOJIp4WKvGwOQykcgj1r9Wv2H/wDgohZ/EKKw8D/Ey9hsfE4CwWOuSkJFf9gkp6JL79G9j1/JunxyNGwZTtIOQa2o1ZUndGNahGtGz3P6Wgc8ilr8oP2M/wDgpNeeAFsvB3xSuZ9T8NrthtNeOZLixHACyjrJGPX7yj1HA/U/Qdf07xPo9nq2k3sGo6beRrLb3dtIHjlQ9GVhwRXu06saiuj5urRlRdpGhRSUtbGAUUUUAFNZd3anUUAfIX7T/wDwTj8C/Ha6utf8PsvgvxhNl5Lq1i3Wl23PM0QIwSerrg+oNfmB8dP2UPiX+zzfSL4q0CVtLziLWrAGazkH++PuH/ZcA1+/lVtQ0+21SzltL23iu7WZSskEyB0dT1BU8Eexrjq4aFTVaM9CjjKlKyeqP5rBJnkc1Lb3klrcJPDI8FwnKTQuUdT6gjkV+xvxx/4Jg/C/4nTTaj4ZE3gPWH3OzaenmWkjHP3oWPy8/wBwj6V8DfF7/gnb8ZfhXcTSW+gN4u0tclb3QszHaO7RffB9sGvLnh509T2qeMpVla50n7MX/BRXx58Itd03TPFup3HizwY0ixTx3zb7m1QnG+KU8nHXaxIIHav2V03ULbVtPtr6zlWe1uYlmikXoyMAVI+oNfgp8I/2Q/in8VPHGn6Jb+D9Y0u2adVu9R1Gzkt4LaPPzOzOADgfwjJJr94vDOiQ+GvD+m6Tb/8AHvY20drH/uogUfoK9DCObT5jysdGmmnDc06KKK9A8oKSlqhr2sWvh3Rb/Vb+UQWNjBJc3ErdEjRSzH8ADQG5+Yn/AAV2+ND6h4m8NfDGwnP2ewj/ALW1EKeDK4Kwofom5v8AgYr87Frs/jN8Tbz4x/FTxP4xvWcvqt9LPEjHPlwlj5afRVwK5rR9Ev8AXpriHT7aS6lgtpbuRY1J2RRqXkc+gVQSTXzdWTnNs+soU/Z00mQ2d1LY3UNzA7RXELrLFIhwVdSCCPoRX9A/7NfxYh+NnwT8J+Lo3V572yVbsD+C4T5JQfT5lJ+hFfz5gHg1+mX/AASF+LWbfxf8NbuYboius6ejN/C2EmUfjsb8TXTg6nLPlfU5cfT5qfMuh+lFFFFe2fOnxD/wVk8D6n4k+Auj61YpJNa6DqoubxI1LbY3Qp5h9ArEc+9fkYqhTzX9JGoWNtqVnNaXkEV1azIY5YZkDo6kYKsp4IIzwa8B8O/s5/s32fjw3Ok+GvB7+I4pd4s45Y5DHID1EG4qpB9F4rzcTh3VlzXsethcZ7GDg43Mj/gnL4C1r4f/ALMOi2+u2cmn3OoXU2oxW8w2usMm0oSO24Ddg8/MK679tjwL/wALC/Zd+IGmJF5txDp7X8C4yfMgIlGP++D+de3LheAMD0qDUrGHUtPubS4jEsFxG0UkbdGVgQR+Rrs9mlT5PI4PaN1faeZ/NerblB9RX3B/wSX+In/CN/HzWfC00u218RaWxjVuM3EB3r+OwyflXyX8WvA9x8NPih4r8K3CbZNI1O4tBx1RXOw/iu0/jWr+z98QH+Fvxs8FeKg22PTdUhkmx3hZtkg/74Zq8Kk/Z1Ln0tWKrUn5n9C+flzX46f8FXvHP/CS/tIWuhRybofD2kxQFQekkpMrfoUr9hoLiO6gjmidZIZFDK6nIYHkEfhX8/n7UnjQ/EL9oj4h6+r+ZBcazNHC2f8AlnGfLT8MIK9LGS9xLuePl8L1G30PK8mv0Q/4I+fEL7D428deCpZNqahZxarboxHMkTeXIAPUrIp/4DX54171+wj48Pw7/ar8B3zyCK2vbz+y52Y4GydTGM/8CZT+FebRnyTTPWxEeelKJ+75YcV+G3/BQr4lN8Sf2qvFzJJ5ljobJotvg5H7kfvD/wB/Gev2t8ceJoPBngzXdeuGVIdMsZrxyx4wiFsfpX86PiDXLjxNrupavdsXutQupbyZm6l5HLn9Sa78ZPRI8zL4Xcp9ilHG00gjQFnY4VR3J7V/Q38BPBa/Dz4MeC/Dqrt/s/SreJxtx8+wFyffcTX4c/sqfD1vih+0R4D8PeT51vNqcc9yuM/uYv3kn/jqGv6AlwFAAwMUsFHeRWYS+GI6ikpGkVFLMwCjkkngV6p4w6ispvFeiJci3bWLBbg9IjcpuP4ZzWorBgCCCPaldDs0LSUUGmI/HT/gqN4L1bQ/2lptdu4JP7L1rT7c2VyR8jGNSjxg+oOOPQj1r5j+HPg3VviB4+0Hw3oltNdarfXkUcUUKkso3gs59AoBYn2r9+fiZ8P/AAZ8RPDj2HjfR9N1fSIm83bqaKUibGNwY/dOM8giuY+Dfwn+EXgQXFx8NtG8O2sv+rmutJaOaTH90yAswHtmvJnhFKrzcx7dPH8lHl5dUelaVaNY6baWzNvaGFIy3qQoGauU0dqdXqo8XfUKKKKYjxr9q/8AaMsP2Y/hPc+Kri0/tLUJplstOsc7VmuGViu89QgCkkj0x3r8cPjB+2N8W/jc08XiHxfeRaXKT/xKdNItbULk4UqmC4GcfOSa/Uz/AIKKfs++IPj98DoYPCsZvNe0O/XUodOBAN4oRkeNSf48PuHPJXHevyBs/gV8SNQ1d9Mt/AHiaXUVcxtbjSptwb0OV/rXlYmVTmtHY93AxpcnNLc4dSc9Tins2FyeB619hfCT/glv8XfH0kNx4kWy8C6Y2Gb7e/n3RXIziJDwcdmYV94fAn/gnR8KPgzNDqF1pz+MNdjwwvtbCyRo3qkP3FxjgkEj1rlhhqk3rodtTGUqa3ufmB8A/wBjD4nftDXUcmi6M+l6ESN+uaqrQ2wH+xxukPptBHqRX6kfsv8A7AfgP9m+8j1zdJ4o8WqmF1a/jVRbkjnyYxkJ9SS3vX03b28drEkcMaxRIAqogwqj0AHSpa9OnhoU9Xqzxa2NqVtFohBxS0UV2HnhRRRQAUUUUAFFJXzf+1t+214R/Zh0h7IlNf8AG1xHm00KCTmPI4knYf6tO+PvN2HcRKSirsuMXN8sT0z46fHrwh+z34Jn8SeLdRW3iGUtbOMg3F5LjiOJM/MfU9AOSQK/FP8Aaj/at8WftQ+Lvt+sSHT9AtGYaboUEhMNsvTe39+Q45c/QYFcV8YvjV4v+O3jG48SeMNVk1K/clYox8sNtHnIjiToqj8z1JJ5rh68WviHU0Wx7+Hwqo6y3FpKKWuI9NWCvr79h39hbUf2hdTg8VeKYZtO+HlrKMnlJNVYHmOL0j7M/wCA5yR0P7DP/BP69+MlxaeN/H9rNp/geNhJa6e4KS6sQfzWHjlurdBxk1+t+k6RZaDpttp2m2kVjYWsYigtreMJHGgGAqqOAAK76GHcvflseVi8YoLkp7jPD/h/TvC+i2Wk6TZQ6dptnEsNva26BI4kAwFAHStAilpGr1Oh4Dd9WJRRRSEFFFFABRRRQAUUUUAFFFFABRRRQAUUUUAFFFFABRRRQAUUUUAFFFFABRRRQAUUUUAFFFFABRRRQAUUUUAFLkUlFAHlf7Q37N/g/wDaR8GvoXiey/0hMtY6pAALiykx99G7j1U8MOvqPxU/aQ/Zl8X/ALM/jFtI8RW/n6dOzHT9YgU/Z7xAeoP8LDuh5HuOa/f+uS+KHwr8MfGTwfe+GPFulxarpV0uCj8PG3aSNhyjjswrmrUVU1W53YfFSouz1R/OjRX0z+1/+xD4m/Zk1aTU7Qza94DuJMW2r7RvtyekVwB0b0YcN7HivmbNeRKLi7M+hhOM1zRYoYr0r6C/ZY/bO8ZfsyawkFrI2t+EJpA15oNzIdh9Xhb/AJZye/Q45Br58oohJwd0E4RmmpI/oS+Bf7Qngr9obwqmueEdUS5CgC6sZSFubR/7sidR7HkHsa9Mr+cz4afFLxR8IPFVr4j8JavPo+rW54mhPyyLnJjkXo6HuCDX61fsm/8ABRnwn8bVtPDvjB7fwl41ICKJXxZ3zesTn7rH+4x+hNe1QxKqe7Lc8HEYOVP3oao+yaKQHPSlruPOCiiigAooooAKSlooAb+BpaWigAooooAK+Pf+CoHxi/4Vz+zrceH7WYxar4suBp8ew4YW64eduvTACf8AA6+wWr8V/wDgpj8ZP+FoftIX2kWlwJdH8KxDS4Qp+Vp87p29M7vl/wCA1y4mp7Om/M7cHT9pVXZHyWoDY7V+iX/BK34E2HjbR/iV4l1iHzLG8sX8Mx5XOUmTdcFSR12lB+Jr87lzngZr95v2JvhH/wAKa/Zv8JaPPB5Gp3cH9p364wfPmAYgj1Vdin/drzMLHnqXZ7GOqezp2W7Pw++IPgu9+HPjrxB4W1FPLvNHvprKTPGSjEBvoQAfxrtP2XPixJ8Ffj14P8VecYrS3vFt73/atpTskB/Bs/hX0f8A8FXvg+PB/wAZtK8bWUJSx8U2u25KrhRdwAKT/wACjMZ+qmvhsYPBJGeMg1hJOlU9Dog1XoX7o/pStbiO5t45YmDxyKHRgc5UjINS186fsC/GL/hcX7Nvhu6uZ/P1fSI/7Kv8n5vMiGFY/wC8m0/nX0U1fQxlzRTR8pOLhJpnyT/wUy+LWvfC39n2KLw9fS6Ze67qKabLdW77ZVgKO8gU9QWCgZHOCa/G+x1C60++hvbW6ntr2NxIlxFIVlVwchgw5z71+q3/AAV5Bb4KeED6a+P/AERJX5PDiQH3rxcZJ+0PpMvhH2N7bn7x/sWfErVfix+zX4N8Ra5d/btXlgeC5uD96R45Gj3N/tEKCfc17ea+Wf8Agmgx/wCGQ/Cg9Li9H/kw9fU1exSu6aufP1ko1JJdz8b/APgqf8OR4N/aRGuQR7LbxNp8V4dq4HnR/upPxIVD+NfG27IIBxX63f8ABWv4c/8ACQfBPQvF0UeZ/DupBJSq5PkTjYxPHQMqH8TX5HLXiYiPJUZ9Fg581JH7ffCL45rqX7Bln46nuEN3pvhuaCd1b7txAjRc+5Kqfxr8R7i5mvJpbidi88zGSRj1LMck/mTX1L4A+O/9h/sB/ETwGZQLu41+1gtlY8+TcYkkwPYwN/31Xyu3tRWqc6iLD0vZub7saM1c0fUptF1ax1G2cx3NnPHcRMpwQ6MGUj8QK0Z/Bmq2vguy8VS2+3Rby9lsIJ/700ahnH4Bh+dYi8EVzapnXuj9pP21fjDDJ+wtf+IrORR/wlmn2ltAVb/n5CswH/Ad9fi1X1J8Zvjc/in9if4K+DvtG66s7u/S7TPJS3YJCT/wGX9K+W66K9T2kk0c2Ep+zg4+Z97/APBIn4af238V/FPjW4g32+iWC2dvKRws85+YD32K3/fVfrHXx9/wS3+HbeDP2ZbfVp4fLu/Ed9NqBYjBaIERxn6YQn8a+r/E3iCz8KeHtS1nUJRDY6fbyXU8h7Iilj+gr18PHkpq54eLl7Ss0vQ8N/a6/bC0D9lnw3bmaFNZ8VagrHT9HWTbkDgyykcrGDxnueB3r8i/jF+1N8S/jlqk114l8T3gs5D8mlWUrQWka/3QikZ+rZNc58cvi5qnx0+KWveNNWlZptQnb7PCWJW3tlJEUS56BVx+OTUXwh+EPir44+NLXwv4Q01tQ1OYF2LHbFBGCN0kjnhVGevckAZJAryq9aVaXLHY9jD4eFCHNPc40BVkLglXzncGIP517R8E/wBsD4ofAjU4ZND8R3V9pasPN0jVJGubaRfTDHKcd1IxX1bZ/wDBH3U38OiS4+I1muuFM+TFYM1sGx93fu3Ee+0fSviP42fBfxN8AvH134S8VW8MOoQos0ctvIJIZ4mztkRuuDg8EAgjkVjKNWjZvQ2jUo17wWp+2f7L/wC074b/AGnPA41jRz9j1W02x6npMrZktpCOD/tI2Dhvw6ivZq/DP9gv4w3fwl/aP8NSLMU0nWpl0nUIycKySnCMf919p/P1r9y/Svaw9X2sLvdHg4qiqE7LZn5L/wDBVr4qa5qXxptPBCX88Hh/TNOhuGs45Cscs0u4l3A6kLgDPTn1r5T+B/xc8Q/BT4jaN4k8OXsltPb3KebArYjuIiwDxuvRlYce3Wvcv+Cnn/J2Wuck/wDEvsvw/dV8r6b/AMhC1/67R/8AoQrxqkn7ZvzPpKFOP1ZK3Q/pE0+6F7Y29wAVEsayAHtkA1YrP8P/APID07/r2j/9BFaFfRx1SZ8fLdhRRRTEIaaqj3/On0lABjFLRRQAUUUUAFFFFABRRSUALUN5eQWFrLc3M8dvbwqXkmlcKiKBkkk8AD1rgfjZ8fPBP7P/AIVfXPGWsR2ER4t7OMh7m6b+7FHnLH36DuRX5A/tYft2eMv2lLybSrV5PDHgZX/daLby/PcjPDXLj754ztHyj361zVa8afqdVHDzrPTY+pf2tv8AgqBb6W194T+EMkd3eANDc+KnXdFEehFqp++f+mh+X0B4NfmXrGsX3iDU7nUtTvbjUdRunMs91dSGSSVzyWZick1SorxKlaVTc+ipUIUFaKCkYkUtbHhHwdrfj/xFZ6D4d0y41jWLxxHBZ2qbncn+Q9SeBWSVzbzZkQq88iRxqXdjtCqCSSegAHev0l/Yj/4JuvcfYfHnxasCsQKzaf4XmH3+4kuR6ekffq3HB9k/Yw/4J7aN8DUs/FnjWODXfHW0SRRHD22mn/YH8Ug/v9u3rX2jXp0cOo+9I8bE4zeFLbuNtoI7WGOGGNYoo1CJHGoCqAMAADoKkptFd9zxgooopAFFFFABRRRQAUUUUAFFFFABRRRQAUUUUAFFFFABRRRQAUUUUAFFFFABRRRQAUUUUAFFFFABRRRQAUUUUAFFFFABRRRQAUUUUAUta0TT/Emk3emarZw6hp11GYp7W5jDxyKeoZTwRX5Y/tif8E0dU8EzXvi34T20ureHfmmuvD4Je5s+5MP/AD0jx/D95fcV+rdGN1ZVKcaiszelWlRd4n80zxvC5SRWSRSVZWGCCOCCPrTa/Zj9rz/gnj4Z+PCXXiPwmLfwt432lmkjj22t+wHAmVfut/00HPqDX5H/ABH+GPij4R+KLnw54u0a50XV4DzFOvyyLnh426Op7MCRXkVKMqe59FRrwqq6epy9Ojba2QcGm5B6c0VgdJ9m/st/8FKPGPwZW18P+MxN4y8Ix4jjeWT/AE6zT/Yc/wCsUf3W57A1+qvwj+OHgr45eHU1nwdrlvqtvgebCrbZ7diM7ZYzyp+vB7E1/O7XS/D/AOJHib4W+IIdb8Ka1d6HqcR4mtJCu4f3WHRh7Gu+jipU9Jao86tgoVLyjoz+jiivzs/Zr/4Ksabr0lroXxas49GvGxGniKxQm2Y9MzRjmP8A3lyPYda/QLQfEWl+J9LttT0fUbXVNOuVDw3VpMskcgPcMDg17EKkaivFnh1KU6btJGlRSUtaGQUUUUAFFFFABRRSUAcB8ffiha/Bn4O+K/GN06p/Zdk8kKn+OY/LEv4uyiv56tS1O61rUrvUb2Vp7y8me4nkbq0jsWY/mTX6bf8ABXb4yG10fwv8MrKfD3kn9r6kqnnykJWFD9WLNj/ZFfmCc968TGVOafKuh9FgKfJDn7klvI8E8c0bFZI3Dqw6gg5B/OvXx+178bVH/JU/FP8A4MHrnvBv7P3xM8e6JFq/hzwJres6ZKzLHeWtqzRvtOGwe+Dx9Qa3P+GS/jX/ANEu8Sn6WTVyRjNfCd8nTl8VjnvHnxy+IPxS063sPF/jHWPEllby+fDBqVy0qRyYI3AHocEiuHr1Zv2T/jUvX4XeJ/8AwAevPfFXhXWvA+u3Gi+IdKutF1e3CmaxvYzHLHuAZcqfUEH8amUZbyLg4fDE+2v+CTXxcHhb4ua14FvLjZZ+JLX7Raqx4+0wgnH1Me7/AL5r9aO1fzn/AAw8e3/wt+Ifh3xfpv8Ax+aLexXirkjeqt8ynHZlLD8a/oa8KeJrDxn4Y0nXtLmWfT9StY7u3kUg5R1DDp35r18HPmhy9j5/MafLU5l1Pir/AIK7J/xYvwtJ3XxAg9uYJa/JfceMiv1y/wCCuSg/s8+H37r4jgA/GGb/AAr8j2z6Vw4z+Ierl38A/av/AIJm/wDJovhf/r6vf/Sh6+qK+Wf+CaEZj/ZF8Kk9GuL0j/wJf/CvqavZo/w4nz2I/iy9Tzb9pD4e/wDC1fgT438LJGstxqGlzJbq3/PZVLR/+Pqtfz3y27200kUqlZI2KOD1DA4I/Ov6WDX4F/tjfDRvhP8AtKeOtCWFobOS/bULMEcGCcmRcfQsw/CuDGw0Uj0Mvnq4HjizSLE0QdhEzBimTtJAIBI/E/nTPcnA60Vt+B/C8/jbxlofh62UtNql9BZKF6/vJFQn8M5ry46ux7DfKj9BPiL+z0bH/glj4ZuUtANW0lo/FUxwd22Z28wfhHImf+udfnE3fjFf0Q+OvhxaeKPg7rHgZYwLS60Z9MiXGAB5JRPyOPyr+ebUbGfS765srpDHdW0jQyoequpII/MGuzFQ5HGxwYOp7RS9SBpGaNVLEquSFzwM4z/IVNpml3Ot6laadZoZLu8mS2hVepd2Cr+pFV819F/8E+/hyPiV+1T4Qgli86x0l5NXuARkAQrmPP8A20KVyQi5SSR3TlyxcmftP8MfBVt8Ofh54b8L2ahbfSNPhslx32IFJ/Egn8a8n/b21i50X9kv4hy2rMkktktuWU4IWSREb9Ca9/X7ory/9qDwHJ8TPgB448OQR+bdXemyNbpjJaWMeYgHuWQD8a+jkn7NpHy1OX7xSfc/n4BHTtX0F+zV+11ffsu+G/EkXhrwzp2peJdakj36rqbMyQQIp2xqi4J+YljlgOnBxXz60ZikZH4kU4YHqDW54H8JSeO/FmmaBFqWnaRLfzCFLzVrjyLWNj0LyYO0HpnHUivnItxlpufVVVGUWpbHrfxB/bm+N3xHaQaj47vtPtHyptNHxZR4Pb93hj+JJrxHUdSvdavHu7+8uL+7kPzz3MrSyN9WYk1+inw0/wCCQdxdQw3Xjfx7FEjAP9n0C335H/XWTjp3Cmup+I37PX7IH7LccZ8Zy3mv6yqhk0iXUHuLmX0JhiKADI/iIFdcqVSWs2cMcRRj7tNHwL+zn8Pde+Ivxc8K6foNnJdTf2pbvJKiEpAiyBi7kdAApPviv6BrdWjhjVm3sqgFvU4614l+yb40+E3xA+Hi6r8KtFsNCsI2+z3NjDaRwXEDjnbLtySccg5Oa9xr0cPSVON073PLxdZ1Jaq1j8Xv+CngP/DWWtcf8w6y/wDRZr5Y0z/kJWg/6bR/+hCvqX/gpxJI37WmvK5BC2FmAB2Hlcf596+XNJ/5Cln/ANd4/wD0MV4tT+K/U+mw/wDu8fQ/o50HjQ9PH/TvH/6CKv1R0P8A5Ath/wBe8f8A6CKvV9JHZHxkt2FFFFUIKKKKACiiigAooooASjNGRXgf7RX7anw4/ZytJodX1JdX8SbMw6BprB7hjzjzD92Jc9259AaiU4wV5MqMZTdoo94ubqGzt5J55UhhjUu8kjBVVR1JJ6D3r4T/AGo/+CoXhv4fi78P/DFbfxV4gAZH1dzmwtG9VwczMD2GF45Jr4W/aU/be+In7R1zNaX98ND8Klj5egaa7LEy5485s7pW+uF9FFfPf3vavMq4xvSB7NHApe9U+46b4ifEnxN8VvFF14h8W6zc65q9wfmuLhvur2VFHCqOwAArmcUUV5jbbuz1lZaJBRSM23Ge5x9a+3P2Sf8Agmv4j+L32PxP8RI7vwr4QYrLDp7LsvtQTgg4P+qjI/iI3HPAxzV06cqjsjOpUjTV5M+eP2ff2a/G/wC0h4sj0nwtpzCyjcC91e5UraWi8cs+OWxnCDk1+yn7Mf7Ivgv9mPQPK0e3Go+IriMLfa9dIPPn9VX+5Hnoo/EmvUPh98O/Dvwt8LWfh3wtpVvo+kWq7Y7e3XGT3Zj1Zj3Y8mujr1qdFU15nhV8XKr7q0Qnelopa3scAlFFFMQUUUUAFFFFABRRRQAUUUUAFFFFABRRRQAUUUUAFFFFABRRRQAUUUUAFFFFABRRRQAUUUUAFFFFABRRRQAUUUUAFFFFABRRRQAUUUUAFFFFACg15z8bfgD4K/aC8LPofjHSEv4hk293H8tzav8A34pOqn26HuDXotKtJpSVmVGTi7o/Ez9qT/gn144/Z7lutY0pZfFvglSWGpWkJ860X/p4jGcD/bXK/TpXyt2B6j1Ff0tTRpNGUdQ6MMFTyCPSviX9qT/gmd4U+LBu/EHgFofB/ih90j2qriwu2PPKD/Vsf7y8eo7159XDPeB7NDHX92r95+P9Fdn8Vvg34z+CPiOTQ/GehXGjXqsRHJIuYbgDjdFIPlcfQ1xlee4tbnrRkpK6CvV/gX+0/wDET9nfVFn8Ia9JDp7OGn0e7zLZT+u6M/dOP4lwa8oopxlKLvEUoqSs0fsf+z3/AMFPPh58UmtdJ8ZbfAfiKQbN93JusJn/ANmb+DPo+Pqa+x7K+t9QtYrm1niubaVQ8c0Lh0dT0II4Ir+anrwelez/AAL/AGu/iZ+z7dQr4Z8RTzaQh+fRNSYz2bL3AQn5PqhBr0qWM6TR5VTAc2tNn770V8T/AAE/4KkfDr4jLa6b42jbwHrsmFMs582wkb2lHKZ9HAHvX2bperWOuWEN9p15b39lMu6O4tZVkjceoYHBFelCpGaumeROnOm7SRboopK0MxaRqWkPNID8GP23vGN942/am+IN3eyM4stQbTYEbI8uKH5VUA9Ocn8a8X0nS7vWdTs7Cyiaa8u5kggjUZLuzBVA+pIr9YP2xv8AgnDL8afGV3438Darb6Xrd6ub7Tb1cQTyAAeYjAZVj3zkHGag/Y9/4Jsy/B7xpa+NfiDqNlrGsWB8zTdOsAxgt5e0rswBZh1A6A89hXiSw9R1NVofRxxdKNFWevY+vPgj8OYfhH8JfCfg+35XSNOitnb+/IFzI34uWP413H605RhcUV7KVlY+elJyd2JjPavyz/4K6fCNtN8Z+FPiLaQ4t9StzpN8yj/ltGS0RP1RmH/AK/U6vPvjt8FdA+P/AMNdU8G+IldbS8XfDcxAeZazqDsmTP8AEp/MZHesq1P2kOU3w9X2NRS6H89HUGv2g/4Je+ML7xT+ytplrfLIf7F1C5023kck7oVKugHsok2/8Br5X/4dCePl8SC3HjLQzou7P23y5fN255Hl4xux74r9I/gf8HdD+A/w20jwboCN9isY/nnkA8y4lPLyvjjcx59ulcWGozhNuR6eOr0qkEoO7Plv/grep/4Zx0RscDxHb8/9sZ6/I1XzX79/tPfAOw/aS+EepeDL27bTppZEubO9VN/kXCElGK5GRyQRnoTX5reHv+CTPxdufFqWGranoOmaEr4fVre5adig/uxbQcn3IqcVRnOd4o0wOJp06fLN2PuL/gm1G0f7Ifg7cPvSXjD6fapK+n65D4S/DPSvg78OtB8G6KHOm6PbC3ieU5dzklnY+rMS34119enTi4wSZ4lWXPNyXURq/Mf/AILBfC/yb7wT8QrWD5JFk0e9kVf4v9ZCWP0Eg/Cv05rzz48fBXRf2gPhjq/gvXd0dtepuhuYwN9vMpzHKvup/MZHeprQ9pBxLw9T2VRSex/PMCe9fTv/AATj+H7ePP2qvDErQtJaaIkurTNtyF8tcJn6uyiuy1f/AIJP/Gaz8RPZ2F34e1DTTJhNSe8aIbM/eaPYWB9hmvvT9i/9jPTv2V9Dvrm6vk1vxdqqKl7fxoUijjByIogedueSx5JA4GK8mjh586bWx7OIxNP2b5Xqz6Xx74r8HP24/h6fhr+1F4804ReTbXl8dTtgBhTHcAS8fQsw49K/eSvkv9uL9h+P9p6HT9d0K/h0rxhp8P2YNcAmC6g3Fgj45BBYkN7kelehiKbqQ0PMwdZUqnvbM/Fjd68V+nf/AAR/+F5t9G8a/EG5iG67lj0iyf8A2EG+Uj6lkH/ATXkfgX/gkz8VdU8SxweJ9T0fQNFV/wB5eW05upXXPO2MBeSM4ya/Uz4S/C7Q/g18P9G8IeHYDDpemQ+UhfBeRurSOR1ZiSSfeuTD4eUZ80kduLxMJQ5IO9zsKDS0V654h+NP/BQ39km/+CvxCvPGeh2TSeBdeuGmDwp8lhcuSzwvjorHJU9MZHUV8d7j3HHuK/pJ8Q+H9N8V6LeaRrFhb6npl5GYri0uow8cinqCDXwH8bP+CSmha/qFxqXw38Qt4dMzMx0vUkae3Q+iOPmUexB+teTXwrvzQPcw2MjbkqH546D+0F8TfC+kf2XpHj7xHpunbdi21vqUqoq+ijPA+lcTqWpXerXk15e3U13dzNulnnkLyOfVmPJP1r69uf8AglN8b4bpoo/+EduIs4E66gVB564KZr2P4N/8EjZob6G8+JXieGa3Rgx0zRFb5+fuvKwGB/uisPq9WWjOh4ihH3kzif8Agkna+M1+LGuXGnw3H/CEyWLJqczDELTDHkqD0L8np2JzX6y1z/gXwBoHwz8M2Xh/wzpdvpGlWiBI7e3XA+pPUk+proBXr0qfs4KJ4Ver7afMkfjF/wAFQLZoP2stZZlIE2mWMinHUeWV/mK+VtJXOqWXX/Xxfj861+wf7b/7B8v7S+r2XizwzrFvo/iu0thZyw3ysba7iViy5K8q4LMM4IIOD0zXhvwB/wCCVHiDSvHOma18StX0xtH0+dLj+ytLd5XumUgqruQAqZHOMk9OK8iphqjqtpaHvUcZSjQUW9bH6WaTxpVmOn7lP/QRVumqoVQoGABgYp1e4tFY+be4UUUUxBRSUtABRSZryX41/tVfDL4A2LyeLfE1tDfAZTSbM/aL2T6RKcj6tge9TKSirsqMZSdoo9azXmfxq/aQ+HvwA0n7Z4z8Q2+nyspaHT4z5t3cY/uRL8x+pwPevzf+Pn/BVzxj42jutJ+G+mjwbpUgZP7UuSJtQcZwCv8ABFx/vMP7wr4e1/XtT8Varc6rrOo3WrapcuXnvb2VpZpGPdmYk159TGJaQPSo4GUtamh9pftHf8FR/GnxIW70b4ewyeCNAk+T7duDalMvc7x8sQPouWH96viK8u5764luLmaS4uJnMkk0zl3dj1LMeSfc1FSNXlzqSqO8mexTpQpK0UJRRTo4nmlSNEZ5HYKqIpLMT0AHc+1SbCbq7X4S/Bvxj8cPEyaB4L0O41m+yDNIg2wWyE43yyHhF57nntmvqn9lz/gmL4t+KH2LxB8R2uPBvhh8SLpqrt1G8Q9OD/qVIxyw3ewr9T/hf8I/CPwa8K23h3wfoltoulwjmOBfmlbGC8jHl3OOWPNdtPDuWsjzq+MjT0jqz5m/ZT/4Jw+D/gebTxD4v8jxn43jPmJNJGfsVkcDAhjb7zDH+sYZ5GAtfY6jaoAp38IpK9GMVFWR4dSpKo7yYUUUVRkFFFFABRRRQAUUUUAFFFFABRRRQAUUUUAFFFFABRRRQAUUUUAFFFFABRRRQAUUUUAFFFFABRRRQAUUUUAFFFFABRRRQAUUUUAFFFFABRRRQAUUUUAFFFFABRRRQAUopKKAOW+I3wt8KfFzw5PoPi/Q7TXdLmHMN0mSh/vIw+ZG91INfmj+0l/wSj1zwybrXPhLevr+mjdI2gX8gF3EOuIpDxJj0bDfWv1XpRWcqcZ7o3pV50tmfzZa5oOpeGNVuNL1iwudL1K3bbNaXkRjljPoVPIrO3HNf0EfHL9mH4d/tDaO1n4v0GK4u1UrBqlv+6u7c+qyDkj2bI9q/NH9oL/glv49+Gq3Wq+BZj450KPL/ZY0EeoQp7pnEv8AwDnj7tebUw8oarVHtUsZCpo9GfE9GKlv7K60m9ms762ms7uBiktvcIUkjYdQynkH61DurlsdyY5e/evS/g/+0d8RvgTfifwb4nvNMgLbnsJG820l/wB6Jsr+IwfevM1anFqFJxd0EkpKzP1O+Bv/AAVs0DWvJ074o6G/h+7wF/tjSQ01qx9Wj5dPw3DmvuTwB8UvCXxS0lNT8JeItO1+yYZ8yxuFkK+zKDlT7EV/OZuPY4rW8L+Ltb8E6rHqegave6LqEeCtzp87QuMe6kZ/Gu+njJLSWp51TAwlrDQ/pHor8ePhB/wVU+KHgdobTxdbWXjnTVwGknUW14F9RIg2sf8AeX8a+4fhL/wUg+C/xPjhgvNcbwfqshC/YtdXylLeiyjKH8SK9CGIhU0ueZUwtWnutD6moqpperWOtWcd3p97b39rJ9ye1lWSNvoykg1a3D1roRyC0UlLTAKKKKACiiigAooooAKKKKACiiigAooooAKSlooAKKKKACiiigAooooAKKKKACiiigAoopKAFoopCwHU0ALRXknxU/au+FHwbik/4Sjxtpdpdp/y4W8n2m6J9PKjDMPxAr4t+MH/AAV+jXz7L4ZeEPNbGF1bxESq/VbdDn/vpx7isJ1oQ3Z0U8PVqfCj9J7q5hs7eSe4ljghjBZ5JGCqoHUknoK+YfjZ/wAFF/g/8HRPaW+sHxjrcYbbYaCyzIGBxtebOxec9CenSvyX+L37TvxO+OUzHxh4tvb+03bk0+Ai3tY/pEmB+JyfUmvKgu3gDA+lcE8Y3pA9Onl63qM+vPjf/wAFNPix8VPtNjoFzH4C0OUFPI0olrplyfvXBGQcHHybRxXyZeXlxqF1Lc3c8t1czNvkmmcu7t6ljyahorz51JT3Z6dOnCmrRQUUUH5QSeBWZoFBIAyeBXr3wN/ZR+Jf7Q15GvhPw9L/AGUTiTWr/MFlH/wMj5z7Jk1+mX7Of/BMr4ffCVrXV/F+PHniWPa6m8i22Nu4Ocxw/wARB/ifP0FdNOhOZy1cTTpaN6n55/s8/sN/E39oh7a+0/Tf7A8LyNhtd1RSkZXjJij4aX6jC+9fqP8As3fsI/Df9nXyNRtrL/hI/FajLa7qiBpI27+Sn3Yh9Mt6sa+jY4UgVUjUIijaqqMAAdAKfXpQoxp+p4tXFzq6bIQcUtFLW1jiEooopiCiiigAooooAKKKKACiiigAooooAKKKKACiiigAooooAKKKKACiiigAooooAKKKKACiiigAooooAKKKKACiiigAooooAKKKKACiiigAooooAKKKKACiiigAooooAKKKKACiiigAooooAKD0oooA8i+N37Kvw0/aAsWTxb4chm1Dbti1azHkXkXpiReT9GyPavzu+O3/AASh8a+C0udT+HWpJ4z0xQXGm3AWC/QdcDnZJ+G0n0r9bqKynTjPdHTTxFSnsz+bXxH4Z1jwdrE2la7pd5o2pQnbJa30LRSAj2I6Vmqd3Pav6Ivil8DfAvxq0htO8aeG7HXYcYSS4jAmi90lGHX8DXwH8cv+CRk8P2jUfhV4j81eWGia8QD9I7hR+jgf71cFTDSjrE9anjYS0lofm1RXb/Ez4JePPg3qP2Lxn4W1HQZDwk1xETDJz1SVcow+hriMj1ricWtGejGSkroKPvLtPK+hFFFIo6/wD8XvGvwrvftXhDxTqnh1/wCJLG5ZI29mT7p/EV9afC7/AIKy/EzwoI7fxfpGl+M7NQFMyj7Hd4+qjY3H+yK+HKK1jVnD4WYzoU5/FE/Z/wCGX/BUP4L+Olig1i+vvBV+2A0esW5MAb0Eyblx7nFfT/hP4geGfHdmt14c8QaZrsBXdv0+7jmAHvtJx+Nfzg1c0jWdQ8P3q3mk6hdaVdqciexnaFwfXKkV2xxr+0jgnl8X8Lsf0o5pa/CrwD/wUB+Ovw/8qODxvPrVqnAt9chS7XHpuID/AI7q+i/A3/BYjxDZqkfjDwDY6kO9xo120DdP7jhh+tdccXTe5xTwNWO2p+pNGa+MfBv/AAVb+C/iDy01j+2vDM74B+2WJmjX6tEW/lXuHhD9rr4NeOmSPR/iP4fnmbpDNdrBJ9Nsm05rojVhLZnJKjUjvE9foqjpuuadrEQlsL+2vYz0e3mWQfmCau5rS5nZrcWikopiFopM0UALRRSZoAWikpaACiikoAWikzRkUALRSbh60jSKqkswAHUntQA6krkfFHxe8D+C7eSXXfF+iaSsYy32u/iRh/wEtmvEvGv/AAUc+AvgwSqPGX9vTx8GHRbZ7kk56BsBfxzioc4rdmipzlsj6boyK/O3xt/wWI8MWqsnhLwJqepyZ4n1SdLZP++V3N/KvnP4hf8ABUr40+Lmmi0i50nwnaSAqF0208yUA9/MlLYPuAOlc8sTCOh1RwdWW6sfstf6laaXbtcXl1DaQL96WeQIo/E8V4L8UP28Pgp8KBLHqHjO11e+Rc/YdDBvZTyRjKfKDkd2Ffih42+L3jf4kSNJ4p8W6xrzMclb68d0/wC+M7f0rjlXbwOBXLLGfyo7IZfHebP0p+Kn/BYS5k862+HngdYlwQmo6/Nk/UQxn+b18g/FD9sr4x/F6S4TXfG+owafMNrabpb/AGO22+m2PBYf7xNeL5orjlXqT3Z3ww9OHwxEJLSO7HczHJZuST65p44AptKelYHSLmimZq5o+k3/AIg1KHTtKsrjU9RmOIrSziaWVz6Kigk0crewXK2aOMEkgD3NfX/wT/4Jf/Fb4mSQXfidIfAGiyYYvqA829Zf9mBT8px/fYfTtX6CfAf/AIJ9/CX4Gm3vo9E/4SfxBEP+Qvr2J3Vu5jjI8tPwGR611U8O5bnHVxdOmtHdn5afA39ib4sfHqS3uNH8OyaPoMh51vWla2t9vqikb5P+AjHvX6IfAf8A4Jb/AA3+Gvkaj4zZvH+toA2y8Ty7GJuvyw5+bkfxk/SvtKNFjUADAAwBinNXdToRhqeRVxlSptoitp9hbaXaQ2lnbx2trCuyOGFAiIo6AKOAKtU2iuq+ljgFakooqQCiiigAooooAKKKKACiiigAooooAKKKKACiiigAooooAKKKKACiiigAooooAKKKKACiiigAooooAKKKKACiiigAooooAKKKKACiiigAooooAKKKKACiiigAooooAKKKKACiiigAooooAKKKKACiiigAooooAKKKKACiiigCjrGg6b4i0+Ww1WwtdSsZRiS2u4Vljce6sCDXyd8YP+CYfwh+Ixnu9CtbnwPqsnIl0ls25PP3oWyOp/hK19f0VEoqW5rCrOm7xZ+M/wAWv+CXXxc8Aebc+HFs/HWmpyP7PbybrHvC55P+6TXyl4m8J634L1J9P8QaRe6JfRsVa3v4GhcEdsMBmv6RawPF3gHw34+019P8S6Fp+u2TDaYdQtkmXn03Dg/SuSWFi9j0aePkvjVz+cPPJHeiv2N+Jn/BKv4P+MPOn8ODU/BN6/IGnzma3z/1ykzgeykV8k/Ev/glF8V/Cfmz+F73S/GVouSsccv2W5x/uv8AKT/wKuSeHnHY9Cni6U93Y+KKK7Lx58FviB8L7hofFfgzWtD28eZdWTiI/SQAqfwNcUsgk+6c9+KwcWtzqUlLYfmim0q0rFi1HIgbqM89xmpKKE7CNDR/EWraA6yaXql9pjr0azuZIT/46RXpvhv9rr4z+E9g074leIFjXgR3F156/wDj4NeRUVaqSWzJcIvdH1j4e/4KefHfQ40jn1rTNZA4/wBP01Mn6lCtegaP/wAFfviRa7F1Hwf4b1BR95oXngY/+PMK+DqTArRVp9zF4ek94n6W6T/wWQ/dj+0/hm+/BybTUwR7feQV1mn/APBYjwPIo+3eBdftjxnyZYZP/ZhX5TFuOKTOa1+s1O5lLB0XrY/XS3/4K9fCiQ/vvD3imFfa1ib/ANq1eX/grh8Gm/5hvihR3zp8ef8A0bX4+s3FJVfWqhH1Gkz9hz/wVt+DHGLDxQfX/iXR/wDx2qV1/wAFdvhJCzCHQ/FNwo6N9jiXP4GWvyGoo+t1A+pUj9Y77/gsJ8PIlBtPBviO5OP+Whhj/wDZjXL6l/wWS035hp/wyvWPZrjVEA/IJ/WvzEoqXiqj6jWDorofoVq//BYnxdIuNM+H2jwE/wAV3eyv/wCg4rgdc/4KwfGzUsixtvDWkc8NFYvKR1/vua+M6Kj6xU7miw1JfZPoXxB/wUC+PniDd5vxBurMN/Dp9vFb4+m1c15f4m+OHxF8aBhrnjvxJqYY52z6pNt/75DAfpXFUVDqzfU1VOEdkLMxuJC8haSQ9ZHJZvzNJ6UU1ulZ7mouaB1poz6UooEOopPU9hWt4X8H6/441BLLw5omo6/dscCHTbR7hv8AxwHH40JN7DuluzKpNw9a+rPhv/wTN+OPxAWKa90ay8HWb8+dr10BIB/1xjDtn2bbX1X8NP8AgkF4P0kRXHjjxdqniSdRl7TTY1srfPpuO5yPoRW8aE5HLPFUobs/KlQWkWNAWlf7qKCWb6AcmvdPhN+xF8Z/jE0Muk+DLrTNMlwRqmuZsoAvPzAON7Dj+FTX7MfDH9mL4W/B4I3hPwPpOl3K4/0zyBLcZ9TK+Wz+NeoBce9dccLHqzhnmD2ij86vhD/wSE0TTfIvfiR4suNanHL6Xoam3t+xAMzDzG75wFr7Z+F/wI8A/BjTRZeC/Cum6DHtw81vCDNJ7vK2XY/Umu9pVrqhCMNjzalepU+JhgACgmhqStGzAKKKKQBRRRQAUUUUAFFFFABRRRQAUUUUAFFFFABRRRQAUUUUAFFFFABRRRQAUUUUAFFFFABRRRQAUUUq0AJRStSUAFFFFABRRRQAUUUUAFFFFABRRRQAUUUUAFFFFABRRRQAUUUUAFFFFABRRRQAUUUUAFFFFABRRRQAUUUUAFFFFABRRRQAUUUUAFFFFABRRRQAUUUUAR3FpBeQtFPEk0TDDRyKGU/UGvE/iF+xP8FPiX5smreANKhu5Ot5psf2SbPrujx+te4UopOKlui4zlHWLPgHxx/wSE8Cam0s3hbxVrGhSHlILwLdRD2zw2K8D8X/APBJD4q6Kskuh674f8RoBlYvMktZT7fMpX/x6v1720hFYyw8HqdccZWj1ufgj4v/AGJ/jl4ILnUfhvrFxEv/AC20xFvU+v7osfzFeQa14e1fw3M0WsaTf6VKpwUvbWSEg/8AAgK/pNK8CqWpaHp+tQmG/sre9h/553ESyL+TA1jLCrdM6Y499Yn81okVsbGDZ6Ypd3y57V/QF4h/ZP8Ag34mlkk1L4aeGp5ZDlpF06NGJ+qgV5R4o/4Jo/APXPMmj8LXOkvg4Gm6hLGo/AkisJ4fl6nVDGRl0PxU344NB5r9EfjF/wAE9/hr4Nt7y40vUvEsRhhaRY5L2F1yB7w5/WvkL4jfCLSfCMjCzvL+XG3/AF7xnqCeyCsXTa6nVGrGSueVUm45pL//AEOUqnIA/iqpFePJnIXpms+UvmRczSiqUN08mchR9Kmjlbdjjv8AyJ/pRyspaliiqxuWx0HTP60rXDKM4H3c0crGWKTcPWqa3jtGpwuTjt9amjJkk2528Z4p8oErN6UBvXiu78E/DvT/ABJcW6XVzdoJDz5TIPT1Q+tfVnwf/YV8AeOLi2Gp6p4iKSTeWyw3UCDHP/THParVNmTmlqfC4bJ4pxO0AngV+x/hb/glz8C7WCKe70/W9WcryL3U2x9cIq16x4X/AGH/AIF+EzG1l8NdElkUf6y9hNyTznJ8wkZrWNBy6nLLFRj0PwesbO41SYQ2VvNeTHpHbxmRvyXmvUPB/wCyj8Y/HextH+G+vzQucCe4tDbx/i0mMV+92g+CtA8LQrDo2iafpMSLtVLG1jhUD0woFbQUZNdEcKrXucsse/sxPxo8H/8ABKj42+ImjbVP7B8Lwtgsby+M7gf7sSkZ/GvefA//AAR10eARSeL/AIh3982cvb6LZJbr9A8hc/pX6Pr1p1bRoQXQ5ZYyq9nY+Z/h/wD8E6/gV8P2jlXwZHr95Gci616Z7xv++GOz/wAdr6D8P+F9I8K2Ys9G0uz0m0XpBY26QoPwUAVq0jVuoxitEcsqkpfExtKKSigzFNJRRQAUUUUAFFFFABRRRQAUUUUAFFFFABRRRQAUUUUAFFFFABRRRQAUUUUAFFFFABRRRQAUUUUAFFFFABRRRQAUUUUAFFFFABRRRQAUUUUAf//Z;rounded=1;" vertex="1" parent="1">
          <mxGeometry x="840" y="-10" width="175" height="173.99" as="geometry" />
        </mxCell>
        <mxCell id="qu-cpctD1RH7N4tP-oTS-8" value="&lt;b&gt;&lt;font style=&quot;font-size: 20px;&quot;&gt;Data Source&lt;/font&gt;&lt;/b&gt;" style="text;html=1;align=center;verticalAlign=middle;resizable=0;points=[];autosize=1;strokeColor=none;fillColor=none;" vertex="1" parent="1">
          <mxGeometry x="120" y="10" width="140" height="40" as="geometry" />
        </mxCell>
        <mxCell id="qu-cpctD1RH7N4tP-oTS-15" style="edgeStyle=elbowEdgeStyle;rounded=1;orthogonalLoop=1;jettySize=auto;html=1;exitX=0.5;exitY=1;exitDx=0;exitDy=0;spacingRight=0;" edge="1" parent="1">
          <mxGeometry relative="1" as="geometry">
            <mxPoint x="265" y="110" as="sourcePoint" />
            <mxPoint x="265" y="110" as="targetPoint" />
          </mxGeometry>
        </mxCell>
        <mxCell id="qu-cpctD1RH7N4tP-oTS-24" style="edgeStyle=elbowEdgeStyle;rounded=1;orthogonalLoop=1;jettySize=auto;html=1;" edge="1" parent="1" source="qu-cpctD1RH7N4tP-oTS-17">
          <mxGeometry relative="1" as="geometry">
            <mxPoint x="510" y="160" as="targetPoint" />
          </mxGeometry>
        </mxCell>
        <mxCell id="qu-cpctD1RH7N4tP-oTS-17" value="&lt;font style=&quot;font-size: 15px;&quot;&gt;通义千问&lt;/font&gt;" style="whiteSpace=wrap;html=1;rounded=1;spacingRight=0;" vertex="1" parent="1">
          <mxGeometry x="230" y="80" width="120" height="40" as="geometry" />
        </mxCell>
        <mxCell id="qu-cpctD1RH7N4tP-oTS-25" style="edgeStyle=elbowEdgeStyle;rounded=1;orthogonalLoop=1;jettySize=auto;html=1;exitX=1;exitY=0.5;exitDx=0;exitDy=0;" edge="1" parent="1" source="qu-cpctD1RH7N4tP-oTS-18">
          <mxGeometry relative="1" as="geometry">
            <mxPoint x="510" y="160" as="targetPoint" />
          </mxGeometry>
        </mxCell>
        <mxCell id="qu-cpctD1RH7N4tP-oTS-18" value="&lt;font style=&quot;font-size: 15px;&quot;&gt;星火大模型&lt;/font&gt;" style="whiteSpace=wrap;html=1;rounded=1;spacingRight=0;" vertex="1" parent="1">
          <mxGeometry x="230" y="123.99" width="120" height="40" as="geometry" />
        </mxCell>
        <mxCell id="qu-cpctD1RH7N4tP-oTS-26" style="edgeStyle=elbowEdgeStyle;rounded=1;orthogonalLoop=1;jettySize=auto;html=1;" edge="1" parent="1" source="qu-cpctD1RH7N4tP-oTS-20">
          <mxGeometry relative="1" as="geometry">
            <mxPoint x="510" y="160" as="targetPoint" />
          </mxGeometry>
        </mxCell>
        <mxCell id="qu-cpctD1RH7N4tP-oTS-20" value="&lt;font style=&quot;font-size: 16px;&quot;&gt;智谱大模型&lt;/font&gt;" style="whiteSpace=wrap;html=1;rounded=1;spacingRight=0;" vertex="1" parent="1">
          <mxGeometry x="230" y="168.99" width="120" height="40" as="geometry" />
        </mxCell>
        <mxCell id="qu-cpctD1RH7N4tP-oTS-27" style="edgeStyle=elbowEdgeStyle;rounded=1;orthogonalLoop=1;jettySize=auto;html=1;" edge="1" parent="1" source="qu-cpctD1RH7N4tP-oTS-23">
          <mxGeometry relative="1" as="geometry">
            <mxPoint x="510" y="160" as="targetPoint" />
          </mxGeometry>
        </mxCell>
        <mxCell id="qu-cpctD1RH7N4tP-oTS-23" value="&lt;font style=&quot;font-size: 15px;&quot;&gt;文心一言&lt;/font&gt;" style="whiteSpace=wrap;html=1;rounded=1;spacingRight=0;" vertex="1" parent="1">
          <mxGeometry x="230" y="215" width="120" height="40" as="geometry" />
        </mxCell>
        <mxCell id="qu-cpctD1RH7N4tP-oTS-48" style="edgeStyle=orthogonalEdgeStyle;rounded=1;orthogonalLoop=1;jettySize=auto;html=1;entryX=0.5;entryY=0;entryDx=0;entryDy=0;" edge="1" parent="1" source="qu-cpctD1RH7N4tP-oTS-28" target="qu-cpctD1RH7N4tP-oTS-45">
          <mxGeometry relative="1" as="geometry" />
        </mxCell>
        <mxCell id="qu-cpctD1RH7N4tP-oTS-49" style="edgeStyle=orthogonalEdgeStyle;rounded=1;orthogonalLoop=1;jettySize=auto;html=1;" edge="1" parent="1" source="qu-cpctD1RH7N4tP-oTS-28">
          <mxGeometry relative="1" as="geometry">
            <mxPoint x="600" y="290" as="targetPoint" />
          </mxGeometry>
        </mxCell>
        <mxCell id="qu-cpctD1RH7N4tP-oTS-53" style="edgeStyle=orthogonalEdgeStyle;rounded=1;orthogonalLoop=1;jettySize=auto;html=1;entryX=0.5;entryY=0;entryDx=0;entryDy=0;" edge="1" parent="1" source="qu-cpctD1RH7N4tP-oTS-28" target="qu-cpctD1RH7N4tP-oTS-51">
          <mxGeometry relative="1" as="geometry" />
        </mxCell>
        <mxCell id="qu-cpctD1RH7N4tP-oTS-54" style="edgeStyle=orthogonalEdgeStyle;rounded=1;orthogonalLoop=1;jettySize=auto;html=1;" edge="1" parent="1" source="qu-cpctD1RH7N4tP-oTS-28" target="qu-cpctD1RH7N4tP-oTS-52">
          <mxGeometry relative="1" as="geometry" />
        </mxCell>
        <mxCell id="qu-cpctD1RH7N4tP-oTS-57" style="edgeStyle=orthogonalEdgeStyle;rounded=1;orthogonalLoop=1;jettySize=auto;html=1;" edge="1" parent="1" source="qu-cpctD1RH7N4tP-oTS-28">
          <mxGeometry relative="1" as="geometry">
            <mxPoint x="750" y="280" as="targetPoint" />
            <Array as="points">
              <mxPoint x="630" y="235" />
              <mxPoint x="751" y="235" />
            </Array>
          </mxGeometry>
        </mxCell>
        <mxCell id="qu-cpctD1RH7N4tP-oTS-28" value="&lt;font style=&quot;font-size: 15px;&quot;&gt;微调InternLM2&lt;/font&gt;" style="whiteSpace=wrap;html=1;rounded=1;" vertex="1" parent="1">
          <mxGeometry x="510" y="130" width="240" height="60" as="geometry" />
        </mxCell>
        <mxCell id="qu-cpctD1RH7N4tP-oTS-29" value="&lt;font style=&quot;font-size: 13px;&quot;&gt;Json Form&lt;/font&gt;" style="text;html=1;align=center;verticalAlign=middle;resizable=0;points=[];autosize=1;strokeColor=none;fillColor=none;" vertex="1" parent="1">
          <mxGeometry x="430" y="128.99" width="80" height="30" as="geometry" />
        </mxCell>
        <mxCell id="qu-cpctD1RH7N4tP-oTS-30" value="&lt;font size=&quot;1&quot; style=&quot;&quot;&gt;&lt;b style=&quot;font-size: 20px;&quot;&gt;Fine Tuning&lt;/b&gt;&lt;/font&gt;" style="text;html=1;align=center;verticalAlign=middle;resizable=0;points=[];autosize=1;strokeColor=none;fillColor=none;" vertex="1" parent="1">
          <mxGeometry x="540" y="10" width="140" height="40" as="geometry" />
        </mxCell>
        <mxCell id="qu-cpctD1RH7N4tP-oTS-37" value="&lt;font style=&quot;font-size: 15px;&quot;&gt;7b lora&lt;/font&gt;" style="whiteSpace=wrap;html=1;rounded=1;" vertex="1" parent="1">
          <mxGeometry x="764" y="290" width="60" height="40" as="geometry" />
        </mxCell>
        <mxCell id="qu-cpctD1RH7N4tP-oTS-45" value="&lt;font style=&quot;font-size: 15px;&quot;&gt;20b lora&lt;/font&gt;" style="whiteSpace=wrap;html=1;rounded=1;" vertex="1" parent="1">
          <mxGeometry x="510" y="290" width="60" height="40" as="geometry" />
        </mxCell>
        <mxCell id="qu-cpctD1RH7N4tP-oTS-50" value="&lt;font style=&quot;font-size: 14px;&quot;&gt;1.8b全量&lt;/font&gt;" style="whiteSpace=wrap;html=1;rounded=1;" vertex="1" parent="1">
          <mxGeometry x="570" y="290" width="60" height="40" as="geometry" />
        </mxCell>
        <mxCell id="qu-cpctD1RH7N4tP-oTS-51" value="&lt;font style=&quot;font-size: 14px;&quot;&gt;7b 全量&lt;/font&gt;" style="whiteSpace=wrap;html=1;rounded=1;" vertex="1" parent="1">
          <mxGeometry x="630" y="290" width="70" height="40" as="geometry" />
        </mxCell>
        <mxCell id="qu-cpctD1RH7N4tP-oTS-52" value="&lt;font style=&quot;font-size: 14px;&quot;&gt;7b qlora&lt;/font&gt;" style="whiteSpace=wrap;html=1;rounded=1;" vertex="1" parent="1">
          <mxGeometry x="702" y="290" width="60" height="40" as="geometry" />
        </mxCell>
      </root>
    </mxGraphModel>
  </diagram>
</mxfile>
